<svg xmlns="http://www.w3.org/2000/svg" width="213.195" height="312.49" viewBox="0 0 213.195 312.49">
  <g id="Group_94" data-name="Group 94" transform="translate(0 0)">
    <path id="Path_262" data-name="Path 262" d="M867.337,505.047c-9.328,27.984-47.487-1.7-47.487-1.7l10.176-106c15.264-11.872,31.376-1.7,31.376-1.7Z" transform="translate(-737.799 -334.137)" fill="#e6e6e6"/>
    <path id="Path_263" data-name="Path 263" d="M661.731,464.458l13,.137-3.248,37.48h-9.753Z" transform="translate(-534.197 -199.632)" fill="#ffb8b8"/>
    <path id="Path_264" data-name="Path 264" d="M873.9,695.555h19.206a12.254,12.254,0,0,1,12.24,12.24v.4H873.9Z" transform="translate(-748.852 -396.296)" fill="#2f2e41"/>
    <path id="Path_265" data-name="Path 265" d="M613.721,464.458H599.327l4.639,37.618h9.753Z" transform="translate(-521.435 -199.631)" fill="#ffb8b8"/>
    <path id="Path_266" data-name="Path 266" d="M796.309,708.192v-.4a12.24,12.24,0,0,1,12.24-12.24h19.207v12.638Z" transform="translate(-732.985 -396.296)" fill="#2f2e41"/>
    <path id="Path_267" data-name="Path 267" d="M862.279,656.182l-17.034-99.3L829.463,654.9l-15.99.888-4.264-131.326.321-.072c2.644-.592,64.863-14.258,75.062,5.292l.052.1-8.513,126.846Z" transform="translate(-735.623 -360.231)" fill="#2f2e41"/>
    <circle id="Ellipse_122" data-name="Ellipse 122" cx="19.538" cy="19.538" r="19.538" transform="translate(89.065 11.717)" fill="#ffb8b8"/>
    <path id="Path_268" data-name="Path 268" d="M869.9,513.325c-2.29-.634-3.941-3.264-5.194-8.277-.216-.864-20.5-87.275-3.347-102.932l3.954-10.984,5.411,3.608c1.915.018,21.5.514,23.169,13.064,1.638,12.285,6.1,94.6,1.615,99.715a.969.969,0,0,1-.737.373c-4.543,0-5.922-5.041-6.246-6.647-1.08.447-4.3,2.091-9.585,7.379-3.275,3.275-5.843,4.845-7.965,4.845a4.008,4.008,0,0,1-1.076-.144Z" transform="translate(-744.879 -334.042)" fill="#2f2e41"/>
    <path id="Path_269" data-name="Path 269" d="M815.8,508.625c-5.289-5.289-8.506-6.932-9.585-7.379-.324,1.607-1.7,6.647-6.246,6.647a.969.969,0,0,1-.737-.373c-4.482-5.119-.023-87.43,1.615-99.715,1.674-12.551,21.254-13.047,23.169-13.064l5.411-3.608,3.954,10.984c17.154,15.654-3.13,102.067-3.346,102.932-1.253,5.013-2.9,7.643-5.194,8.277a4,4,0,0,1-1.076.144C821.646,513.469,819.078,511.9,815.8,508.625Z" transform="translate(-733.186 -334.042)" fill="#2f2e41"/>
    <path id="Path_270" data-name="Path 270" d="M862.947,361.781a20.05,20.05,0,0,0-9.711-36.227c-1.8-.18-3.736-.153-5.227-1.175-1.325-.907-2.038-2.481-3.256-3.529a7.1,7.1,0,0,0-5.51-1.389,19.936,19.936,0,0,0-5.539,1.82c-4.332,1.932-8.938,4.309-10.909,8.623a11.9,11.9,0,0,0,1.463,11.668,16.236,16.236,0,0,0,10.355,6.114,25.881,25.881,0,0,0,12.159-1.095c2.579-.811,5.124-1.917,7.826-2.007a10.635,10.635,0,0,1,8.071,17.95" transform="translate(-738.212 -319.366)" fill="#2f2e41"/>
    <path id="Path_271" data-name="Path 271" d="M737.376,509.518a8.592,8.592,0,0,0,8.391-8.789L757.161,481.5l-8.8-8.071-12,18.941a8.592,8.592,0,0,0,1.021,17.143Z" transform="translate(-719.135 -350.873)" fill="#ffb8b8"/>
    <path id="Path_272" data-name="Path 272" d="M902.393,535.9a8.592,8.592,0,0,0,2.506-11.89l-.436-22.343-11.734-2.226-.23,22.423a8.592,8.592,0,0,0,9.895,14.036Z" transform="translate(-751.962 -356.19)" fill="#ffb8b8"/>
    <path id="Path_273" data-name="Path 273" d="M743.959,463.832l-.133-.211.132-.211c17.09-27.444,52.964-61.726,53.324-62.069l.113-.108,4.431-.045,4.79,11.933c-1.491,2.869-41.681,58.954-46.988,62.675a3.661,3.661,0,0,1-2.931.552,7.715,7.715,0,0,1-2.486-1.058C749.314,472.255,744.209,464.229,743.959,463.832Z" transform="translate(-722.252 -336.098)" fill="#2f2e41"/>
    <path id="Path_274" data-name="Path 274" d="M890.2,496.894a3.636,3.636,0,0,1-2.153-1.976c-2.559-5.97,8.408-81.381,8.876-84.589l.089-.607,3.707,2.349.036.16c.109.482,10.908,48.523,7.981,80.446l-.021.228-.208.1c-.446.207-9.441,4.338-15.436,4.338A8.107,8.107,0,0,1,890.2,496.894Z" transform="translate(-751.666 -337.844)" fill="#2f2e41"/>
    <path id="Path_275" data-name="Path 275" d="M929.105,711.778H717.5a.8.8,0,1,1,0-1.591h211.6a.8.8,0,0,1,0,1.591Z" transform="translate(-716.706 -399.288)" fill="#3f3d56"/>
  </g>
</svg>
