<svg xmlns="http://www.w3.org/2000/svg" width="763" height="573" viewBox="0 0 763 573">
  <g id="undraw_Followers_re_6k3g" transform="translate(0)">
    <path id="Path_60" data-name="Path 60" d="M819.494,554.173H212.848a15.581,15.581,0,0,1-15.62-15.506V167.308a11.415,11.415,0,0,1,11.443-11.36h614.8A11.612,11.612,0,0,1,835.114,167.5V538.667a15.581,15.581,0,0,1-15.62,15.506Z" transform="translate(-197.009 -145.793)" fill="#f2f2f2"/>
    <path id="Path_61" data-name="Path 61" d="M801.133,536.577H235.755c-8.288,0-15.03-6.268-15.03-13.973V199.221c0-5.714,5-10.363,11.138-10.363h572.98c6.243,0,11.323,4.726,11.323,10.534V522.6C816.164,530.309,809.421,536.577,801.133,536.577Z" transform="translate(-198.262 -147.775)" fill="#fff"/>
    <path id="Path_62" data-name="Path 62" d="M834.885,168.59H197V160.7a15.633,15.633,0,0,1,15.677-15.553H819.208A15.633,15.633,0,0,1,834.884,160.7Z" transform="translate(-196.996 -145.142)" fill="#3f3d56"/>
    <ellipse id="Ellipse_6" data-name="Ellipse 6" cx="4.055" cy="4.025" rx="4.055" ry="4.025" transform="translate(24.435 7.722)" fill="#fff"/>
    <ellipse id="Ellipse_7" data-name="Ellipse 7" cx="4.055" cy="4.025" rx="4.055" ry="4.025" transform="translate(39.826 7.722)" fill="#fff"/>
    <ellipse id="Ellipse_8" data-name="Ellipse 8" cx="4.055" cy="4.025" rx="4.055" ry="4.025" transform="translate(55.217 7.722)" fill="#fff"/>
    <path id="Path_63" data-name="Path 63" d="M382.859,242.908H282.94a15.088,15.088,0,0,0-15.146,15.037v67.5a15.088,15.088,0,0,0,15.146,15.036h99.918a15.093,15.093,0,0,0,15.146-15.035V257.945a15.093,15.093,0,0,0-15.144-15.037Z" transform="translate(-200.774 -151.029)" fill="#0084ff"/>
    <path id="Path_64" data-name="Path 64" d="M463.793,257.941v67.513a15.092,15.092,0,0,0,15.146,15.036h99.917A15.092,15.092,0,0,0,594,325.453V257.941A15.092,15.092,0,0,0,578.856,242.9H478.939A15.092,15.092,0,0,0,463.793,257.941Z" transform="translate(-211.231 -151.029)" fill="#0084ff"/>
    <path id="Path_65" data-name="Path 65" d="M659.793,257.941v67.513a15.092,15.092,0,0,0,15.146,15.036h99.917A15.092,15.092,0,0,0,790,325.453V257.941A15.092,15.092,0,0,0,774.856,242.9H674.939A15.092,15.092,0,0,0,659.793,257.941Z" transform="translate(-221.689 -151.029)" fill="#e6e6e6"/>
    <path id="Path_66" data-name="Path 66" d="M267.793,416.941v67.513a15.092,15.092,0,0,0,15.146,15.036h99.917A15.092,15.092,0,0,0,398,484.453V416.941A15.092,15.092,0,0,0,382.856,401.9H282.939A15.092,15.092,0,0,0,267.793,416.941Z" transform="translate(-200.774 -160.604)" fill="#e6e6e6"/>
    <path id="Path_67" data-name="Path 67" d="M463.793,416.941v67.513a15.092,15.092,0,0,0,15.146,15.036h99.917A15.092,15.092,0,0,0,594,484.453V416.941A15.092,15.092,0,0,0,578.856,401.9H478.939A15.092,15.092,0,0,0,463.793,416.941Z" transform="translate(-211.231 -160.604)" fill="#e6e6e6"/>
    <path id="Path_68" data-name="Path 68" d="M659.793,416.941v67.513a15.092,15.092,0,0,0,15.146,15.036h99.917A15.092,15.092,0,0,0,790,484.453V416.941A15.092,15.092,0,0,0,774.856,401.9H674.939A15.092,15.092,0,0,0,659.793,416.941Z" transform="translate(-221.689 -160.604)" fill="#0084ff"/>
    <ellipse id="Ellipse_9" data-name="Ellipse 9" cx="20.826" cy="20.675" rx="20.826" ry="20.675" transform="translate(111.297 119.992)" fill="#fff"/>
    <path id="Path_69" data-name="Path 69" d="M366.6,347.661H302.944a31.256,31.256,0,0,1,27.774-16.8h8.1a31.256,31.256,0,0,1,27.775,16.8Z" transform="translate(-202.649 -156.326)" fill="#fff"/>
    <ellipse id="Ellipse_10" data-name="Ellipse 10" cx="20.826" cy="20.675" rx="20.826" ry="20.675" transform="translate(296.84 119.992)" fill="#fff"/>
    <path id="Path_70" data-name="Path 70" d="M562.6,347.661H498.944a31.256,31.256,0,0,1,27.775-16.8h8.1a31.256,31.256,0,0,1,27.775,16.8Z" transform="translate(-213.107 -156.326)" fill="#fff"/>
    <ellipse id="Ellipse_11" data-name="Ellipse 11" cx="20.826" cy="20.675" rx="20.826" ry="20.675" transform="translate(482.382 119.992)" fill="#fff"/>
    <path id="Path_71" data-name="Path 71" d="M758.6,347.661H694.944a31.256,31.256,0,0,1,27.774-16.8h8.1A31.256,31.256,0,0,1,758.6,347.661Z" transform="translate(-223.564 -156.326)" fill="#fff"/>
    <ellipse id="Ellipse_12" data-name="Ellipse 12" cx="20.826" cy="20.675" rx="20.826" ry="20.675" transform="translate(111.297 269.418)" fill="#fff"/>
    <path id="Path_72" data-name="Path 72" d="M366.6,506.661H302.944a31.256,31.256,0,0,1,27.774-16.8h8.1a31.256,31.256,0,0,1,27.775,16.8Z" transform="translate(-202.649 -165.9)" fill="#fff"/>
    <ellipse id="Ellipse_13" data-name="Ellipse 13" cx="20.826" cy="20.675" rx="20.826" ry="20.675" transform="translate(296.84 269.418)" fill="#fff"/>
    <path id="Path_73" data-name="Path 73" d="M562.6,506.661H498.944a31.256,31.256,0,0,1,27.775-16.8h8.1a31.256,31.256,0,0,1,27.775,16.8Z" transform="translate(-213.107 -165.9)" fill="#fff"/>
    <ellipse id="Ellipse_14" data-name="Ellipse 14" cx="20.826" cy="20.675" rx="20.826" ry="20.675" transform="translate(482.382 269.418)" fill="#fff"/>
    <path id="Path_74" data-name="Path 74" d="M758.6,506.661H694.944a31.256,31.256,0,0,1,27.775-16.8h8.1a31.256,31.256,0,0,1,27.775,16.8Z" transform="translate(-223.564 -165.9)" fill="#fff"/>
    <path id="Path_75" data-name="Path 75" d="M988.021,754.738H740.947a.94.94,0,1,1,0-1.88H988.021a.94.94,0,1,1,0,1.88Z" transform="translate(-225.968 -181.738)" fill="#3f3d56"/>
    <path id="Path_76" data-name="Path 76" d="M669.751,594.674h-11.6l-5.522-44.44h17.129Z" transform="translate(-34.82 -33.134)" fill="#a0616a"/>
    <path id="Path_77" data-name="Path 77" d="M648.9,594.018h22.382v13.99H634.813A14.042,14.042,0,0,1,648.9,594.018Z" transform="translate(-33.87 -35.771)" fill="#2f2e41"/>
    <path id="Path_78" data-name="Path 78" d="M715.751,594.674h-11.6l-5.522-44.44h17.129Z" transform="translate(-37.275 -33.134)" fill="#a0616a"/>
    <path id="Path_79" data-name="Path 79" d="M694.9,594.018h22.382v13.99H680.813A14.042,14.042,0,0,1,694.9,594.018Z" transform="translate(-36.324 -35.771)" fill="#2f2e41"/>
    <path id="Path_80" data-name="Path 80" d="M911.674,593.943a10.052,10.052,0,0,1-1.952-15.359l-7.642-107.66,22.012,2.119.6,105.431a10.1,10.1,0,0,1,.409,13.476,10.276,10.276,0,0,1-13.432,1.992Z" transform="translate(-234.616 -164.76)" fill="#a0616a"/>
    <path id="Path_81" data-name="Path 81" d="M865.923,710.037l-12.776-.6a4.242,4.242,0,0,1-4.057-4.194c-3.368-51.612-8.033-106.954-.892-128.334a4.217,4.217,0,0,1,1.461-3.218,4.282,4.282,0,0,1,3.411-1l51.113,7.366a4.215,4.215,0,0,1,3.648,4.154c6.526,25.314,6.821,71.219,6.574,118.914a4.214,4.214,0,0,1-1.236,3.011,4.276,4.276,0,0,1-3.023,1.25H896.371a4.231,4.231,0,0,1-4.208-3.572l-8.5-53.631a3.317,3.317,0,0,0-6.563.12l-6.746,56.013a4.266,4.266,0,0,1-4.23,3.727Q866.025,710.043,865.923,710.037Z" transform="translate(-231.541 -170.886)" fill="#2f2e41"/>
    <path id="Path_82" data-name="Path 82" d="M875.049,576.6c-11.265-6.213-20.066-7.846-24.31-8.266a4.223,4.223,0,0,1-3.772-4.769l12.247-90.267a31.244,31.244,0,0,1,18.33-24.394,30.773,30.773,0,0,1,29.72,2.313q.63.416,1.236.849a31.063,31.063,0,0,1,11.963,32.492c-7.51,30.5-10.09,80.5-10.531,90.218a4.2,4.2,0,0,1-2.762,3.764,42.958,42.958,0,0,1-14.413,2.548A36.3,36.3,0,0,1,875.049,576.6Z" transform="translate(-231.673 -163.267)" fill="#3f3d56"/>
    <path id="Path_83" data-name="Path 83" d="M907.153,506.566a4.2,4.2,0,0,1-1.76-3.2l-1.613-29.017a11.744,11.744,0,0,1,23.048-3.691l7.085,25.943a4.231,4.231,0,0,1-3,5.188l-20.155,5.425a4.269,4.269,0,0,1-3.609-.652Z" transform="translate(-234.705 -164.226)" fill="#3f3d56"/>
    <ellipse id="Ellipse_15" data-name="Ellipse 15" cx="23.251" cy="23.082" rx="23.251" ry="23.082" transform="translate(630.37 227.213)" fill="#a0616a"/>
    <path id="Path_84" data-name="Path 84" d="M797.347,459.242a9.819,9.819,0,0,1,.227,1.541l40.666,23.29,9.884-5.649,10.537,13.695-21.145,14.962-46.393-36.335a9.984,9.984,0,0,1-10.943-2.775,9.807,9.807,0,0,1-1.258-11.143,9.96,9.96,0,0,1,18.426,2.414Z" transform="translate(-227.982 -163.598)" fill="#a0616a"/>
    <path id="Path_85" data-name="Path 85" d="M843.182,482.289a4.194,4.194,0,0,1,1.224-3.433L865.1,458.3a11.8,11.8,0,0,1,15.685-.818,11.594,11.594,0,0,1,2.461,15.4l-14.739,22.547a4.284,4.284,0,0,1-5.892,1.245L845.1,485.394A4.209,4.209,0,0,1,843.182,482.289Z" transform="translate(-231.472 -163.795)" fill="#3f3d56"/>
    <path id="Path_86" data-name="Path 86" d="M902.4,427.6c-4.338,4.587-12.393,2.125-12.958-4.142a7.515,7.515,0,0,1,.01-1.462c.292-2.776,1.907-5.3,1.52-8.227a4.3,4.3,0,0,0-.8-2.02c-3.456-4.595-11.57,2.055-14.832-2.1-2-2.551.351-6.566-1.184-9.417-2.026-3.763-8.026-1.906-11.789-3.967-4.187-2.293-3.936-8.67-1.18-12.549,3.361-4.73,9.254-7.255,15.074-7.618s11.6,1.2,17.032,3.3c6.173,2.388,12.295,5.689,16.094,11.078,4.62,6.553,5.064,15.363,2.754,23.026C910.738,418.163,905.942,423.858,902.4,427.6Z" transform="translate(-232.326 -159.047)" fill="#2f2e41"/>
  </g>
</svg>
