<svg xmlns="http://www.w3.org/2000/svg" width="883.542" height="634.109" viewBox="0 0 883.542 634.109">
  <g id="undraw_Online_learning_re_qw08" transform="translate(0 0)">
    <path id="Path_3" data-name="Path 3" d="M1136.266,696.659H255.277a1.277,1.277,0,0,1,0-2.554h880.989a1.277,1.277,0,1,1,0,2.554Z" transform="translate(-254 -63.313)" fill="#ccc"/>
    <path id="Path_4" data-name="Path 4" d="M990.882,521.7H472.5a8.3,8.3,0,1,0,0,16.6h14.683V736.843a8.3,8.3,0,0,0,16.6,0l.126-198.542H958.324V736.843a8.3,8.3,0,0,0,16.6,0V542.677l2.415-4.376h13.545a8.3,8.3,0,0,0,0-16.6Z" transform="translate(-195.817 -111.033)" fill="#ccc"/>
    <path id="Path_5" data-name="Path 5" d="M732.321,548.819H575.3a11.481,11.481,0,0,1-11.468-11.468V450.9A11.481,11.481,0,0,1,575.3,439.432H732.321A11.481,11.481,0,0,1,743.789,450.9v86.451a11.481,11.481,0,0,1-11.468,11.468Z" transform="translate(-168.241 -133.805)" fill="#3f3d56"/>
    <path id="Path_6" data-name="Path 6" d="M730.406,446.345H573.386a2.648,2.648,0,0,0-2.643,2.643V535.44a2.649,2.649,0,0,0,2.643,2.643h157.02a2.648,2.648,0,0,0,2.643-2.643V448.988A2.648,2.648,0,0,0,730.406,446.345Z" transform="translate(-166.327 -131.892)" fill="#fff"/>
    <path id="Path_7" data-name="Path 7" d="M651.678,494.539s-18.8-4.331-29.136,3.609S635.7,524.137,635.7,524.137Z" transform="translate(-152.717 -118.878)" fill="#2f2e41"/>
    <circle id="Ellipse_1" data-name="Ellipse 1" cx="17.731" cy="17.731" r="17.731" transform="translate(468.759 332.014)" fill="#a0616a"/>
    <path id="Path_8" data-name="Path 8" d="M626.437,455.841a12.637,12.637,0,0,1,11.652-6.2,24.763,24.763,0,0,1,7.042,1.971l11.591,4.521c3,1.17,6.284,2.6,7.586,5.548,1.208,2.733.307,5.889-.606,8.735l-4.337,13.525a41.17,41.17,0,0,0-2.457-8.935,13.833,13.833,0,0,0-6.007-6.849c-3.011-1.544-6.559-1.513-9.939-1.35-4.787.23-9.992.839-13.393,4.216a13.911,13.911,0,0,0-3.53,6.894,41.5,41.5,0,0,0-.74,7.8,64.686,64.686,0,0,1-4.941-10.592,26.206,26.206,0,0,1-1.836-8.573,12.058,12.058,0,0,1,2.764-8.155,7.91,7.91,0,0,1,7.955-2.5Z" transform="translate(-153.658 -130.986)" fill="#2f2e41"/>
    <path id="Path_9" data-name="Path 9" d="M686.105,510.146a3.156,3.156,0,0,0-2.643-2.286,1.107,1.107,0,0,0-.128-.077L656.865,492.95a3.367,3.367,0,0,0-4.5,1.16l-7.239,11.721-10.9-10.9-.173-.173a3.367,3.367,0,0,0-4.311-.377L607.979,509.61c-.038,0-.077.013-.115.013A4.638,4.638,0,0,0,604,513.951l-.562,11.351h86.873Z" transform="translate(-157.279 -119.111)" fill="#0084ff"/>
    <path id="Path_10" data-name="Path 10" d="M747.083,517.2H730.322a1.764,1.764,0,0,0-1.764-1.764h-5.293A1.764,1.764,0,0,0,721.5,517.2h-5.293a1.764,1.764,0,0,0-1.764-1.764h-5.292a1.764,1.764,0,0,0-1.764,1.764h-5.293a1.764,1.764,0,0,0-1.764-1.764h-5.293a1.764,1.764,0,0,0-1.764,1.764h-5.293a1.764,1.764,0,0,0-1.765-1.764h-5.293a1.764,1.764,0,0,0-1.764,1.764h-5.293a1.764,1.764,0,0,0-1.764-1.764h-5.293a1.764,1.764,0,0,0-1.764,1.764h-5.292a1.764,1.764,0,0,0-1.764-1.764h-5.293a1.764,1.764,0,0,0-1.764,1.764h-5.293a1.764,1.764,0,0,0-1.764-1.764h-5.293a1.764,1.764,0,0,0-1.764,1.764h-5.293a1.764,1.764,0,0,0-1.764-1.764h-5.293A1.764,1.764,0,0,0,622.7,517.2h-5.293a1.764,1.764,0,0,0-1.764-1.764H610.35a1.764,1.764,0,0,0-1.764,1.764h-5.293a1.764,1.764,0,0,0-1.764-1.764h-5.293a1.764,1.764,0,0,0-1.764,1.764h-5.293a1.764,1.764,0,0,0-1.764-1.764h-5.292a1.764,1.764,0,0,0-1.764,1.764H563.6a5.293,5.293,0,0,0,0,10.586H747.083a5.293,5.293,0,1,0,0-10.586Z" transform="translate(-169.77 -112.769)" fill="#3f3d56"/>
    <path id="Path_11" data-name="Path 11" d="M564.112,492.742v35.145h-88.05a17.583,17.583,0,1,1,0-35.145Z" transform="translate(-197.571 -119.052)" fill="#f2f2f2"/>
    <path id="Path_12" data-name="Path 12" d="M566.685,527.79a1.353,1.353,0,0,1-1.352,1.352H474.9a18.519,18.519,0,1,1,0-37.037h90.43a1.352,1.352,0,0,1,0,2.7H474.9a15.815,15.815,0,1,0,0,31.63h90.43A1.352,1.352,0,0,1,566.685,527.79Z" transform="translate(-197.981 -119.226)" fill="#0084ff"/>
    <path id="Path_13" data-name="Path 13" d="M561.65,499.209H467.03a.27.27,0,0,1,0-.541h94.62a.27.27,0,1,1,0,.541Z" transform="translate(-195.109 -117.409)" fill="#ccc"/>
    <path id="Path_14" data-name="Path 14" d="M561.65,504.291H467.03a.27.27,0,1,1,0-.541h94.62a.27.27,0,1,1,0,.541Z" transform="translate(-195.109 -116.002)" fill="#ccc"/>
    <path id="Path_15" data-name="Path 15" d="M561.65,509.372H467.03a.27.27,0,0,1,0-.541h94.62a.27.27,0,1,1,0,.541Z" transform="translate(-195.109 -114.596)" fill="#ccc"/>
    <path id="Path_16" data-name="Path 16" d="M561.65,514.454H467.03a.27.27,0,0,1,0-.541h94.62a.27.27,0,1,1,0,.541Z" transform="translate(-195.109 -113.189)" fill="#ccc"/>
    <path id="Path_17" data-name="Path 17" d="M551.112,463.742v35.145h-88.05a17.583,17.583,0,1,1,0-35.145Z" transform="translate(-201.169 -127.079)" fill="#f2f2f2"/>
    <path id="Path_18" data-name="Path 18" d="M553.685,498.79a1.352,1.352,0,0,1-1.352,1.352H461.9a18.519,18.519,0,1,1,0-37.037h90.43a1.352,1.352,0,0,1,0,2.7H461.9a15.815,15.815,0,1,0,0,31.63h90.43A1.352,1.352,0,0,1,553.685,498.79Z" transform="translate(-201.579 -127.253)" fill="#3f3d56"/>
    <path id="Path_19" data-name="Path 19" d="M548.65,470.209H454.03a.27.27,0,0,1,0-.541h94.62a.27.27,0,1,1,0,.541Z" transform="translate(-198.708 -125.436)" fill="#ccc"/>
    <path id="Path_20" data-name="Path 20" d="M548.65,475.291H454.03a.27.27,0,0,1,0-.541h94.62a.27.27,0,1,1,0,.541Z" transform="translate(-198.708 -124.029)" fill="#ccc"/>
    <path id="Path_21" data-name="Path 21" d="M548.65,480.372H454.03a.27.27,0,0,1,0-.541h94.62a.27.27,0,1,1,0,.541Z" transform="translate(-198.708 -122.623)" fill="#ccc"/>
    <path id="Path_22" data-name="Path 22" d="M548.65,485.454H454.03a.27.27,0,0,1,0-.541h94.62a.27.27,0,1,1,0,.541Z" transform="translate(-198.708 -121.216)" fill="#ccc"/>
    <path id="Path_23" data-name="Path 23" d="M635.706,625.855V595.212A5.107,5.107,0,0,0,630.6,590.1H514.41a5.107,5.107,0,0,0-5.107,5.107v30.643Z" transform="translate(-183.333 -92.1)" fill="#ccc"/>
    <rect id="Rectangle_4" data-name="Rectangle 4" width="126.403" height="39.581" transform="translate(325.97 545.246)" fill="#ccc"/>
    <path id="Path_24" data-name="Path 24" d="M509.3,667.1v30.643a5.107,5.107,0,0,0,5.107,5.107H630.6a5.107,5.107,0,0,0,5.107-5.107V667.1Z" transform="translate(-183.333 -70.786)" fill="#ccc"/>
    <circle id="Ellipse_2" data-name="Ellipse 2" cx="3.83" cy="3.83" r="3.83" transform="translate(384.702 513.327)" fill="#fff"/>
    <circle id="Ellipse_3" data-name="Ellipse 3" cx="3.83" cy="3.83" r="3.83" transform="translate(384.702 564.398)" fill="#fff"/>
    <circle id="Ellipse_4" data-name="Ellipse 4" cx="3.83" cy="3.83" r="3.83" transform="translate(384.908 614.389)" fill="#fff"/>
    <path id="Path_25" data-name="Path 25" d="M620.112,562.742v35.145h-88.05a17.583,17.583,0,1,1,0-35.145Z" transform="translate(-182.07 -99.676)" fill="#f2f2f2"/>
    <path id="Path_26" data-name="Path 26" d="M622.685,597.79a1.352,1.352,0,0,1-1.352,1.352H530.9a18.518,18.518,0,1,1,0-37.037h90.43a1.352,1.352,0,1,1,0,2.7H530.9a15.815,15.815,0,1,0,0,31.63h90.43a1.352,1.352,0,0,1,1.352,1.352Z" transform="translate(-182.48 -99.85)" fill="#3f3d56"/>
    <path id="Path_27" data-name="Path 27" d="M617.65,569.209H523.03a.27.27,0,1,1,0-.541h94.62a.27.27,0,1,1,0,.541Z" transform="translate(-179.609 -98.033)" fill="#ccc"/>
    <path id="Path_28" data-name="Path 28" d="M617.65,574.291H523.03a.27.27,0,1,1,0-.541h94.62a.27.27,0,1,1,0,.541Z" transform="translate(-179.609 -96.626)" fill="#ccc"/>
    <path id="Path_29" data-name="Path 29" d="M617.65,579.372H523.03a.27.27,0,1,1,0-.541h94.62a.27.27,0,1,1,0,.541Z" transform="translate(-179.609 -95.22)" fill="#ccc"/>
    <path id="Path_30" data-name="Path 30" d="M617.65,584.454H523.03a.27.27,0,1,1,0-.541h94.62a.27.27,0,1,1,0,.541Z" transform="translate(-179.609 -93.813)" fill="#ccc"/>
    <path id="Path_31" data-name="Path 31" d="M504.11,433.742V209.665a9.614,9.614,0,0,1,9.6-9.6H690.841a9.614,9.614,0,0,1,9.6,9.6V433.742a9.614,9.614,0,0,1-9.6,9.6H513.714a9.614,9.614,0,0,1-9.6-9.6Zm9.6-231.547a7.478,7.478,0,0,0-7.469,7.469V433.742a7.478,7.478,0,0,0,7.469,7.469H690.841a7.478,7.478,0,0,0,7.469-7.469V209.665a7.478,7.478,0,0,0-7.469-7.469Z" transform="translate(-184.771 -200.062)" fill="#e6e6e6"/>
    <path id="Path_32" data-name="Path 32" d="M588.776,291.674V245.665a4.807,4.807,0,0,1,4.8-4.8h38.989a4.807,4.807,0,0,1,4.8,4.8v46.01a4.807,4.807,0,0,1-4.8,4.8H593.578a4.807,4.807,0,0,1-4.8-4.8Z" transform="translate(-161.336 -188.768)" fill="#0084ff"/>
    <path id="Path_33" data-name="Path 33" d="M529.44,308.39V262.379a4.807,4.807,0,0,1,4.8-4.8h38.99a4.807,4.807,0,0,1,4.8,4.8v46.01a4.807,4.807,0,0,1-4.8,4.8h-38.99a4.807,4.807,0,0,1-4.8-4.8Z" transform="translate(-177.76 -184.142)" fill="#ccc"/>
    <path id="Path_34" data-name="Path 34" d="M577.076,359.367V313.358a4.807,4.807,0,0,1,4.8-4.8h38.989a4.807,4.807,0,0,1,4.8,4.8v46.01a4.807,4.807,0,0,1-4.8,4.8H581.878A4.807,4.807,0,0,1,577.076,359.367Z" transform="translate(-164.574 -170.031)" fill="#ff6584"/>
    <path id="Path_35" data-name="Path 35" d="M770.937,513.106H730.82a2.478,2.478,0,0,0-1.1.255L719.6,518.43a1.845,1.845,0,0,0,0,3.4l10.125,5.069a2.481,2.481,0,0,0,1.1.255h40.117a2.106,2.106,0,0,0,2.222-1.954V515.059A2.106,2.106,0,0,0,770.937,513.106Z" transform="translate(-125.436 -113.414)" fill="#3f3d56"/>
    <path id="Path_36" data-name="Path 36" d="M763.517,515.059V525.2a2.106,2.106,0,0,1-2.222,1.954H753.3V513.106H761.3a2.105,2.105,0,0,1,2.222,1.954Z" transform="translate(-115.795 -113.414)" fill="#0084ff"/>
    <path id="Path_37" data-name="Path 37" d="M761.165,453.954a14.048,14.048,0,0,1,19.012,8.829,13.517,13.517,0,0,1,.409,1.832l56.1,27.819,12.983-8.6,16.154,18.6L846,518.527a14.235,14.235,0,0,1-16.983.655L772.1,479.821a13.382,13.382,0,0,1-1.3.473,14.049,14.049,0,0,1-17.889-10.93,13.685,13.685,0,0,1-.208-1.71,14.091,14.091,0,0,1,8.459-13.7Z" transform="translate(-115.967 -137.061)" fill="#ffb8b8"/>
    <path id="Path_38" data-name="Path 38" d="M879.213,587.853h-61.3c0,1.762-63.176,3.192-63.176,3.192a16.426,16.426,0,0,0-2.694,2.554,15.844,15.844,0,0,0-3.7,10.214v2.554a15.966,15.966,0,0,0,15.96,15.96H879.212a15.974,15.974,0,0,0,15.96-15.96v-2.554A15.982,15.982,0,0,0,879.213,587.853Z" transform="translate(-117.169 -99.68)" fill="#3f3d56"/>
    <rect id="Rectangle_5" data-name="Rectangle 5" width="16.598" height="107.251" transform="translate(711.964 629.263) rotate(180)" fill="#3f3d56"/>
    <path id="Path_39" data-name="Path 39" d="M761.617,701.372c0,1.793,25.152.694,56.179.694s56.179,1.1,56.179-.694-25.152-16.015-56.179-16.015S761.617,699.578,761.617,701.372Z" transform="translate(-113.494 -72.692)" fill="#3f3d56"/>
    <path id="Path_40" data-name="Path 40" d="M524.361,496.795H508.709l-7.448-40.6h23.1Z" transform="translate(138.747 119.315)" fill="#ffb8b8"/>
    <path id="Path_41" data-name="Path 41" d="M787.422,704.336l-50.472,0V703.7A19.645,19.645,0,0,1,756.6,684.05h30.828Z" transform="translate(-120.322 -73.053)" fill="#2f2e41"/>
    <path id="Path_42" data-name="Path 42" d="M762.257,699.644l-31.206-69.979a25.646,25.646,0,0,1,11.259-32.921L810,560.448l30.887-2.627,28.492-2.59.205.348c.263.444,6.389,11.025,2.248,22.627-3.141,8.8-11.311,15.675-24.283,20.431-30.279,11.1-65.256,20.591-78.889,24.154a4.406,4.406,0,0,0-2.823,2.247,4.467,4.467,0,0,0-.251,3.574l28.991,65.135a5.745,5.745,0,0,1-4.864,7.7l-21.663,1.577q-.276.026-.549.026A5.742,5.742,0,0,1,762.257,699.644Z" transform="translate(-122.561 -108.71)" fill="#2f2e41"/>
    <path id="Path_43" data-name="Path 43" d="M530.361,496.795H514.709l-7.448-40.6h23.1Z" transform="translate(140.407 119.315)" fill="#ffb8b8"/>
    <path id="Path_44" data-name="Path 44" d="M793.422,704.336l-50.472,0V703.7A19.645,19.645,0,0,1,762.6,684.05h30.828Z" transform="translate(-118.661 -73.053)" fill="#2f2e41"/>
    <path id="Path_45" data-name="Path 45" d="M769.257,702.644l-31.206-69.979a25.646,25.646,0,0,1,11.26-32.921L817,563.448l30.887-2.627,28.491-2.59.206.348c.263.444,6.388,11.025,2.248,22.627-3.141,8.8-11.311,15.675-24.283,20.431-30.278,11.1-65.256,20.591-78.889,24.154a4.407,4.407,0,0,0-2.823,2.247,4.467,4.467,0,0,0-.25,3.574l28.991,65.135a5.746,5.746,0,0,1-4.864,7.7l-21.663,1.577q-.276.026-.549.026A5.742,5.742,0,0,1,769.257,702.644Z" transform="translate(-120.624 -107.879)" fill="#2f2e41"/>
    <path id="Path_46" data-name="Path 46" d="M756.563,523.13a213.869,213.869,0,0,1-30.739-57.369,5.493,5.493,0,0,1,2.594-6.613L773.291,435.1a5.422,5.422,0,0,1,4.757-.193,5.515,5.515,0,0,1,3.143,3.682,130.65,130.65,0,0,0,28.659,53.486,5.514,5.514,0,0,1,1.326,4.656,5.422,5.422,0,0,1-2.8,3.853l-44.874,24.044A5.493,5.493,0,0,1,756.563,523.13Z" transform="translate(-123.483 -142.14)" fill="#ccc"/>
    <path id="Path_47" data-name="Path 47" d="M758.795,520a1.658,1.658,0,0,0,2.071.428l44.874-24.045a1.591,1.591,0,0,0,.833-1.145,1.683,1.683,0,0,0-.415-1.44,134.5,134.5,0,0,1-29.5-55.062,1.684,1.684,0,0,0-.968-1.143,1.592,1.592,0,0,0-1.418.059L729.4,461.694a1.658,1.658,0,0,0-.791,1.963A210.043,210.043,0,0,0,758.795,520Z" transform="translate(-122.653 -141.31)" fill="#fff"/>
    <path id="Path_48" data-name="Path 48" d="M876.255,505.293l-35.143,13.355-8.58-23.834a14.259,14.259,0,0,1,6.387-17.236h0a14.259,14.259,0,0,1,18.21,3.555Z" transform="translate(-94.099 -123.76)" fill="#0084ff"/>
    <path id="Path_49" data-name="Path 49" d="M797.59,599.854a6.383,6.383,0,0,1-2.66-4.531c-4.5-42.019-1.366-74.9,9.583-100.528a31.909,31.909,0,0,1,21.153-18.1l28.408-1.434.147.071a33.2,33.2,0,0,1,18.155,35.224c-9.137,24.085-16.788,49.16-10.953,69.389a6.54,6.54,0,0,1-.618,5.086,6.236,6.236,0,0,1-3.978,2.948l-54.109,12.872a6.338,6.338,0,0,1-5.128-.992Z" transform="translate(-104.823 -130.846)" fill="#0084ff"/>
    <circle id="Ellipse_5" data-name="Ellipse 5" cx="31.359" cy="31.359" r="31.359" transform="translate(708.411 271.08)" fill="#ffb8b8"/>
    <path id="Path_50" data-name="Path 50" d="M771.838,463.725,747.4,474.513a3.834,3.834,0,0,1-5.051-1.957l-.6-1.369a3.835,3.835,0,0,1,1.957-5.051l24.44-10.788a3.835,3.835,0,0,1,5.051,1.957l.6,1.369a3.835,3.835,0,0,1-1.957,5.051Z" transform="translate(-119.085 -136.447)" fill="#ccc"/>
    <path id="Path_51" data-name="Path 51" d="M778.838,476.725,754.4,487.513a3.834,3.834,0,0,1-5.051-1.957l-.6-1.369a3.834,3.834,0,0,1,1.957-5.051l24.44-10.788a3.834,3.834,0,0,1,5.051,1.957l.6,1.369A3.834,3.834,0,0,1,778.838,476.725Z" transform="translate(-117.148 -132.849)" fill="#ccc"/>
    <path id="Path_52" data-name="Path 52" d="M802.846,540.858l-54.486-42.985a13.487,13.487,0,0,1-1.323.39,14.079,14.079,0,0,1-11.258-2.16,13.934,13.934,0,0,1-5.907-9.874,14.046,14.046,0,0,1,27.624-4.853,13.513,13.513,0,0,1,.292,1.854l54.24,31.291,13.5-7.771,14.952,19.576L819.52,541.265a13.97,13.97,0,0,1-16.674-.406Z" transform="translate(-122.307 -132.15)" fill="#ffb8b8"/>
    <path id="Path_53" data-name="Path 53" d="M828.426,529.387l-31.088-21.14,14.61-20.693a14.26,14.26,0,0,1,17.784-4.648h0a14.259,14.259,0,0,1,7.526,16.959Z" transform="translate(-103.607 -129.113)" fill="#0084ff"/>
    <path id="Path_54" data-name="Path 54" d="M831.484,447.115c-8.06,5.516-18.643,11.187-26.875,5.312-5.405-3.857-7.108-11-4.916-17.268,3.942-11.272,14.772-16.235,25.128-20.039,13.463-4.945,28.122-8.879,42.021-5.338s26.182,17,23.673,31.119c-2.018,11.356-12.73,20.805-11.209,32.239,1.53,11.507,14.471,17.563,25.9,19.62s24.208,2.717,32.419,10.923c10.474,10.468,7.858,29.179-2,40.231s-24.728,16.062-39.139,19.468c-19.094,4.513-39.745,6.884-57.88-.6s-32.246-27.648-26.993-46.552c2.219-7.985,7.446-14.733,12.5-21.3s10.167-13.439,12.094-21.5c1.606-6.717.417-14.515-4.037-19.554a5.665,5.665,0,0,1-.759-6.622Z" transform="translate(-103.212 -149.346)" fill="#2f2e41"/>
    <path id="Path_55" data-name="Path 55" d="M382.009,586.558a49.875,49.875,0,0,1-48.162-8.484c-16.869-14.159-22.158-37.485-26.461-59.084L294.657,455.1l26.649,18.349c19.164,13.2,38.76,26.814,52.03,45.928s19.061,45.205,8.4,65.887" transform="translate(-242.746 -129.467)" fill="#e6e6e6"/>
    <path id="Path_56" data-name="Path 56" d="M369.563,646.309c2.7-19.647,5.471-39.545,3.579-59.4-1.68-17.635-7.061-34.86-18.014-48.983a81.489,81.489,0,0,0-20.906-18.945c-2.091-1.319-4.015,1.994-1.933,3.307a77.466,77.466,0,0,1,30.642,36.972c6.671,16.968,7.742,35.465,6.593,53.489-.7,10.9-2.169,21.729-3.653,32.544a1.985,1.985,0,0,0,1.338,2.356,1.927,1.927,0,0,0,2.356-1.338Z" transform="translate(-232.578 -111.871)" fill="#f2f2f2"/>
    <path id="Path_57" data-name="Path 57" d="M364.741,600.027a36.714,36.714,0,0,1-31.99,16.51c-16.194-.769-29.694-12.071-41.847-22.8L254.958,562l23.79-1.138c17.109-.819,34.658-1.582,50.954,3.693s31.324,17.973,34.3,34.84" transform="translate(-253.735 -100.356)" fill="#e6e6e6"/>
    <path id="Path_58" data-name="Path 58" d="M384.519,640.336c-12.982-22.971-28.04-48.5-54.947-56.66a61.313,61.313,0,0,0-23.111-2.386c-2.454.212-1.841,3.994.608,3.783a56.963,56.963,0,0,1,36.882,9.758c10.4,7.079,18.5,16.92,25.35,27.356,4.2,6.392,7.958,13.056,11.719,19.71C382.222,644.023,385.735,642.487,384.519,640.336Z" transform="translate(-239.912 -94.605)" fill="#f2f2f2"/>
    <path id="Path_59" data-name="Path 59" d="M396.7,654.348a27.8,27.8,0,0,0-17.036-23.285v-13.28H357.389v13.7a27.787,27.787,0,0,0-16.108,22.866l-5.237,60.882h65.893Z" transform="translate(-231.291 -84.439)" fill="#f2f2f2"/>
  </g>
</svg>
