<svg xmlns="http://www.w3.org/2000/svg" width="554.886" height="380.996" viewBox="0 0 554.886 380.996">
  <g id="undraw_Team_page_re_cffb" transform="translate(0 -164.75)">
    <path id="Path_91" data-name="Path 91" d="M834.9,328.322H295.524a7.755,7.755,0,0,0-7.748,7.749v365.5a7.755,7.755,0,0,0,7.748,7.749H834.9A7.742,7.742,0,0,0,840.8,706.6a1.806,1.806,0,0,0,.169-.213,7.255,7.255,0,0,0,1.111-1.875,7.559,7.559,0,0,0,.586-2.941v-365.5A7.757,7.757,0,0,0,834.9,328.322Zm5.545,373.247a5.487,5.487,0,0,1-.915,3.039,5.729,5.729,0,0,1-2.1,1.884,5.5,5.5,0,0,1-2.532.613H295.524a5.543,5.543,0,0,1-5.536-5.536v-365.5a5.543,5.543,0,0,1,5.536-5.536H834.9a5.545,5.545,0,0,1,5.545,5.537Z" transform="translate(-287.775 -163.572)" fill="#3f3d56"/>
    <rect id="Rectangle_26" data-name="Rectangle 26" width="552.67" height="2.215" transform="translate(1.104 195.805)" fill="#3f3d56"/>
    <circle id="Ellipse_16" data-name="Ellipse 16" cx="6.645" cy="6.645" r="6.645" transform="translate(13.287 174.718)" fill="#3f3d56"/>
    <circle id="Ellipse_17" data-name="Ellipse 17" cx="6.645" cy="6.645" r="6.645" transform="translate(32.393 174.718)" fill="#3f3d56"/>
    <circle id="Ellipse_18" data-name="Ellipse 18" cx="6.645" cy="6.645" r="6.645" transform="translate(51.498 174.718)" fill="#3f3d56"/>
    <path id="Path_92" data-name="Path 92" d="M563.657,569.4c-6.646-4.326-9.952-14.381-8.323-23.576s7.761-17.115,15.113-20.531a23.681,23.681,0,0,1,22.417,1.594c6.742,4.122,16.277,6.38,19.478,14.628,2.46,6.338-.66,19.209-3.972,25.366-2.862,5.321-8.3,7.755-13.41,8.813a40.289,40.289,0,0,1-32.584-7.518Z" transform="translate(-317.536 -185.282)" fill="#2f2e41"/>
    <path id="Path_93" data-name="Path 93" d="M270.23,486.606l-5.314,9.161-.7,1.208-1.022,1.777H247.526l1.057-1.777,2.737-4.612,6.38-10.77,7.224,2.888Z" transform="translate(-27.575 -53.65)" fill="#ffb8b8"/>
    <path id="Path_94" data-name="Path 94" d="M533.578,638.668l-2.861-1.777-.355-.222,17.959-32.727a12.2,12.2,0,0,1,7.331-5.882,12.062,12.062,0,0,1,6.025-.222A11.862,11.862,0,0,1,565,599.081a11.621,11.621,0,0,1,1.235.782,11.86,11.86,0,0,1,3.643,4.105,12.278,12.278,0,0,1-.373,12.4l-6.922,11.063-5.918,9.464-1.111,1.777H533.578Z" transform="translate(-314.799 -193.565)" fill="#2f2e41"/>
    <circle id="Ellipse_19" data-name="Ellipse 19" cx="21.825" cy="21.825" r="21.825" transform="translate(243.093 352.083)" fill="#ffb8b8"/>
    <path id="Path_95" data-name="Path 95" d="M604.282,638.335h-49.06l.222-.631q-.187-.573-.347-1.146c-.115-.4-.213-.809-.3-1.208a26.831,26.831,0,0,1,.009-11.285c2.71-13.311,13.525-24.126,13.525-24.126.187-.142.373-.275.56-.409a24.69,24.69,0,0,1,5.2-2.915c8.033-3.332,16.457-1.99,22.117-.267a44.139,44.139,0,0,1,5.767,2.195c.657.311,1.013.506,1.013.506l.56,17.07.675,20.438Z" transform="translate(-317.455 -193.232)" fill="#0084ff"/>
    <path id="Path_96" data-name="Path 96" d="M632.243,636.284l-3.75-19.069-3.785-19.229a4.015,4.015,0,0,0-3.244-3.172l-7.926-1.368-7.375-1.271a3.963,3.963,0,0,0-3.83,1.466,3.92,3.92,0,0,0-.862,2.435,4.016,4.016,0,0,0,.329,1.591c3.848,8.975,3.919,23.184,2.941,38.619-.044.586-.08,1.182-.125,1.777H632.6Z" transform="translate(-322.721 -192.959)" fill="#2f2e41"/>
    <path id="Path_97" data-name="Path 97" d="M572.149,596.491a4.023,4.023,0,0,0-6.353-2.2l-3.4,3.092-13.933,12.689a3.861,3.861,0,0,0-1,1.413c-1.573,3.759-4.638,11.179-8.2,20.34q-.866,2.239-1.786,4.612c-.214.586-.444,1.182-.676,1.777h22.962c.187-.6.373-1.191.56-1.777,1.022-3.226,2.017-6.389,2.977-9.464,2.808-8.93,5.34-17.043,7.3-23.459q.813-2.666,1.484-4.923a4.024,4.024,0,0,0,.071-2.1Z" transform="translate(-315.517 -193.108)" fill="#2f2e41"/>
    <path id="Path_98" data-name="Path 98" d="M351.722,498.194h1.484l-.2-.5-.542-1.28L344.1,476.574l-1.28.773-10.272,6.211,5.269,12.858.729,1.777h13.178Z" transform="translate(-37.046 -53.091)" fill="#ffb8b8"/>
    <path id="Path_99" data-name="Path 99" d="M629.382,600.791A12.281,12.281,0,0,0,614,593.531a11.014,11.014,0,0,0-1.129.444,12.126,12.126,0,0,0-5.172,4.381,11.727,11.727,0,0,0-1.271,2.461,12.211,12.211,0,0,0,.276,9.393l2.568,5.723,9.188,20.438.8,1.777h18.6l1.279-.5,3.324-1.28.462-.178Z" transform="translate(-323.184 -193.045)" fill="#2f2e41"/>
    <path id="Path_100" data-name="Path 100" d="M603.864,533.914a3.611,3.611,0,0,0,4.107-1.559,5.2,5.2,0,0,0,.3-4.57,9.539,9.539,0,0,0-2.839-3.745,11.025,11.025,0,0,0-4.992-2.584,6.63,6.63,0,0,0-5.378,1.182,4.778,4.778,0,0,0-1.623,5.085,7.047,7.047,0,0,0,3.624,3.555,24.076,24.076,0,0,0,9.808,2.788Z" transform="translate(-321.805 -185.071)" fill="#2f2e41"/>
    <path id="Path_101" data-name="Path 101" d="M604.909,559.836c-3.509.484-3.058-1.3-4.464-4.553s-3.286-7.111-6.813-7.44c-2.89-.27-5.271,2.041-7.613,3.756-4.173,3.058-9.8,4.555-14.635,2.72s-8.2-7.6-6.363-12.437a10.612,10.612,0,0,1,6.137-5.8,21.351,21.351,0,0,1,8.551-1.188,44.114,44.114,0,0,1,18.54,4.746c3.974,2.019,7.843,4.908,9.35,9.1s2.5,10.09-1.811,11.225Z" transform="translate(-318.604 -186.579)" fill="#2f2e41"/>
    <path id="Path_102" data-name="Path 102" d="M602.962,521.126c-1.734-3.019-.3-7.161,2.535-9.178s6.644-2.215,10.031-1.406a19.7,19.7,0,0,1,14.129,13.695c1.437,5.279.583,10.95,1.8,16.284a21.37,21.37,0,0,0,26.856,15.751c3.645-1.07,7.349-3.673,7.708-7.455a20.9,20.9,0,0,1-12.376,20.926c-4.7,1.959-9.935,2.087-15.022,1.956-3.315-.085-6.706-.285-9.764-1.567a17.476,17.476,0,0,1-9.182-9.956,27.661,27.661,0,0,1-1.222-13.716c.5-3.58,1.5-7.088,1.775-10.692s-.25-7.451-2.471-10.3-6.465-4.307-9.624-2.55c-1.269.706-2.293,1.86-3.673,2.315s-3.334-.345-3.208-1.792Z" transform="translate(-322.696 -183.822)" fill="#2f2e41"/>
    <path id="Path_103" data-name="Path 103" d="M770.781,636.256l.169-1.777,5.012-52.143a31.92,31.92,0,0,1,5.27-3.35c10.317-5.2,20.269-2.71,25.654-.56a28.068,28.068,0,0,1,4.123,2.017l2.933,54.036.1,1.777Z" transform="translate(-341.582 -191.153)" fill="#0084ff"/>
    <circle id="Ellipse_20" data-name="Ellipse 20" cx="21.825" cy="21.825" r="21.825" transform="translate(430.844 333.655)" fill="#ffb8b8"/>
    <path id="Path_104" data-name="Path 104" d="M811.409,551.895a11.88,11.88,0,0,0-9.015-20.05c-3.018.1-5.862,1.336-8.742,2.242a28.909,28.909,0,0,1-13.582,1.223A18.136,18.136,0,0,1,768.5,528.48a13.29,13.29,0,0,1-1.635-13.033c2.2-4.819,7.347-7.475,12.186-9.632a22.272,22.272,0,0,1,6.187-2.033,7.934,7.934,0,0,1,6.155,1.552c1.36,1.17,2.157,2.928,3.637,3.941,1.666,1.141,3.83,1.111,5.839,1.312a22.4,22.4,0,0,1,10.848,40.467Z" transform="translate(-341.031 -183.107)" fill="#2f2e41"/>
    <path id="Path_105" data-name="Path 105" d="M780.623,588.175l-3.252-9.028-.2-.563a1.87,1.87,0,0,0-2.8-.921l-3.692,2.461s-23.681,0-25.583,14.209c-.026.222-.062.471-.089.738a.141.141,0,0,1-.009.036c-.24.933-4.709,18.207-8.548,39.534-.106.586-.213,1.182-.32,1.777H787.59C789.265,614.994,788.327,595.075,780.623,588.175Z" transform="translate(-337.722 -191.314)" fill="#2f2e41"/>
    <path id="Path_106" data-name="Path 106" d="M849,634.64c-2.808-21.877-6.824-39.569-6.824-39.569-.036-.267-.071-.515-.1-.738-1.893-14.209-25.574-14.209-25.574-14.209l-3.69-2.46a1.87,1.87,0,0,0-2.8.923l-3.456,9.588c-7.7,6.9-8.641,26.818-6.967,48.241h49.628C849.15,635.822,849.07,635.226,849,634.64Z" transform="translate(-344.714 -191.314)" fill="#2f2e41"/>
    <path id="Path_107" data-name="Path 107" d="M383.726,585.645l-5.278,49.815-.187,1.777h-14.28c.169-.578.338-1.173.515-1.777,4.052-13.9,9.57-34.184,8.974-39.561-.933-8.388,5.6-11.187,5.6-11.187l.409.08Z" transform="translate(-296.265 -192.134)" fill="#0084ff"/>
    <circle id="Ellipse_21" data-name="Ellipse 21" cx="21.825" cy="21.825" r="21.825" transform="translate(88.666 334.485)" fill="#a0616a"/>
    <path id="Path_108" data-name="Path 108" d="M436.205,625.745a35.783,35.783,0,0,0-2.692,6.362c-.258.782-.506,1.6-.738,2.435-.169.578-.32,1.173-.471,1.777H374.741c.08-.586.151-1.182.231-1.777,2.941-23.237,5.323-46.82,5.7-50.668.036-.364.053-.551.053-.551,34.5-18.181,59.669,5.6,59.669,5.6s.036.169.089.5C441.039,592.743,443.847,612.15,436.205,625.745Z" transform="translate(-297.463 -191.217)" fill="#0084ff"/>
    <path id="Path_109" data-name="Path 109" d="M440.4,633.722l-3.839-8.228.933-32.629,9.881-1.831.347-.062a26.165,26.165,0,0,1,11.214,13.08c1.919,4.8,5.572,19.229,8.655,32.105.142.6.284,1.191.427,1.777H442.364l-.827-1.777Z" transform="translate(-304.35 -192.832)" fill="#0084ff"/>
    <path id="Path_110" data-name="Path 110" d="M463.29,478.822h-126.2a10.222,10.222,0,0,0-10.21,10.21v126.2a10.222,10.222,0,0,0,10.21,10.21h126.2a10.216,10.216,0,0,0,10.21-10.21v-126.2a10.216,10.216,0,0,0-10.21-10.21Zm8.433,136.409a8.44,8.44,0,0,1-8.433,8.433h-126.2a8.446,8.446,0,0,1-8.433-8.433v-126.2a8.446,8.446,0,0,1,8.433-8.433h126.2a8.44,8.44,0,0,1,8.433,8.433Zm-97.408,8.433-.187,1.777h52.845c.151-.6.3-1.2.471-1.777Z" transform="translate(-292.132 -180.338)" fill="#3f3d56"/>
    <path id="Path_111" data-name="Path 111" d="M653.9,478.822H527.7a10.222,10.222,0,0,0-10.21,10.21v126.2a10.223,10.223,0,0,0,10.21,10.21H653.9a10.217,10.217,0,0,0,10.21-10.21v-126.2a10.217,10.217,0,0,0-10.21-10.21Zm8.433,136.409a8.44,8.44,0,0,1-8.433,8.433H527.7a8.446,8.446,0,0,1-8.433-8.433v-126.2A8.446,8.446,0,0,1,527.7,480.6H653.9a8.44,8.44,0,0,1,8.433,8.433Zm-111.324,8.433q.16.573.347,1.146l-.222.631h44.128c.045-.6.08-1.191.125-1.777Z" transform="translate(-313.366 -180.338)" fill="#3f3d56"/>
    <path id="Path_112" data-name="Path 112" d="M844.52,478.822h-126.2a10.216,10.216,0,0,0-10.21,10.21v126.2a10.216,10.216,0,0,0,10.21,10.21h126.2a10.222,10.222,0,0,0,10.21-10.21v-126.2a10.222,10.222,0,0,0-10.21-10.21Zm8.433,136.409a8.445,8.445,0,0,1-8.433,8.433h-126.2a8.44,8.44,0,0,1-8.433-8.433v-126.2a8.44,8.44,0,0,1,8.433-8.433h126.2a8.445,8.445,0,0,1,8.433,8.433ZM784.6,623.664c-.044.586-.089,1.182-.133,1.777h38.29c.071-.586.151-1.182.222-1.777Z" transform="translate(-334.601 -180.338)" fill="#3f3d56"/>
    <path id="Path_113" data-name="Path 113" d="M727.342,700.04H434.1a7.109,7.109,0,0,1,0-14.218H727.342a7.109,7.109,0,1,1,0,14.218Z" transform="translate(-303.284 -203.398)" fill="#ccc"/>
    <path id="Path_114" data-name="Path 114" d="M655.452,435.04H526.6a7.109,7.109,0,1,1,0-14.218H655.452a7.109,7.109,0,0,1,0,14.218Z" transform="translate(-313.589 -173.877)" fill="#0084ff"/>
    <path id="Path_115" data-name="Path 115" d="M418.969,559.089a4.312,4.312,0,0,0,5.639.361c5.144-3.813,9.659-8.559,12.332-14.348,3.062-6.633,3.4-14.773-.288-21.078-3.121-5.33-8.632-8.769-14.125-11.593a25.123,25.123,0,0,0-6.819-2.628,9.718,9.718,0,0,0-7.066,1.14,6.1,6.1,0,0,0-2.755,6.3,22.967,22.967,0,0,0-9.8-6.581,12.678,12.678,0,0,0-7.487-.543c-3.486.989-6.03,4.086-7.422,7.431a14.861,14.861,0,0,0-1.122,8.108,9.9,9.9,0,0,0,4.328,6.784c2.882,1.783,6.558,1.654,9.868.926s6.513-2,9.887-2.316,7.13.521,9.184,3.217c1.446,1.9,1.817,4.379,2.142,6.744l1.688,12.3a15,15,0,0,0,1.342,5.138,2.961,2.961,0,0,0,.478.638Z" transform="translate(-298.038 -183.764)" fill="#2f2e41"/>
  </g>
</svg>
