<svg xmlns="http://www.w3.org/2000/svg" width="914.056" height="682.737" viewBox="0 0 914.056 682.737">
  <g id="Group_47" data-name="Group 47" transform="translate(-100 -419)">
    <g id="Group_44" data-name="Group 44" transform="translate(182.122 674.236)">
      <path id="Path_184" data-name="Path 184" d="M966.9,608.3H274.318a1.818,1.818,0,1,1,0-3.636H966.9a1.818,1.818,0,1,1,0,3.636Z" transform="translate(-272.5 -272.005)" fill="#3f3d56"/>
      <circle id="Ellipse_44" data-name="Ellipse 44" cx="49.08" cy="49.08" r="49.08" transform="translate(312.767)" fill="#2f2e41"/>
      <path id="Path_185" data-name="Path 185" d="M173.99,395.855l-1.3-22.246L257.883,358l1.92,32.837Z" transform="translate(141.224 -31.704)" fill="#ffb8b8"/>
      <path id="Path_186" data-name="Path 186" d="M27.061,0h42.98V27.061H0A27.061,27.061,0,0,1,27.061,0Z" transform="translate(317.754 298.624) rotate(86.655)" fill="#2f2e41"/>
      <path id="Path_187" data-name="Path 187" d="M233.06,403.269l-14.151,17.216L145.768,374.1l20.885-25.409Z" transform="translate(119.208 -39.322)" fill="#ffb8b8"/>
      <path id="Path_188" data-name="Path 188" d="M27.061,0h42.98V27.061H0A27.061,27.061,0,0,1,27.061,0Z" transform="matrix(0.635, -0.773, 0.773, 0.635, 305.911, 410.318)" fill="#2f2e41"/>
      <path id="Path_189" data-name="Path 189" d="M448.309,580.423l-9.67,45.588a7.271,7.271,0,0,0,7,8.779l95.067,1.533a7.271,7.271,0,0,0,7.278-8.534l-8.316-47.122a7.271,7.271,0,0,0-7.161-6.008H455.422A7.271,7.271,0,0,0,448.309,580.423Z" transform="translate(-136.763 -296.539)" fill="#2f2e41"/>
      <path id="Path_190" data-name="Path 190" d="M504.734,603s-92.707-58.169-110.885-27.267c-9.089,15.451-4.544,30.448,2.272,41.582A62.951,62.951,0,0,0,422.3,640.746l75.161,36.781,27.267-29.085-18.178-16.36Z" transform="translate(-177.425 -303.062)" fill="#2f2e41"/>
      <path id="Path_191" data-name="Path 191" d="M490.008,585.757s119.974-34.538,96.343,30.9-112.7,39.991-112.7,39.991l-9.089-27.267,30.9-21.813Z" transform="translate(-115.436 -294.911)" fill="#2f2e41"/>
      <circle id="Ellipse_45" data-name="Ellipse 45" cx="44.647" cy="44.647" r="44.647" transform="translate(317.817 15.64)" fill="#ffb8b8"/>
      <path id="Path_192" data-name="Path 192" d="M509.833,666.412a239.943,239.943,0,0,1-55-7.246l-.532-.146-24.914-114.6a42.218,42.218,0,0,1,27.145-48.977,146.258,146.258,0,0,1,93.252-1.862h0a42.663,42.663,0,0,1,28.421,50.47L550.377,658.924l-.392.186C538.419,664.588,523.959,666.412,509.833,666.412Z" transform="translate(-145.03 -368.351)" fill="#ccc"/>
      <path id="Path_193" data-name="Path 193" d="M455.282,614.027A18.279,18.279,0,0,1,481.6,604.37l49.056-42.581,4.438,33.463-47.265,35.305a18.378,18.378,0,0,1-32.543-16.531Z" transform="translate(-123.946 -307.064)" fill="#ffb8b8"/>
      <path id="Path_194" data-name="Path 194" d="M486.872,680.914a8.238,8.238,0,0,1-2.357-.346,8.094,8.094,0,0,1-5.385-5.12l-5.921-16.776a8.129,8.129,0,0,1,2.367-8.911l66.838-40.126-26.347-117.54.67-.162c.272-.067,27.267-6.211,38.329,23.287,7.746,20.659,36.413,65.581,34.391,95.936a27.057,27.057,0,0,1-22.4,24.954l-75.235,43.105a8.1,8.1,0,0,1-4.952,1.7Z" transform="translate(-108.75 -364.662)" fill="#ccc"/>
      <path id="Path_195" data-name="Path 195" d="M520.54,611.834a18.279,18.279,0,0,0-26.313-9.657L445.171,559.6l-4.438,33.463L488,628.365a18.378,18.378,0,0,0,32.543-16.531Z" transform="translate(-134.921 -308.858)" fill="#ffb8b8"/>
      <path id="Path_196" data-name="Path 196" d="M510.249,680.914a8.1,8.1,0,0,1-4.951-1.7l-80.688-39.47a27.057,27.057,0,0,1-22.4-24.954c-2.022-30.356,32.1-78.912,39.844-99.572,11.061-29.5,38.056-23.356,38.329-23.287l.67.162-31.8,121.176,72.291,36.491a8.129,8.129,0,0,1,2.367,8.911l-5.921,16.776a8.094,8.094,0,0,1-5.385,5.12A8.243,8.243,0,0,1,510.249,680.914Z" transform="translate(-166.494 -364.663)" fill="#ccc"/>
      <path id="Path_197" data-name="Path 197" d="M593.067,657.181H431.284a12.739,12.739,0,0,1-12.725-12.724V555.385a12.739,12.739,0,0,1,12.724-12.725H593.067a12.739,12.739,0,0,1,12.725,12.725v89.072A12.739,12.739,0,0,1,593.067,657.181Z" transform="translate(-153.055 -322.708)" fill="#0084ff"/>
      <circle id="Ellipse_46" data-name="Ellipse 46" cx="10.907" cy="10.907" r="10.907" transform="translate(348.214 266.306)" fill="#fff"/>
      <path id="Path_198" data-name="Path 198" d="M447.446,475.936c-2.646-6.712,1.7-14.71,8.136-17.962s14.212-2.633,21.1-.49c5.789,1.8,11.215,4.591,16.863,6.8a37.739,37.739,0,0,0,17.729,3.157c6.025-.68,12.021-4.059,14.486-9.6,2.555-5.742.817-12.748-3.118-17.649a34.174,34.174,0,0,0-15.654-10.061c-13.283-4.68-28.627-4.817-40.959,1.986s-20.713,21.287-18.164,35.138" transform="translate(-130.076 -417.466)" fill="#2f2e41"/>
      <path id="Path_199" data-name="Path 199" d="M306.38,635.521A221.847,221.847,0,0,1,324.742,565.5q4.144-9.257,9.122-18.107a1.352,1.352,0,0,0-2.333-1.364A224.914,224.914,0,0,0,306.5,615.077q-1.879,10.15-2.824,20.443c-.16,1.731,2.543,1.72,2.7,0Z" transform="translate(-247.008 -320.464)" fill="#e6e6e6"/>
      <circle id="Ellipse_47" data-name="Ellipse 47" cx="17.113" cy="17.113" r="17.113" transform="translate(76.287 197.04)" fill="#0084ff"/>
      <path id="Path_200" data-name="Path 200" d="M306.916,621.531a143.923,143.923,0,0,1,11.911-45.423q2.688-6.005,5.918-11.747a.877.877,0,0,0-1.514-.885,145.913,145.913,0,0,0-16.236,44.792q-1.219,6.584-1.832,13.262C305.059,622.653,306.812,622.646,306.916,621.531Z" transform="translate(-245.792 -306.019)" fill="#e6e6e6"/>
      <circle id="Ellipse_48" data-name="Ellipse 48" cx="11.102" cy="11.102" r="11.102" transform="translate(72.097 238.949)" fill="#0084ff"/>
      <path id="Path_201" data-name="Path 201" d="M315.186,620.193a143.922,143.922,0,0,1-18.546-43.141q-1.574-6.389-2.559-12.9a.877.877,0,0,0-1.738.234,145.912,145.912,0,0,0,14.748,45.3q3.089,5.942,6.712,11.584C314.413,622.221,315.791,621.137,315.186,620.193Z" transform="translate(-256.275 -305.731)" fill="#e6e6e6"/>
      <circle id="Ellipse_49" data-name="Ellipse 49" cx="11.102" cy="11.102" r="11.102" transform="translate(24.953 238.169)" fill="#0084ff"/>
      <path id="Path_202" data-name="Path 202" d="M286.159,613.55V591.736a8.189,8.189,0,0,1,8.18-8.18h50.9a8.189,8.189,0,0,1,8.18,8.18V613.55a8.189,8.189,0,0,1-8.18,8.18h-50.9a8.189,8.189,0,0,1-8.18-8.18Z" transform="translate(-261.33 -289.263)" fill="#f2f2f2"/>
      <path id="Path_203" data-name="Path 203" d="M606.387,624.349c0,11.956-9.692,17.39-21.648,17.39s-21.648-5.434-21.648-17.39,4.811-25.905,21.647-21.1C601.575,596.039,606.387,612.394,606.387,624.349Z" transform="translate(-34.857 -274.605)" fill="#ff6584"/>
      <path id="Path_204" data-name="Path 204" d="M578.9,618.821a3.461,3.461,0,0,1-3.438-3.016c-.717-5.965-4.667-17.647-6.333-22.392v0a3.1,3.1,0,0,1,.4-2.847,3.248,3.248,0,0,1,4.842-.35,3.1,3.1,0,0,1,.851,2.32c-.326,6.091,4.114,15.932,6.789,21.258a3.468,3.468,0,0,1-2.745,5.01,3.2,3.2,0,0,1-.367.02Z" transform="translate(-30.07 -284.572)" fill="#3f3d56"/>
      <path id="Path_205" data-name="Path 205" d="M591.257,605.625c7.515-6.15,1.619-18.737-7.786-16.321a7.6,7.6,0,0,0-3.388,1.807c-5.769,5.45-6.663,19.394-6.663,19.394S583.607,611.886,591.257,605.625Z" transform="translate(-26.411 -284.811)" fill="#3f3d56"/>
    </g>
    <path id="Path_206" data-name="Path 206" d="M626.143,195.957C567.987,193.935,512.6,175.164,459.7,154.622s-105.278-43.3-162.042-54.14c-36.509-7-78.258-7.988-107.677,11.583-28.305,18.87-37.453,51.354-42.377,81.519-3.693,22.707-5.877,46.592,4.268,67.843,7.036,14.755,19.535,27.155,28.18,41.29,30.067,49.171,8.815,109.807-23.776,157.818C141,483.054,123.26,504.566,111.462,528.523s-17.253,51.444-6.937,75.9c10.235,24.262,34.613,42.449,61.014,55.254,53.636,26.005,116.816,33.454,178.477,37.669,136.423,9.336,273.583,5.293,410.365,1.249,50.626-1.5,101.468-3.019,151.267-10.846,27.659-4.349,56.216-11.25,76.29-27.856,25.484-21.144,31.8-56.952,14.728-83.46-28.647-44.471-107.83-55.523-127.877-103.247-11.026-26.266.3-55.532,16.309-79.893,34.362-52.271,91.952-98.116,94.989-157.863,2.085-41.029-25.6-82.122-68.409-101.54C866.8,113.539,804.584,116.1,771.5,149.788,737.388,184.392,677.488,197.736,626.143,195.957Z" transform="translate(7.828 323.102)" fill="#0084ff" opacity="0.1"/>
    <g id="Group_45" data-name="Group 45" transform="translate(100 706.202)" opacity="0.1">
      <path id="Path_207" data-name="Path 207" d="M168.983,423.328s-67.16-28.251-75.993,22.689c0,0-4.592,7.944,1.8,14.5,0,0,1.375-3.522,7.863.117a33.4,33.4,0,0,0,7.332,2.983,16.5,16.5,0,0,0,10.442-.557h0s22.1-1.2,40.679-30.1c0,0,7.97-4.924,8.366-6.775l-13.317.9s1.024,9.75-4.493,15.6c0,0,4.888-15.132,2.543-15.554-.476-.09-7.036.773-7.036.773s1.7,16.956-7.189,25.727c0,0,8.249-17.244,4.664-25.421l-9.831,1.9s2.7,17.837-7.027,28.206c0,0,8-18.331,4.906-27.64l-9.408,3.163s2.264,17.442-5.868,26.059c0,0,7.1-22.114,3.756-25.16,0,0-8.465,3.433-10.271,5.392,0,0,1.339,12.58-3.828,17.118,0,0,3.172-15.276,1.6-15.9,0,0-9.831,7.4-12.832,13.793,0,0,3.738-9.759,11.6-15.276,0,0-6.6-1.114-11.682,1.644,0,0,3.4-6.479,14.063-3.406,0,0,7.9-5.472,9.48-5.392,0,0-10.091-4.493-17.379-3.936,0,0,7.818-4.493,19.841,3.01l9.39-3.388s-13.029-6.677-19.553-6.65c0,0,8.68-3.361,21.988,5.985l9.615-1.959s-10.783-6.6-18.053-8.141c0,0,8.716-1.384,20.829,7.683l6.569-.548s-7.952-4.69-10.361-5.832-2.3-1.878-2.3-1.878a31.352,31.352,0,0,1,15.42,7.422S168.929,424.164,168.983,423.328Z" transform="translate(-91.393 -415.515)" fill="#0084ff"/>
    </g>
    <g id="Group_46" data-name="Group 46" transform="translate(109.863 626.939)" opacity="0.1">
      <path id="Path_208" data-name="Path 208" d="M167.634,363.738s-23.821-55.056-58.075-29.806c0,0-7.243,2.1-7.189,9.615,0,0,2.822-1.312,4.61,4.556a27.048,27.048,0,0,0,2.7,5.94,13.479,13.479,0,0,0,6.515,5.616h0s13.811,11.879,41.335,5.293c0,0,7.548,1.608,8.833.746l-8.411-7.072s-4.951,6.38-11.583,6.685c0,0,11.529-6.2,10.379-7.791-.234-.323-4.628-3.54-4.628-3.54s-8.644,11.035-18.87,11.205c0,0,14.728-5.553,17.253-12.445l-6.919-4.493S135.007,360.369,123.334,361c0,0,15.2-6.335,18.664-13.631l-7.4-3.478s-8.59,11.682-18.3,12.122c0,0,16.821-9.094,16.561-12.8,0,0-6.982-2.786-9.2-2.624,0,0-6.353,8.222-12.023,7.988,0,0,10.594-7.27,10.019-8.537,0,0-10.064-1.2-15.483.9,0,0,7.782-3.666,15.59-2.462,0,0-3.289-4.43-7.863-5.661,0,0,5.715-1.914,10.3,5.976,0,0,7.8,1.258,8.716,2.193,0,0-3.424-8.438-8.087-12.239,0,0,7.189,1.8,10.064,13.092l7.512,3.334s-3.936-11.394-7.836-15.087c0,0,7.072,2.947,9.66,16.085l6.829,4.3s-2.642-10.064-6.083-15.123c0,0,5.967,4.151,7.988,16.435l4.223,3.415s-2.058-7.315-2.84-9.363-.3-2.426-.3-2.426a25.744,25.744,0,0,1,4.933,13.191S167.1,364.2,167.634,363.738Z" transform="translate(-102.37 -327.306)" fill="#0084ff"/>
    </g>
  </g>
</svg>
