<svg xmlns="http://www.w3.org/2000/svg" xmlns:xlink="http://www.w3.org/1999/xlink" width="760.57" height="525.042" viewBox="0 0 760.57 525.042">
  <defs>
    <linearGradient id="linear-gradient" y1="0.5" x2="1" y2="0.5" gradientUnits="objectBoundingBox">
      <stop offset="0" stop-color="gray" stop-opacity="0.251"/>
      <stop offset="0.54" stop-color="gray" stop-opacity="0.122"/>
      <stop offset="1" stop-color="gray" stop-opacity="0.102"/>
    </linearGradient>
  </defs>
  <g id="undraw_authentication_fsn5" transform="translate(0 0.006)">
    <path id="Path_209" data-name="Path 209" d="M447.109,118.945c-48.751.065-95.677-13.755-140.56-29.107S217.126,57.293,169.282,50.008c-30.77-4.683-65.761-4.252-89.813,12.75C56.315,79.115,49.611,106.188,46.376,131.2c-2.433,18.816-3.554,38.564,5.557,55.775,6.326,11.948,17.153,21.8,24.783,33.184,26.636,39.614,10.618,90.218-15.268,130.751-12.137,19.018-26.355,37.247-35.531,57.354s-12.939,42.908-3.581,62.754c9.274,19.67,30.223,33.947,52.7,43.7,45.653,19.84,98.807,24.092,150.532,25.729,114.5,3.633,229.219-3.776,343.633-11.185,42.34-2.739,84.87-5.5,126.336-13.435,23.022-4.4,46.73-10.937,63.054-25.259,20.72-18.183,24.959-47.871,9.881-69.211-25.286-35.792-91.959-42.542-110.09-81.27-10-21.32-1.376-45.771,11.322-66.321,27.235-44.095,74.115-83.591,74.9-132.91.541-33.868-23.838-66.908-60.25-81.628-38.166-15.418-90.2-11.453-116.945,17.283C539.922,106.11,490.154,118.9,447.109,118.945Z" transform="translate(-16.91 -47.46)" fill="#0084ff" opacity="0.1"/>
    <path id="Path_210" data-name="Path 210" d="M1000.929,691.285s-8.015-5.289-15.959-1.526c0,0,2.446,4.709,12.5,4.265Z" transform="translate(-353.609 -270.389)" fill="#0084ff"/>
    <path id="Path_211" data-name="Path 211" d="M1008.167,693.25s2.439,9.287-3.678,15.607c0,0-3.678-3.828,0-13.207Z" transform="translate(-359.829 -272.073)" fill="#0084ff"/>
    <path id="Path_212" data-name="Path 212" d="M1016.451,676.482s-.594-7.9-18.431-5.276c0,0-.085,5.094,6.176,7.507S1013.327,679.091,1016.451,676.482Z" transform="translate(-358.148 -264.22)" fill="#0084ff"/>
    <path id="Path_213" data-name="Path 213" d="M1025.211,679.5s7.539,2.42.815,19.148c0,0-4.976-1.109-5.87-7.768S1021.911,681.926,1025.211,679.5Z" transform="translate(-365.786 -267.291)" fill="#0084ff"/>
    <path id="Path_214" data-name="Path 214" d="M1034.25,656.047s1.024-13-17.2-11.668c0,0-1.3,11.739,13.99,14.792Z" transform="translate(-364.755 -255.042)" fill="#0084ff"/>
    <path id="Path_215" data-name="Path 215" d="M1050.86,633.868s-2.5-14.733-20.72-10.344c0,0-.065,12.737,17.746,13.853Z" transform="translate(-369.319 -247.538)" fill="#0084ff"/>
    <path id="Path_216" data-name="Path 216" d="M1063.55,610.77s-4.187-14.348-22.24-10.057c0,0,4.3,12.907,21.04,12.7Z" transform="translate(-373.204 -239.609)" fill="#0084ff"/>
    <path id="Path_217" data-name="Path 217" d="M1076.752,587.832s-4.089-14.89-21.522-10.435c0,0,5.818,14.146,20.368,12.953Z" transform="translate(-378.046 -231.489)" fill="#0084ff"/>
    <path id="Path_218" data-name="Path 218" d="M1086.146,564.388s-3.144-18.209-19.4-14.179c0,0,4.722,16.566,18.2,16.833Z" transform="translate(-382.053 -222.12)" fill="#0084ff"/>
    <path id="Path_219" data-name="Path 219" d="M1093.458,538.72s-3.776-18.353-20.218-13.044c0,0,6.444,17.348,19.051,15.555Z" transform="translate(-384.31 -213.454)" fill="#0084ff"/>
    <path id="Path_220" data-name="Path 220" d="M1099.025,512.4s-5.994-18.359-18.7-17.864c0,0,6.124,19.39,17.642,21.522Z" transform="translate(-386.772 -202.955)" fill="#0084ff"/>
    <path id="Path_221" data-name="Path 221" d="M1103.086,487.324s-6.522-22.1-16.866-20.394c0,0,4.513,16.892,16.5,23.838Z" transform="translate(-388.824 -193.325)" fill="#0084ff"/>
    <path id="Path_222" data-name="Path 222" d="M1105.125,459.788s-6.118-18.411-16.3-19.148c0,0,4.161,18.118,16.1,23.935Z" transform="translate(-389.729 -184.213)" fill="#0084ff"/>
    <path id="Path_223" data-name="Path 223" d="M1108.058,433.588s-7.624-18.431-14.348-18.848c0,0,3.313,18.151,13.7,21.875Z" transform="translate(-391.43 -175.205)" fill="#0084ff"/>
    <path id="Path_224" data-name="Path 224" d="M1110.906,407.559s-4.689-20.016-11.426-21.679c0,0,.92,16.377,10.748,23.179Z" transform="translate(-393.436 -165.167)" fill="#0084ff"/>
    <path id="Path_225" data-name="Path 225" d="M1115.359,377.192s-4.931-15.959-10.389-18.392c0,0,1.076,18.816,9.131,22.292Z" transform="translate(-395.346 -155.749)" fill="#0084ff"/>
    <path id="Path_226" data-name="Path 226" d="M1121.941,351l.991-28.136s-10.207,21.209-1.728,33.073Z" transform="translate(-399.821 -143.248)" fill="#0084ff"/>
    <path id="Path_227" data-name="Path 227" d="M1134.092,311.522s7.35-20.544,9.131-21.692c0,0-14.413,13.331-13,30.477Z" transform="translate(-404.094 -131.76)" fill="#0084ff"/>
    <path id="Path_228" data-name="Path 228" d="M1042.624,662.148s12.926-1.689,12.542,16.579c0,0-11.681,1.9-15.5-13.207Z" transform="translate(-372.634 -261.241)" fill="#0084ff"/>
    <path id="Path_229" data-name="Path 229" d="M1061.26,639.06s14.935-.046,13.7,18.653c0,0-12.542,2.244-16.677-15.118Z" transform="translate(-379.107 -253.225)" fill="#0084ff"/>
    <path id="Path_230" data-name="Path 230" d="M1074.99,617.764s13.559-6.359,22.233,10.057c0,0-12.522,5.3-23.433-7.4Z" transform="translate(-384.501 -245.397)" fill="#0084ff"/>
    <path id="Path_231" data-name="Path 231" d="M1088.078,593.295s13.885-6.763,22.038,9.268c0,0-14.466,4.983-23.185-6.731Z" transform="translate(-389.071 -236.815)" fill="#0084ff"/>
    <path id="Path_232" data-name="Path 232" d="M1095.893,569.867s13.363-12.763,24.027.143c0,0-13.65,10.507-24.64,2.7Z" transform="translate(-391.975 -227.201)" fill="#0084ff"/>
    <path id="Path_233" data-name="Path 233" d="M1102.823,542.521s13.442-13.044,24.02.6c0,0-15.085,10.716-24.5,2.139Z" transform="translate(-394.431 -217.692)" fill="#0084ff"/>
    <path id="Path_234" data-name="Path 234" d="M1106.93,514.093s10.357-16.3,22.553-12.666c0,0-10.748,17.264-22.435,16.494Z" transform="translate(-396.028 -205.171)" fill="#0084ff"/>
    <path id="Path_235" data-name="Path 235" d="M1111.467,488.824s10.435-20.531,20.309-16.957c0,0-7.526,15.783-20.577,20.42Z" transform="translate(-397.513 -194.929)" fill="#0084ff"/>
    <path id="Path_236" data-name="Path 236" d="M1112.163,460.706s10.729-16.161,20.779-14.185c0,0-8.772,16.39-21.822,18.861Z" transform="translate(-397.485 -186.2)" fill="#0084ff"/>
    <path id="Path_237" data-name="Path 237" d="M1114,433.351s8.315-18.137,15.072-18.261c0,0-3.991,18.007-14.511,21.34Z" transform="translate(-398.487 -175.327)" fill="#0084ff"/>
    <path id="Path_238" data-name="Path 238" d="M1116.5,408.7s9.242-18.366,16.187-18.4c0,0-4.728,15.7-15.881,20.016Z" transform="translate(-399.356 -166.705)" fill="#0084ff"/>
    <path id="Path_239" data-name="Path 239" d="M1118.63,379.738s6.913-15.2,12.64-16.918c0,0-3.457,18.522-11.876,20.948Z" transform="translate(-400.097 -157.147)" fill="#0084ff"/>
    <path id="Path_240" data-name="Path 240" d="M1124.187,352.6l15.45-23.538s-3.959,23.218-17.707,28.044Z" transform="translate(-401.245 -145.405)" fill="#0084ff"/>
    <path id="Path_241" data-name="Path 241" d="M1137.661,318.324s17.955-12.392,18.607-14.394c0,0-9.131,17.355-26.088,20.42Z" transform="translate(-404.114 -136.664)" fill="#0084ff"/>
    <path id="Path_242" data-name="Path 242" d="M1143.036,306.891s20.616-19.82,25.879-19.8c0,0-17,.776-26.375,18.744Z" transform="translate(-408.413 -130.807)" fill="#0084ff"/>
    <path id="Path_243" data-name="Path 243" d="M1118.94,366.03l.75.1c3.874-30.32,9.522-48.262,15.9-50.46l-.248-.717C1128.579,317.3,1122.892,334.966,1118.94,366.03Z" transform="translate(-400.205 -140.497)" fill="#444053"/>
    <path id="Path_244" data-name="Path 244" d="M1110.2,464.581l1.135.091c.241-2.831.424-5.726.548-8.615,1.083-25.1,2.759-48.145,4.963-65.421l-.652-.815c-2.211,17.316-4.363,41.056-5.446,66.191C1110.624,458.881,1110.441,461.763,1110.2,464.581Z" transform="translate(-397.165 -166.538)" fill="#444053"/>
    <path id="Path_245" data-name="Path 245" d="M976.673,640.614c.2-.085,20.172-9.007,40.906-30.281a164.5,164.5,0,0,0,29.9-42.392c9.587-19.52,15.431-43.508,17.388-66.811l-1.181.554c-4.4,52.306-28.214,88.046-47.147,107.514-20.531,21.085-40.286,29.916-40.482,30Z" transform="translate(-350.51 -205.252)" fill="#444053"/>
    <path id="Path_246" data-name="Path 246" d="M719.131,132.69H92.453a5.583,5.583,0,0,0-5.583,5.583v16.266H724.714V138.273A5.583,5.583,0,0,0,719.131,132.69Z" transform="translate(-41.243 -77.106)" fill="#3f3d56"/>
    <path id="Path_247" data-name="Path 247" d="M86.87,166.19V532.226a11.257,11.257,0,0,0,11.257,11.257h615.33a11.257,11.257,0,0,0,11.257-11.257V166.19Z" transform="translate(-41.243 -88.757)" fill="#fff"/>
    <circle id="Ellipse_29" data-name="Ellipse 29" cx="2.609" cy="2.609" r="2.609" transform="translate(53.121 63.737)" fill="#fa5959" opacity="0.8"/>
    <circle id="Ellipse_30" data-name="Ellipse 30" cx="2.609" cy="2.609" r="2.609" transform="translate(60.295 63.737)" fill="#fed253" opacity="0.8"/>
    <circle id="Ellipse_31" data-name="Ellipse 31" cx="2.609" cy="2.609" r="2.609" transform="translate(67.469 63.737)" fill="#8ccf4d" opacity="0.8"/>
    <rect id="Rectangle_125" data-name="Rectangle 125" width="512.623" height="225.411" transform="translate(104.918 138.465)" opacity="0.05"/>
    <rect id="Rectangle_126" data-name="Rectangle 126" width="504.797" height="220.441" transform="translate(108.831 140.174)" fill="#3f3d56"/>
    <path id="Path_248" data-name="Path 248" d="M368,349.38A50.219,50.219,0,1,0,418.218,399.6,50.219,50.219,0,0,0,368,349.38Zm9.007,51.425v23.779H359.253V400.805a14.707,14.707,0,1,1,17.753,0Z" transform="translate(-121.555 -152.472)" fill="#0084ff"/>
    <path id="Path_249" data-name="Path 249" d="M368,349.38A50.219,50.219,0,1,0,418.218,399.6,50.219,50.219,0,0,0,368,349.38Zm9.007,51.425v23.779H359.253V400.805a14.707,14.707,0,1,1,17.753,0Z" transform="translate(-121.555 -152.472)" opacity="0.05"/>
    <path id="Path_250" data-name="Path 250" d="M360.347,327.38a64.567,64.567,0,1,0,64.567,64.567,64.567,64.567,0,0,0-64.567-64.567ZM371.923,393.5v30.568H349.1V393.5a18.914,18.914,0,1,1,22.827,0Z" transform="translate(-113.903 -144.82)" fill="#0084ff"/>
    <rect id="Rectangle_127" data-name="Rectangle 127" width="208.701" height="22.175" transform="translate(337.751 238.655)" fill="#fff"/>
    <rect id="Rectangle_128" data-name="Rectangle 128" width="45.001" height="22.175" transform="translate(501.451 279.09)" fill="#0084ff"/>
    <path id="Path_251" data-name="Path 251" d="M561.237,427.445h-3.776l3.359-3.352a.333.333,0,0,0,0-.463.326.326,0,0,0-.463,0L557,426.989v-3.783a.326.326,0,0,0-.326-.326.333.333,0,0,0-.326.326v3.783l-3.352-3.378a.326.326,0,0,0-.463,0,.333.333,0,0,0,0,.463l3.359,3.352h-3.783a.333.333,0,0,0-.326.326.326.326,0,0,0,.326.326h3.783l-3.359,3.359a.333.333,0,0,0,0,.463.339.339,0,0,0,.463,0l3.352-3.359v3.776a.326.326,0,1,0,.652,0v-3.776l3.359,3.359a.339.339,0,0,0,.463,0,.333.333,0,0,0,0-.463l-3.359-3.359h3.776a.316.316,0,1,0,0-.633Z" transform="translate(-202.942 -178.036)" fill="#0084ff"/>
    <path id="Path_252" data-name="Path 252" d="M582.237,427.445h-3.776l3.359-3.352a.333.333,0,0,0,0-.463.326.326,0,0,0-.463,0L578,426.989v-3.783a.326.326,0,0,0-.326-.326.332.332,0,0,0-.326.326v3.783l-3.352-3.378a.326.326,0,0,0-.463,0,.333.333,0,0,0,0,.463l3.359,3.352h-3.783a.333.333,0,0,0-.326.326.326.326,0,0,0,.326.326h3.783l-3.359,3.359a.333.333,0,0,0,0,.463.339.339,0,0,0,.463,0l3.352-3.359v3.776a.326.326,0,1,0,.652,0v-3.776l3.359,3.359a.339.339,0,0,0,.463,0,.333.333,0,0,0,0-.463l-3.359-3.359h3.776a.316.316,0,1,0,0-.633Z" transform="translate(-210.246 -178.036)" fill="#0084ff"/>
    <path id="Path_253" data-name="Path 253" d="M603.237,427.445h-3.776l3.359-3.352a.333.333,0,0,0,0-.463.326.326,0,0,0-.463,0L599,426.989v-3.783a.326.326,0,0,0-.326-.326.333.333,0,0,0-.326.326v3.783l-3.352-3.378a.326.326,0,0,0-.463,0,.333.333,0,0,0,0,.463l3.359,3.352h-3.783a.333.333,0,0,0-.326.326.326.326,0,0,0,.326.326h3.783l-3.359,3.359a.333.333,0,0,0,0,.463.339.339,0,0,0,.463,0l3.352-3.359v3.776a.326.326,0,0,0,.652,0v-3.776l3.359,3.359a.339.339,0,0,0,.463,0,.333.333,0,0,0,0-.463l-3.359-3.359h3.776a.316.316,0,1,0,0-.633Z" transform="translate(-217.55 -178.036)" fill="#0084ff"/>
    <path id="Path_254" data-name="Path 254" d="M624.237,427.445h-3.776l3.359-3.352a.333.333,0,0,0,0-.463.326.326,0,0,0-.463,0L620,426.989v-3.783a.326.326,0,0,0-.326-.326.332.332,0,0,0-.326.326v3.783l-3.352-3.378a.326.326,0,0,0-.463,0,.333.333,0,0,0,0,.463l3.359,3.352h-3.783a.333.333,0,0,0-.326.326.326.326,0,0,0,.326.326h3.783l-3.359,3.359a.333.333,0,0,0,0,.463.339.339,0,0,0,.463,0l3.352-3.359v3.776a.326.326,0,0,0,.652,0v-3.776l3.359,3.359a.339.339,0,0,0,.463,0,.333.333,0,0,0,0-.463l-3.359-3.359h3.776a.316.316,0,1,0,0-.633Z" transform="translate(-224.854 -178.036)" fill="#0084ff"/>
    <path id="Path_255" data-name="Path 255" d="M645.237,427.445h-3.776l3.359-3.352a.333.333,0,0,0,0-.463.326.326,0,0,0-.463,0L641,426.989v-3.783a.326.326,0,0,0-.326-.326.332.332,0,0,0-.326.326v3.783l-3.352-3.378a.326.326,0,0,0-.463,0,.333.333,0,0,0,0,.463l3.359,3.352h-3.783a.333.333,0,0,0-.326.326.326.326,0,0,0,.326.326h3.783l-3.359,3.359a.332.332,0,0,0,0,.463.339.339,0,0,0,.463,0l3.352-3.359v3.776a.326.326,0,0,0,.652,0v-3.776l3.359,3.359a.339.339,0,0,0,.463,0,.333.333,0,0,0,0-.463l-3.359-3.359h3.776a.316.316,0,1,0,0-.633Z" transform="translate(-232.158 -178.036)" fill="#0084ff"/>
    <path id="Path_256" data-name="Path 256" d="M666.237,427.445h-3.776l3.359-3.352a.333.333,0,0,0,0-.463.326.326,0,0,0-.463,0L662,426.989v-3.783a.326.326,0,0,0-.326-.326.333.333,0,0,0-.326.326v3.783l-3.352-3.378a.326.326,0,0,0-.463,0,.333.333,0,0,0,0,.463l3.359,3.352h-3.783a.333.333,0,0,0-.326.326.326.326,0,0,0,.326.326h3.783l-3.359,3.359a.333.333,0,0,0,0,.463.339.339,0,0,0,.463,0l3.352-3.359v3.776a.326.326,0,1,0,.652,0v-3.776l3.359,3.359a.339.339,0,0,0,.463,0,.333.333,0,0,0,0-.463l-3.359-3.359h3.776a.316.316,0,1,0,0-.633Z" transform="translate(-239.462 -178.036)" fill="#0084ff"/>
    <path id="Path_257" data-name="Path 257" d="M687.237,427.445h-3.776l3.359-3.352a.333.333,0,0,0,0-.463.326.326,0,0,0-.463,0L683,426.989v-3.783a.326.326,0,0,0-.326-.326.333.333,0,0,0-.326.326v3.783l-3.352-3.378a.326.326,0,0,0-.463,0,.333.333,0,0,0,0,.463l3.359,3.352h-3.783a.333.333,0,0,0-.326.326.326.326,0,0,0,.326.326h3.783l-3.359,3.359a.333.333,0,0,0,0,.463.339.339,0,0,0,.463,0l3.352-3.359v3.776a.326.326,0,1,0,.652,0v-3.776l3.359,3.359a.339.339,0,0,0,.463,0,.333.333,0,0,0,0-.463l-3.359-3.359h3.776a.316.316,0,1,0,0-.633Z" transform="translate(-246.766 -178.036)" fill="#0084ff"/>
    <path id="Path_258" data-name="Path 258" d="M708.237,427.445h-3.776l3.359-3.352a.333.333,0,0,0,0-.463.326.326,0,0,0-.463,0L704,426.989v-3.783a.326.326,0,0,0-.326-.326.333.333,0,0,0-.326.326v3.783l-3.352-3.378a.326.326,0,0,0-.463,0,.333.333,0,0,0,0,.463l3.359,3.352h-3.783a.333.333,0,0,0-.326.326.326.326,0,0,0,.326.326h3.783l-3.359,3.359a.333.333,0,0,0,0,.463.339.339,0,0,0,.463,0l3.352-3.359v3.776a.326.326,0,1,0,.652,0v-3.776l3.359,3.359a.339.339,0,0,0,.463,0,.333.333,0,0,0,0-.463l-3.359-3.359h3.776a.316.316,0,1,0,0-.633Z" transform="translate(-254.07 -178.036)" fill="#0084ff"/>
    <path id="Path_259" data-name="Path 259" d="M729.237,427.445h-3.776l3.359-3.352a.333.333,0,0,0,0-.463.326.326,0,0,0-.463,0L725,426.989v-3.783a.326.326,0,0,0-.326-.326.333.333,0,0,0-.326.326v3.783l-3.352-3.378a.326.326,0,0,0-.463,0,.333.333,0,0,0,0,.463l3.359,3.352h-3.783a.333.333,0,0,0-.326.326.326.326,0,0,0,.326.326h3.783l-3.359,3.359a.333.333,0,0,0,0,.463.339.339,0,0,0,.463,0l3.352-3.359v3.776a.326.326,0,1,0,.652,0v-3.776l3.359,3.359a.339.339,0,0,0,.463,0,.333.333,0,0,0,0-.463l-3.359-3.359h3.776a.316.316,0,1,0,0-.633Z" transform="translate(-261.374 -178.036)" fill="#0084ff"/>
    <path id="Path_260" data-name="Path 260" d="M750.237,427.445h-3.776l3.359-3.352a.333.333,0,0,0,0-.463.326.326,0,0,0-.463,0L746,426.989v-3.783a.326.326,0,0,0-.326-.326.332.332,0,0,0-.326.326v3.783l-3.352-3.378a.326.326,0,0,0-.463,0,.333.333,0,0,0,0,.463l3.359,3.352h-3.783a.333.333,0,0,0-.326.326.326.326,0,0,0,.326.326h3.783l-3.359,3.359a.332.332,0,0,0,0,.463.339.339,0,0,0,.463,0l3.352-3.359v3.776a.326.326,0,0,0,.652,0v-3.776l3.359,3.359a.339.339,0,0,0,.463,0,.333.333,0,0,0,0-.463l-3.359-3.359h3.776a.316.316,0,1,0,0-.633Z" transform="translate(-268.678 -178.036)" fill="#0084ff"/>
    <path id="Path_261" data-name="Path 261" d="M771.237,427.445h-3.776l3.359-3.352a.333.333,0,0,0,0-.463.326.326,0,0,0-.463,0L767,426.989v-3.783a.326.326,0,0,0-.326-.326.333.333,0,0,0-.326.326v3.783l-3.352-3.378a.326.326,0,0,0-.463,0,.333.333,0,0,0,0,.463l3.359,3.352h-3.783a.333.333,0,0,0-.326.326.326.326,0,0,0,.326.326h3.783l-3.359,3.359a.333.333,0,0,0,0,.463.339.339,0,0,0,.463,0l3.352-3.359v3.776a.326.326,0,1,0,.652,0v-3.776l3.359,3.359a.339.339,0,0,0,.463,0,.333.333,0,0,0,0-.463l-3.359-3.359h3.776a.316.316,0,1,0,0-.633Z" transform="translate(-275.982 -178.036)" fill="#0084ff"/>
    <path id="Path_262" data-name="Path 262" d="M884.464,522.253a11.68,11.68,0,0,0-.294-2.341c-.587-2.2-1.911-4.872-4.089-5.537a34.33,34.33,0,0,1-6.483-2.739c-.391-6.992,1.213-14.146-.535-20.922-.652-2.478-1.728-4.852-2.015-7.389-.359-3.157.5-6.522-.757-9.431a9.308,9.308,0,0,0-5.511-4.761,29.367,29.367,0,0,0-7.35-1.3c-3.13-.254-13.266-1.454-16.8,1.344h0a3.691,3.691,0,0,0-.652.652h0a2.6,2.6,0,0,0-.209.339l-.033.052a2.638,2.638,0,0,0-.176.424h0a3.3,3.3,0,0,0-.111.489V472.3c.046.587.13,1.174.13,1.754a3.782,3.782,0,0,1-.078.861,6.026,6.026,0,0,1-1.083,2.113h0l-.117.17c-.072.1-.143.2-.209.307s-.117.183-.17.274-.1.15-.15.235a3.178,3.178,0,0,0-.17.333c0,.065-.072.124-.1.189a3.217,3.217,0,0,0-.2.548,3.641,3.641,0,0,0-.039,1.735,6.458,6.458,0,0,0,.894,2.054c.163.267.339.528.522.789l.457.62a14.084,14.084,0,0,0-.137,1.826,13.493,13.493,0,0,0,5.151,10.6,39.944,39.944,0,0,1-.083,8.278c-.059.574-.13,1.154-.209,1.728s-.137.952-.215,1.428a6.619,6.619,0,0,1-2.85-.215,13.447,13.447,0,0,0-1.3-.5c-1.9-.476-3.835,1.415-5.713.841a.766.766,0,0,1-.085.261,2.556,2.556,0,0,0-1.3-.385,4.758,4.758,0,0,1-2.83-1.624l-2.485-2.341a2.742,2.742,0,0,1-.43-.483,3.388,3.388,0,0,1-.3-.8,9.244,9.244,0,0,0-2.407-3.45,1.63,1.63,0,0,0-.711-.515,1.094,1.094,0,0,0-.326,0,2.871,2.871,0,0,0-.215-.261,6.131,6.131,0,0,0-.541-.548c-1.187-1.1-1.3-2.035-2.335-3.261a31.334,31.334,0,0,1-2.439-3.685c-.085-.685-.2-1.389-.346-2.1a27.017,27.017,0,0,0-1.428-4.761l-1.3-2.889-.15.15c-.946-1.409-1.957-2.178-2.863-2-1.52.313-2.27,3.261-2.028,7.115l.522,3.913a1.209,1.209,0,0,0,.072.294,7.232,7.232,0,0,0-.143,1.409c0,.548.509.952.776,1.441a4.077,4.077,0,0,1,.652,2.224c-.033.28-.117.548-.13.822a3.164,3.164,0,0,0,.613,1.7l3.261,5.478.652,1.148.039.052a2.784,2.784,0,0,0,.874,1,11.947,11.947,0,0,0,1.076,3.959c.111.248.235.483.365.717a23.068,23.068,0,0,0,3.078,4l1.552,1.741c1.533,1.709,3.065,3.424,4.728,5a6.332,6.332,0,0,0,2.113,1.481,2.393,2.393,0,0,0,2.374-.346q0,1.213,0,2.426a1.363,1.363,0,0,1,1.031,2.146,53.788,53.788,0,0,1-4.826,10.213,21.745,21.745,0,0,1,4.044,3.085,18.187,18.187,0,0,1,2.107,2.85c.059.483.1.959.13,1.435.483,7.774-2.524,15.49-5.218,22.9a17.841,17.841,0,0,0-1.559,6.483,12.724,12.724,0,0,0-1.461,1.05,9.672,9.672,0,0,1,.267,4.135,7.325,7.325,0,0,1-.541,2.609,18.369,18.369,0,0,1-.939,1.676c-1.689,2.98-2.061,6.522-2.4,9.926-.2,2.054.594,4.565-.339,6.4a26.2,26.2,0,0,0-3.261,10.031,10.049,10.049,0,0,1-.3,2.341c-.2.652-.561,1.207-.744,1.846a7.9,7.9,0,0,0-.13,2.609,24.967,24.967,0,0,1-1.37,9.2c-.815,2.328-1.715,4.82-1.076,7.213a10.166,10.166,0,0,0-2.759,6.059,9.551,9.551,0,0,1-.209,1.728,8.4,8.4,0,0,1-.783,1.663,14.558,14.558,0,0,0-1.774,7.826,21.77,21.77,0,0,0-3.515,9.183c-.58,3.254-.835,6.568-1.578,9.783-.991,4.252-2.785,8.55-3.137,12.907-2.113,1.35-3.026,3.965-3.431,6.437s-.47,5.068-1.507,7.35c-.535,1.187-1.3,2.25-1.813,3.463a15.9,15.9,0,0,0-.783,2.98,11.63,11.63,0,0,0-.2,4.891,7.372,7.372,0,0,1-1.911,1.454c.1-.4.189-.809.261-1.22-1.683,1.526-4.735.991-6.078,2.824a2.752,2.752,0,0,0,.652,3.776,5.22,5.22,0,0,0,1.35.58c3.261,1.044,6.613,2.094,9.966,1.539a2.976,2.976,0,0,0,1.128-.359,3.633,3.633,0,0,0,1.05-1.213c.5-.8,1-1.591,1.5-2.387a30.971,30.971,0,0,0,3.659.854c.124,1.044.215,2.087.261,3.131.652.13,1.526.17,1.833-.437a1.586,1.586,0,0,0,.111-.724c0-.463.065-1.076.1-1.7h.13a12.391,12.391,0,0,0,5.772-1.167c-.7-5.778,1.6-11.426,3.6-16.892,2.107-5.752,3.913-11.609,5.733-17.466,1.3-4.122,2.746-8.113,4.024-12.242q2.413-7.826,4.846-15.653c.7-2.3,1.415-4.565,2.224-6.848a106.7,106.7,0,0,1,6.046-13.455c.652-1.233,1.3-2.452,1.839-3.73.652-1.559,1.115-3.189,1.637-4.8a74.358,74.358,0,0,1,4.1-9.639c.046-.085.078-.163.124-.241.528,2.159,1.057,4.35,1.409,6.522a24.781,24.781,0,0,1,.111,8.061,26.586,26.586,0,0,0-.835,5.465c.1,2.55,1.461,4.865,2.133,7.324a27.864,27.864,0,0,1,.73,5.609c.183,2.935,1.774,6.228.652,8.948-3.489,8.615-1.8,18.346-3.789,27.392-1.024,4.644-4.161,9.007-3.913,13.755q.261,5.055.887,10.083a9.6,9.6,0,0,0,.816,3.059,11.22,11.22,0,0,0,.893,1.461c-.287.111-.528.4-.737,1.024a4.024,4.024,0,0,0,1.448,4.565,6.339,6.339,0,0,0,1.885.652,9.927,9.927,0,0,0,2.726.378,6.361,6.361,0,0,0,.854-.1,31.079,31.079,0,0,0,3.085,1.109,6.7,6.7,0,0,0,.085.8,1,1,0,0,0,.339.737,1.017,1.017,0,0,0,.522.091h3.541v-.887a2.915,2.915,0,0,0,2.25-.73,3.481,3.481,0,0,0,.652-1.357q1.448-4.911,2.876-9.829a31.423,31.423,0,0,0,1.4-11.218c-1.259-12.02,1.506-24.079.606-36.131a86.55,86.55,0,0,1,1.109-21.679c.293-1.617.652-3.261.783-4.872.287-3.039-.065-6.111.15-9.131.072-1.057.215-2.107.346-3.157a151.592,151.592,0,0,0,1.4-19.664,61.946,61.946,0,0,0-.4-6.522,3.724,3.724,0,0,0,1.781-1.043c.58-.757.43-1.82.424-2.785,0-2.309.972-4.487,1.754-6.665a79.173,79.173,0,0,0,2.465-9.17,32.018,32.018,0,0,0,1.1-7.663q0-.391-.039-.783a2.02,2.02,0,0,0,.6-.652,3.79,3.79,0,0,0,.313-1.207c.235-1.663.476-3.333.711-5q.261-1.794.515-3.581l2.074-14.472c.176-1.259.359-2.511.535-3.763l.541-3.744c.059-.443.124-.887.17-1.3C886.153,528.827,884.634,525.279,884.464,522.253Zm-17.3,54.184a11.922,11.922,0,0,1-1.3-5.668h-.072a2.909,2.909,0,0,0-.085-1.839c-.2-.476-.554-.88-.77-1.357a4.971,4.971,0,0,1-.352-1.826,49.782,49.782,0,0,1,.933-11.831c.085-.457.176-.92.261-1.376a3.406,3.406,0,0,0,.744-.58,5.292,5.292,0,0,0,.841-1.3c.737-1.48,1.409-2.987,2.028-4.52.2-.5.5-1.07,1-1.194-.1,3.815.287,7.709-1.265,11.152a7.052,7.052,0,0,0-.652,1.761c-.143.972.261,1.957.117,2.922-.072.5-.287.965-.372,1.461a1.428,1.428,0,0,0,.378,1.383,1.142,1.142,0,0,0,.28.143c-.039.261-.072.528-.1.783-.052.535-.078,1.037-.111,1.35a42.062,42.062,0,0,0-.176,4.8c0,1.728.065,3.457.039,5.218a3.542,3.542,0,0,1-.248,1.48,2.567,2.567,0,0,1-.5.652,16.943,16.943,0,0,0-.62-1.611Z" transform="translate(-284.212 -193.505)" fill="url(#linear-gradient)"/>
    <ellipse id="Ellipse_32" data-name="Ellipse 32" cx="3.678" cy="10.416" rx="3.678" ry="10.416" transform="matrix(0.98, -0.201, 0.201, 0.98, 523.685, 287.589)" fill="#fbbebe"/>
    <path id="Path_263" data-name="Path 263" d="M878.292,838.473a3.949,3.949,0,0,0,1.448,4.52,6.447,6.447,0,0,0,1.872.652,9.876,9.876,0,0,0,2.72.372c1.128-.052,2.211-.5,3.339-.652a.522.522,0,0,1,.385.052.555.555,0,0,1,.143.457,17.238,17.238,0,0,0,.143,1.917.985.985,0,0,0,.339.737,1.019,1.019,0,0,0,.522.091h3.535a34.473,34.473,0,0,0-1.011-9.222,2.062,2.062,0,0,0-.261-.652,2.159,2.159,0,0,0-1.128-.652,6.306,6.306,0,0,0-2.733-.476,8,8,0,0,0-3.065,1.5,4.67,4.67,0,0,1-3.476.841C879.883,837.644,878.9,836.659,878.292,838.473Z" transform="translate(-316.435 -321.586)" fill="#3f3d56"/>
    <path id="Path_264" data-name="Path 264" d="M796.485,834.9a9.784,9.784,0,0,1-3.567,2.426l-.6.287a.417.417,0,0,0-.2.163.352.352,0,0,0,.065.294,4.22,4.22,0,0,0,4.787,1.741,2.536,2.536,0,0,0,1.05-.548,3.443,3.443,0,0,0,.809-2.1,4.3,4.3,0,0,0-.1-2.407C797.822,832.71,797.489,833.636,796.485,834.9Z" transform="translate(-286.529 -320.872)" fill="#fbbebe"/>
    <path id="Path_265" data-name="Path 265" d="M807.908,843.131a1.586,1.586,0,0,1-.111.724c-.307.6-1.161.567-1.826.437a43.9,43.9,0,0,0-.8-6.587c-1.265-.059-2.178,1.141-2.857,2.217l-1.748,2.772a3.614,3.614,0,0,1-1.044,1.213,3.091,3.091,0,0,1-1.128.359c-3.339.554-6.711-.5-9.933-1.539a5.261,5.261,0,0,1-1.35-.574,2.759,2.759,0,0,1-.652-3.77c1.35-1.826,4.383-1.3,6.065-2.818a15.182,15.182,0,0,1-.861,3.111c2.25-.339,3.763-2.4,5.576-3.776a3.431,3.431,0,0,1,1.591-.757,3.5,3.5,0,0,1,1.3.137,15.3,15.3,0,0,1,5.739,2.824,6.186,6.186,0,0,1,2.054,2.139C808.247,840.241,807.908,842.068,807.908,843.131Z" transform="translate(-284.4 -321.072)" fill="#3f3d56"/>
    <circle id="Ellipse_33" data-name="Ellipse 33" cx="13.474" cy="13.474" r="13.474" transform="translate(554.898 279.925)" fill="#fbbebe"/>
    <path id="Path_266" data-name="Path 266" d="M921.639,617.045a31.962,31.962,0,0,1-1.089,7.624,78.694,78.694,0,0,1-2.465,9.131c-.776,2.172-1.748,4.35-1.741,6.652,0,.959.157,2.022-.43,2.778a4.057,4.057,0,0,1-1.9,1.089,2.38,2.38,0,0,0-1.6,1.428,10.077,10.077,0,0,1-1.357-2.987q-1.754-5.374-3.261-10.807a1.4,1.4,0,0,1,.091-1.3,1.618,1.618,0,0,1,.568-.32,5.868,5.868,0,0,0,1.807-1.161,2.641,2.641,0,0,0,.6-.776,3.514,3.514,0,0,0,.254-1.474c0-1.728,0-3.45-.046-5.178a43.283,43.283,0,0,1,.183-4.781c0-.313.059-.815.111-1.35.1-1.024.294-2.211.848-2.609.828-.554,3.307.189,4.246.32,1.617.222,3.261.483,4.839.789A12.917,12.917,0,0,1,921.639,617.045Z" transform="translate(-326.722 -244.091)" fill="#3f3d56"/>
    <path id="Path_267" data-name="Path 267" d="M837.8,513.261c-.522,1.044-1.774,1.546-2.739,2.2l-3.307,2.27a2.2,2.2,0,0,1-1.637.561,2.152,2.152,0,0,1-1.22-1.141.219.219,0,0,0,0-.052l-.685-1.148-3.261-5.465a3.11,3.11,0,0,1-.606-1.683c0-.28.1-.541.124-.822a3.946,3.946,0,0,0-.652-2.217c-.261-.489-.783-.893-.77-1.441a5.216,5.216,0,0,1,.365-2.107,4.265,4.265,0,0,1,1.428-1.526c.307-.222.62-.43.946-.652a1.865,1.865,0,0,1,.567-.261c.541-.111,1.076.339,1.624.359,2.354,1.578,3.261,4.565,5.113,6.718,1.043,1.226,1.148,2.165,2.328,3.261.189.17.372.352.548.541a3.789,3.789,0,0,1,.587.848C836.77,512.068,838.068,512.727,837.8,513.261Z" transform="translate(-297.29 -204.777)" fill="#3f3d56"/>
    <path id="Path_268" data-name="Path 268" d="M877.891,512.712a12.142,12.142,0,0,1,1.448,6.568,4.1,4.1,0,0,1-.567,1.728c-.939,1.441-2.909,1.7-4.624,1.787a2.726,2.726,0,0,0-2.009.652,1.826,1.826,0,0,0,.124,2.23,5.034,5.034,0,0,0,2,1.3c2.713,1.194,5.641,2.178,8.589,1.9,1.37-.13,2.7-.528,4.063-.73a42.664,42.664,0,0,1,4.474-.248c1.774-.065,3.541-.241,5.309-.417l4.683-.463a1.044,1.044,0,0,0,.7-.254c.346-.4-.1-1-.528-1.3-2.485-1.839-5.648-3.1-7.063-5.87a34.534,34.534,0,0,1-1.337-4.265,35.839,35.839,0,0,1-1.552-4.115,27.267,27.267,0,0,1-.215-3.8,5.094,5.094,0,0,0-1.3-3.47,5.438,5.438,0,0,0-3.548-1.141c-3.117-.137-6.437.607-8.648,2.8-.593.594-1.1,1.3-1.715,1.839s-1.448.691-1.043,1.4,1.2,1.141,1.63,1.761A15,15,0,0,1,877.891,512.712Z" transform="translate(-314.253 -205.831)" fill="#fbbebe"/>
    <path id="Path_269" data-name="Path 269" d="M896.924,538.149a74.1,74.1,0,0,1-3.991,14.694,55.366,55.366,0,0,0-2.348,6.587c-.5,2.022-.4,4.187-.867,6.215-.574,2.524-1.148,5.055-1.611,7.6a49.817,49.817,0,0,0-.926,11.8,4.937,4.937,0,0,0,.352,1.82c.215.47.561.874.763,1.357a3.26,3.26,0,0,1-.183,2.609,7.554,7.554,0,0,1-1.344,2.035c-6.078,1.813-12.581,1.22-18.914,1.6-5.837.352-11.74,1.552-17.492.554-.652-2.609.437-5.341,1.37-7.885,2.707-7.389,5.7-15.085,5.218-22.827a23.646,23.646,0,0,0-.307-2.694c-.946-5.485.085-11.165,1.735-16.481a28.281,28.281,0,0,0,.744-10.292,18.8,18.8,0,0,1-.046-3.372,5.928,5.928,0,0,1,1.226-3.15c0-.046.059-.091.091-.137a.9.9,0,0,1,.489,0h0a.418.418,0,0,0,.326,0l.072-.046a.163.163,0,0,1,.189,0c.15.091.235.4.561.463a12.989,12.989,0,0,0,1.454.137,7.831,7.831,0,0,1,1.735.248h.078a5.092,5.092,0,0,0,2.53-.215,6.725,6.725,0,0,0,1.552-.6c.144-.156,1.044-.3,1.226-.411.594-.359.463-2.041.587-2.733a7.517,7.517,0,0,1,.489-2.022,3.444,3.444,0,0,1,2.791-1.624,14.863,14.863,0,0,1,3.346.3c2.433.346,4.924.287,7.311.848,1.2.281,2.511.7,3.613.157.3.072.346.333.346.652a4.179,4.179,0,0,1-.182.894c-.418,1.8,1,3.457,2.3,4.761a7.38,7.38,0,0,0,1.924,1.533c.652.3,1.3.424,1.957.75a3.56,3.56,0,0,1,1.3,1.194,4.982,4.982,0,0,1,.744,1.9A11.352,11.352,0,0,1,896.924,538.149Z" transform="translate(-306.723 -212.296)" fill="#3f3d56"/>
    <path id="Path_270" data-name="Path 270" d="M900.2,541.737a74.1,74.1,0,0,1-3.991,14.694,55.345,55.345,0,0,0-2.348,6.587c-.5,2.022-.4,4.187-.867,6.215-.574,2.524-1.148,5.055-1.611,7.6-.137.078-.28.15-.424.215a10.009,10.009,0,0,1-2.557.822,15.653,15.653,0,0,1-4.774-.156l-9.307-1.246c-3.717-.5-7.676-1.109-10.435-3.626a22.264,22.264,0,0,1-3.639-4.97,23.659,23.659,0,0,0-.307-2.694c-.946-5.485.085-11.166,1.735-16.481a28.286,28.286,0,0,0,.744-10.292,18.794,18.794,0,0,1-.046-3.372,5.928,5.928,0,0,1,1.226-3.15,4.643,4.643,0,0,1,.581-.13h0a2.9,2.9,0,0,1,.4-.052h.189a2.849,2.849,0,0,1,.652.078,11.806,11.806,0,0,1,1.3.5h.078a5,5,0,0,0,1.735.248c.861,0,1.748-.137,2.609-.2a4.813,4.813,0,0,1,3.091.554,18.533,18.533,0,0,1,1.722,1.572,7.4,7.4,0,0,0,2.172,1.18,23.081,23.081,0,0,0,17.361-.365,3.4,3.4,0,0,1,1.741-.443,3.262,3.262,0,0,1,1.252.535c.391.228.776.45,1.174.652a4.982,4.982,0,0,1,.743,1.9A11.348,11.348,0,0,1,900.2,541.737Z" transform="translate(-309.996 -215.885)" opacity="0.1"/>
    <path id="Path_271" data-name="Path 271" d="M902.874,536.752a34.807,34.807,0,0,1-7.435-3.261,3.333,3.333,0,0,0-1.252-.535,3.5,3.5,0,0,0-1.748.443,23.068,23.068,0,0,1-17.355.365,7.545,7.545,0,0,1-2.172-1.18,19.5,19.5,0,0,0-1.722-1.572c-2.146-1.389-5.113.241-7.513-.652a13.3,13.3,0,0,0-1.3-.5c-1.9-.476-3.828,1.415-5.694.841a31.729,31.729,0,0,0-1.533,5.818,63.411,63.411,0,0,0-.424,6.861c0,1.376-.065,2.752,0,4.128a1.354,1.354,0,0,1,1.03,2.139,53.464,53.464,0,0,1-4.813,10.181,22.122,22.122,0,0,1,4.031,3.078c2.283,2.413,3.4,5.8,5.87,8.029,2.778,2.511,6.737,3.124,10.435,3.62l9.307,1.246a15.91,15.91,0,0,0,4.781.163,10.062,10.062,0,0,0,2.55-.828,4.563,4.563,0,0,0,1.422-.939,5.216,5.216,0,0,0,.841-1.3c.737-1.474,1.409-2.981,2.028-4.507.215-.541.541-1.174,1.128-1.22,3.457-3.117,6.718-6.313,10.174-9.431a22.547,22.547,0,0,0,3.711-3.913c1.715-2.537.156-6.131,0-9.2a11.6,11.6,0,0,0-.294-2.328C906.363,540.072,905.046,537.411,902.874,536.752Z" transform="translate(-306.992 -215.217)" fill="#0084ff"/>
    <path id="Path_272" data-name="Path 272" d="M840.92,519.009c-.522,1.044-1.774,1.546-2.739,2.2l-3.307,2.27a2.2,2.2,0,0,1-1.637.561,2.152,2.152,0,0,1-1.22-1.141v-.47a4.375,4.375,0,0,1,.209-1.559A4.858,4.858,0,0,1,833.687,519a11.961,11.961,0,0,1,4.285-2.609,1.468,1.468,0,0,1,.783-.078,1.033,1.033,0,0,1,.287.124,3.787,3.787,0,0,1,.587.848C839.889,517.815,841.187,518.474,840.92,519.009Z" transform="translate(-300.409 -210.524)" opacity="0.1"/>
    <path id="Path_273" data-name="Path 273" d="M849.138,526.108a4.751,4.751,0,0,1-2.824-1.617l-2.472-2.3a2.31,2.31,0,0,1-.43-.483,3.381,3.381,0,0,1-.3-.8,9.2,9.2,0,0,0-2.4-3.444,1.564,1.564,0,0,0-.711-.509,1.428,1.428,0,0,0-.789.078,11.928,11.928,0,0,0-4.285,2.609,4.871,4.871,0,0,0-1.461,1.878,4.336,4.336,0,0,0-.209,1.559,11.974,11.974,0,0,0,1.135,4.983c.111.241.235.483.365.717a22.584,22.584,0,0,0,3.065,3.985l1.552,1.735c1.526,1.709,3.052,3.417,4.709,4.989a6.22,6.22,0,0,0,2.113,1.474,2.361,2.361,0,0,0,2.426-.391,3.51,3.51,0,0,0,.691-1.239,24.394,24.394,0,0,0,2.015-8.133,30.713,30.713,0,0,0-.143-3.372C851.088,526.642,850.247,526.179,849.138,526.108Z" transform="translate(-300.84 -210.749)" fill="#0084ff"/>
    <path id="Path_274" data-name="Path 274" d="M876.459,654.973a150.7,150.7,0,0,1-1.4,19.611c-.13,1.05-.274,2.1-.346,3.15-.215,3.046.137,6.1-.15,9.131-.15,1.637-.489,3.261-.776,4.859a86.4,86.4,0,0,0-1.109,21.62c.9,12.02-1.859,24.046-.606,36.034a29.136,29.136,0,0,1-.385,6.972,29.553,29.553,0,0,1-1.011,4.213q-1.428,4.9-2.87,9.783a3.4,3.4,0,0,1-.652,1.357,3.091,3.091,0,0,1-2.446.724c-3.763-.117-7.3-1.741-10.722-3.326a3.736,3.736,0,0,1-1.076-.652c-.711-.737-.652-1.9-.965-2.87a27.315,27.315,0,0,0-1.644-2.883,9.406,9.406,0,0,1-.711-2.967q-.652-5.009-.887-10.057c-.248-4.735,2.883-9.092,3.913-13.7,1.957-9.052.3-18.757,3.776-27.346,1.1-2.713-.5-6-.652-8.922a28.288,28.288,0,0,0-.73-5.6c-.652-2.452-2.028-4.761-2.126-7.3a26.833,26.833,0,0,1,.828-5.446,24.478,24.478,0,0,0-.111-8.042c-.346-2.191-.874-4.383-1.4-6.522l-.117.241a73.692,73.692,0,0,0-4.089,9.62c-.522,1.6-.978,3.228-1.63,4.781-.535,1.3-1.194,2.5-1.839,3.724a106.943,106.943,0,0,0-6.033,13.4c-.809,2.257-1.52,4.565-2.224,6.828l-4.833,15.653c-1.3,4.115-2.733,8.094-4.011,12.2-1.807,5.87-3.613,11.687-5.713,17.427-1.957,5.446-4.285,11.087-3.587,16.84a12.392,12.392,0,0,1-5.759,1.167,33.72,33.72,0,0,1-9.783-2.374,7.605,7.605,0,0,1-3.378-2.009c-1.448-1.767-1.089-4.357-.652-6.607a15.954,15.954,0,0,1,.782-2.974c.5-1.2,1.3-2.263,1.813-3.45,1.024-2.276,1.089-4.852,1.494-7.324s1.3-5.081,3.417-6.424c.359-4.344,2.146-8.628,3.13-12.874.744-3.215.991-6.522,1.578-9.783a21.488,21.488,0,0,1,3.5-9.163,14.524,14.524,0,0,1,1.774-7.826,8.555,8.555,0,0,0,.776-1.663,9.557,9.557,0,0,0,.209-1.722,10.18,10.18,0,0,1,2.752-6.046c-.652-2.381.254-4.865,1.07-7.174a24.926,24.926,0,0,0,1.37-9.176,8.042,8.042,0,0,1,.124-2.609c.182-.652.541-1.207.75-1.833a10.431,10.431,0,0,0,.294-2.341,27.081,27.081,0,0,1,3.261-10c.939-1.839.144-4.337.339-6.385.339-3.4.711-6.926,2.4-9.894.313-.561.652-1.1.933-1.676a7.256,7.256,0,0,0,.541-2.609,9.6,9.6,0,0,0-.267-4.122c3.489-2.9,8.25-3.718,12.79-3.913s9.131.215,13.572-.75c1.3-.294,2.609-.7,3.985-.893,3.124-.457,6.294.254,9.379.959a11.171,11.171,0,0,0,1.3,5.655,60.7,60.7,0,0,1,4.833,23.3Z" transform="translate(-288.638 -248.307)" fill="#33313f"/>
    <path id="Path_275" data-name="Path 275" d="M889.853,673.29l-7.494,16.853c-.346-2.191-.874-4.383-1.4-6.522l-.117.241v-.352l4.083-8.981Z" transform="translate(-317.392 -265.131)" opacity="0.1"/>
    <path id="Path_276" data-name="Path 276" d="M923.581,617.045a2.816,2.816,0,0,1-1.487.554,7.232,7.232,0,0,1-2.439-.333l-5.87-1.467a2.878,2.878,0,0,1-.535-.189c.1-1.024.293-2.211.848-2.609.828-.554,3.307.189,4.246.32,1.617.222,3.261.483,4.839.789a12.929,12.929,0,0,1,.4,2.935Z" transform="translate(-328.664 -244.091)" opacity="0.1"/>
    <path id="Path_277" data-name="Path 277" d="M928.219,558.7c.124.541.3,1.076.4,1.624a12.391,12.391,0,0,1-.137,4.037l-.535,3.73-.535,3.75-2.067,14.433-.509,3.574-.717,4.989a3.587,3.587,0,0,1-.313,1.2,2.5,2.5,0,0,1-2.041,1.206,7.4,7.4,0,0,1-2.439-.333l-5.87-1.474a1.839,1.839,0,0,1-.717-.293,1.415,1.415,0,0,1-.378-1.376c.085-.5.3-.959.372-1.454.143-.965-.261-1.957-.117-2.915a7.254,7.254,0,0,1,.652-1.754c1.957-4.324.822-9.372,1.487-14.068a21.326,21.326,0,0,1,4.526-10.07,28.9,28.9,0,0,1,5-4.9c.73-.567,1.891-1.735,2.811-1.957C928.272,556.4,928.024,557.878,928.219,558.7Z" transform="translate(-328.34 -224.551)" fill="#0084ff"/>
    <path id="Path_278" data-name="Path 278" d="M865.345,471.9c-.43,1.37.241,2.876-.065,4.272-.333,1.539-1.781,2.609-2.191,4.154-.652,2.354,1.344,4.5,2.8,6.457,5.413,7.265,4.7,17.322,2.85,26.186a135.207,135.207,0,0,1-6.163,20.87,15.993,15.993,0,0,1-3.32,5.824c3-.861,6.189-1.728,9.2-.893,3.809,1.057,7.1,4.754,10.957,3.913,2.322-.515,3.952-2.576,6.039-3.718,3.913-2.107,8.629-.783,12.992-.1a5.1,5.1,0,0,0,2.837-.143A4.715,4.715,0,0,0,903,537.137a16.083,16.083,0,0,0,3.352-8.674,11.127,11.127,0,0,0-3.2-8.563,18.32,18.32,0,0,1-2.746-2.609,8.1,8.1,0,0,1-1.076-3.952c-.515-7.174,1.233-14.5-.568-21.438-.652-2.472-1.715-4.839-2-7.37-.359-3.15.5-6.522-.756-9.4a9.223,9.223,0,0,0-5.5-4.748,30.116,30.116,0,0,0-7.331-1.3C879.6,468.774,866.839,467.241,865.345,471.9Z" transform="translate(-309.886 -193.936)" fill="#33313f"/>
    <g id="Group_40" data-name="Group 40" transform="translate(549.374 276.475)" opacity="0.1">
      <path id="Path_279" data-name="Path 279" d="M870.531,518.144a134.943,134.943,0,0,1-6.131,20.785c.45-.893.828-1.833,1.187-2.765a134.493,134.493,0,0,0,6.163-20.87c1.859-8.87,2.57-18.914-2.844-26.185-1.3-1.735-2.981-3.613-2.922-5.648a6.949,6.949,0,0,0-1.109,2.048c-.652,2.354,1.344,4.5,2.8,6.457C873.094,499.224,872.383,509.28,870.531,518.144Z" transform="translate(-861.048 -475.582)"/>
      <path id="Path_280" data-name="Path 280" d="M868.519,476.487a6.346,6.346,0,0,0,1.148-2.2,11.17,11.17,0,0,0-.078-2.909,3.137,3.137,0,0,0-1.083,1.493C868.121,474.028,868.564,475.28,868.519,476.487Z" transform="translate(-862.421 -471.38)"/>
      <path id="Path_281" data-name="Path 281" d="M904.229,568.069a4.7,4.7,0,0,1-1.722,1.578,4.982,4.982,0,0,1-2.837.143c-4.363-.652-9.131-2-12.992.111-2.094,1.135-3.718,3.2-6.046,3.717-3.854.861-7.141-2.837-10.95-3.913-2.7-.75-5.544-.13-8.263.652a11.4,11.4,0,0,1-2.159,3.117c3-.861,6.189-1.728,9.2-.893,3.809,1.057,7.1,4.754,10.957,3.913,2.322-.515,3.952-2.576,6.039-3.718,3.913-2.107,8.629-.783,12.992-.1a5.1,5.1,0,0,0,2.837-.143A4.715,4.715,0,0,0,903,570.945a17.53,17.53,0,0,0,2.7-5.165A18.979,18.979,0,0,1,904.229,568.069Z" transform="translate(-859.26 -504.213)"/>
    </g>
  </g>
</svg>
