<svg xmlns="http://www.w3.org/2000/svg" width="302.978" height="257.751" viewBox="0 0 302.978 257.751">
  <g id="undraw_confidential_letter_w6ux" transform="translate(0 -0.014)">
    <path id="Path_906" data-name="Path 906" d="M592.652,201c-2.862,5.929-8.128,10.342-13.644,13.935a86.277,86.277,0,0,1-18.734,9.154c-.907.318-1.823.621-2.74.907H518.308c-.254-.29-.5-.594-.735-.907a15.967,15.967,0,0,1-3.289-11.422c.649-5.3,4.672-10.17,9.893-11.3s11.172,1.991,12.755,7.09c.875-9.83,1.882-20.072,7.108-28.445a30.131,30.131,0,0,1,21.814-13.975,27.47,27.47,0,0,1,15.187,2.781c.431.218.857.445,1.274.68a25.409,25.409,0,0,1,7.321,6.246A24.54,24.54,0,0,1,592.652,201Z" transform="translate(-401.624 -165.875)" fill="#f2f2f2"/>
    <path id="Path_907" data-name="Path 907" d="M612.032,172.935a.69.69,0,0,1-.281.621,143.775,143.775,0,0,0-40.983,53.969c-.136.3-.268.6-.395.907h-1.805c.127-.3.254-.608.386-.907q2.579-6.015,5.7-11.785a145.982,145.982,0,0,1,15.831-23.433,143.822,143.822,0,0,1,20.081-19.936.872.872,0,0,1,.191-.118.924.924,0,0,1,1.274.68Z" transform="translate(-431.341 -169.312)" fill="#fff"/>
    <path id="Path_908" data-name="Path 908" d="M447.479,294.2H274.657a8.569,8.569,0,0,0-4.246,1.12,8.407,8.407,0,0,0-.893.585,8.6,8.6,0,0,0-3.479,6.913v89.813a8.626,8.626,0,0,0,8.618,8.618H447.479a8.626,8.626,0,0,0,8.618-8.618V302.813A8.626,8.626,0,0,0,447.479,294.2Zm7.711,98.431a7.722,7.722,0,0,1-7.711,7.711H274.657a7.722,7.722,0,0,1-7.711-7.711V302.813a7.754,7.754,0,0,1,5.343-7.339c.064-.018.122-.041.186-.059a7.71,7.71,0,0,1,2.182-.313H447.479a7.722,7.722,0,0,1,7.711,7.711Z" transform="translate(-266.039 -235.981)" fill="#3f3d56"/>
    <path id="Path_909" data-name="Path 909" d="M794.1,504.621a4.873,4.873,0,0,0,.891-7.419l2.709-32.3-7.759.853-2.126,31.438a4.9,4.9,0,0,0,6.285,7.428Z" transform="translate(-550.418 -329.255)" fill="#ffb8b8"/>
    <path id="Path_910" data-name="Path 910" d="M466.451,530.6H460.89l-2.645-21.45h8.207Z" transform="translate(-250.385 -278.194)" fill="#ffb8b8"/>
    <path id="Path_911" data-name="Path 911" d="M447.186,552.939h10.725v6.753H440.433a6.753,6.753,0,0,1,6.753-6.753Z" transform="translate(-240.653 -302.118)" fill="#2f2e41"/>
    <path id="Path_912" data-name="Path 912" d="M553.452,530.6H547.89l-2.645-21.45h8.207Z" transform="translate(-297.922 -278.194)" fill="#ffb8b8"/>
    <path id="Path_913" data-name="Path 913" d="M534.186,552.939h10.725v6.753H527.433a6.753,6.753,0,0,1,6.753-6.753Z" transform="translate(-288.189 -302.118)" fill="#2f2e41"/>
    <path id="Path_914" data-name="Path 914" d="M730.368,581.964c-.06,0-.121,0-.182-.008l-7.871-.63a2.268,2.268,0,0,1-2.058-2.623l11.933-73.81.8-10.411a2.255,2.255,0,0,1,1.776-2.042l12-2.625a2.253,2.253,0,0,1,2.357.935l2.927,4.278a50.082,50.082,0,0,0,3.74,4.767c2.077,2.365,5.607,7.616,5.924,16.21a57.433,57.433,0,0,0,.877,8.416l9.663,52.055a2.267,2.267,0,0,1-2.014,2.615l-7.461.565a2.259,2.259,0,0,1-2.4-1.669l-13.235-49.216a.454.454,0,0,0-.876,0L732.558,580.28a2.27,2.27,0,0,1-2.191,1.685Z" transform="translate(-514.208 -342.839)" fill="#2f2e41"/>
    <circle id="Ellipse_152" data-name="Ellipse 152" cx="11.141" cy="11.141" r="11.141" transform="translate(225.95 91.246)" fill="#ffb8b8"/>
    <path id="Path_915" data-name="Path 915" d="M746.693,460.907,746.462,445c-.849-10.175,3.658-15.518,7.588-18.206a9.035,9.035,0,0,1,6.987-1.337l8.768,1.9a9.241,9.241,0,0,1,5.922,4.217,8.628,8.628,0,0,1,.985,6.807,9.342,9.342,0,0,1-3.81,5.217c-7.534,5.318-8.065,14.252-8.069,14.341l-.009.185Z" transform="translate(-528.486 -307.587)" fill="#0084ff"/>
    <path id="Path_916" data-name="Path 916" d="M795.84,452.1h-7.711a2.043,2.043,0,0,1-2.041-2.041V436.68a5.9,5.9,0,1,1,11.794,0v13.381A2.044,2.044,0,0,1,795.84,452.1Z" transform="translate(-550.194 -310.613)" fill="#0084ff"/>
    <path id="Path_917" data-name="Path 917" d="M682.783,469.392a5.006,5.006,0,0,1-7.483.216c-4.394-4.608,2.789-11.527,7.2-6.909h0a4.845,4.845,0,0,1,.432.508l22.239-.553,2.654-4.855,8.158,3.168c-1.566,2.429-3.365,11.961-7.461,11.5C707.985,472.479,683.332,469.431,682.783,469.392Z" transform="translate(-488.91 -325.375)" fill="#ffb8b8"/>
    <path id="Path_918" data-name="Path 918" d="M750.545,450.428l-6.217-4.562a2.043,2.043,0,0,1-.438-2.853l7.917-10.788a5.9,5.9,0,1,1,9.508,6.978L753.4,449.991A2.044,2.044,0,0,1,750.545,450.428Z" transform="translate(-526.921 -310.085)" fill="#0084ff"/>
    <path id="Path_919" data-name="Path 919" d="M774.652,376.58a4.133,4.133,0,0,0-.708-4.608c-2.1-2.113-5.37-.7-8.2-.911-4.718-.345-7.931-5.971-6.523-10.487s6.415-7.319,11.136-7.021,9,3.218,11.841,7c1.948-3.135,6.733-3.5,9.821-1.48s4.686,5.714,5.346,9.345.553,7.363,1.109,11.011c1.348,8.844,7.056,17.172,15.315,20.61s18.828,1.228,24.231-5.9a39.359,39.359,0,0,1-24.586,41.347c-4.476,1.771-9.418,2.712-14.13,1.727-7.607-1.59-13.523-8.1-16.1-15.426s-2.27-15.375-1.017-23.044c.771-4.724,1.626-10.318-1.82-13.641a8.275,8.275,0,0,0-3.327-1.678,4.446,4.446,0,0,1-2.535-6.542Q774.585,376.729,774.652,376.58Z" transform="translate(-535.33 -268.403)" fill="#2f2e41"/>
    <path id="Path_920" data-name="Path 920" d="M756.692,733.032H653.272a.454.454,0,0,1,0-.907H756.692a.454.454,0,0,1,0,.907Z" transform="translate(-477.375 -475.267)" fill="#3f3d56"/>
    <path id="Path_921" data-name="Path 921" d="M363.711,350.615a4.076,4.076,0,0,1-1.968-.507l-90.286-49.693a.454.454,0,0,1,.437-.795l90.286,49.693a3.167,3.167,0,0,0,3.013.027l91.772-48.413a.454.454,0,0,1,.423.8l-91.772,48.412A4.079,4.079,0,0,1,363.711,350.615Z" transform="translate(-268.871 -238.914)" fill="#3f3d56"/>
    <path id="Path_922" data-name="Path 922" d="M309.935,471.453h-12.7a3.629,3.629,0,0,1,0-7.258h12.7a3.629,3.629,0,0,1,0,7.258Z" transform="translate(-281.101 -328.869)" fill="#3f3d56"/>
    <path id="Path_923" data-name="Path 923" d="M324.9,498.453h-27.67a3.629,3.629,0,0,1,0-7.258H324.9a3.629,3.629,0,0,1,0,7.258Z" transform="translate(-281.101 -343.622)" fill="#3f3d56"/>
    <circle id="Ellipse_153" data-name="Ellipse 153" cx="14.515" cy="14.515" r="14.515" transform="translate(80.289 97.223)" fill="#0084ff"/>
  </g>
</svg>
