<svg id="Group_93" data-name="Group 93" xmlns="http://www.w3.org/2000/svg" width="136.922" height="331.948" viewBox="0 0 136.922 331.948">
  <path id="Path_280" data-name="Path 280" d="M304.308,379.77S283.595,375,272.2,383.747s14.5,28.638,14.5,28.638Z" transform="translate(-227.76 -316.928)" fill="#2f2e41"/>
  <path id="Path_281" data-name="Path 281" d="M340.1,513.608a8,8,0,0,1,6-10.7l4.186-28.117,11,9.86-5.662,25.189a8.043,8.043,0,0,1-15.523,3.768Z" transform="translate(-242.131 -336.626)" fill="#ffb8b8"/>
  <path id="Path_282" data-name="Path 282" d="M68.008,515.57l9.731-.646,2.14-37.842-14.362.953Z" transform="translate(-13.398 -192.622)" fill="#ffb8b8"/>
  <path id="Path_283" data-name="Path 283" d="M0,0H30.651V11.843H11.843A11.843,11.843,0,0,1,0,0H0Z" transform="translate(83.35 331.121) rotate(180)" fill="#2f2e41"/>
  <path id="Path_284" data-name="Path 284" d="M89.789,499.458l9.149,3.377,17.381-33.683-13.5-4.984Z" transform="translate(-18.362 -189.981)" fill="#ffb8b8"/>
  <path id="Path_285" data-name="Path 285" d="M0,0H30.651V11.843H11.843A11.843,11.843,0,0,1,0,0H0Z" transform="translate(95.086 327.862) rotate(-159.739)" fill="#2f2e41"/>
  <path id="Path_286" data-name="Path 286" d="M323.551,503.688s9.855,5.307,6.823,26.533l-3.032,80.358-16.753,36.632-14.4-3.79,9.172-29.81L293.228,561.3l-1.591,95.005-13.646,2.274L258.356,500.656l25.017-11.371Z" transform="translate(-225.521 -339.589)" fill="#2f2e41"/>
  <circle id="Ellipse_126" data-name="Ellipse 126" cx="19.538" cy="19.538" r="19.538" transform="translate(43.267 14.746)" fill="#ffb8b8"/>
  <path id="Path_287" data-name="Path 287" d="M296.575,375.4l-9.855,15.92-14.4-14.4L245.388,395.77a5.093,5.093,0,0,0-1.808,6.08c4.142,10.242,14.749,40.517,11.679,75.517,0,0,20.468-5.307,41.695.758s26.533,3.79,26.533,3.79-5.307-38.663-2.274-47c2.515-6.917,7.639-30,9.313-37.676a3.458,3.458,0,0,0-1.692-3.755Z" transform="translate(-222.424 -316.301)" fill="#0084ff"/>
  <path id="Path_288" data-name="Path 288" d="M347.324,398.238h0a3.464,3.464,0,0,1,3.829,2.5l12.833,46.34-3.032,28.049-14.4-2.274,1.516-19.71-10.613-25.017,7.006-27.324a3.464,3.464,0,0,1,2.866-2.569Z" transform="translate(-241.696 -320.963)" fill="#0084ff"/>
  <path id="Path_289" data-name="Path 289" d="M274.228,307.965a13.926,13.926,0,0,1,12.84-6.832,27.29,27.29,0,0,1,7.76,2.172l12.773,4.982c3.305,1.289,6.925,2.868,8.359,6.113,1.331,3.012.338,6.49-.667,9.625l-4.779,14.9a45.367,45.367,0,0,0-2.708-9.845,15.244,15.244,0,0,0-6.619-7.547c-3.318-1.7-7.228-1.667-10.953-1.488-5.275.254-11.01.925-14.758,4.645a15.329,15.329,0,0,0-3.89,7.6,45.726,45.726,0,0,0-.816,8.6,71.29,71.29,0,0,1-5.444-11.671,28.877,28.877,0,0,1-2.023-9.447,13.287,13.287,0,0,1,3.045-8.986,8.716,8.716,0,0,1,8.766-2.759" transform="translate(-226.531 -301.108)" fill="#2f2e41"/>
  <path id="Path_290" data-name="Path 290" d="M257.933,527.608a8,8,0,0,0-6-10.7l-4.186-28.117-11,9.86,5.662,25.189a8.043,8.043,0,0,0,15.523,3.768Z" transform="translate(-221.103 -339.489)" fill="#ffb8b8"/>
  <path id="Path_291" data-name="Path 291" d="M244.084,400.651h0a5.1,5.1,0,0,0-4.257,4.777L235.484,492.3H251.4l5.307-46.243-6.753-41.2a5.1,5.1,0,0,0-5.873-4.207Z" transform="translate(-220.844 -321.45)" fill="#0084ff"/>
  <path id="Path_292" data-name="Path 292" d="M136.618,536.346H0v-1.675H136.922Z" transform="translate(0 -204.398)" fill="#ccc"/>
</svg>
