<svg xmlns="http://www.w3.org/2000/svg" width="1075.517" height="646.899" viewBox="0 0 1075.517 646.899">
  <g id="undraw_sign_in_e6hj" transform="translate(0 0)" opacity="0.7">
    <path id="Path_209" data-name="Path 209" d="M136.593,733.557l63.431-91.138L136.561,743.471l-.037,10.369q-6.785-.057-13.433-.441c-.02-2.354,5.371-131.9,5.142-134.243.313-.089.488-12.252.613-12.785L62.578,506.777l66.338,90.168.2,2.666,3.935-100.648L76.086,395.895,133.5,481.278c.021-1.37,2.717-208.023,2.744-209.3.016.677,1.254,164.455,1.263,165.145L191.986,371.2,137.455,451.29l-.279,90.079,50.556-87.108c-63.093,127.033-49.13,82.58-50.742,150.44l73.436-121.291-73.5,138.765Z" transform="translate(-62.242 -126.55)" fill="#d0cde1"/>
    <path id="Path_210" data-name="Path 210" d="M1106.99,745.93l26.433-37.979-26.447,42.111-.015,4.321q-2.828-.024-5.6-.184c-.008-.981,2.238-54.966,2.143-55.942.13-.037.2-5.106.255-5.328l-27.611-41.5L1103.795,689l.082,1.111,1.64-41.943-23.738-42.951L1105.7,640.8c.009-.571,1.132-86.688,1.143-87.219.007.282.522,68.532.526,68.82l22.7-27.472L1107.35,628.3l-.116,37.538,21.068-36.3c-26.292,52.938-20.474,34.413-21.145,62.692l30.6-50.545-30.629,57.827Z" transform="translate(-62.242 -126.55)" fill="#d0cde1"/>
    <ellipse id="Ellipse_50" data-name="Ellipse 50" cx="536" cy="21" rx="536" ry="21" transform="translate(0 604.899)" fill="#d0cde1"/>
    <rect id="Rectangle_59" data-name="Rectangle 59" width="612" height="364.87" transform="translate(184 248.031)" fill="#3f3d56"/>
    <path id="Path_211" data-name="Path 211" d="M397.7,374.581a146.354,146.354,0,0,1-146.32,143.97c-1.72,0-3.43-.03-5.14-.09V374.581Z" transform="translate(-62.242 -126.55)" fill="#0084ff"/>
    <path id="Path_212" data-name="Path 212" d="M582.179,739.451H523.972a31.009,31.009,0,0,1,58.207,0Z" transform="translate(-62.242 -126.55)" fill="#0084ff"/>
    <path id="Path_213" data-name="Path 213" d="M858.242,550.721v122.9a61.523,61.523,0,0,1,0-122.9Z" transform="translate(-62.242 -126.55)" fill="#0084ff"/>
    <rect id="Rectangle_60" data-name="Rectangle 60" width="422.142" height="36.062" rx="18.031" transform="translate(279.459 380.615)" fill="#fff"/>
    <rect id="Rectangle_61" data-name="Rectangle 61" width="422.142" height="36.062" rx="18.031" transform="translate(279.459 451.679)" fill="#fff"/>
    <rect id="Rectangle_62" data-name="Rectangle 62" width="148.004" height="36.062" rx="18.031" transform="translate(553.597 522.743)" fill="#fff"/>
    <path id="Path_214" data-name="Path 214" d="M955.294,238.67s16.829,6.545,17.764,28.048-4.675,81.339-4.675,81.339,20.568,29.918,4.675,38.332-17.764-33.658-17.764-33.658l-18.7-88.818S947.814,237.735,955.294,238.67Z" transform="translate(-62.242 -126.55)" fill="#a0616a"/>
    <path id="Path_215" data-name="Path 215" d="M783.267,307.855s-40.2,26.178-42.072,5.61,12.154-100.973,12.154-100.973,1.87-34.592,21.5-26.178-5.61,37.4-5.61,37.4l2.8,65.445,18.7-.935Z" transform="translate(-62.242 -126.55)" fill="#a0616a"/>
    <path id="Path_216" data-name="Path 216" d="M847.777,332.163s-123.411-45.812-116.866,7.479,38.332,120.606,38.332,120.606l11.219,17.764h23.373l-14.959-96.3s53.291,29.918,69.185,25.243c0,0,20.568,137.435,28.048,147.719s20.568,134.63,20.568,134.63l12.154,14.959H942.2V493.906s40.2-130.89,9.349-137.435S847.777,332.163,847.777,332.163Z" transform="translate(-62.242 -126.55)" fill="#2f2e41"/>
    <path id="Path_217" data-name="Path 217" d="M777.657,465.858s-5.61-10.284-14.959,0S730.91,488.3,730.91,488.3s-48.616,11.219-9.349,20.569,43.942,0,43.942,0,6.544,1.87,12.154,3.74,42.072-4.675,42.072-10.285-12.378-39.134-17.408-34.058S777.657,465.858,777.657,465.858Z" transform="translate(-62.242 -126.55)" fill="#2f2e41"/>
    <path id="Path_218" data-name="Path 218" d="M920.623,695.011s-13.785-11.352-17.029-8.109-20.272,25.138-20.272,25.138-45.41,34.868-4.054,40.544,38.923-9.731,38.923-9.731h12.974c1.622,0,23.516-9.731,22.7-13.785s-10.542-37.116-13.785-34.776S920.623,695.011,920.623,695.011Z" transform="translate(-62.242 -126.55)" fill="#2f2e41"/>
    <circle id="Ellipse_51" data-name="Ellipse 51" cx="31.788" cy="31.788" r="31.788" transform="translate(701.391 13.017)" fill="#a0616a"/>
    <path id="Path_219" data-name="Path 219" d="M817.859,167.615S842.167,188.184,859,188.184s-24.308,38.333-24.308,38.333l-36.462-32.723Z" transform="translate(-62.242 -126.55)" fill="#a0616a"/>
    <path id="Path_220" data-name="Path 220" d="M827.208,226.516l-.728-7.366s18.492-32.836,24.1-35.641,9.349-2.8,9.349-2.8,18.7-19.633,39.267-9.349,69.185,75.729,69.185,75.729-34.592,2.8-29.918,29.918c0,0,34.592,88.818,25.243,89.753s-37.4-5.61-66.38,7.479-42.072,4.675-42.072,4.675L840.3,330.293s-28.048-15.894-27.113-29.918l-40.669,18.232,3.74-34.592L801.03,255.5S796.356,251.759,827.208,226.516Z" transform="translate(-62.242 -126.55)" fill="#575a89"/>
    <path id="Path_221" data-name="Path 221" d="M766.18,174.792a11.736,11.736,0,0,1-4.616,3.144c-1.81.511-4.092-.116-4.813-1.853l1.344-1.749-4.029-2.5,1.756-2.06-3.246-3.524,2.562-2.032-4.877-3.488c6.321-10.315,13.157-20.758,23.137-27.6s23.925-9.267,34.148-2.8c5.308,3.358,9.061,8.687,12.068,14.2,6.047,11.09,11.376,21.9,12.163,34.508-3.8-3.7-9.343-5.783-13.141-9.482a28.463,28.463,0,0,0-5.669-4.641c-3.973-2.24-8.726-2.438-13.174-3.449-3.74-.85-6.166-2.535-9-4.945-3.366-2.867-3.5-1.758-6.9,1.469Q775.044,166.4,766.18,174.792Z" transform="translate(-62.242 -126.55)" fill="#2f2e41"/>
  </g>
</svg>
