<svg xmlns="http://www.w3.org/2000/svg" width="997.753" height="723.247" viewBox="0 0 997.753 723.247">
  <g id="undraw_Team_chat_re_vbq1" transform="translate(0 0)">
    <path id="Path_122" data-name="Path 122" d="M841.68,386.08H497.9a20.48,20.48,0,0,1-20.615-20.294V166.147A15.316,15.316,0,0,1,492.7,150.969H846.63a15.561,15.561,0,0,1,15.664,15.42v199.4A20.479,20.479,0,0,1,841.68,386.08Z" transform="translate(-122.965 -136.119)" fill="#fff"/>
    <path id="Path_123" data-name="Path 123" d="M841.68,386.08H497.9a20.48,20.48,0,0,1-20.615-20.294V166.147A15.316,15.316,0,0,1,492.7,150.969H846.63a15.561,15.561,0,0,1,15.664,15.42v199.4A20.479,20.479,0,0,1,841.68,386.08ZM492.7,153.288a12.976,12.976,0,0,0-13.061,12.859v199.64A18.139,18.139,0,0,0,497.9,383.761H841.68a18.139,18.139,0,0,0,18.259-17.975v-199.4a13.22,13.22,0,0,0-13.308-13.1Z" transform="translate(-122.965 -136.119)" fill="#3f3d56"/>
    <path id="Path_124" data-name="Path 124" d="M513.631,361.365H819.717a18.7,18.7,0,0,0,18.848-18.555V197.218a18.7,18.7,0,0,0-18.848-18.555H513.631a18.7,18.7,0,0,0-18.848,18.555V342.81A18.7,18.7,0,0,0,513.631,361.365Z" transform="translate(-119.886 -131.663)" fill="#f2f2f2"/>
    <path id="Path_125" data-name="Path 125" d="M862.938,167.1H476.559v-9.742a19.485,19.485,0,0,1,19.722-19.192H843.216a19.485,19.485,0,0,1,19.722,19.192Z" transform="translate(-123.094 -138.163)" fill="#0084ff"/>
    <ellipse id="Ellipse_26" data-name="Ellipse 26" cx="5.046" cy="4.967" rx="5.046" ry="4.967" transform="translate(385.629 9.528)" fill="#fff"/>
    <ellipse id="Ellipse_27" data-name="Ellipse 27" cx="5.046" cy="4.967" rx="5.046" ry="4.967" transform="translate(404.782 9.528)" fill="#fff"/>
    <ellipse id="Ellipse_28" data-name="Ellipse 28" cx="5.046" cy="4.967" rx="5.046" ry="4.967" transform="translate(423.935 9.528)" fill="#fff"/>
    <path id="Path_129" data-name="Path 129" d="M941.476,598.309a11.5,11.5,0,0,0-.959-9.822,11.848,11.848,0,0,0-8.265-5.582l-7.1-40.847-15.968,14.719,9.193,36.532a11.747,11.747,0,0,0,9.3,12.6,11.94,11.94,0,0,0,13.807-7.6Z" transform="translate(-46.094 -73.679)" fill="#ffb8b8"/>
    <path id="Path_130" data-name="Path 130" d="M936.161,593.149l-15.677,4.05a2.963,2.963,0,0,1-3.581-2.015l-28.171-98.258-8.511-25.066a14.913,14.913,0,0,1,2.66-14.328,15.457,15.457,0,0,1,13.723-5.447h0a15.261,15.261,0,0,1,12.868,10.7l22.511,74.906L938.337,590a2.918,2.918,0,0,1-2.177,3.148Z" transform="translate(-51.389 -88.061)" fill="#ccc"/>
    <ellipse id="Ellipse_29" data-name="Ellipse 29" cx="28.932" cy="28.482" rx="28.932" ry="28.482" transform="translate(798.547 290.484)" fill="#ffb8b8"/>
    <path id="Path_131" data-name="Path 131" d="M632.229,619.109l-13.843-4.054,9.3-54.49,20.43,5.984Z" transform="translate(110.063 89.498)" fill="#ffb8b8"/>
    <path id="Path_132" data-name="Path 132" d="M812.989,765.128l-44.633-13.073.168-.556a18.172,18.172,0,0,1,22.541-12.014h0l27.26,7.985Z" transform="translate(-71.158 -42.277)" fill="#2f2e41"/>
    <path id="Path_133" data-name="Path 133" d="M762.1,618H747.653l-6.87-54.838h14.246Z" transform="translate(131.848 89.912)" fill="#ffb8b8"/>
    <path id="Path_134" data-name="Path 134" d="M945.538,763.032l-46.566,0v-.58A17.985,17.985,0,0,1,917.1,744.607h28.442Z" transform="translate(-47.911 -41.34)" fill="#2f2e41"/>
    <path id="Path_135" data-name="Path 135" d="M814.307,768.526h-14.5a5.336,5.336,0,0,1-4.072-1.878,5.161,5.161,0,0,1-1.142-4.284c-9.247-4.049,40.541-239.1,52.305-234.547l.387-.549,59.237,4.759c26.533,52.276,43.329,138.78,59.044,229.083a5.154,5.154,0,0,1-.876,4.387,5.324,5.324,0,0,1-4,2.109l-16.292.778a5.28,5.28,0,0,1-5.179-3.274L876.8,611.491a1.689,1.689,0,0,0-1.681-1.093,1.731,1.731,0,0,0-1.629,1.168L819.315,765.021a5.3,5.3,0,0,1-5.008,3.5Z" transform="translate(-66.691 -76.04)" fill="#2f2e41"/>
    <path id="Path_136" data-name="Path 136" d="M900.091,549.779l-.453-.033-63.07-4.686,11.063-69.266a36.57,36.57,0,0,1,31.478-30.4h0q.727-.1,1.464-.2a36.687,36.687,0,0,1,33.085,13.035,35.841,35.841,0,0,1,6.308,34.986Z" transform="translate(-59.018 -89.192)" fill="#ccc"/>
    <path id="Path_137" data-name="Path 137" d="M938.393,451.528c-19.895,8.959-46.887,7.356-77.747,0,4.27-11.515,7.6-22.637,3.823-30.8a24.515,24.515,0,0,1-.829-19.9,38.9,38.9,0,0,1,35.879-23.513h0c21.469,0,38.873,17.133,38.873,38.269Z" transform="translate(-54.732 -99.982)" fill="#2f2e41"/>
    <path id="Path_138" data-name="Path 138" d="M697.24,241.392h24.738V271.34H670.146v-3.276A26.885,26.885,0,0,1,697.24,241.392Z" transform="translate(119.276 38.54)" fill="#2f2e41"/>
    <path id="Path_139" data-name="Path 139" d="M838.435,604a11.546,11.546,0,0,0-.816-17.863l13.17-39.36-21.112,5.636-9.271,36.513a11.6,11.6,0,0,0,2.213,15.42A12.051,12.051,0,0,0,838.434,604Z" transform="translate(-62.248 -72.926)" fill="#ffb8b8"/>
    <path id="Path_140" data-name="Path 140" d="M838.078,597.053,822.3,593.4a2.911,2.911,0,0,1-2.2-3.433l21.889-99.8L846.4,464.1a15.143,15.143,0,0,1,9.171-11.43,15.541,15.541,0,0,1,14.715,1.519h0a14.979,14.979,0,0,1,6.272,15.392l-15.771,76.557L841.5,595.277a2.964,2.964,0,0,1-3.422,1.776Z" transform="translate(-61.961 -88.14)" fill="#ccc"/>
    <path id="Path_141" data-name="Path 141" d="M1090.49,762.156H641.678a1.16,1.16,0,1,1,0-2.319H1090.49a1.16,1.16,0,1,1,0,2.319Z" transform="translate(-93.915 -38.909)" fill="#ccc"/>
    <path id="Path_142" data-name="Path 142" d="M322.905,529.753a12.537,12.537,0,0,0-1.847.622L271.966,499.2l.677-13.956-21.261-3.759-3.638,24.592a9.249,9.249,0,0,0,5.412,9.776l60.462,27.171a12.239,12.239,0,0,0,9.318,10.361,12.461,12.461,0,0,0,13.141-4.914,12.017,12.017,0,0,0-.019-13.838,12.463,12.463,0,0,0-13.154-4.879Z" transform="translate(-163.837 -83.35)" fill="#ffb8b8"/>
    <path id="Path_143" data-name="Path 143" d="M271.224,502.667,244.9,497.882a5.3,5.3,0,0,1-3.613-2.5,5.147,5.147,0,0,1-.44-4.324l8.64-24.862a14.709,14.709,0,0,1,17.184-11.571,14.508,14.508,0,0,1,11.754,16.917l-.937,26.175a5.191,5.191,0,0,1-1.979,3.884,5.363,5.363,0,0,1-4.28,1.062Z" transform="translate(-165.099 -87.678)" fill="#3f3d56"/>
    <path id="Path_144" data-name="Path 144" d="M773.025,433.857H324.213a22.525,22.525,0,0,0-11.026,2.864,22.2,22.2,0,0,0-11.355,19.169V685.5a22.229,22.229,0,0,0,22.382,22.033H773.025A22.229,22.229,0,0,0,795.407,685.5V455.89A22.23,22.23,0,0,0,773.025,433.857Z" transform="translate(-154.193 -90.954)" fill="#fff"/>
    <path id="Path_145" data-name="Path 145" d="M773.025,433.857H324.213a22.525,22.525,0,0,0-11.026,2.864,22.2,22.2,0,0,0-11.355,19.169V685.5a22.229,22.229,0,0,0,22.382,22.033H773.025A22.229,22.229,0,0,0,795.407,685.5V455.89A22.23,22.23,0,0,0,773.025,433.857ZM793.051,685.5a19.9,19.9,0,0,1-20.026,19.714H324.213A19.9,19.9,0,0,1,304.187,685.5V455.89a19.857,19.857,0,0,1,13.876-18.763c.165-.047.318-.1.483-.151a20.316,20.316,0,0,1,5.666-.8H773.025a19.9,19.9,0,0,1,20.026,19.714Z" transform="translate(-154.193 -90.954)" fill="#3f3d56"/>
    <path id="Path_146" data-name="Path 146" d="M547.205,569.741a10.718,10.718,0,0,1-5.111-1.3L307.624,441.4a1.15,1.15,0,0,1-.464-1.575,1.188,1.188,0,0,1,1.6-.457l234.47,127.044a8.339,8.339,0,0,0,7.823.068l238.329-123.77a1.187,1.187,0,0,1,1.591.484,1.151,1.151,0,0,1-.492,1.567l-238.33,123.77A10.727,10.727,0,0,1,547.205,569.741Z" transform="translate(-153.27 -90.097)" fill="#3f3d56"/>
    <path id="Path_147" data-name="Path 147" d="M371.8,622.41H338.821a9.278,9.278,0,1,1,0-18.554H371.8a9.278,9.278,0,1,1,0,18.554Z" transform="translate(-149.287 -63.812)" fill="#3f3d56"/>
    <path id="Path_148" data-name="Path 148" d="M410.678,649.411H338.821a9.278,9.278,0,1,1,0-18.555h71.857a9.278,9.278,0,1,1,0,18.555Z" transform="translate(-149.287 -59.502)" fill="#3f3d56"/>
    <ellipse id="Ellipse_30" data-name="Ellipse 30" cx="37.696" cy="37.109" rx="37.696" ry="37.109" transform="translate(356.145 442.633)" fill="#0084ff"/>
    <path id="Path_149" data-name="Path 149" d="M366,453.3,532.12,521.528a2.39,2.39,0,0,0,1.791.009l171.27-68.232a2.313,2.313,0,0,0,1.429-2.593,2.347,2.347,0,0,0-2.312-1.876H366.9a2.347,2.347,0,0,0-2.31,1.864A2.312,2.312,0,0,0,366,453.3Z" transform="translate(-143.03 -88.562)" fill="#f2f2f2"/>
    <path id="Path_150" data-name="Path 150" d="M355.837,439.162a12.044,12.044,0,0,0-.282,1.9l-50.6,28.739-12.3-6.971-13.112,16.9L300.1,494.154a9.543,9.543,0,0,0,11.307-.271l52.181-40.525a12.5,12.5,0,0,0,13.62-3.424,12.024,12.024,0,0,0,1.566-13.752,12.42,12.42,0,0,0-12.512-6.308,12.3,12.3,0,0,0-10.42,9.289Z" transform="translate(-158.16 -91.607)" fill="#ffb8b8"/>
    <path id="Path_151" data-name="Path 151" d="M307.016,468.71l-16.355,20.867a5.355,5.355,0,0,1-8.015.432l-18.515-18.928a14.342,14.342,0,0,1-2.6-20.335,14.878,14.878,0,0,1,20.656-2.561l23.222,12.783a5.225,5.225,0,0,1,2.6,3.508,5.157,5.157,0,0,1-1,4.234Z" transform="translate(-161.917 -89.152)" fill="#3f3d56"/>
    <ellipse id="Ellipse_31" data-name="Ellipse 31" cx="28.932" cy="28.482" rx="28.932" ry="28.482" transform="translate(49.192 272.77)" fill="#ffb8b8"/>
    <path id="Path_152" data-name="Path 152" d="M89.505,619h14.442l6.87-54.838H89.5Z" transform="translate(15.93 90.072)" fill="#ffb8b8"/>
    <path id="Path_153" data-name="Path 153" d="M262.878,745.608H291.32a17.986,17.986,0,0,1,18.125,17.843v.579l-46.566,0Z" transform="translate(-161.126 -41.181)" fill="#2f2e41"/>
    <path id="Path_154" data-name="Path 154" d="M47.505,619H61.947l6.87-54.838H47.5Z" transform="translate(8.455 90.072)" fill="#ffb8b8"/>
    <path id="Path_155" data-name="Path 155" d="M220.878,745.608H249.32a17.986,17.986,0,0,1,18.125,17.843v.579l-46.566,0Z" transform="translate(-168.601 -41.181)" fill="#2f2e41"/>
    <path id="Path_156" data-name="Path 156" d="M270.3,757.259l-14.731-112.2a.576.576,0,0,0-.6-.541.565.565,0,0,0-.412.157.547.547,0,0,0-.168.4L250.16,755.648a5.248,5.248,0,0,1-5.3,5.022H227.369a5.232,5.232,0,0,1-5.3-5.093l-4.541-184.229,78.284.77,1.954,184.821a5.191,5.191,0,0,1-1.859,3.85A5.285,5.285,0,0,1,291.833,762l-16.964.046a5.258,5.258,0,0,1-4.568-4.784Z" transform="translate(-169.198 -69.002)" fill="#2f2e41"/>
    <path id="Path_157" data-name="Path 157" d="M217.6,599.051a5.233,5.233,0,0,1-3.345-4.094l-.781-101.249c-3.46-22.543-7.552-44.633,12.47-56.055l1.764-5.211a2.952,2.952,0,0,1,2.71-1.982l37.981-1.068a2.923,2.923,0,0,1,2.791,1.755l2.825,6.49,1,.563a54.736,54.736,0,0,1,27.8,54.283l-2.172,18.05L299.1,594.885a5.253,5.253,0,0,1-2.782,4.507c-11.034,5.948-23.258,7.982-34.824,7.982C242.062,607.374,224.491,601.628,217.6,599.051Z" transform="translate(-170.43 -91.667)" fill="#3f3d56"/>
    <path id="Path_158" data-name="Path 158" d="M246.786,432.485a30.937,30.937,0,0,1-28.219-16.678,30,30,0,0,1,3.1-32.258,31.128,31.128,0,0,1,30.9-11.164c6.363-3.8,13.76-6.362,21.174-5.711s14.746,4.984,17.519,11.784-.206,15.765-7.1,18.528c-4.42,1.772-9.411.913-14.127.2S260.174,396,256.07,398.4s-5.95,8.82-2.274,11.815a12.326,12.326,0,0,1,3.633,13.707C255.581,428.627,250.538,432.406,246.786,432.485Z" transform="translate(-169.603 -101.696)" fill="#2f2e41"/>
    <path id="Path_159" data-name="Path 159" d="M361.444,762.156H177.678a1.16,1.16,0,1,1,0-2.319H361.444a1.16,1.16,0,1,1,0,2.319Z" transform="translate(-176.5 -38.909)" fill="#ccc"/>
  </g>
</svg>
