<?xml version="1.0" encoding="utf-8"?>
<!-- Generator: Adobe Illustrator 22.1.0, SVG Export Plug-In . SVG Version: 6.00 Build 0)  -->
<svg version="1.1" id="Layer_1" xmlns="http://www.w3.org/2000/svg" xmlns:xlink="http://www.w3.org/1999/xlink" x="0px" y="0px"
	 viewBox="0 0 1200 800" style="enable-background:new 0 0 1200 800;" xml:space="preserve">
<style type="text/css">
	.st0{fill:#EBEBEB;}
	.st1{fill:#E0E0E0;}
	.st2{fill:#F5F5F5;}
	.st3{fill:#FAFAFA;}
	.st4{fill:#263238;}
	.st5{fill:#22A5EE;}
	.st6{fill:#FFFFFF;}
	.st7{fill:#455A64;}
	.st8{fill:#999999;}
	.st9{fill:#FFBE9D;}
	.st10{fill:#EB996E;}
	.st11{opacity:0.3;}
	.st12{fill:#AA6550;}
	.st13{opacity:0.6;}
	.st14{fill:#995037;}
	.st15{opacity:0.2;}
	.st16{opacity:0.5;fill:#EBEBEB;enable-background:new    ;}
	.st17{opacity:0.1;enable-background:new    ;}
	.st18{opacity:0.5;enable-background:new    ;}
	.st19{fill:#37474F;}
	.st20{opacity:0.5;}
	.st21{fill:#F7A9A0;}
	.st22{opacity:0.25;}
	.st23{opacity:0.5;fill:#22A5EE;enable-background:new    ;}
	.st24{opacity:0.2;enable-background:new    ;}
	.st25{opacity:0.4;enable-background:new    ;}
	.st26{opacity:0.3;fill:#FFFFFF;enable-background:new    ;}
	.st27{opacity:0.45;enable-background:new    ;}
	.st28{opacity:0.3;enable-background:new    ;}
	.st29{opacity:0.5;fill:#F5F5F5;enable-background:new    ;}
	.st30{opacity:0.25;fill:#FFFFFF;enable-background:new    ;}
	.st31{opacity:0.5;fill:#FFFFFF;enable-background:new    ;}
	.st32{opacity:0.1;fill:#FFFFFF;enable-background:new    ;}
	.st33{opacity:0.55;fill:#FFFFFF;enable-background:new    ;}
	.st34{opacity:0.15;enable-background:new    ;}
	.st35{opacity:0.6;fill:#FFFFFF;enable-background:new    ;}
	.st36{opacity:0.75;fill:#FFFFFF;enable-background:new    ;}
	.st37{opacity:0.55;enable-background:new    ;}
	.st38{opacity:0.4;fill:#FFFFFF;enable-background:new    ;}
	.st39{fill:#FFBDA7;}
	.st40{fill:#F0997A;}
	.st41{fill:#B16668;}
	.st42{fill:#FFA8A7;}
	.st43{fill:#E6E6E6;}
	.st44{opacity:0.7;}
	.st45{fill:#F0F0F0;}
	.st46{opacity:0.8;fill:#FFFFFF;enable-background:new    ;}
	.st47{opacity:5.000000e-02;enable-background:new    ;}
	.st48{opacity:0.2;fill:#FFFFFF;enable-background:new    ;}
	.st49{fill:none;stroke:#22A5EE;stroke-miterlimit:10;}
	.st50{opacity:0.7;fill:#FFFFFF;enable-background:new    ;}
	.st51{fill:#EEC1BB;}
	.st52{clip-path:url(#SVGID_2_);}
	.st53{fill:#D4827D;}
	.st54{fill:none;stroke:#263238;stroke-width:0.69;stroke-linecap:round;stroke-linejoin:round;}
	.st55{fill:#DE5753;}
</style>
<g>
	<g id="freepik--background-complete--inject-43_1_" transform="translate(0)">
		<path id="Path_1324_1_" class="st0" d="M651.5,398.8c1.3-0.8,2.9-0.8,4.2-0.1c0.7,0.4,1.3,0.8,1.9,1.1c0.7,0.3,1.3,0.7,1.9,1.1
			c0.5,0.5,0.9,1.2,1.1,1.9c0.2,0.7,0.2,1.5,0.2,2.2l0.2,4.5l0,0l18.1-0.6l-0.1,0.1l-0.2-5.8c0-1,0.4-2,1.1-2.8
			c0.7-0.7,1.5-1.3,2.4-1.7l1.2-0.8c0.4-0.3,0.9-0.5,1.4-0.6c1-0.3,2-0.2,3,0.2l5.1,2.7l-0.4,0.1l8.4-16.1l0.2,0.5l-5.2-2.7
			c-0.9-0.6-1.6-1.4-2-2.5c-0.2-0.5-0.3-1-0.3-1.5V375c-0.1-1.6,0.6-3.2,2-4.2l4.9-3.1l-0.2,0.7l-9.6-15.3l0.8,0.2l-5,3.1
			c-1,0.5-2.1,0.7-3.2,0.5c-0.5-0.1-1.1-0.3-1.5-0.6l-1.3-0.7l-1.3-0.6c-0.5-0.2-0.9-0.6-1.3-1c-0.8-0.8-1.3-1.8-1.4-2.9l-0.2-5.8
			l0.5,0.5l-18.1,0.5l0.5-0.5l0.1,5.8c0,1.1-0.4,2.1-1.1,2.9c-0.4,0.4-0.8,0.7-1.3,1l-1.2,0.7l-1.2,0.7c-1.3,0.9-3,1-4.5,0.4
			l-5.1-2.8l0.4-0.1l-8.7,15.8V370l5.1,2.8c0.8,0.5,1.5,1.4,1.8,2.3c0.2,1,0.3,1.9,0.3,2.9c0.1,1,0,2-0.1,2.9
			c-0.3,1-0.8,1.8-1.7,2.4l-5,3.1v0l9.5,15.4l0,0L651.5,398.8z M651.5,398.8l-4.6,2.9l0,0l-9.6-15.3l0,0l4.9-3.1
			c0.8-0.6,1.3-1.4,1.5-2.3c0.2-1,0.2-1.9,0.1-2.9c0-1-0.1-1.9-0.3-2.8c-0.3-0.9-0.9-1.7-1.7-2.2l-5.1-2.8l-0.2-0.1v-0.2l8.4-16
			l0.1-0.3l0.3,0.1l5.1,2.7c0.8,0.4,1.7,0.4,2.6,0.2c0.4-0.1,0.8-0.3,1.2-0.6l1.2-0.8l1.3-0.8c0.4-0.2,0.7-0.5,1-0.8
			c0.6-0.7,0.9-1.5,0.9-2.4l-0.2-5.8v-0.5h0.5l18.2-0.6h0.5v0.5l0.2,5.7c0.1,0.9,0.5,1.7,1.1,2.3c0.3,0.3,0.7,0.5,1,0.7l1.3,0.6
			l1.3,0.7c0.4,0.2,0.8,0.4,1.2,0.4c0.8,0.2,1.7,0,2.4-0.4l4.9-3l0.5-0.3l0.3,0.5l9.5,15.5l0.3,0.4l-0.4,0.3l-4.9,3.1
			c-0.7,0.5-1.2,1.2-1.4,2.1c-0.1,0.4-0.2,0.9-0.1,1.3v2.9c0,0.4,0.1,0.9,0.2,1.3c0.3,0.8,0.8,1.6,1.5,2l5.1,2.8l0.3,0.2l-0.2,0.3
			l-8.7,15.9l-0.1,0.2l-0.2-0.1l-5.1-2.8c-0.8-0.4-1.8-0.5-2.7-0.2c-0.9,0.3-1.7,0.8-2.5,1.3c-0.8,0.4-1.6,1-2.3,1.6
			c-0.6,0.7-1,1.6-1,2.5l0.1,5.8v0.1H679l-17.9,0.5l0,0l-0.2-4.5c0-0.7,0-1.5-0.2-2.2c-0.2-0.7-0.6-1.3-1.1-1.8
			c-0.6-0.5-1.2-0.9-1.9-1.2c-0.7-0.3-1.3-0.7-1.9-1.1C654.5,398,652.8,398,651.5,398.8L651.5,398.8z"/>
		<path id="Path_1325_1_" class="st0" d="M655.3,372c2.9-7.8,11.6-11.7,19.4-8.8c7.8,2.9,11.7,11.6,8.8,19.4
			c-1.4,3.7-4.1,6.6-7.7,8.3l-0.4,0.2c-3.7,1.6-7.9,1.7-11.6,0.2c-1.8-0.8-3.5-1.8-4.9-3.2C654.5,383.9,653.1,377.6,655.3,372
			L655.3,372z M655.3,372c-1.4,3.7-1.2,7.7,0.4,11.3c3.4,7.2,12,10.4,19.3,7c7.2-3.4,10.4-12,7-19.3c-1.6-3.3-4.3-5.9-7.7-7.3
			c-3.6-1.4-7.6-1.4-11.2,0.2C659.5,365.4,656.7,368.3,655.3,372L655.3,372z"/>
		<path id="Path_1327_1_" class="st0" d="M743.6,288.1l-6.3-11l-3.4,1.9c-1,0.5-2.2,0.5-3.1-0.1c-0.5-0.3-1.1-0.7-1.7-0.9
			c-1-0.5-1.6-1.5-1.7-2.7v-3.8h-12.6v3.9c0,1.1-0.7,2.2-1.7,2.7c-0.6,0.3-1.1,0.6-1.7,0.9c-0.9,0.6-2.1,0.6-3.1,0.1l-3.4-1.9
			l-6.4,11l3.4,1.9c1,0.6,1.6,1.7,1.5,2.8v1.9c0.1,1.1-0.5,2.2-1.5,2.8l-3.5,1.9l6.3,11l3.4-1.9c1-0.5,2.2-0.5,3.1,0.1
			c0.5,0.3,1.1,0.7,1.6,0.9c1,0.5,1.6,1.5,1.7,2.7v3.9h12.6v-3.9c0-1.1,0.7-2.2,1.7-2.7c0.6-0.3,1.1-0.6,1.6-0.9
			c0.9-0.6,2.1-0.7,3.1-0.1l3.4,1.9l6.3-11l-3.4-1.9c-1-0.6-1.6-1.6-1.5-2.8v-1.8c0-1.1,0.6-2.2,1.5-2.8L743.6,288.1z M731.4,293.8
			c0,5.7-4.6,10.3-10.3,10.3c-5.7,0-10.3-4.6-10.3-10.3c0-5.7,4.6-10.3,10.3-10.3C726.8,283.4,731.4,288.1,731.4,293.8L731.4,293.8z
			"/>
		<path id="Path_1328_1_" class="st0" d="M1014.1,202.6H903.5c0,0,11-30,27.8-30s22.2,20.7,22.2,20.7s11.4-11.2,20.8-11.2
			s17.5,14.8,17.5,14.8S1005,188.9,1014.1,202.6z"/>
		<path id="Path_1329_1_" class="st0" d="M836.4,382.3H725.7c0,0,11-30,27.8-30s22.2,20.7,22.2,20.7s11.4-11.3,20.8-11.3
			s17.5,14.9,17.5,14.9S827.2,368.6,836.4,382.3z"/>
		<path id="Path_1331_1_" class="st16" d="M938.5,333.3h-51.7c0,0,11.6-16.8,20.7-16.8s11.8,11.2,11.8,11.2s6.4-5.2,12.4-4.3
			C937.6,324.3,938.5,333.3,938.5,333.3z"/>
		<path id="Path_1332_1_" class="st0" d="M710.8,332.9H610c0,0,13.8-30.8,28.5-32.7s21.8,22.8,21.8,22.8s9.5-8.8,17-8.8
			s13.3,11.6,13.3,11.6S705.7,318,710.8,332.9z"/>
		<path id="Path_1333_1_" class="st16" d="M781,250.7h-68c0,0,11.7-22.3,24.4-22.6s19.4,16.9,19.4,16.9S776.4,229,781,250.7z"/>
	</g>
	<g id="freepik--Chart--inject-43_1_" transform="translate(30.726 250.014)">
		<rect id="Rectangle_1897_1_" x="610" y="292.1" class="st5" width="87.1" height="86.5"/>
		<rect id="Rectangle_1898_1_" x="610" y="292.1" class="st17" width="25.7" height="86.5"/>
		<rect id="Rectangle_1899_1_" x="723.1" y="252.2" class="st5" width="87.1" height="126.3"/>
		<rect id="Rectangle_1900_1_" x="723.1" y="252.2" class="st17" width="25.7" height="126.3"/>
		<rect id="Rectangle_1901_1_" x="836.1" y="212.4" class="st5" width="87.1" height="166.1"/>
		<rect id="Rectangle_1902_1_" x="836.1" y="212.4" class="st17" width="25.7" height="166.1"/>
		<rect id="Rectangle_1903_1_" x="949.1" y="172.6" class="st5" width="87.1" height="205.9"/>
		<rect id="Rectangle_1904_1_" x="949.1" y="172.6" class="st17" width="25.7" height="205.9"/>
	</g>
	<g id="freepik--Arrow--inject-43_1_" transform="translate(30.603 80.88)">
		<path id="Path_1334_1_" class="st5" d="M610,350.1c2.1,0,4.6,0,6.9-0.1s4.6-0.2,7-0.3c4.7-0.2,9.4-0.5,14.2-0.8
			c9.5-0.6,18.9-1.5,28.4-2.5c18.9-2.1,37.8-4.8,56.5-8.2c18.8-3.4,37.4-7.5,55.9-12.4c18.4-4.9,36.7-10.5,54.7-16.9
			c18-6.4,35.7-13.7,53-21.8c17.4-8.1,34.2-17.2,50.5-27.4l12.1-7.7l11.8-8.3c4-2.7,7.7-5.7,11.5-8.6l5.7-4.4l2.8-2.2l2.7-2.3
			l10.9-9.4c1.9-1.5,3.5-3.2,5.3-4.9l5.2-5l5.2-5c1.7-1.7,3.3-3.4,5-5.2l9.9-10.5l0.6,0.6l-9.4,11c-1.5,1.8-3.1,3.7-4.7,5.5l-5,5.3
			l-5,5.3c-1.7,1.7-3.3,3.6-5.1,5.2l-10.5,10l-2.6,2.5l-2.8,2.4l-5.5,4.7c-3.7,3.1-7.3,6.4-11.2,9.3l-11.5,8.9l-11.9,8.3
			c-16,11.1-32.6,21.2-49.8,30.2c-17.2,9.1-34.8,17.4-52.8,24.7c-18,7.4-36.3,14-54.9,19.9c-18.6,5.9-37.4,11-56.4,15.3
			c-19,4.4-38.1,8.1-57.4,11.1c-9.7,1.5-19.3,2.9-29.1,4c-4.9,0.6-9.7,1.1-14.7,1.5l-7.4,0.6c-2.5,0.2-4.9,0.4-7.6,0.5L610,350.1z"
			/>
		<path id="Path_1335_1_" class="st5" d="M1028.6,200l-5.6-10.6l-11.6-3.3l25.1-13.4L1028.6,200z"/>
	</g>
	<g id="freepik--Plants--inject-43_1_" transform="translate(52.163 84.837)">
		<path id="Path_1336_1_" class="st5" d="M979.1,331.3h-16.4c0,0-1.3-3.7,3.4-18s7.7-27.8,1.3-41.8s-10.5-31.4-3.6-49
			c7.7-19.8,9.9-19.5-0.2-47.8c-0.9-2.5,0-2.6,1.1-1s8.7,20.3,9.5,25.4c0,0,7.2-12,9.9-12.2s1.7,0.3,0,2.3
			c-12.4,14.3-19.2,37.6-19.6,49s5.7,23.8,5.7,23.8s8.1-12.4,13.4-17.5s8.8-12.9,6-19.8s8.9,3.4,1,14.6c0,0,11.9-2.3,14.7,2.5
			s-7.7-5.6-18.2,3.7c-6.2,5.6-10.9,12.6-13.6,20.5c0,0,10.1,23.1,6.8,36C975.3,323.2,979.1,331.3,979.1,331.3z"/>
		<path id="Path_1337_1_" class="st18" d="M979.1,331.3h-16.4c0,0-1.3-3.7,3.4-18s7.7-27.8,1.3-41.8s-10.5-31.4-3.6-49
			c7.7-19.8,9.9-19.5-0.2-47.8c-0.9-2.5,0-2.6,1.1-1s8.7,20.3,9.5,25.4c0,0,7.2-12,9.9-12.2s1.7,0.3,0,2.3
			c-12.4,14.3-19.2,37.6-19.6,49s5.7,23.8,5.7,23.8s8.1-12.4,13.4-17.5s8.8-12.9,6-19.8s8.9,3.4,1,14.6c0,0,11.9-2.3,14.7,2.5
			s-7.7-5.6-18.2,3.7c-6.2,5.6-10.9,12.6-13.6,20.5c0,0,10.1,23.1,6.8,36C975.3,323.2,979.1,331.3,979.1,331.3z"/>
		<path id="Path_1338_1_" class="st19" d="M975.9,263.3c9.1-2.2,18.4,2.1,22.8,10.3C998.7,273.6,983.6,276.4,975.9,263.3z"/>
		<path id="Path_1339_1_" class="st19" d="M939.7,184.2c8.4-4.1,18.5-1.9,24.5,5.2C964.2,189.4,950.1,195.4,939.7,184.2z"/>
		<path id="Path_1340_1_" class="st19" d="M979.7,259.3c4.6-4.5,11.7-5.3,17.2-1.8C996.9,257.4,988.9,264.5,979.7,259.3z"/>
		<path id="Path_1341_1_" class="st19" d="M973,185.3c0.9-6.4,6.1-11.3,12.5-11.9C985.5,173.4,983.4,183.7,973,185.3z"/>
		<path id="Path_1342_1_" class="st19" d="M943.1,221.4c6.4-1.1,12.6,2.3,15.3,8.1C958.4,229.5,948,230.7,943.1,221.4z"/>
		<path id="Path_1343_1_" class="st7" d="M952.2,293l0.9,11.1l2.9,33.8h30.6l2.9-33.8l0.9-11.1H952.2z"/>
		<path id="Path_1344_1_" class="st4" d="M952.2,293l0.9,11.1h36.3l0.9-11.1H952.2z"/>
		<rect id="Rectangle_1905_1_" x="949.1" y="288.5" class="st7" width="44.2" height="10.6"/>
		<path id="Path_1345_1_" class="st5" d="M849,368.2h19c0,0-12.1-16.9-14.9-26c-4.1-13.4,3.1-26.4,12.7-33.6c4.4-3.3,8.9,1.5,15.3,0
			c7.8-1.9,7.6-8.4,7.3-9.1s-1.4,5.8-5.1,7c-8.6,2.9-11.5-3.6-19.2-1c0.3-2.7,0.3-5.5,0.1-8.2c-0.4-4.6,4.5-18,17.2-16.6
			c1.6,0.2,0.6-0.9-2.4-1.1c-2.1,0-4.2,0.3-6.2,1.1c1.6-1.9,2.6-4.2,3-6.7c0.3-3.7,2.5-6,2.3-6.6s-2.1,0.7-3,4.6
			c0,0-1.9,6.1-4.1,8.1s-6.9,7.3-8,12.6c0,0-0.3-3.3-0.9-9.6c-0.4-4.6-3.3-8.4-4-8.1s2.7,4.4,2.9,8.7s-0.7,9.1,0.2,12.7
			c1.4,5.8,0,12.1-2.8,15.3s-10,9.7-10.3,21.4S852.1,363.4,849,368.2z"/>
		<g id="Group_3598_1_" transform="translate(237.953 94.595)" class="st20">
			<path id="Path_1346_1_" d="M611.1,273.6h19c0,0-12.1-16.9-14.9-26c-4.1-13.4,3.1-26.4,12.7-33.6c4.4-3.3,8.9,1.5,15.3,0
				c7.8-1.9,7.6-8.4,7.3-9.1s-1.4,5.8-5.1,7c-8.6,2.9-11.5-3.6-19.2-1c0.3-2.7,0.3-5.5,0.1-8.2c-0.4-4.6,4.5-18,17.2-16.6
				c1.6,0.2,0.6-0.9-2.4-1.1c-2.1,0-4.2,0.3-6.2,1.1c1.6-1.9,2.6-4.2,3-6.7c0.3-3.7,2.5-6,2.3-6.6s-2.1,0.7-3,4.6
				c0,0-1.9,6.1-4.1,8.1s-6.9,7.3-8,12.6c0,0-0.3-3.3-0.9-9.6c-0.4-4.6-3.3-8.4-4-8.1s2.7,4.4,2.9,8.7s-0.7,9.1,0.2,12.7
				c1.4,5.8,0,12.1-2.8,15.3s-10,9.7-10.3,21.4S614.2,268.8,611.1,273.6z"/>
		</g>
		<path id="Path_1347_1_" class="st19" d="M860.6,303.4c-8,1-15.6-3.6-18.5-11.1C842,292.3,855.2,291.4,860.6,303.4z"/>
		<path id="Path_1348_1_" class="st19" d="M859.9,306.5c-3.1,4.6-9,6.5-14.2,4.6C845.6,311.1,851.1,303.9,859.9,306.5z"/>
		<path id="Path_1349_1_" class="st19" d="M900.2,313.4c-5.4,1.3-11-1.3-13.6-6.3C886.6,307.1,895.6,305.5,900.2,313.4z"/>
		<path id="Path_1350_1_" class="st19" d="M872.6,276c-5.5-1-9.6-5.6-9.9-11.2C862.7,264.8,871.6,267,872.6,276z"/>
		<path id="Path_1351_1_" class="st7" d="M840.7,332.9l0.9,11.1l2.9,33.8h30.6L878,344l0.9-11.1H840.7z"/>
		<path id="Path_1352_1_" class="st4" d="M840.7,332.9l0.9,11.1H878l0.9-11.1H840.7z"/>
		<rect id="Rectangle_1906_1_" x="837.7" y="328.5" class="st7" width="44.2" height="10.6"/>
		<path id="Path_1353_1_" class="st5" d="M731.9,404.9h15.5c0,0-9.8-13.7-12.1-21.1c-3.3-10.8,2.5-21.4,10.3-27.2
			c3.6-2.6,7.2,1.2,12.4,0c6.3-1.5,6.2-6.9,5.9-7.4s-1.1,4.6-4.2,5.6c-7,2.3-9.3-2.9-15.6-0.8c-0.1-2.2-0.1-4.4,0.1-6.6
			c0.6-7.8,7-13.5,7-13.5c1.3-1.5,2.1-3.4,2.4-5.4c0.2-3,2.1-4.9,1.9-5.4s-1.7,0.6-2.4,3.7c0,0-1.5,4.9-3.4,6.5
			c-3.1,2.8-5.3,6.3-6.5,10.2c0,0-1.5,12.9-3.8,15.5s-8,7.9-8.4,17.3S734.3,401,731.9,404.9z"/>
		<g id="Group_3599_1_" transform="translate(121.152 150.472)" class="st20">
			<path id="Path_1354_1_" d="M610.8,254.5h15.5c0,0-9.8-13.7-12.1-21.1c-3.3-10.8,2.5-21.4,10.3-27.2c3.6-2.6,7.2,1.2,12.4,0
				c6.3-1.5,6.2-6.9,5.9-7.4s-1.1,4.6-4.2,5.6c-7,2.3-9.3-2.9-15.6-0.8c-0.1-2.2-0.1-4.4,0.1-6.6c0.6-7.8,7-13.5,7-13.5
				c1.3-1.5,2.1-3.4,2.4-5.4c0.2-3,2.1-4.9,1.9-5.4s-1.7,0.6-2.4,3.7c0,0-1.5,4.9-3.4,6.5c-3.1,2.8-5.3,6.3-6.5,10.2
				c0,0-1.5,12.9-3.8,15.5s-8,7.9-8.4,17.3S613.2,250.6,610.8,254.5z"/>
		</g>
		<path id="Path_1355_1_" class="st19" d="M741.5,347.6c-5.6-0.2-10.3-4.1-11.5-9.6C730,338,739.2,338.8,741.5,347.6z"/>
		<path id="Path_1356_1_" class="st19" d="M776.8,342.9c-2,5.2-7.3,8.4-12.8,7.7C764,350.6,767.7,342.2,776.8,342.9z"/>
		<path id="Path_1357_1_" class="st19" d="M754.2,323.4c-5-2.5-7.6-8.1-6.4-13.5C747.8,309.9,755.7,314.5,754.2,323.4z"/>
		<path id="Path_1358_1_" class="st7" d="M719.8,372.6l0.9,11.1l2.9,33.8h30.6l2.9-33.8l0.9-11.1H719.8z"/>
		<path id="Path_1359_1_" class="st4" d="M719.8,372.6l0.9,11.1H757l0.9-11.1H719.8z"/>
		<rect id="Rectangle_1907_1_" x="716.7" y="368.2" class="st7" width="44.2" height="10.6"/>
		<path id="Path_1360_1_" class="st5" d="M627.2,430.7h12.2c0,0-7.7-10.8-9.5-16.7c-2.6-8.6,3-18.2,7.7-21.2c3-1.9,6.2,0.6,10.2-0.4
			c5-1.1,4.9-5.4,4.6-5.8s-0.9,3.7-3.3,4.5c-5.5,1.8-7.4-2.3-12.4-0.6c0,0,0.2-6.6-4.9-9.7c-0.9-0.6,2.1,2.6,2.9,6.3
			c0.7,2.5,0.1,5.3-1.7,7.3c-1.7,2.1-6.4,6.2-6.6,13.7S629.1,427.5,627.2,430.7z"/>
		<g id="Group_3600_1_" transform="translate(16.462 208.08)" class="st20">
			<path id="Path_1361_1_" d="M610.8,222.6H623c0,0-7.7-10.8-9.5-16.7c-2.6-8.6,3-18.2,7.7-21.2c3-1.9,6.2,0.6,10.2-0.4
				c5-1.1,4.9-5.4,4.6-5.8s-0.9,3.7-3.3,4.5c-5.5,1.8-7.4-2.3-12.4-0.6c0,0,0.2-6.6-4.9-9.7c-0.9-0.6,2.1,2.6,2.9,6.3
				c0.7,2.5,0.1,5.3-1.7,7.3c-1.7,2.1-6.4,6.2-6.6,13.7S612.7,219.5,610.8,222.6z"/>
		</g>
		<path id="Path_1362_1_" class="st7" d="M613,412.4l0.9,11.1l2.9,33.8h30.6l2.9-33.8l0.9-11.1H613z"/>
		<path id="Path_1363_1_" class="st4" d="M613,412.4l0.9,11.1h36.4l0.9-11.1H613z"/>
		<rect id="Rectangle_1908_1_" x="610" y="408" class="st7" width="44.2" height="10.6"/>
	</g>
	<g id="freepik--Character--inject-43_1_" transform="translate(156.487 3.474)">
		<path id="Path_1364_1_" class="st4" d="M712.8,221.7c0,0.1,0.2,0.1,0.2,0c0.2-5.4,5.5-9,5.3-14.6c-0.1-2.4-1-4.8-2.4-6.8
			c-1-1.3-2-2.5-3.1-3.6l-0.4-0.6c-0.9-1.2-1.8-2.6-2.5-3.9c-0.7-1.6-1.2-3.4-1.3-5.2c-0.4-3.4-0.5-6.9-2.8-9.6
			c-2.1-2.2-4.8-3.6-7.7-4.3c-6.5-1.5-14.2-0.4-18.5,5.1c-0.8,1-1.4,2.1-1.8,3.2c-2.3,1.8-4.1,4.3-4.9,7.2c-1,3.9,1.5,7.1,1.4,9
			c-0.4,1.7-1.1,3.3-2,4.7c-0.7,1.3-1.4,2.7-1.9,4c-0.6,2-0.7,4.1-0.2,6.1c0.4,1.8,1.2,3.5,2.4,5c1.2,1.3,2.8,2.2,4.5,2.6
			c0.4,0.1,0.8,0.2,1.2,0.3l0,0c1.4,0.8,3,1.4,4.3,2.3c1.5,1,2.6,2.5,3.1,4.3c0.5,1.5,0.6,3.3,1,4.9c0.3,1.5,0.9,3,1.8,4.3
			c1.8,2.5,4.3,4.4,7.3,5.3c3.4,1,7.1,1.1,10.6,0.4c3.2-0.4,6-2.1,7.9-4.7c1.5-2.4,1.9-5.4,1.1-8.1c-0.6-1.6-1.4-3.2-2.3-4.6
			c-0.8-1.5-1.2-3.2-1-4.9c0.8-5.6,6.2-9.9,4.8-15.9c-0.4-1.5-1.1-3-1.9-4.3c1.6,1.9,2.7,4.3,3.1,6.8c0.2,2.7-0.5,5.5-2.1,7.7
			C714.4,216.3,712.8,218.8,712.8,221.7z M677.3,220c-2.4-0.6-4.4-2.2-5.6-4.3c-1.3-2.3-1.9-5.1-1.5-7.7c0.3-1.3,0.7-2.5,1.3-3.6
			v-0.1c-0.2,0.8-0.4,1.7-0.5,2.5c-0.2,2.7,0.3,5.4,1.5,7.9C673.6,216.9,675.3,218.8,677.3,220L677.3,220z"/>
		<path id="Path_1365_1_" class="st21" d="M689.6,223c4.5,22.7,16,42.6,22.7,44.1c9.6,2.2,35.4-0.7,47.1-4.2c3.4-1-5-27.6-8.7-26.5
			c-4.4,1.3-30.2,7.4-30.7,7.4c-1,0-16.5-20.6-20.2-25.9C693,208,687.1,210.7,689.6,223z"/>
		<path id="Path_1366_1_" class="st21" d="M773.8,258.7c-4.9,3-17.2,5.1-20.4,4.5c-3.2-0.6-7.6-21.5-5.4-24s19.4-11.3,25.2-10.5
			S778.9,255.6,773.8,258.7z"/>
		<path id="Path_1367_1_" class="st19" d="M831.2,240.4l-2.2,10.2l8.7,5.3L831.2,240.4z"/>
		<path id="Path_1368_1_" class="st7" d="M807,257.3l-6.5,13.4l31-18.4l-2.1-3.3L807,257.3z"/>
		<path id="Path_1369_1_" class="st7" d="M786.6,242.9c0,0-5.3-19.3-10.5-20.4s-15.3,29.6-5.7,39.2c3.1,3.1,9.1,1.9,9.1,1.9
			L786.6,242.9z M772,259.1c-7.4-7.5,0.2-33.2,4.2-32.3s8.4,17.7,8.4,17.7l-5.6,16.1C779.1,260.6,774.4,261.5,772,259.1L772,259.1z"
			/>
		<path id="Path_1370_1_" class="st19" d="M808.3,279.3l-34.2-6.4l15.1-49.6l21.9,4.3L808.3,279.3z"/>
		<path id="Path_1371_1_" class="st7" d="M789.2,223.3l-2.8-4.3l28.1,4.9l-3.4,3.7L789.2,223.3z"/>
		<path id="Path_1372_1_" class="st7" d="M835.4,242.3c0,0,3-4,4-2.3S835.4,242.3,835.4,242.3z"/>
		<path id="Path_1373_1_" class="st7" d="M836.4,248.6c0,0,3.6-3.4,4.3-1.5S836.4,248.6,836.4,248.6z"/>
		<path id="Path_1374_1_" class="st7" d="M842.3,244.3c0,0,4.5-2.1,4.6-0.1S842.3,244.3,842.3,244.3z"/>
		<path id="Path_1375_1_" class="st7" d="M844.8,249.3c0,0,4.6-1.7,4.6,0.3S844.8,249.3,844.8,249.3z"/>
		<path id="Path_1376_1_" class="st7" d="M844.7,240.1c0,0,4.1-2.9,4.5-1S844.7,240.1,844.7,240.1z"/>
		<path id="Path_1377_1_" class="st7" d="M850.3,244.1c0,0,4.8-1.5,4.6,0.5S850.3,244.1,850.3,244.1z"/>
		<path id="Path_1378_1_" class="st7" d="M838.7,255.4c0,0,4.9,0.7,3.9,2.4C841.5,259.5,838.7,255.4,838.7,255.4z"/>
		<path id="Path_1379_1_" class="st7" d="M849.1,263.7c0,0,3.8,3.3,2,4.1S849.1,263.7,849.1,263.7z"/>
		<path id="Path_1380_1_" class="st7" d="M843.5,260.6c0,0,4.3,2.5,2.8,3.7S843.5,260.6,843.5,260.6z"/>
		<path id="Path_1381_1_" class="st7" d="M840.4,252.6c0,0,4.9-0.8,4.4,1.2S840.4,252.6,840.4,252.6z"/>
		<path id="Path_1382_1_" class="st7" d="M846.7,256.6c0,0,4.6,1.8,3.3,3.2C848.6,261.2,846.7,256.6,846.7,256.6z"/>
		<path id="Path_1383_1_" class="st21" d="M764,229.3c-1.4,2.7,2.6,2.8,2.6,2.8s-5.8,1.1-6.2,4.6s4.4,3.2,4.8,3.2
			c-0.3,0-5.5,1.3-5.6,4.6s4.8,2.7,5.1,2.6c-0.3,0.2-3.8,2.3-3.2,4.8c1,4.4,10-0.6,13.5,0.5c0,0-1.3,6.2-1.3,6.3s8.7-4.6,10-9.4
			c0.4-1.4-0.2-3-1.5-3.6c1.7-0.6,2.8-2.1,3.1-3.8c0-1.4-2.1-2.7-2.1-2.7c1.4-0.6,2.2-2,2.3-3.4c0-1.9-2.2-2.9-2.2-2.9
			c1-1.1,1.4-2.6,1.1-4C783.2,224.9,767,223.5,764,229.3z"/>
		<path id="Path_1384_1_" class="st4" d="M783.1,232.5c-5.4-1.8-11.3-2-16.8-0.4c-0.2,0-0.2,0.4,0,0.3
			C771.9,231.6,777.6,231.7,783.1,232.5L783.1,232.5z"/>
		<path id="Path_1385_1_" class="st4" d="M783.4,239.1v-0.1c-6-2-12.5-1.7-18.3,0.6c-0.2,0.1-0.3,0.4,0,0.3
			C769.1,238.5,778.2,238.2,783.4,239.1z"/>
		<path id="Path_1386_1_" class="st4" d="M764.4,247.4c5.6-2.1,11.7-2.7,17.7-1.9c0.1,0,0.1-0.1,0-0.1c-3.2-1-6.5-1.3-9.8-0.9
			c-2.8,0.2-5.6,1.1-7.9,2.7C764.3,247.2,764.3,247.4,764.4,247.4z"/>
		<path id="Path_1387_1_" class="st4" d="M766.6,232.1c-1.1,0.3-2.1,0.8-3.1,1.3c-1,0.5-1.8,1.2-2.5,2.1c-0.3,0.4-0.4,1-0.3,1.5
			c0.1,0.5,0.3,1,0.7,1.3c0.7,0.7,1.7,1.1,2.8,1h2.5l-2.3,0.9c-1,0.4-2,1-2.8,1.7c-0.8,0.6-1.4,1.6-1.5,2.6c-0.1,1,0.6,1.9,1.5,2.2
			c1,0.3,2.1,0.3,3.1,0.1l2.9-0.6l-2.5,1.5c-0.7,0.4-1.4,0.9-1.9,1.5c-0.6,0.5-1,1.2-1.2,2c-0.1,0.7,0.1,1.4,0.7,1.8
			c0.7,0.4,1.5,0.6,2.3,0.5c1.7-0.1,3.4-0.3,5.1-0.6c0.8-0.1,1.7-0.3,2.6-0.4c0.9-0.1,1.7-0.1,2.6,0.1c-0.8-0.1-1.7-0.1-2.5,0.2
			c-0.8,0.2-1.7,0.4-2.5,0.6c-1.7,0.5-3.4,0.8-5.1,0.9c-0.9,0.1-1.9-0.1-2.7-0.5c-0.9-0.6-1.3-1.6-1.1-2.7c0.2-0.9,0.7-1.8,1.4-2.5
			c0.6-0.7,1.3-1.2,2.1-1.7l0.4,0.9c-1.2,0.3-2.5,0.3-3.7,0c-0.7-0.2-1.2-0.6-1.6-1.2c-0.4-0.6-0.5-1.3-0.5-2
			c0.1-1.3,0.8-2.5,1.9-3.3c0.9-0.8,2-1.4,3.1-1.8l0.2,0.9c-1.3,0-2.5-0.5-3.4-1.5c-0.4-0.5-0.6-1.1-0.7-1.7
			c-0.1-0.6,0.1-1.3,0.4-1.8c0.7-0.9,1.7-1.7,2.8-2.1C764.4,232.7,765.5,232.3,766.6,232.1L766.6,232.1z"/>
		<path id="Path_1388_1_" class="st21" d="M750.7,237.1c0,0,14.1-19.7,19.1-10.4c1.5,2.8,4.3,15.9,1.7,16.5c-3.4,0.8-5.6-4.5-6.4-8
			c0,0-3.9,7.4-9.8,6.2C753,240.9,751.3,239.3,750.7,237.1L750.7,237.1z"/>
		<path id="Path_1389_1_" class="st4" d="M769.3,225.9c0.7,1,1.3,2.1,1.7,3.3c0.4,1.2,0.8,2.4,1,3.6c0.6,2.4,0.9,4.9,1,7.4
			c0,0.7,0,1.3-0.2,2c-0.1,0.4-0.3,0.7-0.5,1c-0.1,0.2-0.3,0.3-0.4,0.4c-0.2,0.1-0.4,0.2-0.6,0.2c-0.7,0.2-1.5,0.1-2.1-0.3
			c-0.6-0.3-1.1-0.8-1.5-1.3c-0.8-1-1.5-2.1-1.9-3.3c-0.5-1.2-0.8-2.4-1.1-3.6h0.8c-0.5,0.8-1,1.6-1.6,2.3c-0.6,0.7-1.3,1.4-2,2
			c-0.7,0.6-1.6,1-2.5,1.4c-0.9,0.3-1.8,0.5-2.7,0.5c0.9-0.1,1.8-0.4,2.6-0.8c0.8-0.4,1.6-0.9,2.2-1.5c0.7-0.6,1.3-1.3,1.8-2
			c0.5-0.7,1-1.5,1.4-2.3l0.5-1l0.3,1.1c0.3,1.2,0.7,2.3,1.1,3.4c0.4,1.1,1,2.2,1.8,3.1c0.6,0.9,1.6,1.3,2.7,1.3
			c0.8-0.1,1-1.5,1-2.6c0-1.2-0.1-2.4-0.2-3.6c-0.1-1.2-0.2-2.4-0.4-3.6C771,230.5,770.3,228.1,769.3,225.9z"/>
		<path id="Path_1390_1_" class="st5" d="M731.1,240.8L733,269c0,0-18.5,2.5-23.6-1.7c-5.1-4.2-16.9-25.1-19.8-41.6s3.1-19,12.7-5
			s17.4,22.6,17.8,22.6S731.1,240.8,731.1,240.8z"/>
		<path id="Path_1391_1_" class="st4" d="M726.2,243.1C726.2,243.1,726.1,243,726.2,243.1c-0.1-0.1-0.2,0-0.2,0
			c0,8.3,0.4,16.5,1.3,24.7c0,0.1,0.2,0.1,0.2,0C727.5,259.6,727.1,251.3,726.2,243.1z"/>
		<path id="Path_1392_1_" class="st17" d="M717.8,269.5c-3.5-0.2-6.7-0.9-8.4-2.3c-5.1-4.3-16.9-25.1-19.8-41.6
			c-2.1-11.9,0.4-16.5,5.6-12.9L717.8,269.5z"/>
		<path id="Path_1393_1_" class="st21" d="M673.4,501.6c-2.2,0.3-61.2-12.4-63.1-14.2c-0.7-0.7,0.6-9.4,2.5-19.9v-0.3
			c0.4-2.1,10.8-38.2,10.8-38.2L662,438l-11,36.8l-0.2,0.6c0,0,20.4,14.9,22.3,17.2S675.6,501.3,673.4,501.6z"/>
		<path id="Path_1394_1_" class="st4" d="M611.8,472.7c-1.4,8-2.2,14.1-1.5,14.7c1.9,1.9,60.9,14.5,63.1,14.2s1.7-6.6-0.2-8.9
			c-1.1-1.4-9.2-7.5-15.3-12c4.1,3.3,10,11.2-15.3,3.1C627,478.7,617.3,475,611.8,472.7z"/>
		<path id="Path_1395_1_" class="st19" d="M695.7,260c0,0,3.3,28.2-2.5,34.6c0,0-8.9,63.8-12.6,82.5c-4.9,24.7-24.5,87.5-24.5,87.5
			l-42-10.2c0,0,26.6-80,26.8-81.6c1.1-9.1,8-72.4,7.5-74c-7.2-20.2,2.3-38.8,2.3-38.8L695.7,260z"/>
		<path id="Path_1396_1_" class="st4" d="M655.2,453.3c-5.9-1.6-4.2-1.3-10-2.8c-2.9-0.7-21.8-5.7-24.6-5.8c0,0-0.1,0.1,0,0.2
			c2.5,1.3,21.6,5.7,24.5,6.4c5.9,1.4,4.2,0.9,10.2,2.2C655.3,453.5,655.3,453.3,655.2,453.3z"/>
		<path id="Path_1397_1_" class="st4" d="M650.7,446.3l12.7-44.8l3.1-11.2l1.5-5.6c0.5-1.9,0.9-3.7,1.2-5.6
			c1.2-7.7,2.1-15.4,3.1-23.1l6.2-46.2l1.5-11.5l0.8-5.8c0.1-1,0.2-1.9,0.4-2.9c0.1-0.5,0.2-0.9,0.2-1.4v-1.4
			c0.2-7.7,0.1-15.5,0.1-23.3c0.2,7.7,0.4,15.5,0.3,23.3v1.5c0,0.5-0.1,1-0.2,1.5c-0.2,0.9-0.3,1.9-0.4,2.8l-0.8,5.7l-1.5,11.5
			l-5.9,46.2c-1.1,7.7-2.1,15.5-3.3,23.1c-0.3,1.9-0.7,3.9-1.3,5.7l-1.5,5.6l-3.2,11.2l-6.6,22.3L650.7,446.3z"/>
		<path id="Path_1398_1_" class="st4" d="M693.1,294.6c0,0-3.5,25.1-7,48.4l-35.5-83h45.1C695.6,260,698.9,288.2,693.1,294.6z"/>
		<path id="Path_1399_1_" class="st21" d="M765.1,459.2c-2.1,0.7-62.4,0.2-64.7-1.3c-0.9-0.5,5.6-54.1,5.6-54.1l38.5,1.7l-6.8,32.7
			c0,0,23,10.5,25.3,12.4S767.2,458.5,765.1,459.2z"/>
		<path id="Path_1400_1_" class="st4" d="M765.1,459.1c-0.9,0.3-13.1,0.4-26.6,0.3h-2.7l-6.9-0.1h-5.3l-4-0.1l-2.5-0.1h-2.4
			c-1.1,0-2.2,0-3.3-0.1l-2.1-0.1c-1.3,0-2.5-0.1-3.6-0.2c-0.5,0-1.1-0.1-1.5-0.1c-1.1-0.1-2.1-0.2-2.7-0.3c-0.3,0-0.7-0.1-1-0.2
			c-0.3-0.2-0.1-6.7,0.3-15.2c5.8,1.4,16.5,3.5,32.7,5.8c26.8,3.8,18.8-3.4,14.3-5.8h-0.1l0.8,0.4h0.2l1.5,0.7l1.7,0.8l2.8,1.3
			l2.6,1.3l1.4,0.7l0.7,0.3l0.8,0.4c0.5,0.3,1,0.5,1.5,0.9l0.3,0.2c0.4,0.2,0.7,0.4,1.1,0.7C765.4,452.5,767.2,458.5,765.1,459.1z"
			/>
		<path id="Path_1401_1_" class="st19" d="M742.8,423.1l-40.3,0.5c0,0,10-73.2,8.9-76.6c-0.4-1.3-49.5-45.7-49.5-45.7
			c-17.6-17.3-11.5-41.3-11.5-41.3h45.1c0,0,0.6,7,3,9.7c13.6,15.2,48.1,46.6,53.4,60.6C758.6,347.8,742.8,423.1,742.8,423.1z"/>
		<path id="Path_1402_1_" class="st4" d="M650.7,275.5c0.2,2.7,0.7,5.3,1.5,7.9c0.8,2.5,1.9,5,3.2,7.3c2.6,4.7,5.8,9,9.6,12.8
			c3.7,3.9,7.7,7.5,11.7,11.1c2,1.8,4,3.6,6,5.3l6.1,5.3c-2.2-1.5-4.3-3.2-6.4-4.9s-4.2-3.4-6.3-5.1c-4.2-3.4-8.1-7.1-11.9-11
			c-3.8-3.9-7-8.3-9.5-13.1C652.1,286.3,650.7,281,650.7,275.5z"/>
		<path id="Path_1403_1_" class="st4" d="M685.2,263.5c-0.1,1.7,0,3.5,0.4,5.2c0.2,0.8,0.4,1.7,0.8,2.4c0.5,0.7,1.1,1.4,1.6,2
			c2.3,2.6,4.6,5.1,7,7.7l14.2,15.2c4.8,5.1,9.5,10.2,14.1,15.3c4.6,5.1,9.3,10.3,13.8,15.7c1.1,1.3,2.2,2.7,3.2,4.1
			c0.5,0.7,1,1.4,1.5,2.2c0.3,0.4,0.4,0.8,0.6,1.3c0.1,0.4,0.2,0.9,0.3,1.3c0.4,3.5,0.5,7,0.2,10.5c-0.3,6.9-1.1,13.9-1.9,20.7
			c-1.7,13.8-3.9,27.5-6.3,41.1c1.1-6.9,2.1-13.7,3.1-20.6c1-6.9,1.9-13.8,2.6-20.7s1.5-13.8,1.8-20.7c0.2-3.4,0.1-6.9-0.3-10.3
			c-0.1-0.4-0.2-0.8-0.3-1.2c-0.1-0.4-0.3-0.7-0.5-1.1c-0.4-0.7-0.9-1.4-1.4-2.1c-1-1.4-2.1-2.7-3.2-4c-8.9-10.6-18.4-20.8-27.7-31
			l-14-15.4c-2.3-2.6-4.6-5.2-6.9-7.8c-0.6-0.7-1.1-1.3-1.5-2.1c-0.4-0.8-0.7-1.6-0.8-2.5C685.3,267,685.1,265.2,685.2,263.5z"/>
		<path id="Path_1404_1_" class="st4" d="M739.7,413.5c-5.6-0.2-4-0.2-9.7-0.3c-2.8,0-20.9-0.3-23.5,0.3v0.2
			c2.6,0.6,20.7,0.4,23.5,0.3c5.6-0.1,4-0.2,9.7-0.3C739.8,413.8,739.8,413.5,739.7,413.5z"/>
		<path id="Path_1405_1_" class="st5" d="M698.2,252.9l-2.2,7.1c0,0-30.4,3.2-45.2,0c0,0,10.4-36.2,27.6-46.2
			c8.5-5,15.9-2.2,19.2,4.2c0.8,1.5,6.9,17,6.9,23.5C704.4,248.4,698.2,252.9,698.2,252.9z"/>
		<path id="Path_1406_1_" class="st4" d="M691.8,247.6c-2.4,0.2-4.9,0.7-7.2,1.3c-1.1,0.3-2.3,0.7-3.4,1.1l-1.7,0.5
			c-0.6,0.2-1.2,0.3-1.9,0.4 M677.5,250.9c0.6,0,1.2,0,1.8,0c0.6-0.1,1.1-0.2,1.7-0.3l3.6-1c2.4-0.6,4.8-1.3,7.3-1.8
			c0.1,0,0-0.3,0-0.2L677.5,250.9z"/>
		<path id="Path_1407_1_" class="st4" d="M697.8,249.7c-2-0.2-4-0.3-6.1-0.2c-1,0-2,0.1-3.1,0.2l-1.5,0.2c-0.5,0.1-1,0.2-1.5,0.3
			v0.1h3.1l3.1-0.1c2-0.1,4-0.2,6.1-0.2C697.9,249.9,697.9,249.7,697.8,249.7z"/>
		<path id="Path_1408_1_" class="st21" d="M676.7,214.9c-20.8,12.2-39.9,27.7-40.2,35.1c-0.4,9.9,9.4,31.2,15.5,41.7
			c1.8,3.1,25.7-11.3,23.8-14.6c-2.3-4-14.6-24.6-14.7-25c-0.2-1,15.8-23.5,19.8-28.8C687.5,214.4,685.9,209.5,676.7,214.9z"/>
		<path id="Path_1409_1_" class="st21" d="M693.2,306.9c-1.1,1.4-3,1.9-4.6,1.3c-0.1,1.5-0.8,2.8-1.8,3.9c-1.9,1.8-5.5-0.5-5.5-0.5
			c-0.5,1.5-1.4,2.8-2.6,3.8c-2,1.5-6-0.3-6-0.3c-1.2,1.1-2.7,1.8-4.4,1.9c-4.4,0-8.1-5.6-10.3-9.2s-5.7-15.9-6.6-18.2l22.8-15.3
			c0,0,15.1,13,17.2,17.6C693.2,295.9,695.3,304.2,693.2,306.9z"/>
		<path id="Path_1410_1_" class="st4" d="M688.8,307.8c-1-4.6-3.2-8.6-5.2-12.8c0-0.1-0.2,0-0.1,0.1c2.1,4.1,3.3,8.6,5.2,12.8
			C688.7,307.9,688.7,307.9,688.8,307.8C688.8,307.9,688.8,307.8,688.8,307.8z"/>
		<path id="Path_1411_1_" class="st4" d="M681.4,311.3c-0.3-1-0.8-2-1.3-2.9c-0.5-1-1.1-2-1.7-2.9c-1.1-2-2.3-3.9-3.6-5.8
			c0-0.1-0.2,0-0.1,0.1c1.2,1.9,2.3,3.9,3.3,5.9c0.5,1,1.1,2,1.5,3c0.4,1,0.9,1.9,1.5,2.8c0,0.1,0.1,0.1,0.2,0c0,0,0,0,0,0
			C681.4,311.4,681.4,311.4,681.4,311.3L681.4,311.3L681.4,311.3z"/>
		<path id="Path_1412_1_" class="st4" d="M672.6,315c-0.3-0.9-0.7-1.8-1.3-2.6l-1.5-2.6c-1.1-1.8-2.1-3.5-3.1-5.3
			c0-0.1-0.2,0-0.1,0.1c1,1.8,2,3.7,3.1,5.5l1.5,2.7c0.4,0.9,0.9,1.6,1.5,2.3C672.6,315.1,672.6,315.1,672.6,315L672.6,315z"/>
		<path id="Path_1413_1_" class="st5" d="M667.6,262.4l-26.8,11.3c0,0-6.4-19.4-4-25.6s21.4-23.6,36-31.7s16.4-3.1,6.4,10.6
			s-17.2,24.6-17,25L667.6,262.4z"/>
		<path id="Path_1414_1_" class="st4" d="M663.3,257.2V257c-7.8,2.8-15.5,5.9-22.9,9.5c0,0,0,0.2,0,0.2
			C648.2,264,655.9,260.8,663.3,257.2z"/>
		<path id="Path_1415_1_" class="st4" d="M667.6,262.4c-1-1.7-2-3.4-2.9-5.1l-2.9-5.1V252l0.1-0.2l4-6c1.3-2,2.7-4,4.1-5.9
			s2.7-3.9,4.1-5.9s2.8-3.9,4.3-5.8c-1.3,2-2.5,4.1-3.8,6.2c-1.3,2.1-2.6,4-3.9,6s-2.6,4-4,6l-4.1,5.9V252l2.6,5.2
			C665.9,258.8,666.8,260.5,667.6,262.4z"/>
		<path id="Path_1416_1_" class="st4" d="M674.4,233.9c0.5-0.7,1.1-1.4,1.8-2c0.6-0.6,1.3-1.2,2.1-1.7c-0.2,0.4-0.5,0.8-0.8,1.1
			c-0.3,0.3-0.6,0.7-0.9,1C675.9,233,675.2,233.5,674.4,233.9L674.4,233.9z"/>
		<path id="Path_1417_1_" class="st21" d="M686.1,212.6c0.1,1,4,7.9,8.5,8.3c1.5,0.1,2.4-7.9,2.4-7.9l0.2-0.6l2.8-8.1l-8.9-7.4
			l-1.3-1c0,0-0.6,2.3-1.4,5.1l-0.1,0.4c0,0.2-0.1,0.3-0.1,0.4l-0.3,1.3c-0.1,0.3-0.2,0.6-0.2,1l-0.2,1
			C686.7,207.7,686.3,210.1,686.1,212.6L686.1,212.6z"/>
		<path id="Path_1418_1_" class="st4" d="M688.4,201.1c1.1,4.9,4.3,9.1,8.8,11.4l2.8-8.1l-8.9-7.4l-1.3-1
			C689.8,196,689.2,198.3,688.4,201.1z"/>
		<path id="Path_1419_1_" class="st21" d="M712.5,190.2c2.3,14.8-6.3,17.9-9.5,18.4c-2.9,0.4-12.8,1.5-16.6-12.9s2.3-20.2,8.9-21.6
			S710.2,175.4,712.5,190.2z"/>
		<path id="Path_1420_1_" class="st4" d="M709.2,186.5h-1c-0.4,0-0.7-0.1-1.1-0.3c-0.2-0.2-0.2-0.4-0.1-0.6c0.3-0.4,0.8-0.6,1.3-0.5
			c0.5,0,0.9,0.2,1.3,0.5c0.2,0.2,0.2,0.5,0.1,0.7C709.5,186.4,709.3,186.5,709.2,186.5L709.2,186.5z"/>
		<path id="Path_1421_1_" class="st4" d="M699.6,189.3l1-0.1c0.4,0,0.7-0.1,1-0.3c0.2-0.2,0.2-0.4,0.1-0.6c-0.3-0.4-0.8-0.6-1.3-0.5
			c-0.5,0-0.9,0.2-1.3,0.5c-0.2,0.2-0.2,0.6,0,0.8C699.3,189.3,699.4,189.3,699.6,189.3z"/>
		<path id="Path_1422_1_" class="st4" d="M702.3,192.3v0.1c0.2,1,0.3,2.2-0.6,2.7l0,0C702.7,194.8,702.6,193.2,702.3,192.3z"/>
		<path id="Path_1423_1_" class="st4" d="M701.2,191.4c-1.6,0.2-1.1,3.4,0.3,3.3S702.6,191.3,701.2,191.4z"/>
		<path id="Path_1424_1_" class="st4" d="M700.6,191.7c-0.3,0.2-0.5,0.6-0.8,0.7c-0.4,0-0.8-0.2-1.1-0.5l0,0c0,0.6,0.4,1.2,1.1,1.2
			c0,0,0,0,0,0c0.7,0,1-0.6,1.1-1.3C700.8,191.7,700.7,191.6,700.6,191.7z"/>
		<path id="Path_1425_1_" class="st4" d="M707.7,191.2L707.7,191.2c0.2,1,0.5,2.2,1.4,2.4l0,0C708.1,193.7,707.7,192.1,707.7,191.2z
			"/>
		<path id="Path_1426_1_" class="st4" d="M708.5,189.9c1.5-0.3,2.2,2.9,0.7,3.2S707.2,190.3,708.5,189.9z"/>
		<path id="Path_1427_1_" class="st4" d="M709.2,190.1c0.3,0.1,0.6,0.4,0.9,0.4s0.6-0.4,0.7-0.8l0,0c0.2,0.6,0,1.2-0.6,1.5
			c-0.6,0.2-1-0.2-1.3-0.9C709.1,190.2,709.2,190,709.2,190.1z"/>
		<path id="Path_1428_1_" class="st4" d="M703.4,200.3c0.3,0.2,0.5,0.5,0.9,0.5c0.4,0,0.7-0.2,1.1-0.4l0,0c-0.3,0.4-0.7,0.7-1.2,0.7
			c-0.4-0.1-0.8-0.4-0.9-0.8L703.4,200.3z"/>
		<path id="Path_1429_1_" class="st4" d="M707.1,196c0.2,0.7,0.4,1.4,0.5,2.2c-0.1,0.1-0.2,0.1-0.4,0.2l0,0
			c-1.2,0.4-2.5,0.1-3.4-0.8c0,0,0-0.1,0.1-0.1c1,0.5,2.1,0.6,3.2,0.4c0-0.2-0.8-2.5-0.7-2.5c0.6,0,1.1,0,1.7,0.1
			c-0.8-3.1-2.1-6-2.9-9.1c0-0.1,0.1-0.2,0.2,0c1.5,3.1,2.7,6.3,3.5,9.6C708.9,196.4,707.4,196.1,707.1,196z"/>
		<path id="Path_1430_1_" class="st4" d="M686.4,196.8c2.5-0.1,2.5-5.5,2.5-5.5s5.1-0.6,6-8.1c0.1,2.2-0.4,4.4-1.5,6.4
			c0,0,9-2,11.9-10c-0.5,2-1.3,3.8-2.3,5.6c2.2-1,4-2.6,5.2-4.8c0.9,1.9,2.1,3.7,3.4,5.3c0,0-2.2-15.8-16.7-12.5
			c0,0-9.1,1.6-11.6,9.3S686.4,196.8,686.4,196.8z"/>
		<path id="Path_1431_1_" class="st21" d="M689.3,196.2c0,0-3.4-4.6-5.5-3.4s0.5,7.9,3,8.8c1.3,0.5,2.8-0.1,3.3-1.3c0,0,0-0.1,0-0.1
			L689.3,196.2z"/>
		<path id="Path_1432_1_" class="st4" d="M684.7,194.7L684.7,194.7c1.7,0.8,2.9,2.2,3.4,3.9c-0.4-0.7-1.3-0.9-1.9-0.5l-0.2,0.1v0.1
			c0.6-0.2,1.3,0,1.7,0.5c0.3,0.4,0.6,0.9,0.8,1.4c0,0.2,0.4,0,0.3-0.1l0,0C688.9,198,687.1,194.9,684.7,194.7z"/>
		<path id="Path_1433_1_" class="st6" d="M697,213.2l-3.4,6.3l-7.2-9.2l-2.6,2.4c0,0,6.5,14.1,6.6,13.6l3.4-5.4l3.5,4.4l0.8-10
			L697,213.2z"/>
		<path id="Path_1434_1_" class="st4" d="M697.9,220.3c0-1.7,0.2-3.3,0.2-4.9c0,0-0.1-0.1-0.1,0c-0.5,3.1-0.8,6.2-0.9,9.3l0,0
			c-0.2-0.2-3.2-3.9-3.3-3.8c-0.7,0.8-3.1,4.7-3.3,5.1c-1-2.3-5-10.4-6.3-12.6H684c0.9,2.3,6.2,13.4,6.2,13.3
			c1.3-1.8,2.5-3.8,3.5-5.7c1.1,1.6,2.3,3.2,3.6,4.6C697.7,223.8,697.8,222,697.9,220.3z"/>
	</g>
</g>
</svg>
