<?xml version="1.0" encoding="utf-8"?>
<!-- Generator: Adobe Illustrator 22.1.0, SVG Export Plug-In . SVG Version: 6.00 Build 0)  -->
<svg version="1.1" id="Layer_1" xmlns="http://www.w3.org/2000/svg" xmlns:xlink="http://www.w3.org/1999/xlink" x="0px" y="0px"
	 viewBox="0 0 1200 800" style="enable-background:new 0 0 1200 800;" xml:space="preserve">
<style type="text/css">
	.st0{fill:#EBEBEB;}
	.st1{fill:#E0E0E0;}
	.st2{fill:#F5F5F5;}
	.st3{fill:#FAFAFA;}
	.st4{fill:#263238;}
	.st5{fill:#22A5EE;}
	.st6{fill:#FFFFFF;}
	.st7{fill:#455A64;}
	.st8{fill:#999999;}
	.st9{fill:#FFBE9D;}
	.st10{fill:#EB996E;}
	.st11{opacity:0.3;}
	.st12{fill:#AA6550;}
	.st13{opacity:0.6;}
	.st14{fill:#995037;}
	.st15{opacity:0.2;}
	.st16{opacity:0.5;fill:#EBEBEB;enable-background:new    ;}
	.st17{opacity:0.1;enable-background:new    ;}
	.st18{opacity:0.5;enable-background:new    ;}
	.st19{fill:#37474F;}
	.st20{opacity:0.5;}
	.st21{fill:#F7A9A0;}
	.st22{opacity:0.25;}
	.st23{opacity:0.5;fill:#22A5EE;enable-background:new    ;}
	.st24{opacity:0.2;enable-background:new    ;}
	.st25{opacity:0.4;enable-background:new    ;}
	.st26{opacity:0.3;fill:#FFFFFF;enable-background:new    ;}
	.st27{opacity:0.45;enable-background:new    ;}
	.st28{opacity:0.3;enable-background:new    ;}
	.st29{opacity:0.5;fill:#F5F5F5;enable-background:new    ;}
	.st30{opacity:0.25;fill:#FFFFFF;enable-background:new    ;}
	.st31{opacity:0.5;fill:#FFFFFF;enable-background:new    ;}
	.st32{opacity:0.1;fill:#FFFFFF;enable-background:new    ;}
	.st33{opacity:0.55;fill:#FFFFFF;enable-background:new    ;}
	.st34{opacity:0.15;enable-background:new    ;}
	.st35{opacity:0.6;fill:#FFFFFF;enable-background:new    ;}
	.st36{opacity:0.75;fill:#FFFFFF;enable-background:new    ;}
	.st37{opacity:0.55;enable-background:new    ;}
	.st38{opacity:0.4;fill:#FFFFFF;enable-background:new    ;}
	.st39{fill:#FFBDA7;}
	.st40{fill:#F0997A;}
	.st41{fill:#B16668;}
	.st42{fill:#FFA8A7;}
	.st43{fill:#E6E6E6;}
	.st44{opacity:0.7;}
	.st45{fill:#F0F0F0;}
	.st46{opacity:0.8;fill:#FFFFFF;enable-background:new    ;}
	.st47{opacity:5.000000e-02;enable-background:new    ;}
	.st48{opacity:0.2;fill:#FFFFFF;enable-background:new    ;}
	.st49{fill:none;stroke:#22A5EE;stroke-miterlimit:10;}
	.st50{opacity:0.7;fill:#FFFFFF;enable-background:new    ;}
	.st51{fill:#EEC1BB;}
	.st52{clip-path:url(#SVGID_2_);}
	.st53{fill:#D4827D;}
	.st54{fill:none;stroke:#263238;stroke-width:0.69;stroke-linecap:round;stroke-linejoin:round;}
	.st55{fill:#DE5753;}
</style>
<g id="Group_3664" transform="translate(9917.341 12838.572)">
	<g id="freepik--background-complete--inject-15" transform="translate(-9918.075 -12863.625)">
		<rect id="Rectangle_1937" x="102.4" y="613.1" class="st0" width="40.7" height="0.3"/>
		<rect id="Rectangle_1938" x="248.1" y="616.4" class="st0" width="10.7" height="0.3"/>
		<rect id="Rectangle_1939" x="144.3" y="601.7" class="st0" width="23.6" height="0.3"/>
		<rect id="Rectangle_1940" x="537.4" y="603.7" class="st0" width="53" height="0.3"/>
		<rect id="Rectangle_1941" x="518.6" y="603.7" class="st0" width="7.8" height="0.3"/>
		<rect id="Rectangle_1942" x="378.4" y="608.9" class="st0" width="115" height="0.3"/>
		<path id="Path_1843" class="st45" d="M584.3,586.2H118.4V419.9h-15.6v-5.2h9.4l22.8-34.4h13v0H221l20.8-42h106v-15.6h-12.7v-6.3
			h13.5l19.8-36.9H421l25.6,36.9h13.1v6.3h-12.7v57.6h37.5l16.5,35.5h29.4v-12.5h23.3v12.5h5.7v-65.3h2.8v65.3h12.7l18,41.9h7.2v6.4
			h-16V586.2z"/>
		<ellipse id="Ellipse_186" class="st3" cx="510.6" cy="252.7" rx="34.1" ry="34.1"/>
		<path id="Path_1844" class="st2" d="M528.3,252.3c0-3.3,2.7-5.9,5.9-5.9c0,0,0,0,0,0c0.6,0,1.1,0.1,1.7,0.2
			c-1-6.8,3.7-13.2,10.6-14.2c0,0,0,0,0,0c0.6-0.1,1.2-0.1,1.9-0.1c0.8,0,1.6,0.1,2.3,0.2c3.1-5.2,9.9-6.8,15.1-3.7
			c3.2,2,5.2,5.5,5.3,9.2h0.2c5.6,0.2,9.9,4.9,9.7,10.5c-0.2,5.3-4.4,9.5-9.7,9.7h-37.1C530.8,258.2,528.3,255.5,528.3,252.3
			L528.3,252.3z"/>
		<path id="Path_1845" class="st2" d="M223.8,279.8c0-3.3,2.6-5.9,5.9-5.9c0,0,0,0,0,0c0.6,0,1.2,0.1,1.7,0.2
			c-1-6.8,3.7-13.2,10.6-14.2c0,0,0,0,0,0c0.6-0.1,1.2-0.1,1.9-0.1c0.8,0,1.6,0.1,2.3,0.2c3.1-5.2,9.9-6.8,15.1-3.7
			c3.2,2,5.2,5.4,5.3,9.2h0.3c5.6,0.2,9.9,4.9,9.7,10.5c-0.2,5.3-4.4,9.5-9.7,9.7h-37.1C226.4,285.7,223.8,283,223.8,279.8z"/>
		<path id="Path_1846" class="st2" d="M391.2,241.4c0-3.3-2.7-5.9-5.9-5.9l0,0c-0.6,0-1.1,0.1-1.7,0.2c1-6.9-3.8-13.3-10.7-14.3
			c-0.6-0.1-1.1-0.1-1.7-0.1c-0.8,0-1.5,0.1-2.3,0.2c-3.2-5.2-9.9-6.8-15.1-3.7c-3.2,2-5.2,5.4-5.3,9.2h-0.2
			c-5.6,0-10.1,4.5-10.1,10.1c0,5.6,4.5,10.1,10.1,10.1c0,0,0,0,0,0h37.2C388.6,247.3,391.2,244.6,391.2,241.4L391.2,241.4z"/>
		<path id="Path_1847" class="st2" d="M116.4,357.1c0-3.3,2.7-5.9,5.9-5.9c0,0,0,0,0,0c0.6,0,1.2,0.1,1.7,0.3
			c-0.1-0.6-0.1-1.2-0.1-1.8c0-6.9,5.6-12.6,12.6-12.6l0,0c0.8,0,1.6,0.1,2.3,0.2c3.1-5.2,9.9-6.8,15.1-3.7c3.2,2,5.2,5.5,5.3,9.2
			h0.2c5.6,0.2,9.9,4.9,9.7,10.5c-0.2,5.3-4.4,9.5-9.7,9.7h-37.2C118.9,363,116.4,360.3,116.4,357.1L116.4,357.1z"/>
		<path id="Path_1848" class="st2" d="M453.8,270.1c0-2,1.6-3.7,3.7-3.7c0,0,0,0,0,0c0.4,0,0.7,0.1,1.1,0.2
			c-0.1-0.4-0.1-0.8-0.1-1.1c0-4.3,3.5-7.8,7.8-7.8c0,0,0,0,0,0l0,0c0.5,0,1,0,1.4,0.1c1.9-3.3,6.1-4.4,9.4-2.5
			c2.1,1.2,3.4,3.5,3.4,6h0.1c3.5,0.4,6,3.5,5.7,7c-0.3,2.8-2.4,5-5.1,5.6h-23.7C455.4,273.8,453.8,272.1,453.8,270.1L453.8,270.1z"
			/>
		<path id="Path_1849" class="st2" d="M438.9,334.5c0-2-1.6-3.7-3.7-3.7c0,0,0,0,0,0c-0.4,0-0.7,0.1-1.1,0.2
			c0.1-0.4,0.1-0.8,0.1-1.1c0-4.3-3.5-7.8-7.8-7.8l0,0c-0.5,0-1,0-1.4,0.1c-2-3.2-6.2-4.2-9.4-2.3c-2,1.2-3.2,3.4-3.3,5.7h-0.1
			c-3.5,0.6-5.9,3.8-5.3,7.3c0.4,2.7,2.6,4.9,5.3,5.3h23.1C437.3,338.2,438.9,336.5,438.9,334.5L438.9,334.5z"/>
		<path id="Path_1850" class="st2" d="M162.4,253.3c0-2-1.6-3.7-3.7-3.7c-0.4,0-0.7,0.1-1.1,0.2c0-0.4,0-0.8,0-1.1
			c0-4.3-3.5-7.8-7.8-7.8c0,0,0,0,0,0l0,0c-0.5,0-1,0-1.5,0.1c-1.9-3.2-6.1-4.3-9.3-2.3c-2,1.2-3.3,3.4-3.3,5.8h-0.1
			c-3.5,0.6-5.9,3.8-5.3,7.3c0.4,2.7,2.6,4.9,5.3,5.3h23.1C160.8,257,162.5,255.4,162.4,253.3C162.5,253.3,162.5,253.3,162.4,253.3
			L162.4,253.3z"/>
	</g>
	<g id="freepik--Road--inject-15" transform="translate(-9917.342 -12515.811)">
		<path id="Path_1851" class="st1" d="M596.9,191.3H97.3c-3.4,0-6.1,2.7-6.1,6.1l0,0v47.8H603v-47.8
			C603,194,600.3,191.3,596.9,191.3L596.9,191.3z"/>
		<path id="Path_1852" class="st45" d="M305.2,195.3l1.9-1.9h47.2l2.2,1.9H305.2z"/>
		<path id="Path_1853" class="st45" d="M357.7,196.3l5.1,4.4h-63.2l4.5-4.4H357.7z"/>
		<path id="Path_1854" class="st45" d="M364,201.6l9.6,8.3h-83.5l8.5-8.3H364z"/>
		<path id="Path_1855" class="st45" d="M287.6,212.3h88.8l16.5,14.1H273.1L287.6,212.3z"/>
		<path id="Path_1856" class="st45" d="M269.1,230.3h128.3l15.9,13.6H255.1L269.1,230.3z"/>
	</g>
	<g id="freepik--Line--inject-15" transform="translate(-9690.144 -12815.079)">
		<path id="Path_1857" class="st4" d="M91.2,544.7h1.4v-9.2h-1.4V544.7z M91.2,529.8h1.4v-9.2h-1.4V529.8z M91.2,514.8h1.4v-9.2
			h-1.4V514.8z M91.2,499.8h1.4v-9.2h-1.4V499.8z M91.2,484.9h1.4v-9.2h-1.4V484.9z M91.2,469.9h1.4v-9.2h-1.4V469.9z M91.2,454.9
			h1.4v-9.2h-1.4V454.9z M91.2,440h1.4v-9.2h-1.4V440z M91.2,425h1.4v-9.2h-1.4V425z M91.2,410h1.4v-9.2h-1.4V410z M91.2,395.1h1.4
			v-9.2h-1.4V395.1z M91.2,380.1h1.4v-9.2h-1.4V380.1z M91.2,365.1h1.4v-9.2h-1.4V365.1z M91.2,350.1h1.4v-9.2h-1.4V350.1z
			 M91.2,335.2h1.4V326h-1.4V335.2z M91.2,320.2h1.4V311h-1.4V320.2z M91.2,305.3h1.4V296h-1.4V305.3z M91.2,290.3h1.4v-9.2h-1.4
			V290.3z M91.2,275.3h1.4v-9.2h-1.4V275.3z M91.2,260.3h1.4v-9.2h-1.4V260.3z M91.2,245.4h1.4v-9.2h-1.4V245.4z M91.2,230.4h1.4
			v-9.2h-1.4V230.4z M91.2,215.4h1.4v-9.2h-1.4V215.4z M91.2,200.5h1.4v-9.2h-1.4V200.5z"/>
		<g id="Group_3648" class="st44">
			<path id="Path_1858" class="st6" d="M91.2,544.7h1.4v-9.2h-1.4V544.7z M91.2,529.8h1.4v-9.2h-1.4V529.8z M91.2,514.8h1.4v-9.2
				h-1.4V514.8z M91.2,499.8h1.4v-9.2h-1.4V499.8z M91.2,484.9h1.4v-9.2h-1.4V484.9z M91.2,469.9h1.4v-9.2h-1.4V469.9z M91.2,454.9
				h1.4v-9.2h-1.4V454.9z M91.2,440h1.4v-9.2h-1.4V440z M91.2,425h1.4v-9.2h-1.4V425z M91.2,410h1.4v-9.2h-1.4V410z M91.2,395.1h1.4
				v-9.2h-1.4V395.1z M91.2,380.1h1.4v-9.2h-1.4V380.1z M91.2,365.1h1.4v-9.2h-1.4V365.1z M91.2,350.1h1.4v-9.2h-1.4V350.1z
				 M91.2,335.2h1.4V326h-1.4V335.2z M91.2,320.2h1.4V311h-1.4V320.2z M91.2,305.3h1.4V296h-1.4V305.3z M91.2,290.3h1.4v-9.2h-1.4
				V290.3z M91.2,275.3h1.4v-9.2h-1.4V275.3z M91.2,260.3h1.4v-9.2h-1.4V260.3z M91.2,245.4h1.4v-9.2h-1.4V245.4z M91.2,230.4h1.4
				v-9.2h-1.4V230.4z M91.2,215.4h1.4v-9.2h-1.4V215.4z M91.2,200.5h1.4v-9.2h-1.4V200.5z"/>
		</g>
	</g>
	<g id="freepik--house-1--inject-15" transform="translate(-9685.471 -12712.054)">
		<rect id="Rectangle_1943" x="91.2" y="286.9" class="st4" width="147.9" height="101.3"/>
		<rect id="Rectangle_1944" x="91.2" y="286.9" class="st46" width="147.9" height="101.3"/>
		<rect id="Rectangle_1945" x="125.3" y="286.9" class="st47" width="113.9" height="101.3"/>
		<rect id="Rectangle_1946" x="91.2" y="313.3" class="st4" width="23.4" height="75"/>
		<rect id="Rectangle_1947" x="91.2" y="313.3" class="st32" width="23.4" height="75"/>
		<rect id="Rectangle_1948" x="163.7" y="336.3" class="st4" width="13" height="21.5"/>
		<rect id="Rectangle_1949" x="163.7" y="313.3" class="st4" width="13" height="21.5"/>
		<rect id="Rectangle_1950" x="148.7" y="336.3" class="st4" width="13.4" height="21.5"/>
		<rect id="Rectangle_1951" x="148.7" y="313.3" class="st4" width="13.4" height="21.5"/>
		<rect id="Rectangle_1952" x="163.7" y="336.3" class="st31" width="13" height="21.5"/>
		<rect id="Rectangle_1953" x="163.7" y="313.3" class="st31" width="13" height="21.5"/>
		<rect id="Rectangle_1954" x="148.7" y="336.3" class="st31" width="13.4" height="21.5"/>
		<rect id="Rectangle_1955" x="148.7" y="313.3" class="st31" width="13.4" height="21.5"/>
		<path id="Path_1859" class="st26" d="M176.7,313.3v10.6l-2.8-10.6H176.7z"/>
		<path id="Path_1860" class="st26" d="M176.7,336.3v8.2l-2.2-8.2H176.7z"/>
		<path id="Path_1861" class="st26" d="M168.3,313.3l5.7,21.5h2.3l-5.7-21.5H168.3z"/>
		<path id="Path_1862" class="st26" d="M148.7,336.3h3.1l5.8,21.5h-6.8l-2-7.5L148.7,336.3z"/>
		<path id="Path_1863" class="st26" d="M148.7,324.9l2.7,9.9h-2.7V324.9z"/>
		<rect id="Rectangle_1956" x="209.3" y="336.3" class="st4" width="13" height="21.5"/>
		<rect id="Rectangle_1957" x="209.3" y="313.3" class="st4" width="13" height="21.5"/>
		<rect id="Rectangle_1958" x="194.4" y="336.3" class="st4" width="13.4" height="21.5"/>
		<rect id="Rectangle_1959" x="194.4" y="313.3" class="st4" width="13.4" height="21.5"/>
		<rect id="Rectangle_1960" x="209.3" y="336.3" class="st31" width="13" height="21.5"/>
		<rect id="Rectangle_1961" x="209.3" y="313.3" class="st31" width="13" height="21.5"/>
		<rect id="Rectangle_1962" x="194.4" y="336.3" class="st31" width="13.4" height="21.5"/>
		<rect id="Rectangle_1963" x="194.4" y="313.3" class="st31" width="13.4" height="21.5"/>
		<path id="Path_1864" class="st26" d="M222.4,313.3v10.6l-2.8-10.6H222.4z"/>
		<path id="Path_1865" class="st26" d="M222.4,336.3v8.2l-2.2-8.2H222.4z"/>
		<path id="Path_1866" class="st26" d="M214,313.3l5.7,21.5h2.3l-5.8-21.5H214z"/>
		<path id="Path_1867" class="st26" d="M194.4,336.3h3.1l5.8,21.5h-6.8l-2-7.5L194.4,336.3z"/>
		<path id="Path_1868" class="st26" d="M194.4,324.9l2.6,9.9h-2.6V324.9z"/>
		<rect id="Rectangle_1964" x="193.1" y="306.2" class="st4" width="33.4" height="4.2"/>
		<rect id="Rectangle_1965" x="193.1" y="306.2" class="st38" width="4.2" height="4.2"/>
		<rect id="Rectangle_1966" x="147.5" y="306.2" class="st4" width="33.4" height="4.2"/>
		<rect id="Rectangle_1967" x="147.5" y="306.2" class="st38" width="4.2" height="4.2"/>
		<rect id="Rectangle_1968" x="91.2" y="214.7" class="st4" width="133.8" height="69"/>
		<rect id="Rectangle_1969" x="91.2" y="214.7" class="st46" width="133.8" height="69"/>
		<rect id="Rectangle_1970" x="126.8" y="214.7" class="st47" width="98.3" height="69"/>
		<path id="Path_1869" class="st4" d="M91.2,191.3v23.4h142l-5.7-4.4l-24.1-19H91.2z"/>
		<path id="Path_1870" class="st38" d="M91.2,191.3v21.5h34.3l0.1-2.5l1.1-19H91.2z"/>
		<rect id="Rectangle_1971" x="91.2" y="210.2" class="st4" width="144.7" height="6.6"/>
		<rect id="Rectangle_1972" x="91.2" y="210.2" class="st38" width="144.7" height="6.6"/>
		<rect id="Rectangle_1973" x="91.2" y="210.2" class="st38" width="33.6" height="6.6"/>
		<rect id="Rectangle_1974" x="155.4" y="256.1" class="st4" width="13" height="21.5"/>
		<rect id="Rectangle_1975" x="155.4" y="233.1" class="st4" width="13" height="21.5"/>
		<rect id="Rectangle_1976" x="140.5" y="256.1" class="st4" width="13.4" height="21.5"/>
		<rect id="Rectangle_1977" x="140.5" y="233.1" class="st4" width="13.4" height="21.5"/>
		<rect id="Rectangle_1978" x="155.4" y="256.1" class="st31" width="13" height="21.5"/>
		<rect id="Rectangle_1979" x="155.4" y="233.1" class="st31" width="13" height="21.5"/>
		<rect id="Rectangle_1980" x="140.5" y="256.1" class="st31" width="13.4" height="21.5"/>
		<rect id="Rectangle_1981" x="140.5" y="233.1" class="st31" width="13.4" height="21.5"/>
		<path id="Path_1871" class="st26" d="M168.4,233.1v10.6l-2.8-10.6H168.4z"/>
		<path id="Path_1872" class="st26" d="M168.4,256.1v8.2l-2.2-8.2H168.4z"/>
		<path id="Path_1873" class="st26" d="M160.1,233.1l5.8,21.5h2.3l-5.8-21.5H160.1z"/>
		<path id="Path_1874" class="st26" d="M140.5,256.1h3.1l5.8,21.5h-6.8l-2-7.5L140.5,256.1z"/>
		<path id="Path_1875" class="st26" d="M140.5,244.7l2.6,9.9h-2.6V244.7z"/>
		<rect id="Rectangle_1982" x="201" y="256.1" class="st4" width="13" height="21.5"/>
		<rect id="Rectangle_1983" x="201" y="233.1" class="st4" width="13" height="21.5"/>
		<rect id="Rectangle_1984" x="186.1" y="256.1" class="st4" width="13.4" height="21.5"/>
		<rect id="Rectangle_1985" x="186.1" y="233.1" class="st4" width="13.4" height="21.5"/>
		<rect id="Rectangle_1986" x="201" y="256.1" class="st31" width="13" height="21.5"/>
		<rect id="Rectangle_1987" x="201" y="233.1" class="st31" width="13" height="21.5"/>
		<rect id="Rectangle_1988" x="186.1" y="256.1" class="st31" width="13.4" height="21.5"/>
		<rect id="Rectangle_1989" x="186.1" y="233.1" class="st31" width="13.4" height="21.5"/>
		<path id="Path_1876" class="st26" d="M214.1,233.1v10.6l-2.8-10.6H214.1z"/>
		<path id="Path_1877" class="st26" d="M214.1,256.1v8.2l-2.2-8.2H214.1z"/>
		<path id="Path_1878" class="st26" d="M205.7,233.1l5.8,21.5h2.3l-5.7-21.5H205.7z"/>
		<path id="Path_1879" class="st26" d="M186.1,256.1h3.1l5.7,21.5h-6.8l-2-7.5L186.1,256.1z"/>
		<path id="Path_1880" class="st26" d="M186.1,244.7l2.7,9.9h-2.7V244.7z"/>
		<rect id="Rectangle_1990" x="184.9" y="225.9" class="st4" width="33.4" height="4.2"/>
		<rect id="Rectangle_1991" x="184.9" y="225.9" class="st38" width="4.2" height="4.2"/>
		<rect id="Rectangle_1992" x="139.2" y="225.9" class="st4" width="33.4" height="4.2"/>
		<rect id="Rectangle_1993" x="139.2" y="225.9" class="st38" width="4.2" height="4.2"/>
		<rect id="Rectangle_1994" x="101.7" y="256.1" class="st4" width="13" height="21.5"/>
		<rect id="Rectangle_1995" x="101.7" y="233.1" class="st4" width="13" height="21.5"/>
		<rect id="Rectangle_1996" x="91.2" y="256.1" class="st4" width="9" height="21.5"/>
		<rect id="Rectangle_1997" x="91.2" y="233.1" class="st4" width="9" height="21.5"/>
		<rect id="Rectangle_1998" x="101.7" y="256.1" class="st31" width="13" height="21.5"/>
		<rect id="Rectangle_1999" x="101.7" y="233.1" class="st31" width="13" height="21.5"/>
		<rect id="Rectangle_2000" x="91.2" y="256.1" class="st31" width="9" height="21.5"/>
		<rect id="Rectangle_2001" x="91.2" y="233.1" class="st31" width="9" height="21.5"/>
		<path id="Path_1881" class="st26" d="M114.8,233.1v10.6l-2.8-10.6H114.8z"/>
		<path id="Path_1882" class="st26" d="M114.8,256.1v8.2l-2.2-8.2H114.8z"/>
		<path id="Path_1883" class="st26" d="M106.4,233.1l5.8,21.5h2.3l-5.8-21.5H106.4z"/>
		<path id="Path_1884" class="st26" d="M91.2,261.1v16.5h4.4L91.2,261.1z"/>
		<rect id="Rectangle_2002" x="91.2" y="225.9" class="st4" width="25.5" height="4.2"/>
		<rect id="Rectangle_2003" x="112.5" y="225.9" class="st38" width="4.2" height="4.2"/>
		<path id="Path_1885" class="st4" d="M91.2,283.7V297h163.6l-5.6-4.2l-12.1-9H91.2z"/>
		<path id="Path_1886" class="st38" d="M91.2,283.7v11.4h34.3l0.1-2.4l0.4-5.8l0.2-3.2L91.2,283.7z"/>
		<rect id="Rectangle_2004" x="91.2" y="292.7" class="st4" width="166.4" height="6.2"/>
		<rect id="Rectangle_2005" x="91.2" y="292.7" class="st38" width="166.4" height="6.2"/>
		<rect id="Rectangle_2006" x="91.2" y="292.7" class="st38" width="33.6" height="6.2"/>
		<path id="Path_1887" class="st4" d="M91.2,386v2.3h156.7l-3.3-2.3H91.2z"/>
	</g>
	<g id="freepik--house-2--inject-15" transform="translate(-9884.536 -12712.133)">
		<rect id="Rectangle_2007" x="108.4" y="197.9" class="st5" width="3.5" height="92.6"/>
		<rect id="Rectangle_2008" x="216.3" y="274.5" class="st5" width="66.1" height="113.8"/>
		<rect id="Rectangle_2009" x="216.3" y="274.5" class="st46" width="66.1" height="113.8"/>
		<rect id="Rectangle_2010" x="144.5" y="293.7" class="st5" width="76" height="94.7"/>
		<rect id="Rectangle_2011" x="144.5" y="293.7" class="st38" width="76" height="94.7"/>
		<path id="Path_1888" class="st17" d="M144.5,293.7v36.6l43.9,18.9v39.3h32.1v-94.7H144.5z"/>
		<rect id="Rectangle_2012" x="113.3" y="298" class="st5" width="5.8" height="90.4"/>
		<rect id="Rectangle_2013" x="126.7" y="298" class="st5" width="5.8" height="90.4"/>
		<rect id="Rectangle_2014" x="140.2" y="298" class="st5" width="5.8" height="90.4"/>
		<rect id="Rectangle_2015" x="153.6" y="298" class="st5" width="5.8" height="90.4"/>
		<rect id="Rectangle_2016" x="167" y="298" class="st5" width="5.8" height="90.4"/>
		<path id="Path_1889" class="st5" d="M186.4,263.1v2.7h-9.6v2.6h9.6v0.7h-9.6v2.6h9.6v0.7h-9.6v2.7h9.6v0.7h-9.6v2.6h9.6v0.7h-9.6
			v2.6h9.6v0.7h-9.6v2.7h9.6v0.7h-9.6v2.6h9.6v0.7h-9.6v1.5h-2v-1.5H148v1.5h-2v-1.5H119v1.5h-2v-24.8h-3.8v-2.6L186.4,263.1z
			 M174.8,265.7H148v2.6h26.9L174.8,265.7z M174.8,269H148v2.6h26.9L174.8,269z M174.8,272.3H148v2.6h26.9L174.8,272.3z
			 M174.8,275.7H148v2.6h26.9L174.8,275.7z M174.8,279H148v2.7h26.9L174.8,279z M174.8,282.4H148v2.7h26.9L174.8,282.4z
			 M174.8,288.4v-2.6H148v2.6L174.8,288.4z M146,265.7H119v2.6H146L146,265.7z M146,269H119v2.6H146L146,269z M146,272.3H119v2.7
			H146L146,272.3z M146,275.7H119v2.6H146L146,275.7z M146,279H119v2.6H146L146,279z M146,282.4H119v2.7H146L146,282.4z M146,288.4
			v-2.6H119v2.6H146z"/>
		<g id="Group_3649" transform="translate(22.056 71.799)" class="st15">
			<path id="Path_1890" d="M164.3,191.3v2.7h-9.6v2.6h9.6v0.7h-9.6v2.6h9.6v0.7h-9.6v2.7h9.6v0.7h-9.6v2.6h9.6v0.7h-9.6v2.6h9.6v0.7
				h-9.6v2.7h9.6v0.7h-9.6v2.6h9.6v0.7h-9.6v1.5h-2v-1.5h-26.8v1.5h-2v-1.5H97v1.5h-2v-24.8h-3.8v-2.6L164.3,191.3z M152.8,193.9
				h-26.9v2.6h26.9L152.8,193.9z M152.8,197.2h-26.9v2.6h26.9L152.8,197.2z M152.8,200.5h-26.9v2.6h26.9L152.8,200.5z M152.8,203.9
				h-26.9v2.6h26.9L152.8,203.9z M152.8,207.2h-26.9v2.7h26.9L152.8,207.2z M152.8,210.6h-26.9v2.7h26.9L152.8,210.6z M152.8,216.6
				v-2.6h-26.9v2.6L152.8,216.6z M123.9,193.9H97v2.6h26.9L123.9,193.9z M123.9,197.2H97v2.6h26.9L123.9,197.2z M123.9,200.5H97v2.7
				h26.9L123.9,200.5z M123.9,203.9H97v2.6h26.9L123.9,203.9z M123.9,207.2H97v2.6h26.9L123.9,207.2z M123.9,210.6H97v2.7h26.9
				L123.9,210.6z M123.9,216.6v-2.6H97v2.6H123.9z"/>
		</g>
		<rect id="Rectangle_2017" x="183.5" y="197.9" class="st5" width="99" height="91.9"/>
		<rect id="Rectangle_2018" x="183.5" y="197.9" class="st46" width="99" height="91.9"/>
		<rect id="Rectangle_2019" x="192.3" y="211" class="st5" width="90.2" height="78.8"/>
		<path id="Path_1891" class="st32" d="M282.4,211v6h-84.2v67.7h84.2v5.2h-90.2V211H282.4z"/>
		<rect id="Rectangle_2020" x="204.6" y="217" class="st5" width="77.9" height="66.8"/>
		<rect id="Rectangle_2021" x="204.6" y="217" class="st31" width="77.9" height="66.8"/>
		<path id="Path_1892" class="st26" d="M204.6,217v36.8l8,29.9H228L210.1,217H204.6z"/>
		<path id="Path_1893" class="st26" d="M214.4,217l17.9,66.8h2.2L216.7,217H214.4z"/>
		<path id="Path_1894" class="st5" d="M214.4,350.2v-36.9h-7.8V307h57.9v49.8h-57.9v-6.5H214.4z"/>
		<rect id="Rectangle_2022" x="212.8" y="313.4" width="40" height="36.9"/>
		<rect id="Rectangle_2023" x="212.8" y="313.4" class="st5" width="40" height="36.9"/>
		<rect id="Rectangle_2024" x="212.8" y="313.4" class="st31" width="40" height="36.9"/>
		<path id="Path_1895" class="st26" d="M225.6,313.4l9.9,36.9h15.4l-9.9-36.9H225.6z"/>
		<path id="Path_1896" class="st26" d="M216.4,313.4l9.9,36.9h4.4l-9.9-36.9H216.4z"/>
		<rect id="Rectangle_2025" x="259" y="307" class="st17" width="5.5" height="49.8"/>
		<rect id="Rectangle_2026" x="267.1" y="298.1" class="st5" width="14.4" height="90.3"/>
		<rect id="Rectangle_2027" x="267.1" y="298.1" class="st26" width="14.4" height="90.3"/>
		<rect id="Rectangle_2028" x="267.1" y="298.1" class="st48" width="7.2" height="90.3"/>
		<rect id="Rectangle_2029" x="158.2" y="298.1" class="st5" width="14.4" height="90.3"/>
		<rect id="Rectangle_2030" x="158.2" y="298.1" class="st26" width="14.4" height="90.3"/>
		<rect id="Rectangle_2031" x="158.2" y="298.1" class="st48" width="7.2" height="90.3"/>
		<rect id="Rectangle_2032" x="100.5" y="289.8" class="st5" width="181.9" height="9.4"/>
		<rect id="Rectangle_2033" x="100.5" y="289.8" class="st26" width="181.9" height="9.4"/>
		<rect id="Rectangle_2034" x="158.2" y="289.8" class="st48" width="116.1" height="9.4"/>
		<rect id="Rectangle_2035" x="104.9" y="191.3" class="st5" width="177.5" height="9.4"/>
		<rect id="Rectangle_2036" x="104.9" y="191.3" class="st26" width="177.5" height="9.4"/>
		<rect id="Rectangle_2037" x="104.9" y="191.3" class="st48" width="169.4" height="9.4"/>
		<path id="Path_1897" class="st5" d="M91.2,388.4h191.2v-2.3h-188L91.2,388.4z"/>
	</g>
	<g id="freepik--plant-1--inject-15" transform="translate(-9469.962 -12555.119)">
		<path id="Path_1898" class="st49" d="M98.6,216.8c0,0,6.3-5.3,11.7,0s6.5,37.8,6.5,37.8"/>
		<path id="Path_1899" class="st49" d="M117.2,260.8c0,0-3.7-38.2,10.3-54.2"/>
		<path id="Path_1900" class="st49" d="M115.8,256.8c0,0,2.9-43.5-7.6-53.1"/>
		<path id="Path_1901" class="st49" d="M117.2,256.8c0,0,0.2-28.7,8-33.2s11.8,10.1,11.8,10.1"/>
		<path id="Path_1902" class="st49" d="M114.2,256.8c0,0,1.2-22-4.8-29.9S97,230.2,97,230.2"/>
		<path id="Path_1903" class="st49" d="M116.3,259.8c0,0-3.9-51.6,2.6-60.3"/>
		<path id="Path_1904" class="st5" d="M131.9,227.8c0,0-3.9,1.4-2.7,4.8s13.4,8.9,13.4,8.9s5.2-4.7,0.4-12.4S132,225.4,131.9,227.8z
			"/>
		<path id="Path_1905" class="st48" d="M131.9,227.8c0,0-3.9,1.4-2.7,4.8s13.4,8.9,13.4,8.9s5.2-4.7,0.4-12.4S132,225.4,131.9,227.8
			z"/>
		<path id="Path_1906" class="st5" d="M115,221.3c0,0,4.1-0.2,4.4,3.4s-9,13.4-9,13.4s-6.6-2.4-5.2-11.3S114,219.1,115,221.3z"/>
		<path id="Path_1907" class="st48" d="M115,221.3c0,0,4.1-0.2,4.4,3.4s-9,13.4-9,13.4s-6.6-2.4-5.2-11.3S114,219.1,115,221.3z"/>
		<path id="Path_1908" class="st5" d="M111.6,204.3c0,0,2.7-0.3,2.5-2s-10.7-6-16.9,1c0,0,4,6.8,9.7,6.9S111.6,204.3,111.6,204.3z"
			/>
		<path id="Path_1909" class="st48" d="M111.6,204.3c0,0,2.7-0.3,2.5-2s-10.7-6-16.9,1c0,0,4,6.8,9.7,6.9S111.6,204.3,111.6,204.3z"
			/>
		<path id="Path_1910" class="st5" d="M116.7,200.2c0,0-2.5,1.2-3.2-0.3s5.9-10.8,14.9-8.1c0,0,0.2,7.9-4.6,11
			C119,205.8,116.7,200.2,116.7,200.2z"/>
		<path id="Path_1911" class="st48" d="M116.7,200.2c0,0-2.5,1.2-3.2-0.3s5.9-10.8,14.9-8.1c0,0,0.2,7.9-4.6,11
			C119,205.8,116.7,200.2,116.7,200.2z"/>
		<path id="Path_1912" class="st5" d="M103.6,226.4c0,0,1.9-1.6-0.1-2.3s-12.1-0.5-12.3,9.4c0,0,11.7,2,13.2-1.9
			S103.6,226.4,103.6,226.4z"/>
		<path id="Path_1913" class="st48" d="M103.6,226.4c0,0,1.9-1.6-0.1-2.3s-12.1-0.5-12.3,9.4c0,0,11.7,2,13.2-1.9
			S103.6,226.4,103.6,226.4z"/>
		<path id="Path_1914" class="st5" d="M127.6,204c0,0-1.9-1.6,0.1-2.3c2.1-0.7,12.1-0.5,12.3,9.5c0,0-11.7,1.9-13.2-1.9
			C125.3,205.5,127.6,204,127.6,204z"/>
		<path id="Path_1915" class="st48" d="M127.6,204c0,0-1.9-1.6,0.1-2.3c2.1-0.7,12.1-0.5,12.3,9.5c0,0-11.7,1.9-13.2-1.9
			C125.3,205.5,127.6,204,127.6,204z"/>
		<path id="Path_1916" class="st5" d="M121.4,212.1c0,0-0.2-1.9,1.3-1.1s6.8,6.4,1.3,11.8c0,0-7.4-5.4-6-8.2
			S121.4,212.1,121.4,212.1z"/>
		<path id="Path_1917" class="st48" d="M121.4,212.1c0,0-0.2-1.9,1.3-1.1s6.8,6.4,1.3,11.8c0,0-7.4-5.4-6-8.2
			S121.4,212.1,121.4,212.1z"/>
		<path id="Path_1918" class="st5" d="M101.9,214.7c0,0,1.1-1.5-0.5-1.7s-9.1,1.8-7.4,9.3c0,0,9.1-0.7,9.5-3.8
			S101.9,214.7,101.9,214.7z"/>
		<path id="Path_1919" class="st48" d="M101.9,214.7c0,0,1.1-1.5-0.5-1.7s-9.1,1.8-7.4,9.3c0,0,9.1-0.7,9.5-3.8
			S101.9,214.7,101.9,214.7z"/>
		<path id="Path_1920" class="st5" d="M132.7,284.4h-31.2l-3.4-34.2H136L132.7,284.4z"/>
		<path id="Path_1921" class="st31" d="M132.7,284.4h-31.2l-3.4-34.2H136L132.7,284.4z"/>
		<rect id="Rectangle_2038" x="96.4" y="246.5" class="st5" width="41.3" height="7.5"/>
		<rect id="Rectangle_2039" x="96.4" y="246.5" class="st48" width="41.3" height="7.5"/>
	</g>
	<g id="freepik--plant-2--inject-15" transform="translate(-9906.718 -12576.231)">
		<path id="Path_1922" class="st5" d="M116.4,277c0,0-5.6-12.3,0.8-24.3c6.4-12,8.3-14.9,4.2-17.3s-6,9.6-6,9.6
			c-2-5.5-2.2-11.4-0.6-17c2.8-8.7,4.6-22.9,0.7-24.4s-0.7,17.7-4.1,24.3c-1.7-4.6-2.8-9.4-3.3-14.4c-0.5-7,0.3-18.2-2.8-21.1
			s-5-0.9-2,14.6c1.8,9.2,2.8,18.6,3,28c0,0-6.6-20.3-11.2-20.9s-4.5,6-0.6,11.7s11.2,15.9,12.4,21.2c0,0-7.3-15.3-13.9-10.6
			s5.7,13.9,11.2,17.2c5.5,3.3,9.3,24.2,9.3,24.2L116.4,277z"/>
		<path id="Path_1923" class="st35" d="M116.4,277c0,0-5.6-12.3,0.8-24.3c6.4-12,8.3-14.9,4.2-17.3s-6,9.6-6,9.6
			c-2-5.5-2.2-11.4-0.6-17c2.8-8.7,4.6-22.9,0.7-24.4s-0.7,17.7-4.1,24.3c-1.7-4.6-2.8-9.4-3.3-14.4c-0.5-7,0.3-18.2-2.8-21.1
			s-5-0.9-2,14.6c1.8,9.2,2.8,18.6,3,28c0,0-6.6-20.3-11.2-20.9s-4.5,6-0.6,11.7s11.2,15.9,12.4,21.2c0,0-7.3-15.3-13.9-10.6
			s5.7,13.9,11.2,17.2c5.5,3.3,9.3,24.2,9.3,24.2L116.4,277z"/>
		<path id="Path_1924" class="st5" d="M112,282.1c0,0,5.4-12.3-1.1-24.3c-6.5-12-8.4-14.7-4.4-17.3s6.1,9.6,6.1,9.6
			c2-5.5,2.1-11.5,0.4-17.1c-2.9-8.7-4.9-22.9-1-24.4s1,17.7,4.4,24.2c1.7-4.6,2.8-9.5,3.2-14.4c0.4-7-0.5-18.2,2.6-21.1
			s5-1,2.2,14.5c-1.7,9.3-2.6,18.7-2.6,28.1c0,0,6.4-20.4,10.9-21s4.5,5.9,0.8,11.7s-11,16.1-12.1,21.3c0,0,7.1-15.4,13.7-10.8
			s-5.5,14-11,17.4c-5.4,3.4-9,24.3-9,24.3L112,282.1z"/>
		<path id="Path_1925" class="st50" d="M112,282.1c0,0,5.4-12.3-1.1-24.3c-6.5-12-8.4-14.7-4.4-17.3s6.1,9.6,6.1,9.6
			c2-5.5,2.1-11.5,0.4-17.1c-2.9-8.7-4.9-22.9-1-24.4s1,17.7,4.4,24.2c1.7-4.6,2.8-9.5,3.2-14.4c0.4-7-0.5-18.2,2.6-21.1
			s5-1,2.2,14.5c-1.7,9.3-2.6,18.7-2.6,28.1c0,0,6.4-20.4,10.9-21s4.5,5.9,0.8,11.7s-11,16.1-12.1,21.3c0,0,7.1-15.4,13.7-10.8
			s-5.5,14-11,17.4c-5.4,3.4-9,24.3-9,24.3L112,282.1z"/>
		<path id="Path_1926" class="st5" d="M137.2,273.3H92.1l3.6,32.3h37.8L137.2,273.3z"/>
	</g>
	<g id="freepik--Bubble--inject-15" transform="translate(-9483.918 -12801.108)">
		<path id="Path_1928" class="st5" d="M91.2,205c0-7.6,7.6-13.7,17-13.7s17,6.1,17,13.7c0,6.7-5.9,12.2-13.7,13.5
			c-1.8,3.7-4.7,6.7-8.4,8.6c0,0,3-2.3,2.8-8.5C97.6,217.8,91.2,212.1,91.2,205z"/>
		<path id="Path_1929" class="st46" d="M91.2,205c0-7.6,7.6-13.7,17-13.7s17,6.1,17,13.7c0,6.7-5.9,12.2-13.7,13.5
			c-1.8,3.7-4.7,6.7-8.4,8.6c0,0,3-2.3,2.8-8.5C97.6,217.8,91.2,212.1,91.2,205z"/>
		<path id="Path_1930" class="st5" d="M115,199.2c-2.2-2.7-5.5-1.1-7,1.4c-2.1-2.1-5.7-2.8-7.1,0.4c-2.5,5.4,4.5,9.1,7.7,10.6
			l0.9,0.4l0.8-0.6C113.1,209.2,118.7,203.7,115,199.2z"/>
	</g>
	<g id="freepik--Character--inject-15" transform="translate(-9555.783 -12771.062)">
		<path id="Path_1931" class="st5" d="M93.2,281.7c2.6,6.6,11.5,8,18.6,5s17-20.4,17-20.4l-10-18L93.2,281.7z"/>
		<path id="Path_1932" class="st24" d="M93.2,281.7c2.6,6.6,11.5,8,18.6,5s17-20.4,17-20.4l-10-18L93.2,281.7z"/>
		<path id="Path_1933" class="st4" d="M160.7,199.5c-3.4-5.3-9.4-8.5-15.7-8.2c-10.8,0.5-14.6,1.5-16.1,10.9
			c-1.5,9.5-2.2,10.8-5.6,12.8s4.8,6.5,3.3,10.6c-1.4,4.1-5.8,3.8-5.5,7.6s5,3.7,5.5,6.6s-2,8.1,0,12.2c2,4.1,41.9,17.8,47.2,7.7
			c5.3-10.1-3.2-15.1-4.1-19.9s1.8-4.6,2-10.3s-3.7-6.1-4.1-9.3s3.5-6.1,2.3-9.8S164.2,199.5,160.7,199.5z"/>
		<path id="Path_1934" class="st51" d="M186.1,518.5l5-6.6l-8.5-8.2l-7.8-7.5l-7.3,6.8l9.8,8.2L186.1,518.5z"/>
		<path id="Path_1935" class="st4" d="M191.4,509.9c-0.8-0.5-7,8.9-7,8.9s1.4,9.8-1.4,16.1c-2.8,6.2,2.7,5.8,7.2-0.2l11.3-14.7
			C204.8,515.6,199.1,515.5,191.4,509.9z"/>
		<path id="Path_1936" class="st5" d="M182.3,525.8c1.4-0.3,2.3-4.4,2.5-5.2c0,0,0-0.1,0-0.1l0,0c0,0,0-0.1,0-0.1h-0.1
			c-0.1,0-2.8-0.9-4.2,0c-0.5,0.3-0.8,0.7-0.9,1.2c-0.2,0.4,0,0.9,0.3,1.1c0.8,0.2,1.7,0,2.5-0.4c-0.6,0.6-1.1,1.3-1.3,2.2
			c-0.1,0.7,0.4,1.4,1.1,1.5c0,0,0,0,0,0l0,0L182.3,525.8z M182.1,525.3c-0.2,0-0.4-0.1-0.5-0.3c-0.1-0.1-0.1-0.3-0.1-0.5
			c0.1-0.9,1.5-2.3,2.5-3.2C183.6,523.1,182.8,525.1,182.1,525.3L182.1,525.3z M183.7,520.7c-1.5,1-3.2,1.7-3.6,1.4
			c-0.1-0.1-0.1-0.4,0-0.5c0-0.3,0.3-0.6,0.6-0.8c0.4-0.2,0.9-0.3,1.4-0.3C182.6,520.5,183.2,520.5,183.7,520.7L183.7,520.7z"/>
		<path id="Path_1937" class="st24" d="M177.3,511.2l5.2-7.5l-7.8-7.5l-7.3,6.8L177.3,511.2z"/>
		<path id="Path_1938" class="st51" d="M135.6,528.9h8.3l1.4-11.6l1.2-10.6l-9.9-1.6l-0.6,12.6L135.6,528.9z"/>
		<path id="Path_1939" class="st4" d="M145.7,528.4c0-0.9-11.3-0.2-11.3-0.2s-6.9,7-13.7,8.6s-3,5.6,4.5,5.6h18.6
			C149.2,542.5,145.9,537.9,145.7,528.4z"/>
		<path id="Path_1940" class="st5" d="M133.1,529.7h0.1v-0.1l0,0v-0.1l0,0c0,0,0-0.1,0-0.1c0-0.1-1-2.7-2.5-3.4
			c-0.5-0.2-1-0.2-1.5,0c-0.5,0.3-0.8,0.6-0.7,1c0.3,0.7,1,1.3,1.8,1.6c-0.9-0.1-1.7,0-2.5,0.3c-0.3,0.2-0.5,0.4-0.6,0.8
			c-0.2,0.4-0.1,0.9,0.3,1.2c0.3,0.2,0.6,0.3,1,0.3C130.1,530.9,131.7,530.4,133.1,529.7L133.1,529.7z M132.1,529.5
			c-1.6,0.7-3.7,1.3-4.3,0.9c0,0-0.2-0.1,0-0.6c0-0.2,0.2-0.3,0.3-0.4c0.4-0.2,0.9-0.3,1.3-0.3C130.4,529.2,131.3,529.3,132.1,529.5
			L132.1,529.5z M130.5,526.5c0.9,0.6,1.6,1.4,1.9,2.5c-1.6-0.6-3.3-1.5-3.3-2c0-0.1,0.2-0.3,0.4-0.4c0.2-0.1,0.3-0.1,0.5-0.1
			C130.2,526.5,130.4,526.5,130.5,526.5L130.5,526.5z"/>
		<path id="Path_1941" class="st24" d="M136.1,518l9.2-0.4l1.2-10.7l-9.9-1.7L136.1,518z"/>
		<path id="Path_1942" class="st4" d="M114.8,329.1c0,0-19.6,58-23.5,83.5s78.4,93.7,78.4,93.7l8.9-9.5c0,0-59.9-66.7-59.9-78.1
			s20.4-63.8,20.4-63.8S141.5,333.7,114.8,329.1z"/>
		<path id="Path_1943" class="st48" d="M114.8,329.1c0,0-19.6,58-23.5,83.5s78.4,93.7,78.4,93.7l8.9-9.5c0,0-59.9-66.7-59.9-78.1
			s20.4-63.8,20.4-63.8S141.5,333.7,114.8,329.1z"/>
		<g>
			<defs>
				<path id="SVGID_1_" d="M114.8,329.1c0,0-19.6,58-23.5,83.5s78.4,93.7,78.4,93.7l8.9-9.5c0,0-59.9-66.7-59.9-78.1
					s20.4-63.8,20.4-63.8S141.5,333.7,114.8,329.1z"/>
			</defs>
			<clipPath id="SVGID_2_">
				<use xlink:href="#SVGID_1_"  style="overflow:visible;"/>
			</clipPath>
			<g id="Group_3652" transform="translate(0 137.856)" class="st52">
				<path id="Path_1944" class="st24" d="M131.5,302l1.1,34.7c8.9,8.2,14.2,12.8,20.9,18.4c1.1-4.6,3.7-14.1,3.2-22.3
					C147.7,323.2,140,312.1,131.5,302z"/>
			</g>
		</g>
		<path id="Path_1946" class="st24" d="M128.7,382.8c5.1-13.9,10-25.9,10-25.9c0-2.4-0.4-4.8-1.2-7.1c-0.7-0.4-1.4-0.7-2.2-1
			C135.3,348.7,128.2,360.6,128.7,382.8z"/>
		<path id="Path_1947" class="st4" d="M135.3,346.5l-1.6,81.7v83.6h14.1c33.2-158.4,10.4-198,10.4-198l0,0c0-0.1,0-0.1-0.1-0.2
			c-5.3-11.9-40.3-3.1-40.3-3.1c-2.5,9.8-4.1,29.8-4.1,29.8L135.3,346.5z"/>
		<path id="Path_1948" class="st48" d="M135.3,346.5l-1.6,81.7v83.6h14.1c33.2-158.4,10.4-198,10.4-198l0,0c0-0.1,0-0.1-0.1-0.2
			c-5.3-11.9-40.3-3.1-40.3-3.1c-2.5,9.8-4.1,29.8-4.1,29.8L135.3,346.5z"/>
		<path id="Path_1949" class="st5" d="M149.6,509.7l-17.4-2.6l1.5,7l14.3,1.9L149.6,509.7z"/>
		<path id="Path_1950" class="st5" d="M178.7,493.6L167,506.3l5.8,3.3l9-9.5L178.7,493.6z"/>
		<path id="Path_1951" class="st5" d="M112.8,324.7c6.6,2.8,13.5,4.8,20.5,6.1c22,4.3,32.6,2.5,32.6,2.5c-3.1-7.4-4.6-17.8-4.5-29.5
			c0.1-6,0.5-12.1,1.2-18.1c0-0.3,0-0.5,0.1-0.8l0,0c0.6-4.4,1.3-8.9,2.3-13.3l0,0c0.7-3.2,1.4-6.2,2.3-9.3c0.6-2.2,1.2-4.3,1.9-6.4
			c0.8-2.4,1.6-4.8,2.5-7.5c-5.5-1.8-11.1-3.1-16.8-4.1c-6-1.1-12.1-1.7-18.2-1.9c-7.9,0-16.9,0.8-16.9,0.8s-1.3,0.3-2.1,8.6
			c-0.2,2.5,0.2,8.6,0.7,16.5C119.4,285.4,118,310.3,112.8,324.7z"/>
		<path id="Path_1952" class="st26" d="M148.7,271.2c-1.6-2.8-3.1-5.5-4.3-7.9h2.1c0.8,1.6,1.6,3.3,2.6,5.1
			C149,269.3,148.8,270.3,148.7,271.2z"/>
		<path id="Path_1953" class="st26" d="M141.3,263.3l1.8,0.1c1.6,3.4,3.4,6.6,5.4,9.8c0,0.7-0.1,1.4-0.2,2.1
			C145.6,271.5,143.3,267.4,141.3,263.3z"/>
		<path id="Path_1954" class="st26" d="M123.7,299.4c0.1-0.8,0.2-1.7,0.3-2.7c1.3,2.3,2.9,4.8,4.5,7.2l-2.2-0.5
			C125.4,302,124.5,300.7,123.7,299.4z"/>
		<path id="Path_1955" class="st26" d="M124.2,294.6c0.1-0.9,0.2-1.8,0.3-2.7c2.2,4.4,4.7,8.6,7.5,12.6l-1.7-0.3
			C128,301.1,126,297.9,124.2,294.6L124.2,294.6z"/>
		<path id="Path_1956" class="st26" d="M133.6,304.8c-3.4-4.8-6.4-9.9-8.9-15.2c0.1-1.4,0.2-2.7,0.3-3.8c3,6.8,6.6,13.3,10.9,19.4
			L133.6,304.8z"/>
		<path id="Path_1957" class="st26" d="M148.1,279.7c-4-5.2-7.4-10.9-10.3-16.8l2,0.2c2.4,4.9,5.1,9.7,8.3,14.2
			C148.1,278.1,148.1,278.9,148.1,279.7z"/>
		<path id="Path_1958" class="st26" d="M124.5,302.9l-1.2-0.3c0-0.4,0.1-0.8,0.1-1.2C123.8,301.8,124.1,302.3,124.5,302.9z"/>
		<path id="Path_1959" class="st26" d="M137.7,305.4c-5.1-7-9.3-14.5-12.6-22.5v-0.4c0-0.2-0.6-15,1.1-22.1c3.3,1.2,6.7,2,10.2,2.5
			c3.2,6.8,7.1,13.3,11.8,19.1c0.1,1.4,0.3,2.8,0.7,4.2c-0.7,6.8-1,13.7-0.9,20.6C146,306.4,142,306,137.7,305.4z"/>
		<path id="Path_1960" class="st26" d="M147.8,263.3c0.8,0,1.6,0,2.5-0.1c-0.2,0.9-0.5,2-0.8,3.3
			C148.9,265.4,148.3,264.4,147.8,263.3z"/>
		<path id="Path_1961" class="st51" d="M139.8,241.5c0.5-1.5,0.7-3.1,0.6-4.7c0-1.7-0.2-3.4-0.5-5.1l12-2.2c0,0-3.6,7.1-1.2,12.9
			c5.6,1,10.9,2.8,15.9,5.4c-7.3,5-16,7.4-24.8,7c-14.6-0.7-19.8-10.8-19.8-10.8C127.7,242.3,133.7,241.4,139.8,241.5z"/>
		<path id="Path_1962" class="st24" d="M139.9,231.8c0.3,1.7,0.4,3.4,0.5,5.1c5.8-1.3,11.5-7.3,11.5-7.3L139.9,231.8z"/>
		<path id="Path_1963" class="st17" d="M139.8,241.5c0.5-1.5,0.7-3.1,0.6-4.7c0-1.7-0.2-3.4-0.5-5.1l12-2.2c0,0-3.6,7.1-1.2,12.9
			c5.6,1,10.9,2.8,15.9,5.4c-7.3,5-16,7.4-24.8,7c-14.6-0.7-19.8-10.8-19.8-10.8C127.7,242.3,133.7,241.4,139.8,241.5z"/>
		<path id="Path_1964" class="st51" d="M140.5,234.4c1.2,0,2.3-0.1,3.5-0.3c4.1-0.7,7.8-3.2,9.9-6.8l0,0c6.4-10,3.7-27.1-8.5-27.8
			c-9.9-0.5-13.4,4.6-14.7,14.7C129.2,225.7,131,234.3,140.5,234.4z"/>
		<path id="Path_1965" class="st53" d="M137.1,214.1c-0.9,1.4-1.9,2.8-3.1,3.9c0.6,0.9,1.5,1.3,2.6,1.2L137.1,214.1z"/>
		<path id="Path_1966" class="st4" d="M143.2,213.6c0,0.8,0.3,1.5,0.9,1.6s1-0.6,1.1-1.4s-0.3-1.5-0.9-1.6S143.3,212.8,143.2,213.6z
			"/>
		<path id="Path_1967" class="st4" d="M144.5,212.2l-1.7-0.8C142.8,211.4,143.6,212.9,144.5,212.2z"/>
		<path id="Path_1968" class="st4" d="M133.2,212.6c0,0.8,0.3,1.5,0.9,1.6s1-0.6,1.1-1.4c0.1-0.7-0.2-1.4-0.9-1.6
			C133.7,211.1,133.2,211.8,133.2,212.6z"/>
		<path id="Path_1969" class="st4" d="M134.5,211.3l-1.7-0.8C132.8,210.4,133.5,212,134.5,211.3z"/>
		<path id="Path_1970" class="st54" d="M143.7,206.9c1.6-0.1,3.2,0.5,4.2,1.7"/>
		<path id="Path_1971" class="st54" d="M136.6,205.9c-1.3-0.4-2.8-0.2-4,0.6"/>
		<path id="Path_1972" class="st4" d="M137.8,223.2c0.4,1.1,0.7,2.3,1,3.5h0.6c2.9-0.1,4.2-1.1,4.8-2.2c0.3-0.5,0.4-1.1,0.4-1.7
			c0-0.3,0-0.7-0.1-1c-1.8,0.9-3.7,1.4-5.6,1.4L137.8,223.2z"/>
		<path id="Path_1973" class="st6" d="M138.8,223.2l0.3,1c2.7-0.1,4.6-0.6,5.4-1.5c0-0.3,0-0.7-0.1-1
			C142.7,222.6,140.7,223.1,138.8,223.2z"/>
		<path id="Path_1974" class="st55" d="M139.4,226.7c2.9-0.1,4.2-1.1,4.8-2.2c-1.1,0.1-2.2,0.3-3.2,0.8
			C140.3,225.5,139.7,226.1,139.4,226.7z"/>
		<path id="Path_1975" class="st4" d="M155.3,216.8c0,0-4.2-8.4-3.2-14.6c0,0-19.1-9.1-21.2,10.8c0,0-0.9-17.8,16.1-17.2
			s15.6,25.4,6.4,32.4C153.4,228,157.8,222,155.3,216.8z"/>
		<path id="Path_1976" class="st51" d="M153.5,218.8c0.3-2.4,2.5-4,4.9-3.7c0,0,0,0,0,0c3,0.5,4.2,6.9-3.6,8
			C153.7,223.2,153.2,222.1,153.5,218.8z"/>
		<path id="Path_1977" class="st17" d="M140.5,234.4c1.2,0,2.3-0.1,3.5-0.3c4.1-0.7,7.8-3.2,9.9-6.8l0,0c-1.4-1.8-3.2-3.1-5.4-3.8
			C147,223.4,143,230.8,140.5,234.4z"/>
		<path id="Path_1978" class="st51" d="M124.4,221.7c0,0,5.1,12.1,4.2,14c-0.9,1.9-5.2,12.9-5.2,12.9l-5.5-2.9l4.3-8.9
			c0,0-5-8-4.3-8.8S122.5,220.9,124.4,221.7z"/>
		<path id="Path_1979" class="st5" d="M126,246.2l-8.3-4.9c0,0-26.1,31.4-24.4,40.4c0.9,4.7,8.6,7.6,14.7,1.7
			C113.6,278,117.5,265,126,246.2z"/>
		<path id="Path_1980" class="st17" d="M126,246.2l-8.3-4.9c0,0-26.1,31.4-24.4,40.4c0.9,4.7,8.6,7.6,14.7,1.7
			C113.6,278,117.5,265,126,246.2z"/>
		<path id="Path_1981" class="st51" d="M154.6,228c0,0-4.8-3.9-6.3-3.8s-6.1,13.1-7.2,14.2s2.3,11.6,2.3,11.6l6.8,0.1l-2.5-8.8
			C147.8,241.3,156.9,229.7,154.6,228z"/>
		<path id="Path_1982" class="st24" d="M161.3,303.8c0.1-6,0.5-12.1,1.2-18.1c-3.2-4-7.5-6.9-12.3-8.5
			C150.3,277.2,150,297.4,161.3,303.8z"/>
		<path id="Path_1983" class="st5" d="M150.2,246.7l-8.6,1.9c0,0,8.4,37.2,14.1,42.3s11.5,4.5,15.9-2.5s5.8-38.4,0-40.1
			c-2.2,3.5-4.2,7.3-5.8,11.2c-1.6,3.5-2.9,7.1-3.9,10.7L150.2,246.7z"/>
		<path id="Path_1984" class="st17" d="M141.7,248.6c0,0,8.4,37.2,14.1,42.4s11.5,4.5,15.9-2.5s5.8-38.4,0-40.1
			c-2.2,3.5-4.2,7.3-5.8,11.2c-1.2,2.7-2,4.9-2.6,6.6c-1,2.7-1.3,4.1-1.3,4.1l-11.7-23.6L141.7,248.6z"/>
		<path id="Path_1985" class="st24" d="M162,270.3c2.2,3,4.1,6.2,5.6,9.6c0,0,1.4-8.5-4.3-13.7C162.3,268.9,162,270.3,162,270.3z"/>
	</g>
</g>
</svg>
