<?xml version="1.0" encoding="utf-8"?>
<!-- Generator: Adobe Illustrator 22.1.0, SVG Export Plug-In . SVG Version: 6.00 Build 0)  -->
<svg version="1.1" id="Layer_1" xmlns="http://www.w3.org/2000/svg" xmlns:xlink="http://www.w3.org/1999/xlink" x="0px" y="0px"
	 viewBox="0 0 1200 800" style="enable-background:new 0 0 1200 800;" xml:space="preserve">
<style type="text/css">
	.st0{fill:#EBEBEB;}
	.st1{fill:#E0E0E0;}
	.st2{fill:#F5F5F5;}
	.st3{fill:#FAFAFA;}
	.st4{fill:#263238;}
	.st5{fill:#22A5EE;}
	.st6{fill:#FFFFFF;}
	.st7{fill:#455A64;}
	.st8{fill:#999999;}
	.st9{fill:#FFBE9D;}
	.st10{fill:#EB996E;}
	.st11{opacity:0.3;}
	.st12{fill:#AA6550;}
	.st13{opacity:0.6;}
	.st14{fill:#995037;}
	.st15{opacity:0.2;}
	.st16{opacity:0.5;fill:#EBEBEB;enable-background:new    ;}
	.st17{opacity:0.1;enable-background:new    ;}
	.st18{opacity:0.5;enable-background:new    ;}
	.st19{fill:#37474F;}
	.st20{opacity:0.5;}
	.st21{fill:#F7A9A0;}
	.st22{opacity:0.25;}
	.st23{opacity:0.5;fill:#22A5EE;enable-background:new    ;}
	.st24{opacity:0.2;enable-background:new    ;}
	.st25{opacity:0.4;enable-background:new    ;}
	.st26{opacity:0.3;fill:#FFFFFF;enable-background:new    ;}
	.st27{opacity:0.45;enable-background:new    ;}
	.st28{opacity:0.3;enable-background:new    ;}
	.st29{opacity:0.5;fill:#F5F5F5;enable-background:new    ;}
	.st30{opacity:0.25;fill:#FFFFFF;enable-background:new    ;}
	.st31{opacity:0.5;fill:#FFFFFF;enable-background:new    ;}
	.st32{opacity:0.1;fill:#FFFFFF;enable-background:new    ;}
	.st33{opacity:0.55;fill:#FFFFFF;enable-background:new    ;}
	.st34{opacity:0.15;enable-background:new    ;}
	.st35{opacity:0.6;fill:#FFFFFF;enable-background:new    ;}
	.st36{opacity:0.75;fill:#FFFFFF;enable-background:new    ;}
	.st37{opacity:0.55;enable-background:new    ;}
	.st38{opacity:0.4;fill:#FFFFFF;enable-background:new    ;}
	.st39{fill:#FFBDA7;}
	.st40{fill:#F0997A;}
	.st41{fill:#B16668;}
	.st42{fill:#FFA8A7;}
	.st43{fill:#E6E6E6;}
	.st44{opacity:0.7;}
	.st45{fill:#F0F0F0;}
	.st46{opacity:0.8;fill:#FFFFFF;enable-background:new    ;}
	.st47{opacity:5.000000e-02;enable-background:new    ;}
	.st48{opacity:0.2;fill:#FFFFFF;enable-background:new    ;}
	.st49{fill:none;stroke:#22A5EE;stroke-miterlimit:10;}
	.st50{opacity:0.7;fill:#FFFFFF;enable-background:new    ;}
	.st51{fill:#EEC1BB;}
	.st52{clip-path:url(#SVGID_2_);}
	.st53{fill:#D4827D;}
	.st54{fill:none;stroke:#263238;stroke-width:0.69;stroke-linecap:round;stroke-linejoin:round;}
	.st55{fill:#DE5753;}
</style>
<g id="Group_3642_1_" transform="translate(9736.307 12863.572)">
	<path id="Path_1460_1_" class="st5" d="M-9175-12463.7c-2.8-4.3-6.6-7.8-11.1-10.2c-18.1-10.4-47.4-10.4-65.4,0
		c-4.5,2.4-8.3,5.9-11,10.2h-2.5v9.4l0,0c0.3,6.5,4.8,13.1,13.5,18.1c18.1,10.4,47.4,10.4,65.4,0c8.7-5,13.2-11.5,13.5-18.1l0,0
		v-9.4L-9175-12463.7z"/>
	<g id="Group_3616_1_" transform="translate(-9354.98 -12660.514)" class="st22">
		<path id="Path_1461_1_" d="M180,196.8c-2.8-4.3-6.6-7.8-11.1-10.2c-18.1-10.4-47.4-10.4-65.4,0c-4.5,2.4-8.3,5.9-11,10.2H90v9.4
			l0,0c0.3,6.5,4.8,13.1,13.5,18.1c18.1,10.4,47.4,10.4,65.4,0c8.7-5,13.2-11.5,13.5-18.1l0,0v-9.4L180,196.8z"/>
	</g>
	<path id="Path_1462_1_" class="st17" d="M-9218.8-12481.7c-11.8,0-23.7,2.6-32.7,7.9c-4.5,2.4-8.3,5.9-11,10.2h-2.5v9.4l0,0
		c0.3,6.5,4.9,13.1,13.5,18.1c9,5.2,20.9,7.9,32.7,7.9L-9218.8-12481.7z"/>
	<path id="Path_1463_1_" class="st17" d="M-9244.1-12477.4c-2.6,1-5.1,2.1-7.5,3.5c-4.5,2.4-8.3,5.9-11,10.2h-2.5v9.4l0,0
		c0.3,6.6,4.8,13.1,13.5,18.1c2.4,1.4,4.9,2.5,7.5,3.5L-9244.1-12477.4z"/>
	<path id="Path_1464_1_" class="st23" d="M-9193.5-12477.4c2.6,1,5.1,2.1,7.5,3.5c4.5,2.4,8.3,5.9,11.1,10.2h2.5v9.4l0,0
		c-0.3,6.6-4.9,13.1-13.6,18.1c-2.4,1.4-4.9,2.5-7.4,3.5L-9193.5-12477.4z"/>
	<path id="Path_1465_1_" class="st5" d="M-9186.1-12482.6c-18.1-10.4-47.4-10.4-65.4,0s-18.1,27.4,0,37.8s47.4,10.4,65.4,0
		S-9168-12472.1-9186.1-12482.6z"/>
	<path id="Path_1466_1_" class="st24" d="M-9186.1-12482.6c-18.1-10.4-47.4-10.4-65.4,0s-18.1,27.4,0,37.8s47.4,10.4,65.4,0
		S-9168-12472.1-9186.1-12482.6z"/>
	<path id="Path_1467_1_" class="st5" d="M-9197.5-12475.6c-13.6-6.1-29.1-6.1-42.6,0c-6.1,3.1-9.4,7.4-9.4,12s3.3,8.9,9.4,12
		c13.6,6.1,29.1,6.1,42.6,0c6-3.1,9.4-7.4,9.4-12S-9191.4-12472.5-9197.5-12475.6z"/>
	<path id="Path_1468_1_" class="st25" d="M-9197.5-12475.6c-13.6-6.1-29.1-6.1-42.6,0c-6.1,3.1-9.4,7.4-9.4,12s3.3,8.9,9.4,12
		c13.6,6.1,29.1,6.1,42.6,0c6-3.1,9.4-7.4,9.4-12S-9191.4-12472.5-9197.5-12475.6z"/>
	<path id="Path_1469_1_" class="st5" d="M-9187.1-12480.8c-8.5-4.9-19.7-7.6-31.7-7.6c-12,0-23.3,2.7-31.7,7.6
		c-8.1,4.7-12.6,10.7-12.6,17.1s4.4,12.5,12.6,17.2c8.5,4.9,19.7,7.6,31.7,7.6c12,0,23.3-2.7,31.7-7.6c8.1-4.7,12.6-10.8,12.6-17.2
		S-9179-12476.1-9187.1-12480.8z M-9197.5-12451.7c-13.6,6.1-29.1,6.1-42.6,0c-6.1-3.1-9.4-7.4-9.4-12c0-4.6,3.3-8.9,9.4-12
		c13.6-6.1,29.1-6.1,42.6,0c6,3.1,9.4,7.4,9.4,12C-9188.1-12459.1-9191.4-12454.8-9197.5-12451.7z"/>
	<path id="Path_1470_1_" class="st26" d="M-9187.1-12480.8c-8.5-4.9-19.7-7.6-31.7-7.6c-12,0-23.3,2.7-31.7,7.6
		c-8.1,4.7-12.6,10.7-12.6,17.1s4.4,12.5,12.6,17.2c8.5,4.9,19.7,7.6,31.7,7.6c12,0,23.3-2.7,31.7-7.6c8.1-4.7,12.6-10.8,12.6-17.2
		S-9179-12476.1-9187.1-12480.8z M-9197.5-12451.7c-13.6,6.1-29.1,6.1-42.6,0c-6.1-3.1-9.4-7.4-9.4-12c0-4.6,3.3-8.9,9.4-12
		c13.6-6.1,29.1-6.1,42.6,0c6,3.1,9.4,7.4,9.4,12C-9188.1-12459.1-9191.4-12454.8-9197.5-12451.7z"/>
	<path id="Path_1471_1_" class="st24" d="M-9198.2-12453.2c11.4-5.8,11.4-15.3,0-21.1c-11.4-5.9-29.8-5.8-41.2,0
		c-11.3,5.8-11.4,15.3,0,21.1C-9228-12447.3-9209.6-12447.3-9198.2-12453.2z"/>
	<path id="Path_1472_1_" class="st5" d="M-9198.2-12453.2c11.4-5.8,11.4-15.3,0-21.1c-11.4-5.9-29.8-5.8-41.2,0
		c-11.3,5.8-11.4,15.3,0,21.1C-9228-12447.3-9209.6-12447.3-9198.2-12453.2z"/>
	<path id="Path_1473_1_" class="st27" d="M-9198.2-12453.2c11.4-5.8,11.4-15.3,0-21.1c-11.4-5.9-29.8-5.8-41.2,0
		c-11.3,5.8-11.4,15.3,0,21.1C-9228-12447.3-9209.6-12447.3-9198.2-12453.2z"/>
	<path id="Path_1474_1_" class="st5" d="M-9198.2-12470.3c-11.4-5.8-29.8-5.8-41.2,0c-4.7,2.4-7.4,5.5-8.3,8.6
		c0.8,3.1,3.6,6.2,8.3,8.6c11.4,5.8,29.8,5.8,41.2,0c4.7-2.4,7.5-5.5,8.3-8.6C-9190.8-12464.8-9193.5-12467.9-9198.2-12470.3z"/>
	<path id="Path_1475_1_" class="st28" d="M-9198.2-12470.3c-11.4-5.8-29.8-5.8-41.2,0c-4.7,2.4-7.4,5.5-8.3,8.6
		c0.8,3.1,3.6,6.2,8.3,8.6c11.4,5.8,29.8,5.8,41.2,0c4.7-2.4,7.5-5.5,8.3-8.6C-9190.8-12464.8-9193.5-12467.9-9198.2-12470.3z"/>
	<path id="Path_1476_1_" class="st5" d="M-9216.1-12474v4.3l-1.5,1.5l-2.7,2.8v-4.4L-9216.1-12474z"/>
	<path id="Path_1477_1_" class="st28" d="M-9216.1-12474v4.3l-1.5,1.5l-2.7,2.8v-4.4L-9216.1-12474z"/>
	<path id="Path_1478_1_" class="st5" d="M-9220.2-12469.8v2.5c-1.3,0.5-2.7,0.9-4.1,1.2c-0.6,0.1-1.2,0.1-1.8-0.1
		c-0.3-0.1-0.6-0.2-0.9-0.3c-1-0.6-1.2-1.6,0.8-2.6C-9224.4-12470.3-9222.1-12470.6-9220.2-12469.8z"/>
	<path id="Path_1479_1_" class="st27" d="M-9220.2-12469.8v2.5c-1.3,0.5-2.7,0.9-4.1,1.2c-0.6,0.1-1.2,0.1-1.8-0.1
		c-0.3-0.1-0.6-0.2-0.9-0.3c-1-0.6-1.2-1.6,0.8-2.6C-9224.4-12470.3-9222.1-12470.6-9220.2-12469.8z"/>
	<path id="Path_1480_1_" class="st5" d="M-9200.9-12457.7v3.7l-4.6,2.7l-3.4-2c-4.2,2-9,2.2-13.4,0.6v-3.7l2.2-2.1l-2.1,0.6
		c-3.5,1-7.2,0.6-10.4-1.2c-2.1-1.2-3.1-2.5-3.1-3.9v-3.6l0.4-1.6l-1.3-0.7v-3.7l3.5,2c-1.4,0.8-2.4,2.3-2.6,4l0,0
		c0,1.3,1,2.6,3.1,3.8c4.5,2.6,9,1.8,13.2,0.4c3.8-1.2,6.6-2.7,8.8-1.4c1.4,0.8,1,1.7-0.6,2.6c-2,1.1-4.4,1.3-6.5,0.4l-4.4,4.4
		c0.8,0.3,1.6,0.6,2.5,0.7c3.7,0.7,7.5,0.2,10.9-1.3l3.4,2L-9200.9-12457.7z"/>
	<path id="Path_1481_1_" class="st24" d="M-9235.9-12466.6L-9235.9-12466.6c0,1.3,1,2.6,3.1,3.8c4.5,2.6,9,1.8,13.2,0.4
		c3.8-1.2,6.6-2.7,8.8-1.4c1.4,0.8,1,1.7-0.6,2.6c-2,1.1-4.4,1.3-6.5,0.4l-4.4,4.4c0.8,0.3,1.6,0.5,2.4,0.7
		c3.7,0.7,7.5,0.2,10.9-1.3l3.4,2l4.7-2.7v3.7l-4.7,2.7l-3.4-2c-4.2,2-9,2.2-13.4,0.6v-3.7l2.2-2.1l-2.1,0.6
		c-3.5,1-7.2,0.6-10.4-1.2c-2.1-1.2-3.1-2.5-3.1-3.9L-9235.9-12466.6l0.4-1.5"/>
	<path id="Path_1482_1_" class="st27" d="M-9236.7-12472.6v3.7l1.3,0.7l0,0c0.5-1,1.3-1.8,2.2-2.4L-9236.7-12472.6z"/>
	<path id="Path_1483_1_" class="st5" d="M-9201.7-12460.1c0,0.6-0.1,1.2-0.3,1.8l-2.3-1.4c1.4-0.6,2.4-2,2.7-3.5
		C-9201.7-12462.2-9201.7-12460.2-9201.7-12460.1z"/>
	<g id="Group_3617_1_" transform="translate(-9294.322 -12642.063)" class="st11">
		<path id="Path_1484_1_" d="M92.7,182c0,0.6-0.1,1.2-0.3,1.8l-2.3-1.4c1.4-0.6,2.4-2,2.7-3.5C92.7,179.8,92.7,181.8,92.7,182z"/>
	</g>
	<path id="Path_1485_1_" class="st5" d="M-9201.7-12458.1l-2.7-1.6c1.6-0.7,2.6-2.3,2.7-4.1v-0.3c-0.4-1.6-1.5-3-3-3.6l0,0
		c-1.9-1.1-4-1.6-6.2-1.6h-2.2c-1,0.1-2,0.4-3,0.6l-1.4,0.4l-2,0.6l-0.7,0.3c-1.3,0.5-2.7,0.9-4.1,1.2c-0.6,0.1-1.2,0.1-1.8,0
		c-0.3-0.1-0.6-0.2-0.8-0.3c-1.1-0.6-1.2-1.6,0.7-2.7c1.8-1.1,4-1.4,6-0.6l4.2-4.2c-4.1-1.3-8.6-1.1-12.6,0.7l-3.5-2l-4.7,2.7l3.5,2
		c-1.4,0.9-2.4,2.3-2.6,4l0,0c0,1.3,1,2.6,3.1,3.8c4.6,2.6,9,1.8,13.2,0.4c3.8-1.3,6.6-2.7,8.8-1.4c1.4,0.8,1,1.7-0.6,2.6
		c-2,1.1-4.4,1.3-6.5,0.4l-4.4,4.4c0.8,0.3,1.6,0.5,2.5,0.7c1.4,0.3,2.8,0.4,4.3,0.3c2.3-0.1,4.5-0.7,6.7-1.6l3.5,2l4.7-2.7
		L-9201.7-12458.1z"/>
	<g id="Group_3618_1_" transform="translate(-9326.74 -12654.125)" class="st11">
		<path id="Path_1486_1_" class="st6" d="M125.1,196l-2.7-1.6c1.6-0.7,2.6-2.3,2.7-4.1V190c-0.4-1.6-1.5-3-3-3.6l0,0
			c-1.9-1.1-4-1.6-6.2-1.6h-2.2c-1,0.1-2,0.4-3,0.6l-1.4,0.4l-2,0.6l-0.7,0.3c-1.3,0.5-2.7,0.9-4.1,1.2c-0.6,0.1-1.2,0.1-1.8,0
			c-0.3-0.1-0.6-0.2-0.8-0.3c-1.1-0.6-1.2-1.6,0.7-2.7c1.8-1.1,4-1.4,6-0.6l4.2-4.2c-4.1-1.3-8.6-1.1-12.6,0.7l-3.5-2l-4.7,2.7
			l3.5,2c-1.4,0.9-2.4,2.3-2.6,4l0,0c0,1.3,1,2.6,3.1,3.8c4.6,2.6,9,1.8,13.2,0.4c3.8-1.3,6.6-2.7,8.8-1.4c1.4,0.8,1,1.7-0.6,2.6
			c-2,1.1-4.4,1.3-6.5,0.4l-4.4,4.4c0.8,0.3,1.6,0.5,2.5,0.7c1.4,0.3,2.8,0.4,4.3,0.3c2.3-0.1,4.5-0.7,6.7-1.6l3.5,2l4.7-2.7
			L125.1,196z"/>
	</g>
	<path id="Path_1487_1_" class="st5" d="M-9209-12457v3.7l3.5,2v-3.7L-9209-12457z"/>
	<path id="Path_1488_1_" class="st27" d="M-9209-12457v3.7l3.5,2v-3.7L-9209-12457z"/>
	<path id="Path_1489_1_" class="st29" d="M-9236.7-12472.6l4.7-2.7l3.5,2l-3.4-1.4L-9236.7-12472.6z"/>
	<path id="Path_1490_1_" class="st29" d="M-9226.2-12469.2c1.8-1.1,4-1.4,6-0.6l4.1-4.2l-4.1,3.8
		C-9222.2-12471-9224.5-12470.6-9226.2-12469.2z"/>
	<path id="Path_1491_1_" class="st29" d="M-9222.4-12456.4c0.8,0.3,1.6,0.5,2.4,0.7c1.4,0.3,2.8,0.4,4.3,0.3c-2.1,0-4.1-0.4-6-1.2
		l3.7-4.2L-9222.4-12456.4z"/>
	<path id="Path_1492_1_" class="st29" d="M-9209-12457l3.5,1.6l4.6-2.3l-4.6,2.7L-9209-12457z"/>
	<path id="Path_1493_1_" class="st29" d="M-9250.2-12480.2c12.3-7.4,31.4-8.2,31.4-8.2c-12,0-23.3,2.7-31.7,7.6
		c-8.1,4.7-12.6,10.7-12.6,17.1C-9263.1-12463.7-9262.6-12472.6-9250.2-12480.2z"/>
	<path id="Path_1494_1_" class="st29" d="M-9222.4-12437c13,0.6,26.4-2,36.3-7.7c10.3-6,14.7-14.1,13.3-21.8c0,0,1.9,12.7-14,21.4
		C-9202.8-12436.6-9222.4-12437-9222.4-12437z"/>
	<path id="Path_1495_1_" class="st5" d="M-9178.1-12476.7c-2.8-4.3-6.6-7.8-11.1-10.2c-18.1-10.4-47.4-10.4-65.4,0
		c-4.5,2.4-8.3,5.9-11,10.2h-2.5v9.4l0,0c0.3,6.5,4.8,13.1,13.5,18.1c18.1,10.4,47.4,10.4,65.4,0c8.7-5,13.2-11.5,13.6-18.1l0,0
		v-9.4L-9178.1-12476.7z"/>
	<g id="Group_3619_1_" transform="translate(-9358.06 -12673.534)" class="st22">
		<path id="Path_1496_1_" d="M180,196.8c-2.8-4.3-6.6-7.8-11.1-10.2c-18.1-10.4-47.4-10.4-65.4,0c-4.5,2.4-8.3,5.9-11,10.2H90v9.4
			l0,0c0.3,6.5,4.8,13.1,13.5,18.1c18.1,10.4,47.4,10.4,65.4,0c8.7-5,13.2-11.5,13.6-18.1l0,0v-9.4L180,196.8z"/>
	</g>
	<path id="Path_1497_1_" class="st17" d="M-9221.9-12494.8c-11.9,0-23.7,2.6-32.7,7.9c-4.5,2.4-8.3,5.9-11,10.2h-2.5v9.4l0,0
		c0.3,6.6,4.8,13.1,13.5,18.1c9,5.2,20.9,7.9,32.7,7.9L-9221.9-12494.8z"/>
	<path id="Path_1498_1_" class="st17" d="M-9247.1-12490.5c-2.6,1-5.1,2.1-7.5,3.5c-4.5,2.4-8.3,5.9-11,10.2h-2.5v9.4l0,0
		c0.3,6.5,4.8,13.1,13.5,18.1c2.4,1.4,4.9,2.5,7.4,3.5L-9247.1-12490.5z"/>
	<path id="Path_1499_1_" class="st23" d="M-9196.6-12490.5c2.6,1,5,2.2,7.4,3.5c4.5,2.4,8.3,5.9,11,10.2h2.5v9.4l0,0
		c-0.3,6.5-4.9,13.1-13.6,18.1c-2.4,1.4-4.9,2.5-7.4,3.5L-9196.6-12490.5z"/>
	<path id="Path_1500_1_" class="st5" d="M-9189.2-12495.7c-18.1-10.4-47.4-10.4-65.4,0c-18,10.4-18.1,27.4,0,37.8
		c18.1,10.4,47.4,10.4,65.4,0C-9171.1-12468.4-9171-12485.2-9189.2-12495.7z"/>
	<path id="Path_1501_1_" class="st24" d="M-9189.2-12495.7c-18.1-10.4-47.4-10.4-65.4,0c-18,10.4-18.1,27.4,0,37.8
		c18.1,10.4,47.4,10.4,65.4,0C-9171.1-12468.4-9171-12485.2-9189.2-12495.7z"/>
	<path id="Path_1502_1_" class="st5" d="M-9200.5-12488.8c-13.6-6.1-29.1-6.1-42.6,0c-6.1,3.1-9.4,7.4-9.4,12c0,4.6,3.3,8.9,9.4,12
		c13.6,6.1,29.1,6.1,42.6,0c6-3.1,9.4-7.4,9.4-12C-9191.1-12481.4-9194.5-12485.7-9200.5-12488.8z"/>
	<path id="Path_1503_1_" class="st25" d="M-9200.5-12488.8c-13.6-6.1-29.1-6.1-42.6,0c-6.1,3.1-9.4,7.4-9.4,12c0,4.6,3.3,8.9,9.4,12
		c13.6,6.1,29.1,6.1,42.6,0c6-3.1,9.4-7.4,9.4-12C-9191.1-12481.4-9194.5-12485.7-9200.5-12488.8z"/>
	<path id="Path_1504_1_" class="st5" d="M-9190.1-12494c-8.4-4.9-19.7-7.6-31.7-7.6c-12,0-23.3,2.7-31.7,7.6
		c-8.1,4.7-12.6,10.8-12.6,17.2s4.5,12.6,12.6,17.2c8.4,4.9,19.7,7.5,31.7,7.5s23.3-2.7,31.7-7.5c8.1-4.7,12.6-10.8,12.6-17.2
		C-9177.6-12483.3-9182-12489.3-9190.1-12494z M-9200.5-12464.9c-13.6,6.1-29.1,6.1-42.6,0c-6.1-3.1-9.4-7.4-9.4-12
		c0-4.6,3.3-8.9,9.4-12c13.6-6.1,29.1-6.1,42.6,0c6,3.1,9.4,7.4,9.4,12C-9191.1-12472.2-9194.5-12467.9-9200.5-12464.9
		L-9200.5-12464.9z"/>
	<path id="Path_1505_1_" class="st26" d="M-9190.1-12494c-8.4-4.9-19.7-7.6-31.7-7.6c-12,0-23.3,2.7-31.7,7.6
		c-8.1,4.7-12.6,10.8-12.6,17.2s4.5,12.6,12.6,17.2c8.4,4.9,19.7,7.5,31.7,7.5s23.3-2.7,31.7-7.5c8.1-4.7,12.6-10.8,12.6-17.2
		C-9177.6-12483.3-9182-12489.3-9190.1-12494z M-9200.5-12464.9c-13.6,6.1-29.1,6.1-42.6,0c-6.1-3.1-9.4-7.4-9.4-12
		c0-4.6,3.3-8.9,9.4-12c13.6-6.1,29.1-6.1,42.6,0c6,3.1,9.4,7.4,9.4,12C-9191.1-12472.2-9194.5-12467.9-9200.5-12464.9
		L-9200.5-12464.9z"/>
	<path id="Path_1506_1_" class="st24" d="M-9201.3-12466.2c11.4-5.8,11.4-15.3,0-21.1c-11.4-5.9-29.8-5.8-41.2,0
		c-11.3,5.8-11.4,15.3,0,21.1C-9231.1-12460.4-9212.6-12460.4-9201.3-12466.2z"/>
	<path id="Path_1507_1_" class="st5" d="M-9201.3-12466.2c11.4-5.8,11.4-15.3,0-21.1c-11.4-5.9-29.8-5.8-41.2,0
		c-11.3,5.8-11.4,15.3,0,21.1C-9231.1-12460.4-9212.6-12460.4-9201.3-12466.2z"/>
	<path id="Path_1508_1_" class="st27" d="M-9201.3-12466.2c11.4-5.8,11.4-15.3,0-21.1c-11.4-5.9-29.8-5.8-41.2,0
		c-11.3,5.8-11.4,15.3,0,21.1C-9231.1-12460.4-9212.6-12460.4-9201.3-12466.2z"/>
	<path id="Path_1509_1_" class="st5" d="M-9201.3-12483.4c-11.4-5.8-29.8-5.8-41.2,0c-4.7,2.4-7.5,5.4-8.3,8.6
		c0.8,3.1,3.6,6.2,8.3,8.6c11.4,5.8,29.8,5.8,41.2,0c4.7-2.4,7.4-5.5,8.3-8.6C-9193.8-12477.9-9196.6-12481-9201.3-12483.4z"/>
	<path id="Path_1510_1_" class="st28" d="M-9201.3-12483.4c-11.4-5.8-29.8-5.8-41.2,0c-4.7,2.4-7.5,5.4-8.3,8.6
		c0.8,3.1,3.6,6.2,8.3,8.6c11.4,5.8,29.8,5.8,41.2,0c4.7-2.4,7.4-5.5,8.3-8.6C-9193.8-12477.9-9196.6-12481-9201.3-12483.4z"/>
	<path id="Path_1511_1_" class="st5" d="M-9219.1-12487.1v4.3l-1.5,1.5l-2.7,2.8v-4.4L-9219.1-12487.1z"/>
	<path id="Path_1512_1_" class="st28" d="M-9219.1-12487.1v4.3l-1.5,1.5l-2.7,2.8v-4.4L-9219.1-12487.1z"/>
	<path id="Path_1513_1_" class="st29" d="M-9253.1-12493.3c12.3-7.4,31.4-8.2,31.4-8.2c-12,0-23.3,2.7-31.7,7.6
		c-8.1,4.7-12.6,10.8-12.6,17.2C-9266.1-12476.7-9265.7-12485.7-9253.1-12493.3z"/>
	<path id="Path_1514_1_" class="st29" d="M-9225.4-12450.1c13,0.6,26.4-2,36.3-7.8c10.4-6,14.8-14.1,13.3-21.8c0,0,1.9,12.7-14,21.4
		C-9205.9-12449.6-9225.4-12450.1-9225.4-12450.1z"/>
	<g id="freepik--Arrow--inject-84_1_" transform="translate(-9666.537 -12863.572)">
		<g id="freepik--arrow--inject-84-2_1_">
			<path id="Path_1515_1_" class="st5" d="M359.6,181.5l-4.7-2.7l-40.6,14.6l9,8.4L208.3,324.5l-24-22.6l-4.7-2.7L90,395l10.8,10.1
				l4.7,2.7l78.1-83.4l22.3,20.5l7,4.1l124.9-133.4l5.2,4.7l4.7,2.7L359.6,181.5z"/>
			<path id="Path_1516_1_" class="st30" d="M359.6,181.5l-4.7-2.7l-40.6,14.6l9,8.4L208.3,324.5l-24-22.6l-4.7-2.7L90,395l10.8,10.1
				l4.7,2.7l78.1-83.4l22.3,20.5l7,4.1l124.9-133.4l5.2,4.7l4.7,2.7L359.6,181.5z"/>
			<path id="Path_1517_1_" class="st5" d="M359.6,181.5L347.6,223l-9-8.4L212.8,348.9L185,322.7l-79.6,85l-10.8-10.1l89.7-95.8
				l27.8,26.2l115.7-123.6l-9-8.4L359.6,181.5z"/>
			<path id="Path_1518_1_" class="st5" d="M185,322.7l-1.5,1.6l22.3,20.5l7,4.1L185,322.7z"/>
			<path id="Path_1519_1_" class="st24" d="M185,322.7l-1.5,1.6l22.3,20.5l7,4.1L185,322.7z"/>
			<path id="Path_1520_1_" class="st5" d="M323.2,201.8l4.7,2.7l-9-8.4l-4.7-2.7L323.2,201.8z"/>
			<path id="Path_1521_1_" class="st24" d="M323.2,201.8l4.7,2.7l-9-8.4l-4.7-2.7L323.2,201.8z"/>
			<path id="Path_1522_1_" class="st5" d="M337.8,215.6l0.9-1l9,8.4l-4.7-2.7L337.8,215.6z"/>
			<path id="Path_1523_1_" class="st24" d="M337.8,215.6l0.9-1l9,8.4l-4.7-2.7L337.8,215.6z"/>
			<path id="Path_1524_1_" class="st5" d="M90,395l4.7,2.7l10.8,10.1l-4.7-2.7L90,395z"/>
			<path id="Path_1525_1_" class="st24" d="M90,395l4.7,2.7l10.8,10.1l-4.7-2.7L90,395z"/>
			<path id="Path_1526_1_" class="st31" d="M124.2,366.1l60.1-62.2l27.8,24.2l-27.8-26.2L124.2,366.1z"/>
			<path id="Path_1527_1_" class="st31" d="M265.2,271.5l64.1-67l-8.6-8l38.9-15l-40.6,14.6l9,8.4L265.2,271.5z"/>
		</g>
	</g>
	<g id="freepik--bar-chart--inject-84_1_" transform="translate(-9616.629 -12797.746)">
		<g id="freepik--bar-graph--inject-84_1_">
			<g id="Group_3620_1_" transform="translate(174.563 172.274)" class="st11">
				<path id="Path_1528_1_" class="st5" d="M137.3,240.7c-0.1,0-0.3,0-0.4-0.1l-46.6-26.9c-0.3-0.2-0.5-0.6-0.3-1
					c0.1-0.1,0.2-0.2,0.3-0.3l58.2-33.6c0.2-0.1,0.5-0.1,0.7,0l46.6,26.9c0.2,0.1,0.3,0.4,0.3,0.6c0,0.3-0.1,0.5-0.3,0.6l-58.2,33.6
					C137.5,240.7,137.4,240.7,137.3,240.7z M92.1,213.1l45.1,26l56.8-32.8l-45.1-26L92.1,213.1z"/>
			</g>
			<path id="Path_1529_1_" class="st5" d="M311.8,405.6l0-179.8l-34.9-20.2v179.8L311.8,405.6z"/>
			<path id="Path_1530_1_" class="st24" d="M311.8,405.6l0-179.8l-34.9-20.2v179.8L311.8,405.6z"/>
			<path id="Path_1531_1_" class="st5" d="M311.8,405.6l46.5-26.9l0-179.8l-46.6,26.9L311.8,405.6z"/>
			<path id="Path_1532_1_" class="st5" d="M358.4,198.9l-34.9-20.2l-46.6,26.9l34.9,20.2L358.4,198.9z"/>
			<path id="Path_1533_1_" class="st30" d="M358.4,198.9l-34.9-20.2l-46.6,26.9l34.9,20.2L358.4,198.9z"/>
			<path id="Path_1534_1_" class="st26" d="M358.4,198.9l-47,25.9l-15.3-8.5l-19.2-10.7l18.8,11.3l15.4,9.2
				c-0.4,5.2-0.5,95.5-0.4,100.7s0.3,73.4,1,78.7c0.7-5.4,0.9-73.4,1-78.7c0.1-5.1,0-95.1-0.4-100.2L358.4,198.9z"/>
			<g id="Group_3621_1_" transform="translate(87.288 222.709)" class="st11">
				<path id="Path_1535_1_" class="st5" d="M137.2,240.7c-0.1,0-0.2,0-0.3-0.1l-46.6-26.9c-0.2-0.1-0.3-0.4-0.4-0.6
					c0-0.3,0.1-0.5,0.4-0.6l58.2-33.6c0.2-0.1,0.5-0.1,0.7,0l46.5,26.9c0.2,0.1,0.4,0.4,0.4,0.6c0,0.3-0.1,0.5-0.4,0.6l-58.2,33.6
					C137.5,240.7,137.4,240.7,137.2,240.7z M92.1,213.1l45.1,26l56.8-32.8l-45-26L92.1,213.1z"/>
			</g>
			<path id="Path_1536_1_" class="st5" d="M224.5,456V311.6l-34.9-20.2v144.4L224.5,456z"/>
			<path id="Path_1537_1_" class="st32" d="M224.5,456V311.6l-34.9-20.2v144.4L224.5,456z"/>
			<path id="Path_1538_1_" class="st5" d="M224.5,456l46.6-26.9V284.7l-46.6,26.9V456z"/>
			<path id="Path_1539_1_" class="st26" d="M224.5,456l46.6-26.9V284.7l-46.6,26.9V456z"/>
			<path id="Path_1540_1_" class="st5" d="M271.1,284.7l-34.9-20.1l-46.6,26.9l34.9,20.2L271.1,284.7z"/>
			<path id="Path_1541_1_" class="st33" d="M271.1,284.7l-34.9-20.1l-46.6,26.9l34.9,20.2L271.1,284.7z"/>
			<path id="Path_1542_1_" class="st26" d="M225.2,311.9l45.9-27.3l-46.6,26.2c-5.1-2.9-10.6-6-15.7-8.8l-19.2-10.7l18.8,11.3
				c5.2,3.1,10.3,6.2,15.5,9.2c-0.2,5.5,0.3,138.5,0.6,144C224.9,450.4,225.3,317.2,225.2,311.9z"/>
			<g id="Group_3622_1_" transform="translate(0 273.106)" class="st11">
				<path id="Path_1543_1_" class="st5" d="M137.3,240.7c-0.1,0-0.3,0-0.4-0.1l-46.6-26.9c-0.3-0.2-0.5-0.6-0.3-1
					c0.1-0.1,0.2-0.2,0.3-0.3l58.1-33.6c0.2-0.1,0.5-0.1,0.7,0l46.6,26.9c0.2,0.1,0.4,0.4,0.4,0.6c0,0.3-0.1,0.5-0.4,0.6l-58.1,33.6
					C137.5,240.6,137.4,240.7,137.3,240.7z M92.2,213.1l45.1,26.1l56.7-32.8l-45.1-26.1L92.2,213.1z"/>
			</g>
			<path id="Path_1544_1_" class="st5" d="M137.3,506.4l0-97.2L102.3,389l0,97.2L137.3,506.4z"/>
			<path id="Path_1545_1_" class="st27" d="M137.3,506.4l0-97.2L102.3,389l0,97.2L137.3,506.4z"/>
			<path id="Path_1546_1_" class="st5" d="M137.3,506.4l46.5-26.9l0-97.2l-46.6,26.9L137.3,506.4z"/>
			<path id="Path_1547_1_" class="st28" d="M137.3,506.4l46.5-26.9l0-97.2l-46.6,26.9L137.3,506.4z"/>
			<path id="Path_1548_1_" class="st5" d="M183.8,382.3l-34.9-20.2L102.3,389l34.9,20.2L183.8,382.3z"/>
			<path id="Path_1549_1_" class="st34" d="M183.8,382.3l-34.9-20.2L102.3,389l34.9,20.2L183.8,382.3z"/>
			<path id="Path_1550_1_" class="st26" d="M183.8,382.3l-46.5,26.2l-15.7-8.8L102.4,389l18.8,11.3l15.4,9.7c0,0,0,93.1,0.6,96.4
				c0.7-3.3,0.7-96.4,0.7-96.4L183.8,382.3z"/>
		</g>
	</g>
	<g id="freepik--pie-charts--inject-84_1_" transform="translate(-9515.581 -12576.724)">
		<g id="freepik--pie-chart--inject-84_1_" transform="translate(0 88.833)">
			<path id="Path_1551_1_" class="st5" d="M136.4,236.6c-11.8,0-23.7-2.6-32.7-7.9S90,216.7,90,209.5s4.9-14.1,13.7-19.3
				c18-10.4,47.4-10.4,65.4,0l0,0c8.9,5.1,13.7,12,13.7,19.3s-4.9,14.1-13.7,19.2S148.3,236.6,136.4,236.6z M136.4,183.6
				c-11.6,0-23.3,2.5-32.2,7.6c-8.5,4.9-13.1,11.4-13.1,18.2s4.7,13.3,13.1,18.2c17.7,10.2,46.6,10.2,64.4,0
				c8.5-4.9,13.1-11.4,13.1-18.2s-4.7-13.3-13.2-18.2l0,0C159.8,186.2,148.1,183.6,136.4,183.6L136.4,183.6z"/>
			<g id="freepik--pie-chart--inject-84-2_1_" transform="translate(7.13)">
				<path id="Path_1552_1_" class="st4" d="M130.5,199.8v7.7l-7.6-20.7v-7.7l0,0L130.5,199.8z"/>
				<path id="Path_1553_1_" class="st19" d="M130.5,199.8v7.7l31.4-10.9v-7.7L130.5,199.8z"/>
				<path id="Path_1554_1_" class="st7" d="M122.9,179.1l7.6,20.7l31.4-10.9C153.4,181.4,138.3,177.7,122.9,179.1z"/>
				<path id="Path_1556_1_" class="st5" d="M127.4,209.5l-4.7,22C103.6,229.7,89.9,220,90,209v-7.5c0,10.9,13.7,20.4,32.7,22.3
					l3.2-15.1L127.4,209.5z"/>
				<path id="Path_1557_1_" class="st25" d="M127.4,209.5l-4.7,22C103.6,229.7,89.9,220,90,209v-7.5c0,10.9,13.7,20.4,32.7,22.3
					l3.2-15.1L127.4,209.5z"/>
				<path id="Path_1558_1_" class="st5" d="M126.3,224.1v7.7c7.9,0.5,15.8-0.6,23.2-3.1c9-3.1,15.3-8.1,17.9-13.9
					c0.7-1.7,1.1-3.5,1.2-5.4v-8c-1.9-0.4-3.5-1.4-4.7-2.9l-5.9,2l-27,9.3L126.3,224.1z"/>
				<path id="Path_1559_1_" class="st35" d="M126.3,224.1v7.7c7.9,0.5,15.8-0.6,23.2-3.1c9-3.1,15.3-8.1,17.9-13.9
					c0.7-1.7,1.1-3.5,1.2-5.4v-8c-1.9-0.4-3.5-1.4-4.7-2.9l-5.9,2l-27,9.3L126.3,224.1z"/>
				<path id="Path_1560_1_" class="st5" d="M102.8,192.4l23.4,13.5v-7.7l-23.4-13.5V192.4z"/>
				<path id="Path_1561_1_" class="st17" d="M102.8,192.4l23.4,13.5v-7.7l-23.4-13.5V192.4z"/>
				<path id="Path_1562_1_" class="st5" d="M90.4,198.7c-2.6,12.1,11.8,23.1,32.4,25.1l4.7-22l-27.1-15.7
					C94.7,189.7,91.4,193.9,90.4,198.7z"/>
				<path id="Path_1563_1_" class="st28" d="M90.4,198.7c-2.6,12.1,11.8,23.1,32.4,25.1l4.7-22l-27.1-15.7
					C94.7,189.7,91.4,193.9,90.4,198.7z"/>
				<path id="Path_1564_1_" class="st5" d="M126.5,223.4l-0.1,0.6c7.9,0.5,15.7-0.6,23.2-3.1c9-3.1,15.3-8.1,17.9-13.9
					c2.4-5.5,1.1-11.3-3.6-16.2l-6,2l-27,9.3L126.5,223.4z"/>
				<path id="Path_1565_1_" class="st36" d="M126.5,223.4l-0.1,0.6c7.9,0.5,15.7-0.6,23.2-3.1c9-3.1,15.3-8.1,17.9-13.9
					c2.4-5.5,1.1-11.3-3.6-16.2l-6,2l-27,9.3L126.5,223.4z"/>
				<path id="Path_1566_1_" class="st5" d="M102.8,184.7l23.5,13.5l-6.9-18.7C113.6,180.2,108,182,102.8,184.7L102.8,184.7z"/>
				<path id="Path_1567_1_" class="st5" d="M127.4,209.5v-7.7l-4.7,22v7.7L127.4,209.5z"/>
				<path id="Path_1568_1_" class="st37" d="M127.4,209.5v-7.7l-4.7,22v7.7L127.4,209.5z"/>
			</g>
		</g>
		<g id="freepik--pie-chart--inject-84-3_1_" transform="translate(76.947 44.482)">
			<path id="Path_1569_1_" class="st5" d="M136.4,236.5c-11.9,0-23.7-2.6-32.7-7.9S90,216.6,90,209.4s4.9-14.1,13.7-19.3
				c18-10.4,47.4-10.4,65.5,0l0,0c8.8,5.1,13.7,12,13.7,19.3s-4.9,14.1-13.7,19.3S148.3,236.5,136.4,236.5z M136.4,183.5
				c-11.6,0-23.3,2.6-32.1,7.6c-8.5,4.9-13.1,11.4-13.1,18.2s4.7,13.3,13.1,18.2c17.7,10.2,46.6,10.2,64.3,0
				c8.5-4.9,13.1-11.4,13.1-18.2s-4.7-13.3-13.1-18.2l0,0C159.7,186.1,148.1,183.5,136.4,183.5L136.4,183.5z"/>
			<g id="freepik--pie-chart--inject-84-4_1_" transform="translate(7.187)">
				<path id="Path_1570_1_" class="st5" d="M167,202.9v-7.6c-14.8-8.6-48.8-11-64.1-2.9l27,15.5l28.8-3.8L167,202.9z"/>
				<path id="Path_1571_1_" class="st17" d="M167,202.9v-7.6c-14.8-8.6-48.8-11-64.1-2.9l27,15.5l28.8-3.8L167,202.9z"/>
				<path id="Path_1572_1_" class="st5" d="M167,195.3c-1.8-3.9-5-7-10-9.9c-14.9-8.6-38.8-8.8-54.1-0.7l27,15.6l28.8-3.8L167,195.3
					z"/>
				<path id="Path_1573_1_" class="st5" d="M129.9,207.9v-7.7l-27-15.6v7.7L129.9,207.9z"/>
				<path id="Path_1574_1_" class="st24" d="M129.9,207.9v-7.7l-27-15.6v7.7L129.9,207.9z"/>
				<path id="Path_1575_1_" class="st19" d="M138.1,231.1c10.2-1.4,18.8-4.9,24.4-10.1c3.9-3.6,6-7.7,6-11.9v-7.9l-24.3,6.8
					l-13.1,1.7l1.3,21.7C134.3,231.4,136.2,231.3,138.1,231.1z"/>
				<path id="Path_1576_1_" class="st7" d="M138.1,223.4c10.2-1.4,18.8-4.9,24.4-10.1c5.2-4.8,7.1-10.5,5.3-16.1l-23.6,3.1
					l-13.1,1.7l1.3,21.7C134.3,223.8,136.2,223.6,138.1,223.4z"/>
				<path id="Path_1577_1_" class="st5" d="M94.8,219.8l31.6-11l-26.1-15c-4.8,3-10.4,7.3-10.4,7.3v7.9
					C90.1,213,91.9,216.9,94.8,219.8L94.8,219.8z"/>
				<path id="Path_1578_1_" class="st25" d="M94.8,219.8l31.6-11l-26.1-15c-4.8,3-10.4,7.3-10.4,7.3v7.9
					C90.1,213,91.9,216.9,94.8,219.8L94.8,219.8z"/>
				<path id="Path_1579_1_" class="st5" d="M94.8,212.1l31.6-11l-26.1-15C88.9,193.3,86.7,203.5,94.8,212.1z"/>
				<path id="Path_1580_1_" class="st28" d="M94.8,212.1l31.6-11l-26.1-15C88.9,193.3,86.7,203.5,94.8,212.1z"/>
				<path id="Path_1581_1_" class="st5" d="M94.8,219.8v-7.7l31.6-10.9v7.7L94.8,219.8z"/>
				<path id="Path_1582_1_" class="st37" d="M94.8,219.8v-7.7l31.6-10.9v7.7L94.8,219.8z"/>
				<path id="Path_1583_1_" class="st5" d="M128.9,231.7V224l-1.3-13.1l-31,3v7.7C104,228,115.6,231.6,128.9,231.7z"/>
				<path id="Path_1584_1_" class="st35" d="M128.9,231.7V224l-1.3-13.1l-31,3v7.7C104,228,115.6,231.6,128.9,231.7z"/>
				<path id="Path_1585_1_" class="st5" d="M128.9,223.9l-1.3-20.8l-23.4,8.1l-7.6,2.5C104,220.3,115.6,223.9,128.9,223.9z"/>
				<path id="Path_1586_1_" class="st36" d="M128.9,223.9l-1.3-20.8l-23.4,8.1l-7.6,2.5C104,220.3,115.6,223.9,128.9,223.9z"/>
				<path id="Path_1587_1_" class="st4" d="M131.2,202.1v7.7l1.3,21.7v-7.7L131.2,202.1z"/>
			</g>
		</g>
		<g id="freepik--pie-chart--inject-84-5_1_" transform="translate(153.862 0)">
			<path id="Path_1588_1_" class="st5" d="M136.4,236.6c-11.8,0-23.7-2.6-32.7-7.9S90,216.8,90,209.5s4.9-14.1,13.7-19.2
				c18-10.4,47.4-10.4,65.4,0l0,0c8.9,5.1,13.7,12,13.7,19.2s-4.9,14.1-13.7,19.3S148.3,236.6,136.4,236.6z M136.4,183.7
				c-11.6,0-23.3,2.6-32.1,7.6c-8.5,4.9-13.1,11.4-13.1,18.2s4.7,13.3,13.1,18.2c17.7,10.2,46.6,10.2,64.4,0
				c8.5-4.9,13.1-11.4,13.1-18.2s-4.7-13.3-13.1-18.2l0,0C159.7,186.2,148.1,183.6,136.4,183.7L136.4,183.7z"/>
			<g id="freepik--pie-chart--inject-84-6_1_" transform="translate(7.194)">
				<path id="Path_1589_1_" class="st5" d="M103,184.7l24.5,14.1l-1.2-20C118.1,179,110.1,181,103,184.7z"/>
				<path id="Path_1590_1_" class="st5" d="M127.3,198.8v7.7l-24.5-14.1v-7.7L127.3,198.8z"/>
				<path id="Path_1591_1_" class="st24" d="M127.3,198.8v7.7l-24.5-14.1v-7.7L127.3,198.8z"/>
				<path id="Path_1592_1_" class="st19" d="M159,186.7L131,199.3v7.7l28.1-12.7V186.7z"/>
				<path id="Path_1593_1_" class="st7" d="M159,186.7c-7.6-5.1-17.6-7.9-29.3-7.9l0.8,12.5l0.5,8.1L159,186.7z"/>
				<path id="Path_1594_1_" class="st4" d="M129.7,178.8v7.7L131,207v-7.7L129.7,178.8z"/>
				<path id="Path_1595_1_" class="st5" d="M136.7,214.2l14.3,13.8c0.8-0.3,1.6-0.6,2.4-1c9.9-4.4,15.1-11.1,15-17.8v-7.6
					c-1.1-2.9-4.1-2.9-7.2-5.5l-29.3,13.2l-0.3,0.1L136.7,214.2z"/>
				<path id="Path_1596_1_" class="st35" d="M136.7,214.2l14.3,13.8c0.8-0.3,1.6-0.6,2.4-1c9.9-4.4,15.1-11.1,15-17.8v-7.6
					c-1.1-2.9-4.1-2.9-7.2-5.5l-29.3,13.2l-0.3,0.1L136.7,214.2z"/>
				<path id="Path_1597_1_" class="st5" d="M136.7,206.5l14.3,13.8c0.8-0.3,1.6-0.6,2.4-1c16.6-7.5,19.9-21.1,7.9-30.9L132,201.5
					l-0.3,0.1L136.7,206.5z"/>
				<path id="Path_1598_1_" class="st36" d="M136.7,206.5l14.3,13.8c0.8-0.3,1.6-0.6,2.4-1c16.6-7.5,19.9-21.1,7.9-30.9L132,201.5
					l-0.3,0.1L136.7,206.5z"/>
				<path id="Path_1599_1_" class="st5" d="M151,227.9v-7.7l-19.4-18.6v7.7L151,227.9z"/>
				<path id="Path_1600_1_" class="st38" d="M151,227.9v-7.7l-19.4-18.6v7.7L151,227.9z"/>
				<path id="Path_1601_1_" class="st5" d="M100.3,193.9c-4.1,2.6-8.7,4.2-10.4,7.4v7.7c0.2,4.6,2.3,8.8,5.7,11.8
					c5.4,5.2,13.9,8.8,24.1,10.3c9.4,1.4,19,0.7,28.1-2v-7.7l-12.6-4.4l-7.4-7.1L100.3,193.9z"/>
				<path id="Path_1602_1_" class="st25" d="M100.3,193.9c-4.1,2.6-8.7,4.2-10.4,7.4v7.7c0.2,4.6,2.3,8.8,5.7,11.8
					c5.4,5.2,13.9,8.8,24.1,10.3c9.4,1.4,19,0.7,28.1-2v-7.7l-12.6-4.4l-7.4-7.1L100.3,193.9z"/>
				<path id="Path_1603_1_" class="st5" d="M100.3,186.2c-11.8,7.5-13.7,18.1-4.6,26.9c5.4,5.2,13.9,8.8,24.1,10.3
					c9.4,1.4,19,0.7,28.1-2l-12.6-12.1l-7.5-7.1L100.3,186.2z"/>
				<path id="Path_1604_1_" class="st28" d="M100.3,186.2c-11.8,7.5-13.7,18.1-4.6,26.9c5.4,5.2,13.9,8.8,24.1,10.3
					c9.4,1.4,19,0.7,28.1-2l-12.6-12.1l-7.5-7.1L100.3,186.2z"/>
			</g>
		</g>
	</g>
	<path id="Path_1605_1_" class="st5" d="M-9553.2-12336.9c-2.7-4.3-6.5-7.8-11-10.2c-18.1-10.4-47.4-10.4-65.4,0
		c-4.5,2.4-8.3,5.9-11,10.2h-2.6v9.4l0,0c0.3,6.5,4.8,13.1,13.5,18.1c18.1,10.4,47.4,10.4,65.4,0c8.7-5,13.2-11.5,13.6-18.1l0,0
		v-9.4H-9553.2z"/>
	<g id="Group_3623_1_" transform="translate(-9733.197 -12533.766)" class="st22">
		<path id="Path_1606_1_" d="M180,196.8c-2.7-4.3-6.5-7.8-11-10.2c-18.1-10.4-47.4-10.4-65.4,0c-4.5,2.4-8.3,5.9-11,10.2H90v9.4l0,0
			c0.3,6.5,4.8,13.1,13.5,18.1c18.1,10.4,47.4,10.4,65.4,0c8.7-5,13.2-11.5,13.6-18.1l0,0v-9.4H180z"/>
	</g>
	<path id="Path_1607_1_" class="st17" d="M-9597-12355c-11.8,0-23.7,2.6-32.7,7.9c-4.5,2.4-8.3,5.9-11,10.2h-2.5v9.4l0,0
		c0.3,6.6,4.8,13.1,13.5,18.1c9,5.2,20.9,7.9,32.7,7.9L-9597-12355z"/>
	<path id="Path_1608_1_" class="st17" d="M-9622.2-12350.6c-2.6,1-5.1,2.1-7.5,3.5c-4.5,2.4-8.3,5.9-11,10.2h-2.5v9.4l0,0
		c0.3,6.5,4.8,13.1,13.5,18.1c2.4,1.4,4.9,2.5,7.5,3.5L-9622.2-12350.6z"/>
	<path id="Path_1609_1_" class="st23" d="M-9571.7-12350.6c2.6,1,5.1,2.1,7.5,3.5c4.5,2.4,8.3,5.9,11,10.2h2.5v9.4l0,0
		c-0.3,6.5-4.9,13.1-13.6,18.1c-2.4,1.4-4.9,2.5-7.5,3.5L-9571.7-12350.6z"/>
	<path id="Path_1610_1_" class="st5" d="M-9564.2-12355.8c-18.1-10.4-47.4-10.4-65.4,0c-18,10.4-18.1,27.4,0,37.8
		c18.1,10.4,47.4,10.4,65.4,0C-9546.2-12328.4-9546.2-12345.4-9564.2-12355.8z"/>
	<path id="Path_1611_1_" class="st24" d="M-9564.2-12355.8c-18.1-10.4-47.4-10.4-65.4,0c-18,10.4-18.1,27.4,0,37.8
		c18.1,10.4,47.4,10.4,65.4,0C-9546.2-12328.4-9546.2-12345.4-9564.2-12355.8z"/>
	<path id="Path_1612_1_" class="st5" d="M-9575.7-12348.9c-13.6-6.1-29.1-6.1-42.6,0c-6.1,3.1-9.4,7.4-9.4,12c0,4.6,3.3,8.9,9.4,12
		c13.6,6.1,29.1,6.1,42.6,0c6-3.1,9.4-7.4,9.4-12C-9566.3-12341.6-9569.7-12345.8-9575.7-12348.9z"/>
	<path id="Path_1613_1_" class="st25" d="M-9575.7-12348.9c-13.6-6.1-29.1-6.1-42.6,0c-6.1,3.1-9.4,7.4-9.4,12c0,4.6,3.3,8.9,9.4,12
		c13.6,6.1,29.1,6.1,42.6,0c6-3.1,9.4-7.4,9.4-12C-9566.3-12341.6-9569.7-12345.8-9575.7-12348.9z"/>
	<path id="Path_1614_1_" class="st5" d="M-9565.3-12354.1c-8.4-4.9-19.6-7.5-31.7-7.5c-12.1,0-23.3,2.7-31.7,7.6
		c-8.1,4.7-12.6,10.8-12.6,17.1s4.4,12.6,12.6,17.2c8.4,4.9,19.7,7.6,31.7,7.6s23.3-2.7,31.7-7.6c8.1-4.7,12.6-10.8,12.6-17.2
		C-9552.7-12343.3-9557.2-12349.4-9565.3-12354.1z M-9575.7-12324.9c-13.6,6.1-29.1,6.1-42.6,0c-6.1-3.1-9.4-7.4-9.4-12
		s3.3-8.9,9.4-12c13.6-6.1,29.1-6.1,42.6,0c6,3.1,9.4,7.4,9.4,12C-9566.3-12332.3-9569.6-12328.1-9575.7-12324.9L-9575.7-12324.9z"
		/>
	<path id="Path_1615_1_" class="st26" d="M-9565.3-12354.1c-8.4-4.9-19.6-7.5-31.7-7.5c-12.1,0-23.3,2.7-31.7,7.6
		c-8.1,4.7-12.6,10.8-12.6,17.1s4.4,12.6,12.6,17.2c8.4,4.9,19.7,7.6,31.7,7.6s23.3-2.7,31.7-7.6c8.1-4.7,12.6-10.8,12.6-17.2
		C-9552.7-12343.3-9557.2-12349.4-9565.3-12354.1z M-9575.7-12324.9c-13.6,6.1-29.1,6.1-42.6,0c-6.1-3.1-9.4-7.4-9.4-12
		s3.3-8.9,9.4-12c13.6-6.1,29.1-6.1,42.6,0c6,3.1,9.4,7.4,9.4,12C-9566.3-12332.3-9569.6-12328.1-9575.7-12324.9L-9575.7-12324.9z"
		/>
	<path id="Path_1616_1_" class="st24" d="M-9576.4-12326.4c11.4-5.8,11.4-15.3,0-21.1c-11.4-5.9-29.8-5.8-41.2,0s-11.4,15.3,0,21.1
		C-9606.2-12320.5-9587.8-12320.5-9576.4-12326.4z"/>
	<path id="Path_1617_1_" class="st5" d="M-9576.4-12326.4c11.4-5.8,11.4-15.3,0-21.1c-11.4-5.9-29.8-5.8-41.2,0s-11.4,15.3,0,21.1
		C-9606.2-12320.5-9587.8-12320.5-9576.4-12326.4z"/>
	<path id="Path_1618_1_" class="st27" d="M-9576.4-12326.4c11.4-5.8,11.4-15.3,0-21.1c-11.4-5.9-29.8-5.8-41.2,0s-11.4,15.3,0,21.1
		C-9606.2-12320.5-9587.8-12320.5-9576.4-12326.4z"/>
	<path id="Path_1619_1_" class="st5" d="M-9576.4-12343.5c-11.4-5.8-29.8-5.8-41.2,0c-4.7,2.4-7.5,5.4-8.3,8.6
		c0.8,3.1,3.6,6.2,8.3,8.6c11.4,5.8,29.8,5.8,41.2,0c4.7-2.4,7.5-5.5,8.3-8.6C-9569-12338.1-9571.7-12341.1-9576.4-12343.5z"/>
	<path id="Path_1620_1_" class="st28" d="M-9576.4-12343.5c-11.4-5.8-29.8-5.8-41.2,0c-4.7,2.4-7.5,5.4-8.3,8.6
		c0.8,3.1,3.6,6.2,8.3,8.6c11.4,5.8,29.8,5.8,41.2,0c4.7-2.4,7.5-5.5,8.3-8.6C-9569-12338.1-9571.7-12341.1-9576.4-12343.5z"/>
	<path id="Path_1621_1_" class="st5" d="M-9594.2-12347.3v4.3l-1.5,1.5l-2.7,2.8v-4.4L-9594.2-12347.3z"/>
	<path id="Path_1622_1_" class="st28" d="M-9594.2-12347.3v4.3l-1.5,1.5l-2.7,2.8v-4.4L-9594.2-12347.3z"/>
	<path id="Path_1623_1_" class="st5" d="M-9598.4-12343.1v2.5c-1.3,0.5-2.7,0.9-4.1,1.2c-0.6,0.1-1.2,0.1-1.8-0.1
		c-0.3-0.1-0.6-0.2-0.9-0.3c-1-0.6-1.2-1.6,0.8-2.7C-9602.6-12343.6-9600.4-12343.8-9598.4-12343.1z"/>
	<path id="Path_1624_1_" class="st27" d="M-9598.4-12343.1v2.5c-1.3,0.5-2.7,0.9-4.1,1.2c-0.6,0.1-1.2,0.1-1.8-0.1
		c-0.3-0.1-0.6-0.2-0.9-0.3c-1-0.6-1.2-1.6,0.8-2.7C-9602.6-12343.6-9600.4-12343.8-9598.4-12343.1z"/>
	<path id="Path_1625_1_" class="st5" d="M-9579.1-12331v3.7l-4.7,2.7l-3.5-2c-4.2,2-9,2.2-13.4,0.6v-3.7l2.1-2.1l-2.1,0.6
		c-3.5,1-7.2,0.6-10.4-1.2c-2.1-1.2-3.1-2.5-3.1-3.9v-3.6l0.4-1.6l-1.3-0.7v-3.7l3.5,2c-1.4,0.9-2.4,2.3-2.6,4l0,0
		c0,1.3,1,2.6,3.1,3.8c4.5,2.6,9,1.7,13.2,0.4c3.8-1.2,6.6-2.7,8.8-1.4c1.4,0.8,0.9,1.8-0.6,2.7c-2,1.1-4.4,1.2-6.5,0.4l-4.4,4.4
		c4.3,1.7,9.2,1.4,13.3-0.6l3.5,2L-9579.1-12331z"/>
	<path id="Path_1626_1_" class="st24" d="M-9614-12339.9L-9614-12339.9c0,1.3,1,2.6,3.1,3.8c4.5,2.6,9,1.8,13.2,0.4
		c3.8-1.3,6.6-2.7,8.8-1.4c1.4,0.8,0.9,1.7-0.6,2.6c-2,1.1-4.4,1.3-6.5,0.4l-4.4,4.4c0.8,0.3,1.6,0.6,2.4,0.7
		c3.7,0.7,7.5,0.2,10.9-1.3l3.5,2l4.7-2.7v3.7l-4.7,2.8l-3.5-2c-4.2,2-9,2.2-13.4,0.6v-3.7l2.1-2.1l-2.1,0.6
		c-3.5,1-7.2,0.6-10.4-1.2c-2.1-1.2-3.1-2.5-3.1-3.9v-3.6l0.4-1.6"/>
	<path id="Path_1627_1_" class="st27" d="M-9614.9-12345.8v3.7l1.3,0.7l0,0c0.5-1,1.3-1.8,2.2-2.4L-9614.9-12345.8z"/>
	<path id="Path_1628_1_" class="st5" d="M-9579.8-12333.4c0,0.6-0.1,1.2-0.3,1.8l-2.3-1.4c1.4-0.6,2.4-2,2.7-3.6
		C-9579.8-12335.4-9579.8-12333.5-9579.8-12333.4z"/>
	<g id="Group_3624_1_" transform="translate(-9672.507 -12515.309)" class="st11">
		<path id="Path_1629_1_" d="M92.7,181.9c0,0.6-0.1,1.2-0.3,1.8l-2.3-1.4c1.4-0.6,2.4-2,2.7-3.6C92.7,179.9,92.7,181.8,92.7,181.9z"
			/>
	</g>
	<path id="Path_1630_1_" class="st5" d="M-9579.8-12331.4l-2.7-1.6c1.6-0.7,2.6-2.3,2.7-4.1v-0.4c-0.4-1.6-1.5-3-3-3.6l0,0
		c-1.9-1.1-4.1-1.6-6.3-1.6h-2.2c-1,0.1-2,0.4-3,0.6l-1.4,0.4l-2,0.6l-0.7,0.3c-1.3,0.5-2.7,0.9-4.1,1.2c-0.6,0.1-1.2,0.1-1.8,0
		c-0.3-0.1-0.6-0.2-0.8-0.4c-1-0.6-1.2-1.6,0.7-2.6c1.8-1.1,4-1.4,6-0.6l4.1-4.2c-4.1-1.3-8.6-1.1-12.6,0.7l-3.5-1.8l-4.7,2.7l3.5,2
		c-1.4,0.9-2.4,2.3-2.6,4l0,0c0,1.3,1,2.6,3.1,3.8c4.5,2.6,9,1.7,13.2,0.4c3.8-1.2,6.6-2.7,8.8-1.4c1.4,0.8,1,1.8-0.6,2.6
		c-2,1.1-4.4,1.3-6.5,0.4l-4.4,4.4c0.8,0.3,1.6,0.5,2.4,0.7c1.4,0.3,2.8,0.4,4.3,0.3c2.3-0.1,4.5-0.7,6.7-1.6l3.5,2l4.7-2.7
		L-9579.8-12331.4z"/>
	<g id="Group_3625_1_" transform="translate(-9705.034 -12527.216)" class="st11">
		<path id="Path_1631_1_" class="st6" d="M125.2,195.8l-2.7-1.6c1.6-0.7,2.6-2.3,2.7-4.1v-0.4c-0.4-1.6-1.5-3-3-3.6l0,0
			c-1.9-1.1-4.1-1.6-6.3-1.6h-2.2c-1,0.1-2,0.4-3,0.6l-1.4,0.4l-2,0.6l-0.7,0.3c-1.3,0.5-2.7,0.9-4.1,1.2c-0.6,0.1-1.2,0.1-1.8,0
			c-0.3-0.1-0.6-0.2-0.8-0.4c-1-0.6-1.2-1.6,0.7-2.6c1.8-1.1,4-1.4,6-0.6l4.1-4.2c-4.1-1.3-8.6-1.1-12.6,0.7l-3.5-1.8l-4.7,2.7
			l3.5,2c-1.4,0.9-2.4,2.3-2.6,4l0,0c0,1.3,1,2.6,3.1,3.8c4.5,2.6,9,1.7,13.2,0.4c3.8-1.2,6.6-2.7,8.8-1.4c1.4,0.8,1,1.8-0.6,2.6
			c-2,1.1-4.4,1.3-6.5,0.4l-4.4,4.4c0.8,0.3,1.6,0.5,2.4,0.7c1.4,0.3,2.8,0.4,4.3,0.3c2.3-0.1,4.5-0.7,6.7-1.6l3.5,2l4.7-2.7
			L125.2,195.8z"/>
	</g>
	<path id="Path_1632_1_" class="st5" d="M-9587.2-12330.3v3.7l3.5,2v-3.7L-9587.2-12330.3z"/>
	<path id="Path_1633_1_" class="st27" d="M-9587.2-12330.3v3.7l3.5,2v-3.7L-9587.2-12330.3z"/>
	<path id="Path_1634_1_" class="st29" d="M-9614.9-12345.8l4.7-2.7l3.5,2l-3.4-1.4L-9614.9-12345.8z"/>
	<path id="Path_1635_1_" class="st29" d="M-9604.4-12342.5c1.8-1.1,4-1.3,6-0.6l4.1-4.2l-4.1,3.8
		C-9600.5-12344.2-9602.7-12343.8-9604.4-12342.5L-9604.4-12342.5z"/>
	<path id="Path_1636_1_" class="st29" d="M-9600.6-12329.7c0.8,0.3,1.6,0.5,2.4,0.7c1.4,0.3,2.8,0.4,4.3,0.3c-2.1,0-4.1-0.4-6-1.2
		l3.7-4.2L-9600.6-12329.7z"/>
	<path id="Path_1637_1_" class="st29" d="M-9587.2-12330.3l3.5,1.6l4.7-2.2l-4.7,2.7L-9587.2-12330.3z"/>
	<path id="Path_1638_1_" class="st29" d="M-9628.4-12353.5c12.3-7.4,31.4-8.2,31.4-8.2c-12,0-23.3,2.7-31.7,7.6
		c-8.1,4.7-12.6,10.8-12.6,17.2C-9641.3-12336.9-9640.8-12345.9-9628.4-12353.5z"/>
	<path id="Path_1639_1_" class="st29" d="M-9600.6-12310.2c13,0.6,26.3-2,36.3-7.8c10.3-6,14.8-14.1,13.3-21.8
		c0,0,1.9,12.7-14.1,21.4C-9581.2-12309.7-9600.6-12310.2-9600.6-12310.2z"/>
	<path id="Path_1640_1_" class="st5" d="M-9556.3-12350c-2.7-4.3-6.5-7.8-11-10.2c-18.1-10.4-47.4-10.4-65.4,0
		c-4.5,2.4-8.3,5.9-11,10.2h-2.5v9.4l0,0c0.3,6.5,4.8,13.1,13.5,18.1c18.1,10.4,47.4,10.4,65.4,0c8.7-5,13.2-11.5,13.6-18.1l0,0
		v-9.4H-9556.3z"/>
	<g id="Group_3626_1_" transform="translate(-9736.181 -12546.88)" class="st22">
		<path id="Path_1641_1_" d="M179.9,196.8c-2.7-4.3-6.5-7.8-11-10.2c-18.1-10.4-47.4-10.4-65.4,0c-4.5,2.4-8.3,5.9-11,10.2H90v9.4
			l0,0c0.3,6.5,4.8,13.1,13.5,18.1c18.1,10.4,47.4,10.4,65.4,0c8.7-5,13.2-11.5,13.6-18.1l0,0v-9.4L179.9,196.8z"/>
	</g>
	<path id="Path_1642_1_" class="st17" d="M-9600-12368.1c-11.8,0-23.7,2.6-32.7,7.9c-4.5,2.4-8.3,6-11,10.3h-2.5v9.4l0,0
		c0.3,6.6,4.8,13.1,13.5,18.1c9,5.2,20.9,7.9,32.7,7.9L-9600-12368.1z"/>
	<path id="Path_1643_1_" class="st17" d="M-9625.3-12363.8c-2.6,1-5.1,2.1-7.4,3.5c-4.5,2.4-8.3,5.9-11.1,10.2h-2.5v9.4l0,0
		c0.3,6.5,4.8,13.1,13.5,18.1c2.4,1.4,4.9,2.5,7.4,3.5L-9625.3-12363.8z"/>
	<path id="Path_1644_1_" class="st23" d="M-9574.8-12363.8c2.6,1,5.1,2.1,7.4,3.5c4.5,2.4,8.3,5.9,11,10.2h2.5v9.4l0,0
		c-0.3,6.5-4.9,13.1-13.6,18.1c-2.4,1.4-4.9,2.5-7.4,3.5L-9574.8-12363.8z"/>
	<path id="Path_1645_1_" class="st5" d="M-9567.3-12368.9c-18.1-10.4-47.4-10.4-65.4,0c-18,10.4-18.1,27.4,0,37.8
		c18.1,10.4,47.4,10.4,65.4,0C-9549.2-12341.6-9549.2-12358.5-9567.3-12368.9z"/>
	<path id="Path_1646_1_" class="st24" d="M-9567.3-12368.9c-18.1-10.4-47.4-10.4-65.4,0c-18,10.4-18.1,27.4,0,37.8
		c18.1,10.4,47.4,10.4,65.4,0C-9549.2-12341.6-9549.2-12358.5-9567.3-12368.9z"/>
	<path id="Path_1647_1_" class="st5" d="M-9578.7-12362.1c-13.6-6.1-29.1-6.1-42.6,0c-6.1,3.1-9.4,7.4-9.4,12c0,4.6,3.3,8.9,9.4,12
		c13.6,6.1,29.1,6.1,42.6,0c6-3.1,9.4-7.4,9.4-12S-9572.7-12358.9-9578.7-12362.1z"/>
	<path id="Path_1648_1_" class="st25" d="M-9578.7-12362.1c-13.6-6.1-29.1-6.1-42.6,0c-6.1,3.1-9.4,7.4-9.4,12c0,4.6,3.3,8.9,9.4,12
		c13.6,6.1,29.1,6.1,42.6,0c6-3.1,9.4-7.4,9.4-12S-9572.7-12358.9-9578.7-12362.1z"/>
	<path id="Path_1649_1_" class="st5" d="M-9568.3-12367.2c-8.4-4.9-19.7-7.6-31.7-7.6s-23.3,2.7-31.7,7.6
		c-8.1,4.7-12.6,10.8-12.6,17.2c0,6.4,4.5,12.5,12.6,17.2c8.4,4.9,19.7,7.6,31.7,7.6s23.3-2.7,31.7-7.6c8.1-4.7,12.6-10.8,12.6-17.2
		S-9560.2-12362.5-9568.3-12367.2z M-9578.7-12338.1c-13.6,6.1-29.1,6.1-42.6,0c-6.1-3.1-9.4-7.4-9.4-12s3.3-8.9,9.4-12
		c13.6-6.1,29.1-6.1,42.6,0c6,3.1,9.4,7.4,9.4,12S-9572.7-12341.2-9578.7-12338.1L-9578.7-12338.1z"/>
	<path id="Path_1650_1_" class="st26" d="M-9568.3-12367.2c-8.4-4.9-19.7-7.6-31.7-7.6s-23.3,2.7-31.7,7.6
		c-8.1,4.7-12.6,10.8-12.6,17.2c0,6.4,4.5,12.5,12.6,17.2c8.4,4.9,19.7,7.6,31.7,7.6s23.3-2.7,31.7-7.6c8.1-4.7,12.6-10.8,12.6-17.2
		S-9560.2-12362.5-9568.3-12367.2z M-9578.7-12338.1c-13.6,6.1-29.1,6.1-42.6,0c-6.1-3.1-9.4-7.4-9.4-12s3.3-8.9,9.4-12
		c13.6-6.1,29.1-6.1,42.6,0c6,3.1,9.4,7.4,9.4,12S-9572.7-12341.2-9578.7-12338.1L-9578.7-12338.1z"/>
	<path id="Path_1651_1_" class="st24" d="M-9579.5-12339.5c11.4-5.8,11.4-15.3,0-21.1c-11.4-5.9-29.8-5.8-41.2,0s-11.4,15.3,0,21.1
		S-9590.8-12333.7-9579.5-12339.5z"/>
	<path id="Path_1652_1_" class="st5" d="M-9579.5-12339.5c11.4-5.8,11.4-15.3,0-21.1c-11.4-5.9-29.8-5.8-41.2,0s-11.4,15.3,0,21.1
		S-9590.8-12333.7-9579.5-12339.5z"/>
	<path id="Path_1653_1_" class="st27" d="M-9579.5-12339.5c11.4-5.8,11.4-15.3,0-21.1c-11.4-5.9-29.8-5.8-41.2,0s-11.4,15.3,0,21.1
		S-9590.8-12333.7-9579.5-12339.5z"/>
	<path id="Path_1654_1_" class="st5" d="M-9579.5-12356.6c-11.4-5.8-29.8-5.8-41.2,0c-4.7,2.4-7.5,5.5-8.3,8.6
		c0.8,3.1,3.6,6.2,8.3,8.6c11.4,5.8,29.8,5.8,41.2,0c4.7-2.4,7.4-5.5,8.3-8.6C-9572-12351.2-9574.8-12354.2-9579.5-12356.6z"/>
	<path id="Path_1655_1_" class="st28" d="M-9579.5-12356.6c-11.4-5.8-29.8-5.8-41.2,0c-4.7,2.4-7.5,5.5-8.3,8.6
		c0.8,3.1,3.6,6.2,8.3,8.6c11.4,5.8,29.8,5.8,41.2,0c4.7-2.4,7.4-5.5,8.3-8.6C-9572-12351.2-9574.8-12354.2-9579.5-12356.6z"/>
	<path id="Path_1656_1_" class="st5" d="M-9597.3-12360.4v4.3l-1.5,1.5l-2.7,2.8v-4.4L-9597.3-12360.4z"/>
	<path id="Path_1657_1_" class="st28" d="M-9597.3-12360.4v4.3l-1.5,1.5l-2.7,2.8v-4.4L-9597.3-12360.4z"/>
	<path id="Path_1658_1_" class="st5" d="M-9601.4-12356.1v2.5c-1.3,0.5-2.7,0.9-4.1,1.2c-0.6,0.1-1.2,0.1-1.8,0
		c-0.3-0.1-0.6-0.2-0.8-0.3c-1.1-0.6-1.2-1.6,0.8-2.7C-9605.7-12356.6-9603.4-12356.9-9601.4-12356.1L-9601.4-12356.1z"/>
	<path id="Path_1659_1_" class="st27" d="M-9601.4-12356.1v2.5c-1.3,0.5-2.7,0.9-4.1,1.2c-0.6,0.1-1.2,0.1-1.8,0
		c-0.3-0.1-0.6-0.2-0.8-0.3c-1.1-0.6-1.2-1.6,0.8-2.7C-9605.7-12356.6-9603.4-12356.9-9601.4-12356.1L-9601.4-12356.1z"/>
	<path id="Path_1660_1_" class="st5" d="M-9582.1-12344.1v3.7l-4.7,2.7l-3.5-2c-4.2,2-9,2.2-13.4,0.6v-3.7l2.1-2.1l-2.1,0.6
		c-3.5,1-7.2,0.6-10.4-1.2c-2.1-1.2-3.1-2.5-3.1-3.9v-3.6l0.4-1.6l-1.3-0.7v-3.7l3.5,2c-1.4,0.8-2.4,2.3-2.6,4l0,0
		c0,1.3,1,2.6,3.1,3.8c4.5,2.6,9,1.8,13.2,0.4c3.8-1.3,6.6-2.7,8.8-1.4c1.4,0.8,0.9,1.8-0.6,2.6c-2,1.1-4.4,1.2-6.5,0.4l-4.4,4.4
		c0.8,0.3,1.6,0.5,2.4,0.7c3.7,0.7,7.5,0.3,10.9-1.3l3.5,2L-9582.1-12344.1z"/>
	<path id="Path_1661_1_" class="st24" d="M-9617.1-12353L-9617.1-12353c0,1.3,1,2.6,3.1,3.8c4.5,2.6,9,1.8,13.2,0.4
		c3.8-1.3,6.6-2.7,8.8-1.4c1.4,0.8,0.9,1.8-0.6,2.6c-2,1.1-4.4,1.2-6.5,0.4l-4.4,4.4c0.8,0.3,1.6,0.5,2.4,0.7
		c3.7,0.7,7.5,0.3,10.9-1.3l3.5,2l4.7-2.7v3.7l-4.7,2.7l-3.5-2c-4.2,2-9,2.2-13.4,0.6v-3.7l2.1-2.1l-2.1,0.6
		c-3.5,1-7.2,0.6-10.4-1.2c-2.1-1.2-3.1-2.5-3.1-3.9L-9617.1-12353l0.4-1.6"/>
	<path id="Path_1662_1_" class="st27" d="M-9618-12358.9v3.7l1.3,0.7l0,0c0.5-1,1.3-1.8,2.2-2.4L-9618-12358.9z"/>
	<path id="Path_1663_1_" class="st5" d="M-9582.9-12346.5c0,0.6-0.1,1.2-0.4,1.8l-2.3-1.3c1.4-0.7,2.4-2,2.6-3.6
		C-9583-12348.6-9582.9-12346.6-9582.9-12346.5z"/>
	<g id="Group_3627_1_" transform="translate(-9675.554 -12528.394)" class="st11">
		<path id="Path_1664_1_" d="M92.7,181.9c0,0.6-0.1,1.2-0.4,1.8l-2.3-1.3c1.4-0.7,2.4-2,2.6-3.6C92.6,179.8,92.7,181.8,92.7,181.9z"
			/>
	</g>
	<path id="Path_1665_1_" class="st5" d="M-9582.9-12344.5l-2.7-1.6c1.6-0.7,2.6-2.3,2.7-4.1v-0.4c-0.4-1.6-1.5-3-3-3.6l0,0
		c-1.9-1.1-4.1-1.6-6.3-1.6h-2.2c-1,0.1-2,0.3-3,0.6c-0.5,0.1-0.9,0.2-1.4,0.4l-2,0.6l-0.7,0.3c-1.3,0.5-2.7,0.9-4.1,1.2
		c-0.6,0.1-1.2,0.1-1.8-0.1c-0.3-0.1-0.6-0.2-0.8-0.3c-1.1-0.6-1.2-1.6,0.8-2.7c1.8-1.1,4-1.4,6-0.6l4.2-4.2
		c-4.1-1.3-8.6-1-12.6,0.7l-3.5-1.9l-4.7,2.7l3.5,2c-1.4,0.8-2.4,2.3-2.6,4l0,0c0,1.3,1,2.6,3.1,3.8c4.6,2.6,9,1.8,13.2,0.4
		c3.8-1.3,6.6-2.7,8.8-1.5c1.4,0.8,1,1.8-0.6,2.7c-2,1.1-4.4,1.2-6.5,0.4l-4.4,4.4c0.8,0.3,1.6,0.5,2.4,0.7c1.4,0.3,2.8,0.4,4.3,0.3
		c2.3-0.1,4.5-0.7,6.7-1.6l3.5,2l4.7-2.7L-9582.9-12344.5z"/>
	<g id="Group_3628_1_" transform="translate(-9708.097 -12540.456)" class="st11">
		<path id="Path_1666_1_" class="st6" d="M125.2,195.9l-2.7-1.6c1.6-0.7,2.6-2.3,2.7-4.1v-0.4c-0.4-1.6-1.5-3-3-3.6l0,0
			c-1.9-1.1-4.1-1.6-6.3-1.6h-2.2c-1,0.1-2,0.3-3,0.6c-0.5,0.1-0.9,0.2-1.4,0.4l-2,0.6l-0.7,0.3c-1.3,0.5-2.7,0.9-4.1,1.2
			c-0.6,0.1-1.2,0.1-1.8-0.1c-0.3-0.1-0.6-0.2-0.8-0.3c-1.1-0.6-1.2-1.6,0.8-2.7c1.8-1.1,4-1.4,6-0.6l4.2-4.2
			c-4.1-1.3-8.6-1-12.6,0.7l-3.5-1.9l-4.7,2.7l3.5,2c-1.4,0.8-2.4,2.3-2.6,4l0,0c0,1.3,1,2.6,3.1,3.8c4.6,2.6,9,1.8,13.2,0.4
			c3.8-1.3,6.6-2.7,8.8-1.5c1.4,0.8,1,1.8-0.6,2.7c-2,1.1-4.4,1.2-6.5,0.4l-4.4,4.4c0.8,0.3,1.6,0.5,2.4,0.7
			c1.4,0.3,2.8,0.4,4.3,0.3c2.3-0.1,4.5-0.7,6.7-1.6l3.5,2l4.7-2.7L125.2,195.9z"/>
	</g>
	<path id="Path_1667_1_" class="st5" d="M-9590.2-12343.4v3.7l3.5,2v-3.7L-9590.2-12343.4z"/>
	<path id="Path_1668_1_" class="st27" d="M-9590.2-12343.4v3.7l3.5,2v-3.7L-9590.2-12343.4z"/>
	<path id="Path_1669_1_" class="st29" d="M-9618-12359l4.7-2.7l3.5,2l-3.4-1.4L-9618-12359z"/>
	<path id="Path_1670_1_" class="st29" d="M-9607.5-12355.6c1.8-1.1,4-1.4,6-0.6l4.1-4.2l-4.1,3.8
		C-9603.5-12357.3-9605.8-12356.9-9607.5-12355.6z"/>
	<path id="Path_1671_1_" class="st29" d="M-9603.6-12342.8c0.8,0.3,1.6,0.5,2.4,0.7c1.4,0.3,2.8,0.4,4.3,0.3c-2.1,0-4.1-0.4-6-1.2
		l3.7-4.2L-9603.6-12342.8z"/>
	<path id="Path_1672_1_" class="st29" d="M-9590.2-12343.4l3.5,1.6l4.6-2.2l-4.6,2.7L-9590.2-12343.4z"/>
	<path id="Path_1673_1_" class="st29" d="M-9631.4-12366.6c12.3-7.4,31.4-8.2,31.4-8.2c-12,0-23.3,2.7-31.7,7.6
		c-8.1,4.7-12.6,10.8-12.6,17.2C-9644.2-12350-9643.8-12358.9-9631.4-12366.6z"/>
	<path id="Path_1674_1_" class="st29" d="M-9603.6-12323.4c13,0.6,26.4-2,36.3-7.7c10.4-6,14.8-14.1,13.3-21.8c0,0,1.9,12.7-14,21.4
		C-9584.1-12322.9-9603.6-12323.4-9603.6-12323.4z"/>
	<path id="Path_1675_1_" class="st5" d="M-9549.6-12363.3c-2.7-4.3-6.5-7.8-11-10.2c-18.1-10.4-47.4-10.4-65.4,0
		c-4.5,2.4-8.3,5.9-11,10.2h-2.5v9.4l0,0c0.3,6.5,4.9,13.1,13.5,18.1c18.1,10.4,47.4,10.4,65.4,0c8.7-5,13.2-11.5,13.6-18.1l0,0
		v-9.4H-9549.6z"/>
	<g id="Group_3629_1_" transform="translate(-9729.537 -12560.133)" class="st22">
		<path id="Path_1676_1_" d="M179.9,196.8c-2.7-4.3-6.5-7.8-11-10.2c-18.1-10.4-47.4-10.4-65.4,0c-4.5,2.4-8.3,5.9-11,10.2H90v9.4
			l0,0c0.3,6.5,4.9,13.1,13.5,18.1c18.1,10.4,47.4,10.4,65.4,0c8.7-5,13.2-11.5,13.6-18.1l0,0v-9.4H179.9z"/>
	</g>
	<path id="Path_1677_1_" class="st17" d="M-9593.4-12381.4c-11.9,0-23.7,2.6-32.7,7.9c-4.5,2.4-8.3,5.9-11,10.2h-2.6v9.4l0,0
		c0.3,6.5,4.8,13.1,13.5,18.1c9,5.2,20.9,7.9,32.7,7.9L-9593.4-12381.4z"/>
	<path id="Path_1678_1_" class="st17" d="M-9618.7-12377c-2.6,1-5.1,2.1-7.4,3.5c-4.5,2.4-8.3,5.9-11,10.2h-2.5v9.4l0,0
		c0.3,6.5,4.8,13.1,13.5,18.1c2.4,1.4,4.9,2.5,7.4,3.5L-9618.7-12377z"/>
	<path id="Path_1679_1_" class="st23" d="M-9568.1-12377c2.6,1,5.1,2.1,7.4,3.5c4.5,2.4,8.3,5.9,11,10.2h2.5v9.4l0,0
		c-0.3,6.5-4.9,13.1-13.6,18.1c-2.4,1.4-4.9,2.5-7.4,3.5L-9568.1-12377z"/>
	<path id="Path_1680_1_" class="st5" d="M-9560.7-12382.2c-18.1-10.4-47.4-10.4-65.4,0c-18,10.4-18.1,27.4,0,37.8
		c18.1,10.4,47.4,10.4,65.4,0C-9542.6-12354.8-9542.6-12371.7-9560.7-12382.2z"/>
	<path id="Path_1681_1_" class="st24" d="M-9560.7-12382.2c-18.1-10.4-47.4-10.4-65.4,0c-18,10.4-18.1,27.4,0,37.8
		c18.1,10.4,47.4,10.4,65.4,0C-9542.6-12354.8-9542.6-12371.7-9560.7-12382.2z"/>
	<path id="Path_1682_1_" class="st5" d="M-9572.1-12375.3c-13.6-6.1-29.1-6.1-42.6,0c-6.1,3.1-9.4,7.4-9.4,12s3.3,8.9,9.4,12
		c13.6,6.1,29.1,6.1,42.6,0c6-3.1,9.4-7.4,9.4-12S-9566.1-12372.2-9572.1-12375.3z"/>
	<path id="Path_1683_1_" class="st25" d="M-9572.1-12375.3c-13.6-6.1-29.1-6.1-42.6,0c-6.1,3.1-9.4,7.4-9.4,12s3.3,8.9,9.4,12
		c13.6,6.1,29.1,6.1,42.6,0c6-3.1,9.4-7.4,9.4-12S-9566.1-12372.2-9572.1-12375.3z"/>
	<path id="Path_1684_1_" class="st5" d="M-9561.7-12380.4c-8.4-4.9-19.7-7.6-31.7-7.6s-23.3,2.7-31.7,7.6
		c-8.1,4.7-12.6,10.7-12.6,17.2s4.5,12.5,12.6,17.2c8.4,4.9,19.7,7.5,31.7,7.5s23.3-2.7,31.7-7.5c8.1-4.7,12.6-10.8,12.6-17.2
		S-9553.6-12375.8-9561.7-12380.4z M-9572.1-12351.3c-13.6,6.1-29.1,6.1-42.6,0c-6.1-3.1-9.4-7.4-9.4-12c0-4.6,3.3-8.9,9.4-12
		c13.6-6.1,29.1-6.1,42.6,0c6,3.1,9.4,7.4,9.4,12C-9562.7-12358.7-9566.1-12354.4-9572.1-12351.3L-9572.1-12351.3z"/>
	<path id="Path_1685_1_" class="st26" d="M-9561.7-12380.4c-8.4-4.9-19.7-7.6-31.7-7.6s-23.3,2.7-31.7,7.6
		c-8.1,4.7-12.6,10.7-12.6,17.2s4.5,12.5,12.6,17.2c8.4,4.9,19.7,7.5,31.7,7.5s23.3-2.7,31.7-7.5c8.1-4.7,12.6-10.8,12.6-17.2
		S-9553.6-12375.8-9561.7-12380.4z M-9572.1-12351.3c-13.6,6.1-29.1,6.1-42.6,0c-6.1-3.1-9.4-7.4-9.4-12c0-4.6,3.3-8.9,9.4-12
		c13.6-6.1,29.1-6.1,42.6,0c6,3.1,9.4,7.4,9.4,12C-9562.7-12358.7-9566.1-12354.4-9572.1-12351.3L-9572.1-12351.3z"/>
	<path id="Path_1686_1_" class="st24" d="M-9572.8-12352.6c11.4-5.8,11.4-15.3,0-21.1s-29.8-5.8-41.2,0c-11.3,5.8-11.4,15.3,0,21.1
		C-9602.7-12346.8-9584.2-12346.9-9572.8-12352.6z"/>
	<path id="Path_1687_1_" class="st5" d="M-9572.8-12352.6c11.4-5.8,11.4-15.3,0-21.1s-29.8-5.8-41.2,0c-11.3,5.8-11.4,15.3,0,21.1
		C-9602.7-12346.8-9584.2-12346.9-9572.8-12352.6z"/>
	<path id="Path_1688_1_" class="st27" d="M-9572.8-12352.6c11.4-5.8,11.4-15.3,0-21.1s-29.8-5.8-41.2,0c-11.3,5.8-11.4,15.3,0,21.1
		C-9602.7-12346.8-9584.2-12346.9-9572.8-12352.6z"/>
	<path id="Path_1689_1_" class="st5" d="M-9572.8-12369.9c-11.4-5.8-29.8-5.8-41.2,0c-4.7,2.4-7.4,5.5-8.3,8.6
		c0.8,3.1,3.6,6.2,8.3,8.6c11.4,5.8,29.8,5.8,41.2,0c4.7-2.4,7.4-5.5,8.3-8.6C-9565.4-12364.5-9568.1-12367.5-9572.8-12369.9z"/>
	<path id="Path_1690_1_" class="st28" d="M-9572.8-12369.9c-11.4-5.8-29.8-5.8-41.2,0c-4.7,2.4-7.4,5.5-8.3,8.6
		c0.8,3.1,3.6,6.2,8.3,8.6c11.4,5.8,29.8,5.8,41.2,0c4.7-2.4,7.4-5.5,8.3-8.6C-9565.4-12364.5-9568.1-12367.5-9572.8-12369.9z"/>
	<path id="Path_1691_1_" class="st5" d="M-9590.7-12373.6v4.3l-1.5,1.5l-2.7,2.8v-4.5L-9590.7-12373.6z"/>
	<path id="Path_1692_1_" class="st28" d="M-9590.7-12373.6v4.3l-1.5,1.5l-2.7,2.8v-4.5L-9590.7-12373.6z"/>
	<path id="Path_1693_1_" class="st5" d="M-9594.8-12369.4v2.5c-1.3,0.5-2.7,0.9-4.1,1.2c-0.6,0.1-1.2,0.1-1.8,0
		c-0.3-0.1-0.6-0.2-0.8-0.4c-1-0.6-1.2-1.6,0.8-2.6C-9599-12369.9-9596.8-12370.2-9594.8-12369.4L-9594.8-12369.4z"/>
	<path id="Path_1694_1_" class="st27" d="M-9594.8-12369.4v2.5c-1.3,0.5-2.7,0.9-4.1,1.2c-0.6,0.1-1.2,0.1-1.8,0
		c-0.3-0.1-0.6-0.2-0.8-0.4c-1-0.6-1.2-1.6,0.8-2.6C-9599-12369.9-9596.8-12370.2-9594.8-12369.4L-9594.8-12369.4z"/>
	<path id="Path_1695_1_" class="st5" d="M-9575.5-12357.4v3.7l-4.7,2.7l-3.4-1.9c-4.2,1.9-9,2.1-13.3,0.5v-3.7l2.2-2.1l-2.2,0.6
		c-3.5,1-7.2,0.6-10.4-1.2c-2.1-1.2-3.1-2.5-3.1-3.9v-3.6l0.4-1.6l-1.3-0.8v-3.7l3.5,2c-1.4,0.8-2.4,2.3-2.6,4l0,0
		c0,1.3,1,2.6,3.1,3.8c4.5,2.6,9,1.8,13.1,0.4c3.8-1.3,6.6-2.7,8.8-1.4c1.4,0.8,1,1.8-0.6,2.6c-2,1.1-4.3,1.2-6.4,0.4l-4.4,4.4
		c0.8,0.3,1.6,0.6,2.4,0.7c3.7,0.7,7.5,0.2,10.9-1.3l3.5,2L-9575.5-12357.4z"/>
	<path id="Path_1696_1_" class="st24" d="M-9610.5-12366.2L-9610.5-12366.2c0,1.3,1,2.6,3.1,3.8c4.6,2.6,9,1.8,13.2,0.4
		c3.8-1.3,6.6-2.7,8.8-1.4c1.4,0.8,1,1.8-0.6,2.6c-2,1.1-4.4,1.3-6.5,0.4l-4.4,4.4c0.8,0.3,1.6,0.6,2.5,0.7
		c3.7,0.7,7.5,0.2,10.9-1.3l3.4,2l4.7-2.7v3.7l-4.7,2.7l-3.5-1.9c-4.2,1.9-9,2.1-13.3,0.5v-3.7l2.2-2.1l-2.2,0.6
		c-3.5,1-7.2,0.6-10.4-1.2c-2.1-1.2-3.1-2.5-3.1-3.9L-9610.5-12366.2l0.4-1.5"/>
	<path id="Path_1697_1_" class="st27" d="M-9611.4-12372.2v3.7l1.3,0.8l0,0c0.5-1,1.3-1.8,2.2-2.5L-9611.4-12372.2z"/>
	<path id="Path_1698_1_" class="st5" d="M-9576.2-12359.7c0,0.6-0.1,1.2-0.3,1.8l-2.3-1.4c1.4-0.6,2.4-2,2.6-3.5
		C-9576.3-12361.8-9576.2-12359.8-9576.2-12359.7z"/>
	<g id="Group_3630_1_" transform="translate(-9668.878 -12541.649)" class="st11">
		<path id="Path_1699_1_" d="M92.7,181.9c0,0.6-0.1,1.2-0.3,1.8l-2.3-1.4c1.4-0.6,2.4-2,2.6-3.5C92.6,179.8,92.7,181.8,92.7,181.9z"
			/>
	</g>
	<path id="Path_1700_1_" class="st5" d="M-9576.2-12357.8l-2.7-1.6c1.6-0.7,2.7-2.3,2.7-4.1v-0.4c-0.1-1.3-1.1-2.5-3-3.6l0,0
		c-1.9-1.1-4.1-1.6-6.3-1.6h-2.2c-1,0.1-2,0.4-3,0.6c-0.5,0.1-0.9,0.3-1.4,0.4l-1.9,0.6l-0.7,0.3c-1.3,0.5-2.7,0.9-4.1,1.2
		c-0.6,0.1-1.2,0.1-1.8-0.1c-0.3-0.1-0.6-0.2-0.8-0.3c-1.1-0.6-1.2-1.6,0.8-2.6c1.8-1.1,4-1.4,6-0.6l4.1-4
		c-4.1-1.3-8.6-1.1-12.6,0.7l-3.5-2l-4.7,2.7l3.5,2c-1.4,0.9-2.4,2.3-2.6,4l0,0c0,1.3,1,2.6,3.1,3.8c4.6,2.6,9,1.8,13.2,0.4
		c3.8-1.3,6.6-2.7,8.8-1.4c1.4,0.8,1,1.8-0.6,2.7c-2,1.1-4.4,1.2-6.5,0.4l-4.4,4.4c2.1,0.8,4.4,1.2,6.7,1c2.3-0.1,4.6-0.7,6.7-1.6
		l3.5,2l4.7-2.7L-9576.2-12357.8z"/>
	<g id="Group_3631_1_" transform="translate(-9701.438 -12553.649)" class="st11">
		<path id="Path_1701_1_" class="st6" d="M125.2,195.9l-2.7-1.6c1.6-0.7,2.7-2.3,2.7-4.1v-0.4c-0.1-1.3-1.1-2.5-3-3.6l0,0
			c-1.9-1.1-4.1-1.6-6.3-1.6h-2.2c-1,0.1-2,0.4-3,0.6c-0.5,0.1-0.9,0.3-1.4,0.4l-1.9,0.6l-0.7,0.3c-1.3,0.5-2.7,0.9-4.1,1.2
			c-0.6,0.1-1.2,0.1-1.8-0.1c-0.3-0.1-0.6-0.2-0.8-0.3c-1.1-0.6-1.2-1.6,0.8-2.6c1.8-1.1,4-1.4,6-0.6l4.1-4
			c-4.1-1.3-8.6-1.1-12.6,0.7l-3.5-2l-4.7,2.7l3.5,2c-1.4,0.9-2.4,2.3-2.6,4l0,0c0,1.3,1,2.6,3.1,3.8c4.6,2.6,9,1.8,13.2,0.4
			c3.8-1.3,6.6-2.7,8.8-1.4c1.4,0.8,1,1.8-0.6,2.7c-2,1.1-4.4,1.2-6.5,0.4l-4.4,4.4c2.1,0.8,4.4,1.2,6.7,1c2.3-0.1,4.6-0.7,6.7-1.6
			l3.5,2l4.7-2.7L125.2,195.9z"/>
	</g>
	<path id="Path_1702_1_" class="st5" d="M-9583.6-12356.6v3.7l3.5,2v-3.7L-9583.6-12356.6z"/>
	<path id="Path_1703_1_" class="st27" d="M-9583.6-12356.6v3.7l3.5,2v-3.7L-9583.6-12356.6z"/>
	<path id="Path_1704_1_" class="st29" d="M-9611.4-12372.2l4.7-2.7l3.5,2l-3.4-1.4L-9611.4-12372.2z"/>
	<path id="Path_1705_1_" class="st29" d="M-9600.8-12368.8c1.8-1.1,4-1.4,6-0.6l4.2-4.1l-4.2,3.8
		C-9596.9-12370.6-9599.1-12370.2-9600.8-12368.8z"/>
	<path id="Path_1706_1_" class="st29" d="M-9596.9-12356c2.1,0.8,4.4,1.2,6.7,1c-2.1,0-4.1-0.4-6-1.2l3.7-4.2L-9596.9-12356z"/>
	<path id="Path_1707_1_" class="st29" d="M-9583.6-12356.6l3.5,1.6l4.7-2.3l-4.7,2.7L-9583.6-12356.6z"/>
	<path id="Path_1708_1_" class="st29" d="M-9624.8-12379.8c12.3-7.4,31.4-8.2,31.4-8.2c-12,0-23.3,2.7-31.7,7.6
		c-8.1,4.7-12.6,10.7-12.6,17.2C-9637.7-12363.3-9637.3-12372.2-9624.8-12379.8z"/>
	<path id="Path_1709_1_" class="st29" d="M-9596.9-12336.7c13,0.6,26.3-2,36.3-7.7c10.4-6,14.8-14.1,13.3-21.8
		c0,0,1.9,12.7-14.1,21.4C-9577.4-12336.1-9596.9-12336.7-9596.9-12336.7z"/>
	<path id="Path_1710_1_" class="st5" d="M-9554.2-12376.2c-2.7-4.3-6.5-7.8-11-10.2c-18.1-10.4-47.4-10.4-65.4,0
		c-4.5,2.4-8.3,5.9-11,10.2h-2.7v9.4l0,0c0.3,6.5,4.8,13.1,13.5,18.1c18.1,10.4,47.4,10.4,65.4,0c8.7-5,13.2-11.5,13.6-18.1l0,0
		v-9.4H-9554.2z"/>
	<g id="Group_3632_1_" transform="translate(-9734.218 -12573.043)" class="st22">
		<path id="Path_1711_1_" d="M180,196.8c-2.7-4.3-6.5-7.8-11-10.2c-18.1-10.4-47.4-10.4-65.4,0c-4.5,2.4-8.3,5.9-11,10.2H90v9.4l0,0
			c0.3,6.5,4.8,13.1,13.5,18.1c18.1,10.4,47.4,10.4,65.4,0c8.7-5,13.2-11.5,13.6-18.1l0,0v-9.4L180,196.8z"/>
	</g>
	<path id="Path_1712_1_" class="st17" d="M-9598-12394.3c-11.8,0-23.7,2.6-32.7,7.9c-4.5,2.4-8.3,5.9-11,10.2h-2.6v9.4l0,0
		c0.3,6.5,4.8,13.1,13.5,18.1c9,5.2,20.9,7.9,32.7,7.9L-9598-12394.3z"/>
	<path id="Path_1713_1_" class="st17" d="M-9623.2-12389.9c-2.6,1-5.1,2.1-7.4,3.5c-4.5,2.4-8.3,5.9-11,10.2h-2.6v9.4l0,0
		c0.3,6.5,4.8,13.1,13.5,18.1c2.4,1.4,4.9,2.5,7.4,3.5L-9623.2-12389.9z"/>
	<path id="Path_1714_1_" class="st23" d="M-9572.7-12389.9c2.6,1,5.1,2.1,7.4,3.5c4.5,2.4,8.3,5.9,11,10.2h2.5v9.4l0,0
		c-0.3,6.5-4.9,13.1-13.6,18.1c-2.4,1.4-4.9,2.5-7.4,3.5L-9572.7-12389.9z"/>
	<path id="Path_1715_1_" class="st5" d="M-9565.2-12395c-18.1-10.4-47.4-10.4-65.4,0c-18,10.4-18.1,27.3,0,37.8
		c18.1,10.4,47.4,10.4,65.4,0C-9547.2-12367.7-9547.2-12384.7-9565.2-12395z"/>
	<path id="Path_1716_1_" class="st24" d="M-9565.2-12395c-18.1-10.4-47.4-10.4-65.4,0c-18,10.4-18.1,27.3,0,37.8
		c18.1,10.4,47.4,10.4,65.4,0C-9547.2-12367.7-9547.2-12384.7-9565.2-12395z"/>
	<path id="Path_1717_1_" class="st5" d="M-9576.7-12388.2c-13.6-6.1-29.1-6.1-42.6,0c-6,3.1-9.4,7.4-9.4,12s3.3,8.9,9.4,12
		c13.6,6.1,29.1,6.1,42.6,0c6-3.1,9.4-7.4,9.4-12S-9570.6-12385.1-9576.7-12388.2z"/>
	<path id="Path_1718_1_" class="st25" d="M-9576.7-12388.2c-13.6-6.1-29.1-6.1-42.6,0c-6,3.1-9.4,7.4-9.4,12s3.3,8.9,9.4,12
		c13.6,6.1,29.1,6.1,42.6,0c6-3.1,9.4-7.4,9.4-12S-9570.6-12385.1-9576.7-12388.2z"/>
	<path id="Path_1719_1_" class="st5" d="M-9566.2-12393.4c-8.4-4.9-19.7-7.6-31.7-7.6c-12,0-23.3,2.7-31.7,7.6
		c-8.1,4.7-12.6,10.7-12.6,17.2c0,6.4,4.4,12.4,12.6,17.2c8.4,4.9,19.7,7.6,31.7,7.6s23.3-2.7,31.7-7.6c8.1-4.7,12.6-10.8,12.6-17.2
		C-9553.6-12382.6-9558.1-12388.8-9566.2-12393.4z M-9576.7-12364.2c-13.6,6.1-29.1,6.1-42.6,0c-6-3.1-9.4-7.4-9.4-12
		s3.3-8.9,9.4-12c13.6-6.1,29.1-6.1,42.6,0c6,3.1,9.4,7.4,9.4,12S-9570.6-12367.4-9576.7-12364.2z"/>
	<path id="Path_1720_1_" class="st26" d="M-9566.2-12393.4c-8.4-4.9-19.7-7.6-31.7-7.6c-12,0-23.3,2.7-31.7,7.6
		c-8.1,4.7-12.6,10.7-12.6,17.2c0,6.4,4.4,12.4,12.6,17.2c8.4,4.9,19.7,7.6,31.7,7.6s23.3-2.7,31.7-7.6c8.1-4.7,12.6-10.8,12.6-17.2
		C-9553.6-12382.6-9558.1-12388.8-9566.2-12393.4z M-9576.7-12364.2c-13.6,6.1-29.1,6.1-42.6,0c-6-3.1-9.4-7.4-9.4-12
		s3.3-8.9,9.4-12c13.6-6.1,29.1-6.1,42.6,0c6,3.1,9.4,7.4,9.4,12S-9570.6-12367.4-9576.7-12364.2z"/>
	<path id="Path_1721_1_" class="st24" d="M-9577.3-12365.7c11.4-5.8,11.4-15.3,0-21.1c-11.4-5.9-29.8-5.8-41.2,0
		c-11.3,5.8-11.4,15.3,0,21.1C-9607.1-12359.8-9588.7-12359.8-9577.3-12365.7z"/>
	<path id="Path_1722_1_" class="st5" d="M-9577.3-12365.7c11.4-5.8,11.4-15.3,0-21.1c-11.4-5.9-29.8-5.8-41.2,0
		c-11.3,5.8-11.4,15.3,0,21.1C-9607.1-12359.8-9588.7-12359.8-9577.3-12365.7z"/>
	<path id="Path_1723_1_" class="st27" d="M-9577.3-12365.7c11.4-5.8,11.4-15.3,0-21.1c-11.4-5.9-29.8-5.8-41.2,0
		c-11.3,5.8-11.4,15.3,0,21.1C-9607.1-12359.8-9588.7-12359.8-9577.3-12365.7z"/>
	<path id="Path_1724_1_" class="st5" d="M-9577.3-12382.8c-11.4-5.8-29.8-5.8-41.2,0c-4.7,2.4-7.5,5.5-8.3,8.6
		c0.8,3.1,3.6,6.2,8.3,8.6c11.4,5.8,29.8,5.8,41.2,0c4.7-2.4,7.4-5.5,8.3-8.6C-9569.9-12377.4-9572.7-12380.4-9577.3-12382.8z"/>
	<path id="Path_1725_1_" class="st28" d="M-9577.3-12382.8c-11.4-5.8-29.8-5.8-41.2,0c-4.7,2.4-7.5,5.5-8.3,8.6
		c0.8,3.1,3.6,6.2,8.3,8.6c11.4,5.8,29.8,5.8,41.2,0c4.7-2.4,7.4-5.5,8.3-8.6C-9569.9-12377.4-9572.7-12380.4-9577.3-12382.8z"/>
	<path id="Path_1726_1_" class="st5" d="M-9595.2-12386.6v4.3l-1.5,1.5l-2.7,2.8v-4.5L-9595.2-12386.6z"/>
	<path id="Path_1727_1_" class="st28" d="M-9595.2-12386.6v4.3l-1.5,1.5l-2.7,2.8v-4.5L-9595.2-12386.6z"/>
	<path id="Path_1728_1_" class="st5" d="M-9580.8-12372.7c0,0.6-0.1,1.2-0.3,1.8l-2.3-1.4c1.4-0.6,2.4-2,2.7-3.5
		C-9580.8-12374.8-9580.8-12372.8-9580.8-12372.7z"/>
	<g id="Group_3633_1_" transform="translate(-9673.464 -12554.561)" class="st11">
		<path id="Path_1729_1_" d="M92.7,181.9c0,0.6-0.1,1.2-0.3,1.8l-2.3-1.4c1.4-0.6,2.4-2,2.7-3.5C92.6,179.8,92.7,181.8,92.7,181.9z"
			/>
	</g>
	<path id="Path_1730_1_" class="st29" d="M-9629.3-12392.8c12.3-7.4,31.4-8.2,31.4-8.2c-12,0-23.3,2.7-31.7,7.6
		c-8.1,4.7-12.6,10.7-12.6,17.2C-9642.2-12376.2-9641.8-12385.2-9629.3-12392.8z"/>
	<path id="Path_1731_1_" class="st29" d="M-9601.5-12349.6c13,0.6,26.4-2,36.3-7.7c10.4-6,14.8-14.1,13.3-21.9
		c0,0,1.9,12.7-14.1,21.4C-9582-12349.1-9601.5-12349.6-9601.5-12349.6z"/>
	<path id="Path_1732_1_" class="st5" d="M-9476.2-12276.5c-2.7-4.3-6.5-7.8-11-10.2c-18.1-10.4-47.4-10.4-65.4,0
		c-4.5,2.4-8.3,5.9-11,10.2h-2.5v9.4l0,0c0.3,6.5,4.8,13.1,13.5,18.1c18.1,10.4,47.4,10.4,65.4,0c8.7-5,13.2-11.5,13.6-18.1l0,0
		v-9.4H-9476.2z"/>
	<g id="Group_3634_1_" transform="translate(-9656.062 -12473.322)" class="st22">
		<path id="Path_1733_1_" d="M179.9,196.8c-2.7-4.3-6.5-7.8-11-10.2c-18.1-10.4-47.4-10.4-65.4,0c-4.5,2.4-8.3,5.9-11,10.2H90v9.4
			l0,0c0.3,6.5,4.8,13.1,13.5,18.1c18.1,10.4,47.4,10.4,65.4,0c8.7-5,13.2-11.5,13.6-18.1l0,0v-9.4L179.9,196.8z"/>
	</g>
	<path id="Path_1734_1_" class="st17" d="M-9520-12294.5c-11.8,0-23.7,2.6-32.7,7.9c-4.5,2.4-8.3,5.9-11,10.2h-2.5v9.4l0,0
		c0.3,6.5,4.8,13.1,13.5,18.1c9,5.2,20.9,7.9,32.7,7.9L-9520-12294.5z"/>
	<path id="Path_1735_1_" class="st17" d="M-9545.3-12290.2c-2.6,1-5.1,2.1-7.4,3.5c-4.5,2.4-8.3,5.9-11,10.2h-2.5v9.4l0,0
		c0.3,6.5,4.8,13.1,13.5,18.1c2.4,1.4,4.9,2.5,7.4,3.5L-9545.3-12290.2z"/>
	<path id="Path_1736_1_" class="st23" d="M-9494.8-12290.2c2.6,1,5.1,2.1,7.4,3.5c4.5,2.4,8.3,5.9,11,10.2h2.5v9.4l0,0
		c-0.3,6.5-4.9,13.1-13.6,18.1c-2.4,1.4-4.9,2.5-7.4,3.5L-9494.8-12290.2z"/>
	<path id="Path_1737_1_" class="st5" d="M-9487.3-12295.4c-18.1-10.4-47.4-10.4-65.4,0c-18,10.4-18.1,27.3,0,37.8
		c18.1,10.4,47.4,10.4,65.4,0C-9469.3-12268-9469.2-12284.9-9487.3-12295.4z"/>
	<path id="Path_1738_1_" class="st24" d="M-9487.3-12295.4c-18.1-10.4-47.4-10.4-65.4,0c-18,10.4-18.1,27.3,0,37.8
		c18.1,10.4,47.4,10.4,65.4,0C-9469.3-12268-9469.2-12284.9-9487.3-12295.4z"/>
	<path id="Path_1739_1_" class="st5" d="M-9498.7-12288.5c-13.6-6.1-29.1-6.1-42.6,0c-6,3.1-9.4,7.4-9.4,12c0,4.6,3.3,8.9,9.4,12
		c13.6,6.1,29.1,6.1,42.6,0c6-3.1,9.4-7.4,9.4-12C-9489.3-12281.1-9492.7-12285.4-9498.7-12288.5z"/>
	<path id="Path_1740_1_" class="st25" d="M-9498.7-12288.5c-13.6-6.1-29.1-6.1-42.6,0c-6,3.1-9.4,7.4-9.4,12c0,4.6,3.3,8.9,9.4,12
		c13.6,6.1,29.1,6.1,42.6,0c6-3.1,9.4-7.4,9.4-12C-9489.3-12281.1-9492.7-12285.4-9498.7-12288.5z"/>
	<path id="Path_1741_1_" class="st5" d="M-9488.3-12293.6c-8.4-4.9-19.7-7.6-31.7-7.6c-12,0-23.3,2.7-31.7,7.6
		c-8.1,4.7-12.6,10.8-12.6,17.2c0,6.4,4.4,12.5,12.6,17.2c8.4,4.9,19.7,7.6,31.7,7.6c12,0,23.3-2.7,31.7-7.6
		c8.1-4.7,12.6-10.8,12.6-17.2C-9475.8-12282.9-9480.2-12288.9-9488.3-12293.6z M-9498.7-12264.5c-13.6,6.1-29.1,6.1-42.6,0
		c-6-3.1-9.4-7.4-9.4-12s3.3-8.9,9.4-12c13.6-6.1,29.1-6.1,42.6,0c6,3.1,9.4,7.4,9.4,12S-9492.6-12267.6-9498.7-12264.5
		L-9498.7-12264.5z"/>
	<path id="Path_1742_1_" class="st26" d="M-9488.3-12293.6c-8.4-4.9-19.7-7.6-31.7-7.6c-12,0-23.3,2.7-31.7,7.6
		c-8.1,4.7-12.6,10.8-12.6,17.2c0,6.4,4.4,12.5,12.6,17.2c8.4,4.9,19.7,7.6,31.7,7.6c12,0,23.3-2.7,31.7-7.6
		c8.1-4.7,12.6-10.8,12.6-17.2C-9475.8-12282.9-9480.2-12288.9-9488.3-12293.6z M-9498.7-12264.5c-13.6,6.1-29.1,6.1-42.6,0
		c-6-3.1-9.4-7.4-9.4-12s3.3-8.9,9.4-12c13.6-6.1,29.1-6.1,42.6,0c6,3.1,9.4,7.4,9.4,12S-9492.6-12267.6-9498.7-12264.5
		L-9498.7-12264.5z"/>
	<path id="Path_1743_1_" class="st24" d="M-9499.4-12265.9c11.4-5.8,11.4-15.3,0-21.1c-11.4-5.9-29.8-5.8-41.2,0s-11.4,15.3,0,21.1
		C-9529.2-12260.1-9510.7-12260.1-9499.4-12265.9z"/>
	<path id="Path_1744_1_" class="st5" d="M-9499.4-12265.9c11.4-5.8,11.4-15.3,0-21.1c-11.4-5.9-29.8-5.8-41.2,0s-11.4,15.3,0,21.1
		C-9529.2-12260.1-9510.7-12260.1-9499.4-12265.9z"/>
	<path id="Path_1745_1_" class="st27" d="M-9499.4-12265.9c11.4-5.8,11.4-15.3,0-21.1c-11.4-5.9-29.8-5.8-41.2,0s-11.4,15.3,0,21.1
		C-9529.2-12260.1-9510.7-12260.1-9499.4-12265.9z"/>
	<path id="Path_1746_1_" class="st5" d="M-9499.4-12283.1c-11.4-5.8-29.8-5.8-41.2,0c-4.7,2.4-7.5,5.5-8.3,8.6
		c0.8,3.1,3.6,6.2,8.3,8.6c11.4,5.8,29.8,5.8,41.2,0c4.7-2.4,7.4-5.5,8.3-8.6C-9492-12277.6-9494.7-12280.7-9499.4-12283.1z"/>
	<path id="Path_1747_1_" class="st28" d="M-9499.4-12283.1c-11.4-5.8-29.8-5.8-41.2,0c-4.7,2.4-7.5,5.5-8.3,8.6
		c0.8,3.1,3.6,6.2,8.3,8.6c11.4,5.8,29.8,5.8,41.2,0c4.7-2.4,7.4-5.5,8.3-8.6C-9492-12277.6-9494.7-12280.7-9499.4-12283.1z"/>
	<path id="Path_1748_1_" class="st5" d="M-9517.3-12286.8v4.3l-1.5,1.5l-2.7,2.8v-4.4L-9517.3-12286.8z"/>
	<path id="Path_1749_1_" class="st28" d="M-9517.3-12286.8v4.3l-1.5,1.5l-2.7,2.8v-4.4L-9517.3-12286.8z"/>
	<path id="Path_1750_1_" class="st5" d="M-9521.4-12282.6v2.5c-1.3,0.5-2.7,0.9-4.1,1.2c-0.6,0.1-1.2,0.1-1.8-0.1
		c-0.3-0.1-0.6-0.2-0.8-0.3c-1-0.6-1.2-1.6,0.8-2.6C-9525.6-12283.1-9523.4-12283.4-9521.4-12282.6L-9521.4-12282.6z"/>
	<path id="Path_1751_1_" class="st27" d="M-9521.4-12282.6v2.5c-1.3,0.5-2.7,0.9-4.1,1.2c-0.6,0.1-1.2,0.1-1.8-0.1
		c-0.3-0.1-0.6-0.2-0.8-0.3c-1-0.6-1.2-1.6,0.8-2.6C-9525.6-12283.1-9523.4-12283.4-9521.4-12282.6L-9521.4-12282.6z"/>
	<path id="Path_1752_1_" class="st5" d="M-9502.1-12270.5v3.7l-4.7,2.7l-3.5-2c-4.2,2-9,2.2-13.4,0.6v-3.7l2.1-2.1l-2.1,0.6
		c-3.5,1-7.2,0.6-10.4-1.2c-2.1-1.2-3.1-2.5-3.1-3.9v-3.6l0.4-1.6l-1.3-0.7v-3.7l3.5,2c-1.4,0.8-2.4,2.3-2.6,4l0,0
		c0,1.3,1,2.6,3.1,3.8c4.5,2.6,9,1.7,13.1,0.4c3.8-1.2,6.6-2.7,8.8-1.4c1.4,0.8,0.9,1.8-0.6,2.7c-2,1.1-4.4,1.2-6.5,0.4l-4.4,4.4
		c0.8,0.3,1.6,0.5,2.4,0.7c3.7,0.7,7.5,0.3,10.9-1.3l3.4,2L-9502.1-12270.5z"/>
	<path id="Path_1753_1_" class="st24" d="M-9537.1-12279.4L-9537.1-12279.4c0,1.3,1,2.6,3.1,3.8c4.5,2.6,9,1.7,13.2,0.4
		c3.8-1.2,6.6-2.7,8.8-1.4c1.4,0.8,1,1.8-0.6,2.7c-2,1.1-4.4,1.2-6.5,0.4l-4.4,4.4c0.8,0.3,1.6,0.5,2.4,0.7c3.7,0.7,7.6,0.3,11-1.3
		l3.4,2l4.7-2.7v3.7l-4.7,2.7l-3.5-2c-4.2,2-9,2.2-13.4,0.6v-3.7l2.1-2.1l-2.1,0.6c-3.5,1-7.2,0.6-10.4-1.2
		c-2.1-1.2-3.1-2.5-3.1-3.9L-9537.1-12279.4l0.5-1.6"/>
	<path id="Path_1754_1_" class="st27" d="M-9538-12285.4v3.7l1.3,0.7l0,0c0.5-1,1.3-1.8,2.2-2.5L-9538-12285.4z"/>
	<path id="Path_1755_1_" class="st5" d="M-9502.9-12272.9c0,0.6-0.1,1.2-0.3,1.8l-2.3-1.3c1.4-0.7,2.4-2,2.6-3.6
		C-9502.9-12275.1-9502.9-12273-9502.9-12272.9z"/>
	<g id="Group_3635_1_" transform="translate(-9595.48 -12454.792)" class="st11">
		<path id="Path_1756_1_" d="M92.6,181.9c0,0.6-0.1,1.2-0.3,1.8l-2.3-1.3c1.4-0.7,2.4-2,2.6-3.6C92.6,179.7,92.6,181.8,92.6,181.9z"
			/>
	</g>
	<path id="Path_1757_1_" class="st5" d="M-9502.9-12271l-2.7-1.6c1.6-0.7,2.7-2.3,2.7-4.1v-0.4c-0.1-1.3-1.1-2.5-3-3.6l0,0
		c-1.9-1.1-4-1.6-6.2-1.6h-2.2c-1,0.2-2,0.4-3,0.6c-0.5,0.1-1,0.3-1.4,0.4l-1.9,0.6l-0.7,0.3c-1.3,0.5-2.7,0.9-4.1,1.2
		c-0.6,0.1-1.2,0.1-1.8-0.1c-0.3-0.1-0.6-0.2-0.8-0.3c-1-0.6-1.2-1.6,0.8-2.7c1.8-1.1,4-1.4,6-0.6l4.1-4.2
		c-4.1-1.3-8.6-1.1-12.6,0.7l-3.4-2l-4.7,2.7l3.5,2c-1.4,0.9-2.4,2.3-2.6,4l0,0c0,1.3,1,2.6,3.1,3.8c4.5,2.6,9,1.7,13.1,0.4
		c3.8-1.3,6.6-2.7,8.8-1.4c1.4,0.8,1,1.8-0.6,2.7c-2,1.1-4.4,1.2-6.5,0.4l-4.5,4.4c2.1,0.8,4.4,1.2,6.7,1c2.3-0.1,4.6-0.7,6.7-1.6
		l3.4,2.2l4.7-2.7L-9502.9-12271z"/>
	<g id="Group_3636_1_" transform="translate(-9627.932 -12467.028)" class="st11">
		<path id="Path_1758_1_" class="st6" d="M125.1,196.1l-2.7-1.6c1.6-0.7,2.7-2.3,2.7-4.1V190c-0.1-1.3-1.1-2.5-3-3.6l0,0
			c-1.9-1.1-4-1.6-6.2-1.6h-2.2c-1,0.2-2,0.4-3,0.6c-0.5,0.1-1,0.3-1.4,0.4l-1.9,0.6l-0.7,0.3c-1.3,0.5-2.7,0.9-4.1,1.2
			c-0.6,0.1-1.2,0.1-1.8-0.1c-0.3-0.1-0.6-0.2-0.8-0.3c-1-0.6-1.2-1.6,0.8-2.7c1.8-1.1,4-1.4,6-0.6l4.1-4.2
			c-4.1-1.3-8.6-1.1-12.6,0.7l-3.4-2l-4.7,2.7l3.5,2c-1.4,0.9-2.4,2.3-2.6,4l0,0c0,1.3,1,2.6,3.1,3.8c4.5,2.6,9,1.7,13.1,0.4
			c3.8-1.3,6.6-2.7,8.8-1.4c1.4,0.8,1,1.8-0.6,2.7c-2,1.1-4.4,1.2-6.5,0.4l-4.5,4.4c2.1,0.8,4.4,1.2,6.7,1c2.3-0.1,4.6-0.7,6.7-1.6
			l3.4,2.2l4.7-2.7L125.1,196.1z"/>
	</g>
	<path id="Path_1759_1_" class="st5" d="M-9510.2-12269.8v3.7l3.5,2v-3.7L-9510.2-12269.8z"/>
	<path id="Path_1760_1_" class="st27" d="M-9510.2-12269.8v3.7l3.5,2v-3.7L-9510.2-12269.8z"/>
	<path id="Path_1761_1_" class="st29" d="M-9538-12285.4l4.7-2.7l3.5,2l-3.4-1.4L-9538-12285.4z"/>
	<path id="Path_1762_1_" class="st29" d="M-9527.4-12282c1.8-1.1,4-1.4,6-0.6l4.2-4.2l-4.2,3.7
		C-9523.5-12283.8-9525.8-12283.3-9527.4-12282L-9527.4-12282z"/>
	<path id="Path_1763_1_" class="st29" d="M-9523.6-12269.2c2.1,0.8,4.4,1.1,6.7,1c-2.1,0-4.1-0.4-6-1.2l3.7-4.2L-9523.6-12269.2z"/>
	<path id="Path_1764_1_" class="st29" d="M-9510.2-12269.8l3.5,1.6l4.7-2.3l-4.7,2.7L-9510.2-12269.8z"/>
	<path id="Path_1765_1_" class="st29" d="M-9551.4-12293c12.3-7.4,31.4-8.2,31.4-8.2c-12,0-23.3,2.7-31.7,7.6
		c-8.1,4.7-12.6,10.8-12.6,17.2C-9564.3-12276.5-9563.8-12285.4-9551.4-12293z"/>
	<path id="Path_1766_1_" class="st29" d="M-9523.6-12249.8c13,0.6,26.4-2,36.3-7.7c10.4-6,14.8-14.1,13.3-21.8
		c0,0,1.9,12.7-14.1,21.4C-9504.1-12249.3-9523.6-12249.8-9523.6-12249.8z"/>
	<path id="Path_1767_1_" class="st5" d="M-9479.3-12289.6c-2.7-4.3-6.5-7.8-11-10.2c-18.1-10.4-47.4-10.4-65.4,0
		c-4.5,2.4-8.3,5.9-11.1,10.2h-2.5v9.4l0,0c0.3,6.5,4.8,13.1,13.5,18.1c18.1,10.4,47.4,10.4,65.4,0c8.7-5,13.2-11.5,13.6-18.1l0,0
		v-9.4H-9479.3z"/>
	<g id="Group_3637_1_" transform="translate(-9659.297 -12486.468)" class="st22">
		<path id="Path_1768_1_" d="M180,196.8c-2.7-4.3-6.5-7.8-11-10.2c-18.1-10.4-47.4-10.4-65.4,0c-4.5,2.4-8.3,5.9-11.1,10.2H90v9.4
			l0,0c0.3,6.5,4.8,13.1,13.5,18.1c18.1,10.4,47.4,10.4,65.4,0c8.7-5,13.2-11.5,13.6-18.1l0,0v-9.4L180,196.8z"/>
	</g>
	<path id="Path_1769_1_" class="st17" d="M-9523.1-12307.6c-11.8,0-23.7,2.6-32.7,7.9c-4.5,2.4-8.2,5.9-11,10.2h-2.5v9.4l0,0
		c0.3,6.5,4.8,13.1,13.5,18.1c9,5.2,20.9,7.9,32.7,7.9L-9523.1-12307.6z"/>
	<path id="Path_1770_1_" class="st17" d="M-9548.3-12303.3c-2.6,1-5.1,2.1-7.4,3.5c-4.5,2.4-8.3,5.9-11,10.2h-2.5v9.4l0,0
		c0.3,6.5,4.8,13.1,13.5,18.1c2.4,1.4,4.9,2.5,7.4,3.5L-9548.3-12303.3z"/>
	<path id="Path_1771_1_" class="st23" d="M-9497.8-12303.3c2.6,1,5.1,2.1,7.4,3.5c4.5,2.4,8.3,5.9,11,10.2h2.5v9.4l0,0
		c-0.3,6.5-4.9,13.1-13.6,18.1c-2.4,1.4-4.9,2.5-7.4,3.5L-9497.8-12303.3z"/>
	<path id="Path_1772_1_" class="st5" d="M-9490.3-12308.5c-18.1-10.4-47.4-10.4-65.4,0s-18.1,27.4,0,37.8
		c18.1,10.4,47.4,10.4,65.4,0S-9472.3-12298-9490.3-12308.5z"/>
	<path id="Path_1773_1_" class="st24" d="M-9490.3-12308.5c-18.1-10.4-47.4-10.4-65.4,0s-18.1,27.4,0,37.8
		c18.1,10.4,47.4,10.4,65.4,0S-9472.3-12298-9490.3-12308.5z"/>
	<path id="Path_1774_1_" class="st5" d="M-9501.7-12301.6c-13.6-6.1-29.1-6.1-42.6,0c-6.1,3.1-9.4,7.4-9.4,12s3.3,8.9,9.4,12
		c13.6,6.1,29.1,6.1,42.6,0c6-3.1,9.4-7.4,9.4-12S-9495.7-12298.5-9501.7-12301.6z"/>
	<path id="Path_1775_1_" class="st25" d="M-9501.7-12301.6c-13.6-6.1-29.1-6.1-42.6,0c-6.1,3.1-9.4,7.4-9.4,12s3.3,8.9,9.4,12
		c13.6,6.1,29.1,6.1,42.6,0c6-3.1,9.4-7.4,9.4-12S-9495.7-12298.5-9501.7-12301.6z"/>
	<path id="Path_1776_1_" class="st5" d="M-9491.3-12306.7c-8.4-4.9-19.7-7.6-31.7-7.6s-23.3,2.7-31.7,7.6
		c-8.1,4.7-12.6,10.7-12.6,17.1s4.4,12.5,12.6,17.2c8.4,4.9,19.7,7.6,31.7,7.6s23.3-2.7,31.7-7.6c8.1-4.7,12.6-10.8,12.6-17.2
		C-9478.8-12296-9483.3-12302.1-9491.3-12306.7z M-9501.7-12277.6c-13.6,6.1-29.1,6.1-42.6,0c-6.1-3.1-9.4-7.4-9.4-12
		c0-4.6,3.3-8.9,9.4-12c13.6-6.1,29.1-6.1,42.6,0c6,3.1,9.4,7.4,9.4,12S-9495.7-12280.7-9501.7-12277.6L-9501.7-12277.6z"/>
	<path id="Path_1777_1_" class="st26" d="M-9491.3-12306.7c-8.4-4.9-19.7-7.6-31.7-7.6s-23.3,2.7-31.7,7.6
		c-8.1,4.7-12.6,10.7-12.6,17.1s4.4,12.5,12.6,17.2c8.4,4.9,19.7,7.6,31.7,7.6s23.3-2.7,31.7-7.6c8.1-4.7,12.6-10.8,12.6-17.2
		C-9478.8-12296-9483.3-12302.1-9491.3-12306.7z M-9501.7-12277.6c-13.6,6.1-29.1,6.1-42.6,0c-6.1-3.1-9.4-7.4-9.4-12
		c0-4.6,3.3-8.9,9.4-12c13.6-6.1,29.1-6.1,42.6,0c6,3.1,9.4,7.4,9.4,12S-9495.7-12280.7-9501.7-12277.6L-9501.7-12277.6z"/>
	<path id="Path_1778_1_" class="st24" d="M-9502.5-12279c11.4-5.8,11.4-15.3,0-21.1c-11.4-5.9-29.8-5.8-41.2,0
		c-11.3,5.8-11.4,15.3,0,21.1S-9513.9-12273.2-9502.5-12279z"/>
	<path id="Path_1779_1_" class="st5" d="M-9502.5-12279c11.4-5.8,11.4-15.3,0-21.1c-11.4-5.9-29.8-5.8-41.2,0
		c-11.3,5.8-11.4,15.3,0,21.1S-9513.9-12273.2-9502.5-12279z"/>
	<path id="Path_1780_1_" class="st27" d="M-9502.5-12279c11.4-5.8,11.4-15.3,0-21.1c-11.4-5.9-29.8-5.8-41.2,0
		c-11.3,5.8-11.4,15.3,0,21.1S-9513.9-12273.2-9502.5-12279z"/>
	<path id="Path_1781_1_" class="st5" d="M-9502.5-12296.2c-11.4-5.8-29.8-5.8-41.2,0c-4.7,2.4-7.4,5.5-8.3,8.6
		c0.8,3.1,3.6,6.2,8.3,8.6c11.4,5.8,29.8,5.8,41.2,0c4.7-2.4,7.4-5.5,8.3-8.6C-9495-12290.7-9497.8-12293.8-9502.5-12296.2z"/>
	<path id="Path_1782_1_" class="st28" d="M-9502.5-12296.2c-11.4-5.8-29.8-5.8-41.2,0c-4.7,2.4-7.4,5.5-8.3,8.6
		c0.8,3.1,3.6,6.2,8.3,8.6c11.4,5.8,29.8,5.8,41.2,0c4.7-2.4,7.4-5.5,8.3-8.6C-9495-12290.7-9497.8-12293.8-9502.5-12296.2z"/>
	<path id="Path_1783_1_" class="st5" d="M-9505.9-12286c0,0.6-0.1,1.2-0.3,1.7l-2.4-1.3c1.4-0.6,2.4-2,2.7-3.5
		C-9505.9-12288.2-9505.9-12286.1-9505.9-12286z"/>
	<g id="Group_3638_1_" transform="translate(-9598.606 -12467.938)" class="st11">
		<path id="Path_1784_1_" d="M92.7,181.9c0,0.6-0.1,1.2-0.3,1.7l-2.4-1.3c1.4-0.6,2.4-2,2.7-3.5C92.7,179.8,92.7,181.8,92.7,181.9z"
			/>
	</g>
	<path id="Path_1785_1_" class="st29" d="M-9554.4-12306.1c12.2-7.4,31.4-8.2,31.4-8.2c-12,0-23.3,2.7-31.7,7.6
		c-8.1,4.7-12.6,10.7-12.6,17.1C-9567.3-12289.6-9566.9-12298.5-9554.4-12306.1z"/>
	<path id="Path_1786_1_" class="st29" d="M-9526.6-12263c13,0.6,26.4-2,36.3-7.7c10.3-6,14.8-14.1,13.3-21.8c0,0,1.9,12.7-14.1,21.4
		C-9507.1-12262.5-9526.6-12263-9526.6-12263z"/>
	<g id="freepik--Character--inject-84_1_" transform="translate(-9579.032 -12839.512)">
		<g id="freepik--character--inject-84-2_1_">
			<g id="freepik--character--inject-84-3_1_">
				<g id="freepik--character--inject-84-4_1_">
					<path id="Path_1787_1_" class="st4" d="M165.8,346.7c1.2-0.2,2.5,0,3.6,0.6c1.3,1.7,2.2,3.7,2.8,5.8c0.8,2.9,1.2,4.1,3,5.5
						c2.4,1.7,4.5,4,6,6.5c2.3,3.9,3.1,8.4,2.5,12.9c-0.7,5.2-2.8,7.2-4.7,8.2c-1.2,0.5-2.4,0.7-3.6,0.6L165.8,346.7z"/>
					<path id="Path_1788_1_" class="st19" d="M156.3,346.2l1,1c0.6,0.5,1.2,1,1.7,1.6c2.2,2.4,1.8,7.6,1.7,9.1
						c-0.9-0.1-1.9,0.1-2.6,0.7c-1.7,1.2-4.4,3.5-4.2,4.5s4.9,3,9.3,8.4c2.5,3.1,4.5,6.5,6.1,10.1c1.2,2.5,3.6,6.5,7.5,5.1
						c2-0.7,6.3-5.4,5.2-14c-0.5-5.5-3.5-10.4-8.2-13.2c-2.9-2.1-3.1-4.4-4.8-8.3c-0.5-1.8-1.6-3.3-3.1-4.3c-2.6-0.8-5.1-0.1-7-0.3
						C157.2,346.3,156.7,345.4,156.3,346.2z"/>
					<path id="Path_1789_1_" class="st7" d="M161.3,290.2c-0.6,1.4-1.7,2.4-3.1,2.9c-8.7,2.9-20,6.5-30.6,11.1
						c-13.2,5.7-17.1,9-20.3,14.7c-1.7,3.7-1.9,7.8-0.6,11.7c1.1,3.3,3.8,8,10.6,11.8c13.5,7.6,21.3,12.2,29.5,16.1
						c0,0,7.3-7.8,8.1-14.5l-11.9-10.8l28.1-13.2l36-32.6L161.3,290.2z"/>
					<path id="Path_1790_1_" class="st19" d="M142.2,331.2c-3.7,2.5-6.3,6.4-7.1,10.8c-0.5,2.2-1.2,6.2-1.7,9.4
						c4.8,2.7,9,4.9,13.2,6.9c0,0,7.3-7.8,8.1-14.5l-11.9-10.8l1.6-0.8L142.2,331.2z"/>
					<path id="Path_1791_1_" class="st19" d="M170.8,319.9l-7.7-23.9l-3.9,5.9c0.2,4,1.3,7.9,3,11.5c0,0-13.1,10-14.6,11
						c-5.8,3.6-6.5,3.1-9.8,0.8c-3.5-2.5-8-3.2-12-1.9c8.1-0.6,10.1,2.8,17.1,9.8L170.8,319.9L170.8,319.9z"/>
					<path id="Path_1792_1_" class="st39" d="M133.8,411.5c0,2.6,1,6.5-0.5,9.4c-1,2-2.8,3.6-5,4.4c-1.1,0.3-2.2,0.8-3.1,1.4
						l-3.4,2.7c-1.7,1.1-3.2,2.4-4.7,3.8c-3.8,4.1-9.8,5.3-15.3,4.9c-2.7-0.1-5.3-0.8-7.7-1.9c-1.7-0.8-3.8-2.5-3.8-4.6
						s1.7-3,3.3-4.1c2.1-1.4,4.3-2.6,6.5-3.7c2.4-1.1,4.6-2.5,6.6-4.1c2.1-1.9,8-5.5,11.7-13.2c1.6-3.5,7.1-19.4,7.1-19.4l19.3,5.8
						C144.7,392.7,133.8,408.8,133.8,411.5z"/>
					<path id="Path_1793_1_" class="st4" d="M133.8,421.7c0.2,1.3,0,2.7-0.7,3.9c-1.9,1.4-4.1,2.4-6.4,2.9c-3.1,0.8-4.5,1.2-6,3.3
						c-1.6,2.5-3.8,4.7-6.5,6.1c-5,2.8-11,3.5-16.5,1.9c-5.1-1.3-6.8-4.1-7.2-4.8c-0.5-1.1-0.6-2.2-0.4-3.4L133.8,421.7z"/>
					<path id="Path_1794_1_" class="st19" d="M134.3,409.8c-0.3,0.7-0.5,1.3-0.7,2c-0.3,0.9-1,1.7-1.8,2.2c-2.4,1.4-5.2,1.9-7.9,1.6
						c0.2-1.4-0.5-2.8-1.8-3.4c-3.1-1.6-6-2.5-7-2.1c-2.3,1-0.5,1.9-7.6,7.8c-3.7,3.1-7.7,5.8-12,8c-2.7,1.5-6.3,3.9-5.2,6.9
						c0.7,2.2,5.7,6.9,14.9,6.1c8.5-0.7,12.4-5.7,14.8-8.8s4.8-3.5,9.1-5.2c1.9-0.5,3.6-1.6,4.7-3.3c0.8-2.8,0.4-6.5,0.6-8.6
						C134.7,411.5,135.1,410.3,134.3,409.8z"/>
					<path id="Path_1795_1_" class="st7" d="M158,295.2l5.5-5.4l51.9,6.8c0.1,5.2-1,16.2-3,21.7c-1.9,5.1-4.4,10.5-16.4,16.9
						s-26.4,12.9-29.3,14.6c-4.2,2.4-4.1,2.5-5.1,9.9c-1.5,8.6-4.8,16.7-9.7,23.8c-4,6-15.3,24.9-15.3,24.9
						c-7.4,1.5-13.5-2.8-16.8-6.9c0,0,15.2-48,16.7-55.9c0.6-5.2,3.1-9.9,7-13.4c4.5-4.3,22.1-19.3,22.1-19.3
						C161,308.3,158.2,301.9,158,295.2L158,295.2z"/>
					<path id="Path_1796_1_" class="st19" d="M206.5,301.1c0.6,11,0.9,17.7-14.1,25.3c-4.5,2.3-9.2,4.5-13.8,6.6
						c-13.5,6.3-22.7,13.2-23.4,18.2c-0.3,1.9-0.4,4.2-0.6,6.8c-0.2,7.5-2.2,14.8-5.9,21.3c-3.6,6.9-11,21-14.8,26.8l1.4,0.1
						c3.6-5.8,10.5-18.5,14.5-26.2c5.3-10.2,5.7-15.6,6.1-21.9c0.2-2.6,0.3-4.9,0.6-6.7c0.6-4.4,10.6-11.6,22.7-17.3
						c4.6-2.1,9.3-4.4,13.8-6.7c15.7-8,15.4-15.4,14.8-26.5c0-1.1-0.1-2.2-0.1-3.3l-1.3-0.2C206.5,298.7,206.5,299.9,206.5,301.1z"
						/>
					<path id="Path_1797_1_" class="st19" d="M197.2,325c-0.2-0.1-4.6-3.5-2.6-11.5c1.8-6.1,2.3-12.5,1.5-18.8l1.2-0.1
						c0.8,6.4,0.3,13-1.6,19.2c-1.8,7.2,2.1,10.1,2.1,10.2L197.2,325z"/>
					<path id="Path_1798_1_" class="st19" d="M121.5,396.1c1.8,3.1,12.9,9.1,18.3,7.3l-3.1,5.5c-4,1.9-13.1-1.8-17.4-6.4
						L121.5,396.1z"/>
					<g id="freepik--Top--inject-84_1_" transform="translate(16.005)">
						<g id="freepik--Arm--inject-84_1_" transform="translate(43.629 48.755)">
							<path id="freepik--arm--inject-84-2_1_" class="st0" d="M115.6,178.8c-9.1,0-14.5,4-14.5,11.6c0,6.6,2.5,27.3,2.5,27.3
								L90,228.4l7.9,9.4c0,0,13.5-6.8,18.1-9.4c7.1-3.9,6.2-5.4,5.6-14.3S115.6,178.8,115.6,178.8z"/>
							<path id="Path_1799_1_" class="st1" d="M92.5,226.4l4.7-3.7c2.3,1.4,4.1,3.5,5.3,5.9c0.9,1.9,1.3,4,1.3,6.1l-5,2.5
								C98.9,237.3,98.2,229.4,92.5,226.4z"/>
						</g>
						<path id="freepik--Chest--inject-84_1_" class="st2" d="M172.6,227.5c7.7,0.5,11.1,2,20.3,4c2.2,2,5.5,10.6,6.5,21.3
							c1.2,12.1,1.5,24.3,1,36.4c0,6-0.5,11.9-1.4,17.8c-13.7,8.3-48.4,3.8-58.2-13.6c2.4-3.7,3.5-15.3,4-40.7
							c0.3-15,8.7-25,14.5-25.1C163.8,227.3,168.2,227.3,172.6,227.5z"/>
						<g id="freepik--Head--inject-84_1_" transform="translate(56.375)">
							<path id="Path_1800_1_" class="st4" d="M94.3,200.2c-1.5-0.9-2.7-2.3-3.3-4c-0.7-1.8-1.1-3.8-1-5.8c0.1-0.7,0.2-1.4,0.5-2
								c0.5-0.7,1.3-1.1,2.2-1.1l1.6-0.3c-1.1-1-1.9-2.1-2.5-3.4c-0.4-1-0.5-2.1-0.3-3.1c0-0.3,0.2-0.5,0.3-0.8
								c0.5-0.4,1.2-0.5,1.8-0.3c3.8,0.8,7.7,1,11.5,0.6c3-0.3,4.6-0.6,8.7-1.1s11.7,1.2,13.2,9.1c5.6,0.8,6.5,9.8,5.1,13.7
								c-2.8,7.1-5.5,11.8-6.8,16.9c-0.3-0.2-19.4-10.6-23.7-13.5l-4.9-3.3C95.8,201.2,95.1,200.7,94.3,200.2z"/>
							<path id="Path_1801_1_" class="st39" d="M130.6,213.2c-3.3,2.6-5.5,0.3-5.5,0.3l0.5,16c-1.7,2.3-8.8,3.9-12,6
								c-1.3,0.8-3.3,4.1-5.4,6.4c-1.2-2.7-3.8-9-0.2-13.5l-0.1-3.1c-1.7,0.2-3.4,0.2-5.1,0c-1.1-0.1-2.1-0.5-3-1
								c-2-1.2-3.6-3.1-4.2-5.3c-1.2-3.9-1.8-8-1.9-12.2c-0.2-4.9,0.1-11.4,1.7-14.7c2.9-2.7,11.7-3.3,19.2-1.3
								c0.2,1.8,0,3.5,1.6,5.4c0.8,0.9,1.8,1.7,2.9,2.2c0,2.1,0.4,4.2,1.2,6.1c0.4,0.9,1.2,2.2,3,1.6c0.9-0.3,1.4-2.3,2.3-3.6
								c1.4-1.7,3.9-2,5.6-0.7c0.6,0.4,1,1,1.2,1.7C134,206.7,133.3,210.7,130.6,213.2L130.6,213.2z"/>
							<path id="Path_1802_1_" class="st40" d="M107.9,225.4c3.7-0.5,10.4-2.1,12.2-4.5c1.4-2.4,2.5-4.9,3.1-7.6c0,0-0.6,6-1.9,8.6
								s-4.6,3.8-6.9,4.6c-2.1,0.6-4.3,1-6.5,1.3L107.9,225.4z"/>
							<path id="Path_1803_1_" class="st4" d="M108.9,200.5l3.8-0.9c-0.3-1.1-1.3-1.8-2.4-1.6c-1,0.2-1.7,1.3-1.4,2.3L108.9,200.5z"
								/>
							<path id="Path_1804_1_" class="st4" d="M99.6,198.9l-3.1,2.4c-0.6-0.9-0.5-2.1,0.4-2.8C97.7,197.9,98.8,198,99.6,198.9
								C99.5,198.8,99.5,198.8,99.6,198.9L99.6,198.9z"/>
							<path id="Path_1805_1_" class="st41" d="M109.8,214.3l-4,1.7c0.5,1.1,1.8,1.7,2.9,1.2C109.9,216.7,110.4,215.4,109.8,214.3
								L109.8,214.3z"/>
							<path id="Path_1806_1_" class="st42" d="M109.7,215.1c-1.2,0.1-2.1,1-2.1,2.2c1.1,0.2,2.2-0.6,2.4-1.8c0-0.1,0-0.2,0-0.4
								L109.7,215.1z"/>
							<path id="Path_1807_1_" class="st40" d="M106,201.5l-0.8,11.7l-6.1-2.4L106,201.5z"/>
							<path id="Path_1808_1_" class="st4" d="M112.3,203.9c0,0.9-0.7,1.6-1.6,1.6c-0.9,0-1.6-0.7-1.6-1.6c0-0.8,0.6-1.5,1.5-1.6
								l0,0c0.9-0.1,1.6,0.6,1.7,1.5C112.3,203.8,112.3,203.8,112.3,203.9z"/>
							<path id="Path_1809_1_" class="st4" d="M100.4,204.3c0,0.9-0.7,1.6-1.6,1.6l0,0l0,0c-0.9,0-1.6-0.7-1.6-1.6c0,0,0-0.1,0-0.1
								l0,0c0-0.9,0.7-1.6,1.6-1.6l0,0l0,0C99.7,202.7,100.4,203.4,100.4,204.3L100.4,204.3L100.4,204.3z"/>
						</g>
						<g id="freepik--Laptop--inject-84_1_" transform="translate(0 89.891)">
							<path id="Path_1810_1_" class="st0" d="M178.2,224.3v1c0,1-0.5,1.9-1.3,2.4L151,243.4c-0.4,0.3-0.9,0.4-1.4,0.4
								c-0.5,0-1-0.1-1.4-0.3l-48.7-26.7c-0.9-0.5-1.4-1.4-1.4-2.4v-0.7l51.5,28.3L178.2,224.3z"/>
							<path id="Path_1811_1_" class="st3" d="M98.1,213.7l28.2-17.1c0.5-0.3,1.1-0.3,1.6,0l50.2,27.6c0.2,0.1,0.2,0.3,0.1,0.5
								c0,0.1-0.1,0.1-0.1,0.1l-28.4,17.1L98.1,213.7z"/>
							<path id="Path_1812_1_" class="st1" d="M149.8,239.5l15.2-9.2l-45.5-25l-15.3,9.2L149.8,239.5z"/>
							<path id="Path_1813_1_" class="st1" d="M156.9,214.7l-0.3,0.2l-7.4,4.5l-13.6-7.5l-0.3-0.1l7.7-4.7L156.9,214.7z"/>
							<path id="Path_1814_1_" class="st43" d="M156.6,214.9l-7.4,4.5l-13.6-7.5l7.4-4.5L156.6,214.9z"/>
							<path id="Path_1815_1_" class="st0" d="M149.7,241.9v1.8c-0.5,0-1-0.1-1.4-0.3l-48.7-26.7c-0.9-0.5-1.4-1.4-1.4-2.4v-0.7
								L149.7,241.9z"/>
							<g id="Group_3639_1_" transform="translate(8.179 34.9)" class="st20">
								<path id="Path_1816_1_" class="st1" d="M141.5,207v1.8c-0.5,0-1-0.1-1.4-0.3l-48.7-26.7c-0.9-0.5-1.4-1.4-1.4-2.4v-0.7
									L141.5,207z"/>
							</g>
							<path id="Path_1817_1_" class="st39" d="M136.6,184.9c-2.6,2.2-5.5,3.9-8.6,5.1c-5.9,2.1-7.1,2.1-11.7,5.6
								c-1.6,1.3-3.1,2.7-4.5,4.2c-1.4,2.4-3.3,4.4-4.7,6.7c-1.2,1.4,0.3,1.7,1.5,1.6c3.3-0.7,5.2-3.8,7.9-5.6
								c-0.1,1.1,0,2.2,0.3,3.3c0.2,0.9,0.3,2,1.1,2.4c0.6,0.2,1.3,0.3,2,0.3c0.1,0.3,0.3,0.6,0.6,0.8c0.5,0.2,1.1,0.2,1.6,0
								c0.3-0.1,0.6-0.2,0.8-0.3c0.2,0.6,0.7,1,1.3,1c1.3,0.1,2.6-0.2,3.8-0.7c0.2-0.1,1.4-1.2,1.7-1.6s1-0.7,1.2-1.2
								s-0.9-1.4-1.6-1.3c-0.8,0.1-1.6,0.3-2.3,0.7c0.2-0.7,0.3-1.4,0.2-2.2c0.4-1.2,5.3-0.6,9.3-2.2c3-1.3,3.8-4.3,5.2-5l1.3-0.6
								C142.7,190.6,140.1,186.7,136.6,184.9z"/>
							<path id="Path_1818_1_" class="st5" d="M148.8,242.4c-0.9,0.4-1.9,0.3-2.8-0.2l-48.5-26.6c-0.8-0.5-1.4-1.3-1.6-2.2l-6-31.2
								c0-0.2,0-0.4,0-0.5c0-0.9,0.3-1.7,0.9-2.3l50.3,27.7c0.6,0.3,1.1,1,1.2,1.7L148.8,242.4z"/>
							<g id="Group_3640_1_" transform="translate(0 0.55)" class="st44">
								<path id="Path_1819_1_" class="st6" d="M148.8,241.8c-0.9,0.4-1.9,0.3-2.8-0.2l-48.5-26.6c-0.8-0.5-1.4-1.3-1.6-2.2l-6-31.2
									c0-0.2,0-0.4,0-0.5c0-0.9,0.3-1.7,0.9-2.3l50.3,27.7c0.6,0.3,1.1,1,1.2,1.7L148.8,241.8z"/>
							</g>
							<path id="Path_1820_1_" class="st3" d="M149.7,241.9l-0.3,0.2c-0.1,0.1-0.3,0.2-0.4,0.2l-6.4-33.7c-0.1-0.7-0.6-1.3-1.2-1.6
								l-50.4-27.7c0.2-0.2,0.4-0.4,0.7-0.5l50.5,27.7c0.6,0.3,1.1,1,1.2,1.7L149.7,241.9z"/>
							<path id="Path_1821_1_" class="st5" d="M121.3,214.1c-0.8-2.6-2.6-4.8-5-6.1c-2.3-1.3-3.9-0.6-3.5,1.4c0.8,2.6,2.6,4.8,5,6.1
								C120.1,216.8,121.7,216.2,121.3,214.1z"/>
						</g>
						<g id="freepik--arm--inject-84-3_1_" transform="translate(56.174 52.713)">
							<path id="Path_1822_1_" class="st39" d="M160.8,222.8c-2.8-12.1-7.9-25.8-11.1-34.8c-1.7-4.7-4.4-6.8-11.9-8.7
								c-5.3,7.8-3.8,19.9-1.9,24.4l7.2,20.4c0,0-6.6,6.1-12.8,10.7c-5.3,3.9-8,6.1-14.1,6.1c-7.2,0-8.2,0.2-11.5,1.7
								c-1.7,0.8-6.2,3.3-7.9,4.2c-1.3,0.7-3.7,3.3-6,4.9c-2.2,1.6,0.5,2.4,2.2,1.9c1.9-0.6,3.7-1.5,5.3-2.5
								c1.3-0.6,2.7-1.2,4.2-1.6c-0.4,1.6-0.7,3.2-0.9,4.9c0,0.9-0.2,2,0.6,2.6c0.6,0.3,1.2,0.6,1.9,0.8c0,0.3,0.1,0.6,0.4,0.9
								c0.5,0.3,1,0.5,1.6,0.4c0.3,0,0.6-0.1,0.9-0.1c0.1,0.6,0.5,1.1,1,1.3c1.2,0.4,2.6,0.4,3.8,0.1c0.2-0.1,1.6-0.8,2-1.1
								c0.5-0.2,1-0.5,1.4-0.9c0.3-0.5-0.6-1.6-1.3-1.6c-0.8-0.1-1.6,0-2.4,0.2c0.3-0.7,0.6-1.4,0.7-2.1c0.7-1.1,5.5,0,9.7-0.8
								c3.1-0.6,5.5-3.6,6.9-4.3c9.2-4.2,16.2-7.2,25.5-12.8C162.7,231.7,162.3,229.3,160.8,222.8z"/>
							<path id="Path_1823_1_" class="st40" d="M101.6,249.7c0.5-1.2,1.2-2.7,2.2-3c-0.6,0.8-1,1.8-1.3,2.7L101.6,249.7z"/>
							<path id="Path_1824_1_" class="st40" d="M104,257.7c-0.2-0.9-0.2-1.8-0.1-2.6c0.1-0.9,0.2-1.8,0.3-2.6
								c0.1-0.9,0.4-1.7,0.7-2.6c0.3-0.9,0.8-1.6,1.6-2.2c-0.3,0.3-0.6,0.7-0.7,1.1c-0.2,0.4-0.4,0.8-0.5,1.2
								c-0.2,0.8-0.4,1.7-0.6,2.5l-0.4,2.6C104.1,256,104,256.9,104,257.7L104,257.7z"/>
							<path id="Path_1825_1_" class="st40" d="M106.9,258.9c-0.1-0.9-0.1-1.7,0-2.6c0.1-0.9,0.2-1.7,0.4-2.6
								c0.2-0.9,0.4-1.7,0.7-2.5c0.2-0.8,0.7-1.6,1.3-2.2c-0.3,0.3-0.5,0.7-0.6,1.1c-0.1,0.4-0.3,0.8-0.4,1.2
								c-0.2,0.8-0.4,1.6-0.6,2.5C107.4,255.5,107.1,257.2,106.9,258.9z"/>
							<path id="Path_1826_1_" class="st40" d="M113.8,256.7c-0.4,0-0.7,0.1-1.1,0.2c-0.3,0.1-0.6,0.3-1,0.4l0.2-0.3
								c0,0.2,0,0.3,0,0.5c-0.1,0.2-0.1,0.3-0.3,0.4c-0.2,0.2-0.4,0.4-0.7,0.5c0.2-0.2,0.3-0.4,0.4-0.7c0-0.1,0.1-0.2,0.1-0.3
								c0-0.1,0-0.2,0-0.3v-0.2l0.2-0.1c0.3-0.1,0.7-0.2,1-0.2C113,256.5,113.4,256.5,113.8,256.7L113.8,256.7z"/>
							<path id="Path_1827_1_" class="st0" d="M136.8,178.8c2.8,0.5,8.5,1,11.5,5.4s4.7,10.1,7.1,17.5s6.2,20.1,7,24.1
								s0,6.3-3.6,8.7s-14.1,8.6-19.4,10.3c-0.5-2.9-1.7-5.6-3.6-7.9c-1.1-1.4-2.5-2.6-4-3.5l10.8-9.5c0,0-7-19.9-8.2-22.9
								S131.7,186.5,136.8,178.8z"/>
							<path id="Path_1828_1_" class="st1" d="M133.3,232.3l-5.1,4c1.9,1.3,3.6,2.9,4.8,4.9c1.1,1.7,1.9,3.6,2.2,5.6l6.5-2.7
								C141.7,244,140.9,234.1,133.3,232.3z"/>
						</g>
						<g id="freepik--Tie--inject-84_1_" transform="translate(65.313 43.776)">
							<path id="Path_1829_1_" class="st43" d="M99.3,198.1c1.5-2.2,2.9-4.6,4-7.1c1.1-2.2,4.7-2.7,8.6-5c1.9-1.2,3.6-2.8,4.7-4.7
								l-0.1-2.5c1.3,0,1.4,1.1,1.9,2.4s2.6,4.5,4.1,5c-1.7,4.7-7.4,10.3-13.6,12.8c-2.2-4.9-4.5-6.4-5.2-5.4
								C102.5,195.3,101,196.9,99.3,198.1z"/>
							<path id="Path_1830_1_" class="st43" d="M99.3,198.1c-0.8-2-0.6-5.3-1.2-8.4c0.1-1.7,0.4-3.4,1-5l-0.1-3.1l-1.8,0.1
								c-0.4,0.8-1,1.4-1.6,2c-2.3,2-4.1,8.9-3.3,11.7c0.7-2.5,2.7-4.4,3.8-3.9S97.7,196.5,99.3,198.1z"/>
							<path id="Path_1831_1_" class="st5" d="M100.6,203c0,6.3,0.7,22.7,1.3,27.3c0.4,3.6-4.7,11.8-6.3,12
								c-0.9,0.1-5.4-7.1-5.6-12.3c-0.2-4.7,3.8-20.6,6.8-27.8c0.5-1,1.7-1.5,2.7-1c0,0,0,0,0,0C100.2,201.5,100.6,202.2,100.6,203z
								"/>
							<path id="Path_1832_1_" class="st5" d="M97.1,196.2c-0.7-1.4-1-3-0.8-4.5c-0.6-0.7-2,0-3,1.4c0,0,0.4,4.4,3,6.4L97.1,196.2z"
								/>
							<path id="Path_1833_1_" class="st34" d="M96.3,199.5l0.8-3.3c-0.1-0.1-0.2-0.2-0.2-0.4l0,0c-0.9,0.6-1.5,1.7-1.4,2.8
								C95.8,198.9,96,199.2,96.3,199.5z"/>
							<path id="Path_1834_1_" class="st34" d="M96.3,191.8c-0.6-0.7-2,0-3,1.4c0.1,0.6,0.2,1.1,0.3,1.7c0.4-1.2,1.5-2.5,2.2-2.3
								c0.2,0,0.4,0.1,0.5,0.3C96.3,192.5,96.3,192.1,96.3,191.8z"/>
							<path id="Path_1835_1_" class="st5" d="M101.6,197.3c1.4-1,2.6-2.2,3.5-3.7c1.2,0.9,2.1,2.1,2.8,3.5
								c-1.7,1.3-3.6,2.2-5.7,2.7L101.6,197.3z"/>
							<path id="Path_1836_1_" class="st34" d="M105.1,193.7l-0.5,0.6c1.1,1,1.9,2.1,2.5,3.4c0.3-0.2,0.5-0.4,0.8-0.6
								C107.2,195.8,106.3,194.6,105.1,193.7z"/>
							<path id="Path_1837_1_" class="st5" d="M99.3,196.1c-2.5-0.5-2.8,0.8-3.3,2.1c-0.3,1.4-0.1,2.8,0.7,4.1
								c1.3-0.4,2.8-0.1,3.9,0.8c1.1-1,1.7-2.4,1.8-3.8C102.2,197.6,101,196.3,99.3,196.1z"/>
							<path id="Path_1838_1_" class="st34" d="M100.6,203c1.1-1,1.7-2.3,1.8-3.8c-0.1-1-0.7-1.9-1.6-2.5c0.8,1.2,0.9,2.7,0.3,3.9
								c-0.7,0.9-1,0.7-2.1,0.6s-2.4,0.5-2.4,0.9C98,201.8,99.5,202.1,100.6,203L100.6,203z"/>
						</g>
					</g>
				</g>
			</g>
		</g>
	</g>
</g>
</svg>
