<?xml version="1.0" encoding="utf-8"?>
<!-- Generator: Adobe Illustrator 22.1.0, SVG Export Plug-In . SVG Version: 6.00 Build 0)  -->
<svg version="1.1" id="Layer_1" xmlns="http://www.w3.org/2000/svg" xmlns:xlink="http://www.w3.org/1999/xlink" x="0px" y="0px"
	 viewBox="0 0 1200 800" style="enable-background:new 0 0 1200 800;" xml:space="preserve">
<style type="text/css">
	.st0{fill:#EBEBEB;}
	.st1{fill:#E0E0E0;}
	.st2{fill:#F5F5F5;}
	.st3{fill:#FAFAFA;}
	.st4{fill:#263238;}
	.st5{fill:#22A5EE;}
	.st6{fill:#FFFFFF;}
	.st7{fill:#455A64;}
	.st8{fill:#999999;}
	.st9{fill:#FFBE9D;}
	.st10{fill:#EB996E;}
	.st11{opacity:0.3;}
	.st12{fill:#AA6550;}
	.st13{opacity:0.6;}
	.st14{fill:#995037;}
	.st15{opacity:0.2;}
	.st16{opacity:0.5;fill:#EBEBEB;enable-background:new    ;}
	.st17{opacity:0.1;enable-background:new    ;}
	.st18{opacity:0.5;enable-background:new    ;}
	.st19{fill:#37474F;}
	.st20{opacity:0.5;}
	.st21{fill:#F7A9A0;}
	.st22{opacity:0.25;}
	.st23{opacity:0.5;fill:#22A5EE;enable-background:new    ;}
	.st24{opacity:0.2;enable-background:new    ;}
	.st25{opacity:0.4;enable-background:new    ;}
	.st26{opacity:0.3;fill:#FFFFFF;enable-background:new    ;}
	.st27{opacity:0.45;enable-background:new    ;}
	.st28{opacity:0.3;enable-background:new    ;}
	.st29{opacity:0.5;fill:#F5F5F5;enable-background:new    ;}
	.st30{opacity:0.25;fill:#FFFFFF;enable-background:new    ;}
	.st31{opacity:0.5;fill:#FFFFFF;enable-background:new    ;}
	.st32{opacity:0.1;fill:#FFFFFF;enable-background:new    ;}
	.st33{opacity:0.55;fill:#FFFFFF;enable-background:new    ;}
	.st34{opacity:0.15;enable-background:new    ;}
	.st35{opacity:0.6;fill:#FFFFFF;enable-background:new    ;}
	.st36{opacity:0.75;fill:#FFFFFF;enable-background:new    ;}
	.st37{opacity:0.55;enable-background:new    ;}
	.st38{opacity:0.4;fill:#FFFFFF;enable-background:new    ;}
	.st39{fill:#FFBDA7;}
	.st40{fill:#F0997A;}
	.st41{fill:#B16668;}
	.st42{fill:#FFA8A7;}
	.st43{fill:#E6E6E6;}
	.st44{opacity:0.7;}
	.st45{fill:#F0F0F0;}
	.st46{opacity:0.8;fill:#FFFFFF;enable-background:new    ;}
	.st47{opacity:5.000000e-02;enable-background:new    ;}
	.st48{opacity:0.2;fill:#FFFFFF;enable-background:new    ;}
	.st49{fill:none;stroke:#22A5EE;stroke-miterlimit:10;}
	.st50{opacity:0.7;fill:#FFFFFF;enable-background:new    ;}
	.st51{fill:#EEC1BB;}
	.st52{clip-path:url(#SVGID_2_);}
	.st53{fill:#D4827D;}
	.st54{fill:none;stroke:#263238;stroke-width:0.69;stroke-linecap:round;stroke-linejoin:round;}
	.st55{fill:#DE5753;}
</style>
<g id="Group_3673_1_" transform="translate(12862.098 14538.884)">
	<path id="Path_1076_1_" class="st0" d="M-12277.6-14011c4-1.9,8.5-2.4,12.8-1.5c2.3,0.2,4.6,1.2,6.3,2.8c1.5,1.7,1.9,4.8,0,6.3
		c-1.2,0.8-2.6,1.1-4,1c-3.4,0-7.1-0.6-9.8,1.4c-1.5,1.2-2.6,3-4.4,3.6c-1.9,0.4-3.8-0.4-4.8-2.1c-0.9-1.7-1.1-3.7-0.5-5.5
		C-12281.6-14007.6-12280-14009.8-12277.6-14011z"/>
	<path id="Path_1077_1_" class="st0" d="M-12286.5-14028.1c2.4,3.4,7,2.3,9.1,0.2c2.1-2.1,3-5.1,3.9-7.9c1.9-6.5,3.8-13.4,2.4-20.1
		c-0.3-2-1.2-3.9-2.6-5.4c-1.4-1.6-3.5-2.3-5.5-1.9c-2.3,0.6-3.8,2.9-4.8,5.1c-3.1,6.4-4.7,13.4-4.7,20.5
		C-12289-14034.3-12288.2-14031-12286.5-14028.1"/>
	<path id="Path_1078_1_" class="st0" d="M-12293-14023.3c2.5-3.2,3.2-7.5,1.9-11.4c-1.3-3.8-3.6-7.2-6.7-9.8
		c-3.5-3.1-7.6-5.5-12.1-7.1c-1.7-0.7-3.6-1-5.4-0.9c-1.9,0.1-3.6,1.2-4.6,2.8c-1.3,2.4,0,5.3,1.3,7.7c2.3,4.2,5,8.3,7.9,12.1
		c2.4,3,5.1,6.1,8.7,7.4c3.6,1.4,7.4,1.2,9.3-1.3"/>
	<path id="Path_1079_1_" class="st1" d="M-12286.7-13977c0.1-0.5,0.2-1,0.2-1.5c0.1-1.1,0.3-2.5,0.4-4.2c0.2-2.1,0.5-4.1,0.9-6.2
		c0.6-2.5,1.3-4.9,2.2-7.3c0.9-2.4,2.2-4.6,3.7-6.6c1.3-1.6,2.9-3,4.7-3.9c1.2-0.6,2.6-1,4-1.2c0.5,0,1-0.1,1.5-0.2
		c-0.5-0.1-1-0.1-1.5,0c-1.4,0.1-2.8,0.5-4.1,1.1c-1.9,0.9-3.6,2.3-5,3.9c-1.6,2-2.9,4.3-3.8,6.7c-1,2.4-1.7,4.9-2.2,7.4
		c-0.4,2.1-0.7,4.1-0.8,6.2c-0.1,1.8-0.2,3.2-0.2,4.2C-12286.8-13978-12286.7-13977.5-12286.7-13977z"/>
	<path id="Path_1080_1_" class="st1" d="M-12286.4-13980.3c0-0.2,0-0.5,0-0.7v-2c0-1.8,0-4.3,0.1-7.5c0.2-6.3,0.7-13.2,1.7-22.8
		c1-9.1,2.3-19.6,3.7-26.4c0.3-1.5,0.6-3,0.9-4.2c0.3-1.1,0.5-2.3,0.7-3.1c0.2-0.9,0.3-1.5,0.5-2c0.1-0.2,0.1-0.5,0.1-0.7
		c-0.1,0.2-0.2,0.4-0.2,0.7l-0.6,1.9c-0.2,0.8-0.5,1.9-0.9,3.1c-0.3,1.2-0.7,2.6-1,4.2c-1.7,8.1-3,16.3-3.9,24.5
		c-0.9,8.2-1.4,16.5-1.5,24.8c0,3.2,0,5.7,0.1,7.5c0,0.8,0.1,1.5,0.1,2.1C-12286.4-13980.7-12286.4-13980.5-12286.4-13980.3z"/>
	<path id="Path_1081_1_" class="st1" d="M-12286.4-13997.2c0.1-0.7,0.1-1.4,0-2.1c-0.1-1.9-0.3-3.9-0.7-5.8
		c-0.5-2.8-1.1-5.7-1.9-8.4c-0.9-3.4-2.1-6.7-3.5-10c-2.5-6-6-11.4-10.4-16.1c-0.8-0.8-1.6-1.6-2.4-2.3l-1-0.9l-0.9-0.7
		c-0.6-0.4-1.2-0.8-1.8-1.2c2.1,1.6,4,3.4,5.9,5.3c4.3,4.7,7.7,10.2,10.1,16.1c2.5,5.9,4.4,12,5.5,18.2c0.5,2.4,0.7,4.4,0.9,5.7
		C-12286.6-13998.6-12286.5-13997.9-12286.4-13997.2z"/>
	<path id="Path_1082_1_" class="st1" d="M-12302.7-13967.3l1.7,23.2h29.9l1.7-23.2H-12302.7z"/>
	<rect id="Rectangle_1829_1_" x="-12305.6" y="-13976.5" class="st1" width="39.7" height="9.2"/>
	<path id="Path_1083_1_" class="st0" d="M-12305.6-13945v2.5h39v-2.5H-12305.6z"/>
	<path id="Path_1084_1_" class="st1" d="M-12301.9-13938l-1.8-4.5h35.8l-2.1,4.5H-12301.9z"/>
	<path id="Path_1085_1_" class="st2" d="M-12270-13959.7l-0.1,0.2l-0.4,0.6l-1.7,2.2v0.1l-0.1-0.1l-4.3-5.9h0.2l-4.2,5.9l-0.1,0.2
		l-0.1-0.2l-5-5.9h0.3l-0.3,0.3l-4.5,5.6l-0.2,0.2l-0.1-0.2l-4.2-6h0.2l-5.2,6l-0.1,0.1v-0.1c-0.7-1.1-1.2-2.1-1.6-2.7l-0.4-0.7
		c0-0.1-0.1-0.2-0.1-0.3l0.2,0.2l0.5,0.7l1.7,2.7h-0.2l5.1-6l0.1-0.2l0.1,0.2l4.2,5.9h-0.2l4.5-5.6l0.3-0.4l0.1-0.2l0.2,0.2l5,6
		h-0.3l4.2-6l0.1-0.2l0.1,0.2c1.7,2.4,3,4.5,4.2,6h-0.2l1.9-2.2l0.5-0.5C-12270.1-13959.6-12270.1-13959.7-12270-13959.7
		L-12270-13959.7z"/>
	<path id="Path_1086_1_" class="st2" d="M-12269.1-13967.5c0,0.1-7.5,0.2-16.7,0.2s-16.7,0-16.7-0.2c0-0.2,7.5-0.2,16.7-0.2
		S-12269.1-13967.6-12269.1-13967.5z"/>
	<path id="Path_1087_1_" class="st2" d="M-12267.6-13942.2c0,0.1-8.1,0.2-18.2,0.2c-10,0-18.2-0.1-18.2-0.2c0-0.1,8.1-0.2,18.2-0.2
		C-12275.6-13942.4-12267.6-13942.3-12267.6-13942.2z"/>
	<rect id="Rectangle_1830_1_" x="-11887.7" y="-14334.7" class="st3" width="119.9" height="107.2"/>
	<path id="Path_1088_1_" class="st1" d="M-11767.8-14227.4v-7.7c0-5,0-12.4-0.1-21.8c0-18.8,0-45.5-0.1-77.7l0.3,0.3h-119.9l0.3-0.3
		v107.2l-0.3-0.3l86.7,0.1h24.6l-24.3,0.1l-87,0.3h-0.3v-107.9h120.4v0.4c0,32.3-0.1,59.1-0.2,77.9v27.4
		C-11767.5-14228.8-11767.6-14228.1-11767.8-14227.4L-11767.8-14227.4z"/>
	<path id="Path_1089_1_" class="st1" d="M-11841.7-14315.6c0,0.2-6.3,0.3-14.1,0.3s-14.1-0.2-14.1-0.3s6.3-0.3,14.1-0.3
		S-11841.7-14315.8-11841.7-14315.6z"/>
	<path id="Path_1090_1_" class="st1" d="M-11790.9-14307.6c0,0.2-17.3,0.3-38.7,0.3c-21.4,0-38.7-0.2-38.7-0.3
		c0-0.2,17.3-0.3,38.7-0.3S-11790.9-14307.8-11790.9-14307.6z"/>
	<rect id="Rectangle_1831_1_" x="-11869.7" y="-14293.9" class="st1" width="5" height="5"/>
	<rect id="Rectangle_1832_1_" x="-11857.3" y="-14293.9" class="st1" width="5" height="5"/>
	<rect id="Rectangle_1833_1_" x="-11844.6" y="-14294.2" class="st1" width="5" height="5"/>
	<rect id="Rectangle_1834_1_" x="-11832.4" y="-14293.9" class="st1" width="5" height="5"/>
	<rect id="Rectangle_1835_1_" x="-11820" y="-14293.9" class="st1" width="5" height="5"/>
	<rect id="Rectangle_1836_1_" x="-11807.5" y="-14293.9" class="st1" width="5" height="5"/>
	<rect id="Rectangle_1837_1_" x="-11795.1" y="-14293.9" class="st0" width="5" height="5"/>
	<rect id="Rectangle_1838_1_" x="-11869.7" y="-14283.2" class="st0" width="5" height="5"/>
	<rect id="Rectangle_1839_1_" x="-11857.3" y="-14283.2" class="st1" width="5" height="5"/>
	<rect id="Rectangle_1840_1_" x="-11844.8" y="-14283.2" class="st0" width="5" height="5"/>
	<rect id="Rectangle_1841_1_" x="-11832.4" y="-14283.2" class="st1" width="5" height="5"/>
	<rect id="Rectangle_1842_1_" x="-11820" y="-14283.2" class="st1" width="5" height="5"/>
	<rect id="Rectangle_1843_1_" x="-11807.3" y="-14283.4" class="st1" width="5" height="5"/>
	<rect id="Rectangle_1844_1_" x="-11795.1" y="-14283.2" class="st1" width="5" height="5"/>
	<rect id="Rectangle_1845_1_" x="-11869.7" y="-14272.5" class="st1" width="5" height="5"/>
	<rect id="Rectangle_1846_1_" x="-11857" y="-14272.7" class="st1" width="5" height="5"/>
	<rect id="Rectangle_1847_1_" x="-11844.8" y="-14272.5" class="st1" width="5" height="5"/>
	<rect id="Rectangle_1848_1_" x="-11832.4" y="-14272.5" class="st0" width="5" height="5"/>
	<rect id="Rectangle_1849_1_" x="-11820" y="-14272.5" class="st1" width="5" height="5"/>
	<rect id="Rectangle_1850_1_" x="-11807.5" y="-14272.5" class="st1" width="5" height="5"/>
	<rect id="Rectangle_1851_1_" x="-11795.1" y="-14272.5" class="st1" width="5" height="5"/>
	<rect id="Rectangle_1852_1_" x="-11869.7" y="-14261.7" class="st1" width="5" height="5"/>
	<rect id="Rectangle_1853_1_" x="-11857.3" y="-14261.7" class="st1" width="5" height="5"/>
	<rect id="Rectangle_1854_1_" x="-11844.8" y="-14261.7" class="st1" width="5" height="5"/>
	<rect id="Rectangle_1855_1_" x="-11832.2" y="-14262" class="st1" width="5" height="5"/>
	<rect id="Rectangle_1856_1_" x="-11820" y="-14261.7" class="st1" width="5" height="5"/>
	<rect id="Rectangle_1857_1_" x="-11807.5" y="-14261.7" class="st0" width="5" height="5"/>
	<rect id="Rectangle_1858_1_" x="-11795.1" y="-14261.7" class="st1" width="5" height="5"/>
	<rect id="Rectangle_1859_1_" x="-11869.7" y="-14251" class="st1" width="5" height="5"/>
	<rect id="Rectangle_1860_1_" x="-11857.3" y="-14251" class="st0" width="5" height="5"/>
	<rect id="Rectangle_1861_1_" x="-11844.8" y="-14251" class="st1" width="5" height="5"/>
	<rect id="Rectangle_1862_1_" x="-11832.4" y="-14251" class="st1" width="5" height="5"/>
	<rect id="Rectangle_1863_1_" x="-11820" y="-14251" class="st1" width="5" height="5"/>
	<rect id="Rectangle_1864_1_" x="-11807.3" y="-14251.2" class="st1" width="5" height="5"/>
	<rect id="Rectangle_1865_1_" x="-11795.1" y="-14251" class="st1" width="5" height="5"/>
	<g id="freepik--Panel--inject-10_1_" transform="translate(-12677.835 -14524.203)">
		<path id="Path_1091_1_" class="st1" d="M742.8,199.2c0,0,14.2,0.2,8.1,28.3s-5.3,33.4-5.3,44.5c-0.2,7.4,3.9,14.3,10.5,17.7h-19.3
			l-14.2-65.6v-24.9L742.8,199.2z"/>
		<path id="Path_1092_1_" class="st1" d="M747,420.4H552.6l1.7-190.1l183.1-9.6L747,420.4z"/>
		<path id="Path_1093_1_" class="st0" d="M740.3,415.5H546l1.7-190.1l188.7-3.7L740.3,415.5z"/>
		<path id="Path_1094_1_" class="st3" d="M736.3,410.2H542.3V220.1l194.1-0.5L736.3,410.2z"/>
		<path id="Path_1095_1_" class="st4" d="M736.3,410.2c0-1.8,0-76.3-0.1-190.6l0.2,0.2l-193.8,0.5h-0.3l0.2-0.2v190.1l-0.2-0.2
			L736.3,410.2l-193.9,0.2h-0.2V219.8h0.5l193.8-0.4h0.2v0.1C736.4,333.9,736.3,408.4,736.3,410.2z"/>
		<path id="Path_1096_1_" class="st2" d="M736.4,219.1c-10-11.7,1.6-20.3,5.6-20.5l-184.7-0.1c-8.6,0-15.6,6.9-15.6,15.5
			c0,0.9,0.1,1.8,0.2,2.7c0.2,0.9,0.4,1.9,0.7,2.8"/>
		<path id="Path_1097_1_" class="st4" d="M741.3,289.7h14.8v0.3c-1.7-0.5-3.2-1.4-4.5-2.6c-1.4-1.4-2.5-3-3.3-4.8
			c-0.9-2-1.5-4-2-6.1c-0.2-1.1-0.5-2.2-0.7-3.3c-0.1-0.6-0.2-1.2-0.3-1.7c-0.1-0.6-0.1-1.2-0.1-1.8c-0.1-2.5,0-5,0.2-7.4
			c0.2-2.5,0.5-5.1,0.8-7.8c0.6-5.3,1.4-10.8,2.4-16.4c0.4-2.4,0.9-4.8,1.3-7.1s0.7-4.6,1-6.9s0.5-4.6,0.8-6.7
			c0.1-1.1,0.3-2.2,0.3-3.3c0-1.1,0-2.1-0.2-3.2c-0.3-2.1-0.9-4-1.8-5.9c-0.8-1.7-2-3.3-3.6-4.4c-1.5-1-3.3-1.4-5-1.1
			c-1.7,0.2-3.2,0.8-4.6,1.9c-1.2,1-2.1,2.1-2.8,3.5c-0.6,1.2-1.1,2.5-1.4,3.8c-0.4,2.1-0.2,4.3,0.7,6.3c0.6,1.2,1.2,2.4,2,3.6
			l0.6,0.9c0.1,0.1,0.1,0.2,0.2,0.3l-0.2-0.3l-0.7-0.9c-0.8-1.1-1.6-2.3-2.1-3.5c-1-2-1.3-4.2-0.8-6.4c0.3-1.3,0.7-2.6,1.4-3.9
			c0.7-1.4,1.7-2.6,2.9-3.6c1.3-1.1,2.9-1.7,4.6-2c1.9-0.3,3.8,0.1,5.3,1.2c1.6,1.2,2.9,2.8,3.7,4.6c1.4,2.9,2,6,2,9.2
			c0,1.1-0.1,2.2-0.3,3.3c-0.2,2.2-0.5,4.5-0.8,6.7s-0.6,4.6-1,7s-0.9,4.7-1.3,7.1c-0.9,5.6-1.7,11.1-2.4,16.4
			c-0.3,2.6-0.6,5.2-0.8,7.7c-0.2,2.4-0.3,4.9-0.3,7.3c0,0.6,0.1,1.2,0.1,1.7c0,0.6,0.1,1.2,0.3,1.7c0.2,1.1,0.4,2.2,0.7,3.3
			c0.4,2.1,1.1,4.1,1.9,6c0.8,1.7,1.9,3.3,3.2,4.6c1.2,1.1,2.7,2,4.3,2.5l0.9,0.3h-0.9l-10.9-0.1h-3.5L741.3,289.7z"/>
		<path id="Path_1098_1_" class="st4" d="M621.6,204.4c0.1,0-0.5,0.8-1,2.1c-0.3,0.8-0.5,1.6-0.7,2.4c-0.2,1-0.2,2-0.1,3
			c0.1,1,0.3,2.1,0.6,3c0.3,0.8,0.6,1.6,1,2.3c0.8,1.2,1.4,1.9,1.4,2s-0.2-0.1-0.5-0.4c-0.4-0.4-0.8-0.9-1.1-1.4
			c-0.5-0.7-0.9-1.5-1.2-2.4c-0.7-2-0.9-4.2-0.5-6.4c0.2-0.9,0.4-1.7,0.8-2.5c0.3-0.5,0.6-1.1,0.9-1.5
			C621.5,204.6,621.6,204.4,621.6,204.4z"/>
		<path id="Path_1099_1_" class="st4" d="M617.1,197.9c-0.9,0.9-1.7,1.9-2.4,3c-3.5,5.5-2.2,12.7,3,16.6c1.1,0.7,2.2,1.4,3.3,1.9
			c-0.3-0.1-0.7-0.2-1-0.3c-0.9-0.3-1.8-0.8-2.6-1.4c-5.6-3.8-7-11.4-3.2-17l0,0c0.5-0.8,1.1-1.5,1.9-2.2
			C616.4,198.3,616.7,198.1,617.1,197.9z"/>
		<path id="Path_1100_1_" class="st4" d="M721.4,346.3h-9.2l-25.3,0.1l-83.2,0.1h-36.1v-0.2c0-23.7,0-44.2,0.1-58.7v-17l0,0v17
			c0,14.5,0,34.9,0.1,58.7l-0.2-0.2h35.9l83.2,0.1l25.2,0.1h8.6L721.4,346.3z"/>
		<rect id="Rectangle_1866_1_" x="580.4" y="326.1" class="st5" width="15.5" height="15.5"/>
		<rect id="Rectangle_1867_1_" x="603.1" y="315" class="st5" width="15.5" height="26.6"/>
		<rect id="Rectangle_1868_1_" x="626" y="302.4" class="st5" width="15.5" height="39.2"/>
		<rect id="Rectangle_1869_1_" x="648.1" y="288.4" class="st5" width="15.5" height="53.2"/>
		<rect id="Rectangle_1870_1_" x="670.7" y="270.5" class="st5" width="15.5" height="71.1"/>
		<rect id="Rectangle_1871_1_" x="693.2" y="256.8" class="st5" width="15.5" height="84.1"/>
		<path id="Path_1101_1_" class="st4" d="M580.4,310.2l0.2-0.2l0.6-0.4l2.4-1.5l8.9-5.9l30.8-20.1l0.3-0.2v7.4l-0.4-0.2l12.2-8.1
			l42.8-28.6l13-8.6l3.5-2.3l0.9-0.6l0.3-0.2c-0.1,0.1-0.2,0.2-0.3,0.2l-0.9,0.6l-3.5,2.4l-12.9,8.8l-42.7,28.7l-12.2,8.1l-0.4,0.2
			v-7.4l0.3,0.2l-30.9,20l-9,5.8l-2.4,1.5l-0.6,0.4L580.4,310.2z"/>
		<path id="Path_1102_1_" class="st4" d="M695.9,247.1c-0.1-0.6-0.2-1.3-0.2-1.9c0-1.2,0-2.8,0-4.6l0.2,0.2h-5.7
			c-0.7,0-1.4,0-2.1-0.2c0.7-0.1,1.4-0.2,2.1-0.2h5.9v0.2c0,1.9,0,3.5-0.1,4.6C696.2,246,696.1,246.6,695.9,247.1L695.9,247.1z"/>
		<path id="Path_1103_1_" class="st4" d="M614,358.8c0,0.1-4.8,0.2-10.6,0.2s-10.6-0.1-10.6-0.2s4.8-0.2,10.6-0.2
			S614,358.7,614,358.8z"/>
		<path id="Path_1104_1_" class="st4" d="M603,366.1c-0.3-1.7-0.3-3.4,0-5C603.3,362.8,603.3,364.5,603,366.1z"/>
		<path id="Path_1105_1_" class="st4" d="M629.2,368.7c0,0.1-12.9,0.2-28.8,0.2s-28.8-0.1-28.8-0.2s12.9-0.2,28.8-0.2
			S629.2,368.5,629.2,368.7z"/>
		<path id="Path_1106_1_" class="st4" d="M572.1,375.8c-0.3-2.3-0.3-4.6,0-6.9C572.5,371.1,572.5,373.5,572.1,375.8z"/>
		<path id="Path_1107_1_" class="st4" d="M592.6,375c-0.3-2-0.3-4,0-6C592.9,371,592.9,373,592.6,375z"/>
		<path id="Path_1108_1_" class="st4" d="M613.6,375.4c-0.3-2.2-0.3-4.4,0-6.5C613.9,371,613.9,373.2,613.6,375.4z"/>
		<path id="Path_1109_1_" class="st4" d="M629.6,375.4c-0.3-2.2-0.3-4.5,0-6.7C629.9,370.9,629.9,373.1,629.6,375.4z"/>
		<path id="Path_1110_1_" class="st4" d="M579.3,377.7c-4.6,0.3-9.3,0.3-13.9,0C570,377.4,574.7,377.4,579.3,377.7z"/>
		<path id="Path_1111_1_" class="st4" d="M597,377.7c-3.5,0.3-7.1,0.3-10.6,0C589.9,377.4,593.5,377.4,597,377.7z"/>
		<path id="Path_1112_1_" class="st4" d="M619.6,378.3c-3.8,0.3-7.6,0.3-11.4,0C612,378,615.8,378,619.6,378.3z"/>
		<path id="Path_1113_1_" class="st4" d="M637.9,377.3c-4,0.3-8.1,0.3-12.2,0C629.8,377,633.9,377,637.9,377.3z"/>
		<path id="Path_1114_1_" class="st4" d="M572.3,384.4c-0.3-1.3-0.3-2.7,0-4C572.7,381.7,572.7,383.1,572.3,384.4z"/>
		<path id="Path_1115_1_" class="st4" d="M585.6,384.4c0,0.1-5.6,0.2-12.5,0.2s-12.5-0.1-12.5-0.2s5.6-0.2,12.5-0.2
			S585.6,384.3,585.6,384.4z"/>
		<path id="Path_1116_1_" class="st4" d="M585.6,390.2c-0.3-1.9-0.3-3.9,0-5.8C585.9,386.4,585.9,388.3,585.6,390.2z"/>
		<path id="Path_1117_1_" class="st4" d="M560.5,390.6c-0.3-2-0.3-4.1,0-6.2C560.8,386.5,560.8,388.6,560.5,390.6z"/>
		<path id="Path_1118_1_" class="st4" d="M614.1,384.4c-0.3-1.3-0.3-2.7,0-4C614.5,381.7,614.5,383.1,614.1,384.4z"/>
		<path id="Path_1119_1_" class="st4" d="M644.6,384.4c0,0.1-9.5,0.2-21.2,0.2s-21.2-0.1-21.2-0.2s9.5-0.2,21.2-0.2
			S644.6,384.3,644.6,384.4z"/>
		<path id="Path_1120_1_" class="st4" d="M627.3,390.2c-0.3-1.9-0.3-3.9,0-5.8C627.7,386.4,627.7,388.3,627.3,390.2z"/>
		<path id="Path_1121_1_" class="st4" d="M645.5,390.2c-0.3-1.9-0.3-3.9,0-5.8C645.8,386.4,645.8,388.3,645.5,390.2z"/>
		<path id="Path_1122_1_" class="st4" d="M602.3,390.6c-0.3-2-0.3-4.1,0-6.2C602.6,386.5,602.6,388.6,602.3,390.6z"/>
		<path id="Path_1123_1_" class="st4" d="M565.4,394.2c-3.3,0.3-6.6,0.3-9.9,0C558.8,393.9,562.1,393.9,565.4,394.2z"/>
		<path id="Path_1124_1_" class="st4" d="M590,393.5c-3.5,0.3-7.1,0.3-10.6,0C582.9,393.2,586.4,393.2,590,393.5z"/>
		<path id="Path_1125_1_" class="st4" d="M607.7,393.5c-3.1,0.3-6.3,0.3-9.4,0C601.4,393.2,604.6,393.2,607.7,393.5z"/>
		<path id="Path_1126_1_" class="st4" d="M631.6,393.5c-3.4,0.3-6.8,0.3-10.2,0C624.8,393.2,628.2,393.2,631.6,393.5z"/>
		<path id="Path_1127_1_" class="st4" d="M650.8,392.8c-3.4,0.3-6.9,0.3-10.4,0C643.8,392.4,647.3,392.4,650.8,392.8z"/>
		<path id="Path_1128_1_" class="st4" d="M721.3,396.6h-65.5v-40.5h65.5V396.6z M655.9,396.6h65.4v-40.5h-65.4L655.9,396.6z"/>
		<path id="Path_1129_1_" class="st5" d="M705.5,385.4c-4.6-1.7-9.8,3-14.2,1.1c-2.6-1.1-3.8-4.1-5-6.6s-3.5-5.2-6.3-4.9
			s-5.1,3.6-7.9,2.8c-1.7-0.5-2.6-2.4-3-4.1c-0.2-1.8-0.9-3.5-2.1-4.9c-1.3-1.2-4-0.9-4.3,0.9v21.5H714
			C711.3,389,708.4,387.1,705.5,385.4L705.5,385.4z"/>
		<path id="Path_1130_1_" class="st1" d="M715.3,391.1c0,0-12.4,0.1-27.7,0.1s-27.7,0-27.7-0.1s12.4-0.1,27.7-0.1
			S715.3,391,715.3,391.1z"/>
		<path id="Path_1131_1_" class="st4" d="M715.3,381.7c0,0-12.4,0.1-27.7,0.1s-27.7,0-27.7-0.1s12.4,0,27.7,0
			S715.3,381.6,715.3,381.7z"/>
		<path id="Path_1132_1_" class="st4" d="M715.3,372.4c0,0-12.4,0.1-27.7,0.1s-27.7,0-27.7-0.1s12.4-0.1,27.7-0.1
			S715.3,372.3,715.3,372.4z"/>
		<path id="Path_1133_1_" class="st4" d="M715.3,363.4c0,0-12.4,0.1-27.7,0.1s-27.7,0-27.7-0.1s12.4-0.1,27.7-0.1
			S715.3,363.4,715.3,363.4z"/>
		<path id="Path_1134_1_" class="st4" d="M567.9,233.4h0.4c0.3,0,0.7,0,1,0.1c0.5,0.1,1,0.3,1.5,0.5c0.6,0.3,1.2,0.8,1.6,1.4
			c1.2,1.5,1.5,3.6,0.7,5.4c-0.2,0.5-0.5,1-0.8,1.5c-0.3,0.5-0.6,1-0.8,1.5c-0.5,1.1-0.9,2.2-1.1,3.4v0.1h-5v-0.1
			c-0.1-1.2-0.4-2.4-1-3.4c-0.3-0.5-0.6-1-0.9-1.5c-0.3-0.5-0.6-0.9-0.8-1.4c-0.4-1-0.5-2-0.3-3c0.2-0.9,0.5-1.7,1-2.4
			c0.4-0.6,1-1,1.6-1.4c0.5-0.2,1-0.4,1.5-0.5c0.3-0.1,0.7-0.1,1-0.1l0,0c-0.3,0-0.7,0.1-1,0.2c-0.5,0.1-1,0.3-1.5,0.5
			c-0.6,0.3-1.2,0.8-1.6,1.4c-0.5,0.7-0.8,1.5-1,2.4c-0.2,1-0.1,2,0.3,2.9c0.2,0.5,0.5,1,0.8,1.4c0.3,0.5,0.6,1,0.9,1.5
			c0.7,1,1,2.2,1.1,3.5l-0.1-0.1h5l-0.1,0.1c0.2-1.2,0.6-2.4,1.2-3.5c0.3-0.5,0.5-1,0.9-1.5c0.3-0.5,0.6-1,0.7-1.5
			c0.4-0.9,0.5-1.9,0.4-2.9c-0.2-0.9-0.5-1.7-1-2.4c-0.4-0.6-1-1.1-1.6-1.4c-0.5-0.3-1-0.4-1.5-0.5c-0.3-0.1-0.7-0.1-1-0.1
			L567.9,233.4L567.9,233.4z"/>
		<path id="Path_1135_1_" class="st4" d="M568.7,247.1v-0.3c0-0.3,0-0.6-0.1-0.9c-0.1-0.8-0.2-1.9-0.2-3.3v-2.3
			c0-0.4,0.1-0.8,0.3-1.2c0.2-0.4,0.5-0.7,1-0.9c0.5-0.2,1,0,1.3,0.3c0.2,0.2,0.3,0.4,0.3,0.7c0,0.3-0.1,0.5-0.3,0.7
			c-0.2,0.2-0.4,0.3-0.6,0.5c-0.2,0.1-0.5,0.2-0.7,0.2c-1,0.2-2.1,0.2-3.1,0c-0.3,0-0.5-0.1-0.7-0.2c-0.2-0.1-0.4-0.3-0.6-0.5
			c-0.2-0.2-0.3-0.4-0.3-0.7c0-0.2,0-0.5,0.1-0.7c0.1-0.2,0.3-0.4,0.5-0.5c0.2-0.1,0.5-0.1,0.7,0c0.2,0.1,0.4,0.3,0.5,0.5
			c0.1,0.2,0.2,0.4,0.2,0.6c0,0.4,0,0.8,0,1.3v0c0-0.4,0-0.8-0.1-1.2c0-0.2-0.1-0.4-0.2-0.6c-0.1-0.2-0.3-0.3-0.5-0.4
			c-0.2-0.1-0.4-0.1-0.6,0c-0.2,0.1-0.4,0.2-0.5,0.4c-0.1,0.2-0.1,0.4-0.1,0.7c0,0.2,0.1,0.5,0.3,0.6c0.3,0.4,0.8,0.6,1.3,0.7
			c0.5,0.1,1,0.1,1.5,0.1c0.5,0,1,0,1.5-0.1c0.2,0,0.5-0.1,0.7-0.2c0.2-0.1,0.4-0.2,0.6-0.4c0.2-0.2,0.2-0.4,0.3-0.7
			c0-0.2-0.1-0.5-0.2-0.6c-0.3-0.3-0.8-0.4-1.2-0.3c-0.4,0.2-0.7,0.5-0.9,0.9c-0.2,0.4-0.3,0.8-0.3,1.2c0,0.4,0,0.8,0,1.2
			c0,0.4,0,0.7,0,1.1c0,1.1,0.1,2.2,0.2,3.3c0,0.3,0,0.6,0.1,0.9L568.7,247.1L568.7,247.1z"/>
		<path id="Path_1136_1_" class="st4" d="M565.4,247.1v2.9l0,0l1.5,2h1.7l1-1.1l0.5-0.6v-3.1l0.1,0.1l-3.6-0.1h3.6v3.3l0,0l-0.5,0.6
			l-1,1.1h-2l-1.5-2l0,0v-2.2C565.4,247.6,565.4,247.3,565.4,247.1z"/>
		<path id="Path_1137_1_" class="st4" d="M570.2,250l-0.2-0.1c-0.2-0.1-0.3-0.2-0.5-0.2c-0.5-0.2-1.1-0.3-1.7-0.3
			c-0.6,0-1.2,0.1-1.7,0.3c-0.2,0.1-0.3,0.1-0.5,0.2l-0.2,0c0,0,0.1-0.1,0.2-0.1l0.5-0.2c1.1-0.5,2.4-0.5,3.5,0l0.5,0.2
			C570.1,249.9,570.2,250,570.2,250z"/>
		<path id="Path_1138_1_" class="st4" d="M570.3,249.3l-0.2-0.1l-0.5-0.2c-1.1-0.4-2.3-0.4-3.4,0l-0.5,0.2l-0.2,0.1l0.2-0.1
			c0.2-0.1,0.3-0.2,0.5-0.2c0.6-0.2,1.1-0.3,1.7-0.3c0.6,0,1.2,0.1,1.7,0.4c0.2,0.1,0.3,0.1,0.5,0.2
			C570.2,249.2,570.2,249.3,570.3,249.3z"/>
		<path id="Path_1139_1_" class="st4" d="M570.2,248.6l-0.2-0.1l-0.5-0.2c-1.1-0.4-2.3-0.4-3.4,0l-0.5,0.2h-0.2l0.2-0.1l0.5-0.2
			c1.1-0.4,2.4-0.4,3.5,0l0.5,0.2L570.2,248.6z"/>
		<path id="Path_1140_1_" class="st0" d="M588,268.5c0,0-1.9,17.1,0.5,26.5l22.9-1c0,0-5-16.9-1.9-24.3L588,268.5z"/>
		<path id="Path_1141_1_" class="st5" d="M588.1,268c0,0,0.2,18.5,1.1,24.1l23.2-1.1c0,0-2-18.2-1.3-23H588.1z"/>
		<path id="Path_1142_1_" class="st6" d="M607.6,275.8c0,0.1-3.5,0.4-7.8,0.6s-7.8,0.4-7.8,0.3c0-0.1,3.5-0.4,7.8-0.6
			S607.6,275.7,607.6,275.8z"/>
		<path id="Path_1143_1_" class="st6" d="M607.6,279.7c0,0.1-3.5,0.4-7.8,0.6c-4.3,0.2-7.8,0.4-7.8,0.3s3.5-0.4,7.8-0.6
			S607.6,279.5,607.6,279.7z"/>
		<path id="Path_1144_1_" class="st6" d="M603.7,283.5c-0.4,0.1-0.9,0.2-1.3,0.2c-0.8,0-1.9,0.2-3.1,0.2c-1.2,0.1-2.3,0.1-3.1,0.2
			c-0.4,0-0.9,0-1.3,0c0.4-0.1,0.8-0.2,1.3-0.2c0.8-0.1,1.9-0.2,3.1-0.2c1.2-0.1,2.3-0.1,3.1-0.2
			C602.8,283.5,603.2,283.5,603.7,283.5z"/>
		<path id="Path_1145_1_" class="st4" d="M640.9,238c0,0.2-13.6,0.2-30.3,0.2s-30.3-0.1-30.3-0.2s13.6-0.2,30.3-0.2
			S640.9,237.8,640.9,238z"/>
		<path id="Path_1146_1_" class="st4" d="M602.6,243.5c0,0.1-5.1,0.2-11.3,0.2s-11.4-0.1-11.4-0.2s5.1-0.2,11.4-0.2
			S602.6,243.3,602.6,243.5z"/>
		<path id="Path_1147_1_" class="st4" d="M614.7,243.5c-2.9,0.3-5.8,0.3-8.8,0C608.8,243.2,611.8,243.2,614.7,243.5z"/>
		<path id="Path_1148_1_" class="st4" d="M741.3,301.7v-0.2c0-0.2,0-0.4,0-0.6c0-0.6-0.1-1.4-0.2-2.4c-0.1-2.1-0.3-5.1-0.6-8.8
			c-0.5-7.5-1.1-17.7-1.8-29c-0.7-11.3-1.2-21.6-1.7-29c-0.2-3.7-0.3-6.7-0.4-8.8c0-0.8,0-1.6-0.1-2.4v-0.6c0-0.1,0-0.1,0-0.2v0.8
			c0,0.6,0.1,1.4,0.2,2.4c0.1,2.1,0.3,5.1,0.6,8.8c0.5,7.4,1.1,17.7,1.8,29s1.2,21.6,1.7,29c0.2,3.7,0.3,6.7,0.5,8.8
			c0,0.8,0,1.6,0.1,2.4v0.6C741.3,301.6,741.3,301.7,741.3,301.7z"/>
		<path id="Path_1149_1_" class="st4" d="M736.4,198.6H632.3l-76.2-0.2l0,0c-3.8,0.9-7.2,3.1-9.7,6.1c-1.9,2.2-3.2,4.9-3.8,7.8
			c-0.4,1.8-0.5,3.6-0.4,5.5c0,0.5,0.1,0.9,0.2,1.4c0,0.3,0,0.3,0.1,0.5c-0.2-0.6-0.3-1.2-0.3-1.9c-0.2-1.8-0.1-3.7,0.3-5.5
			c0.6-2.9,1.8-5.6,3.7-7.9c2.5-3.1,6-5.2,9.8-6.2l0,0l76.3,0.1l73.6,0.2l22.3,0.1L736.4,198.6L736.4,198.6z"/>
	</g>
	<g id="freepik--Plant--inject-10_1_" transform="translate(-12397.324 -14331.341)">
		<path id="Path_1150_1_" class="st5" d="M604.9,296.8c12.7-12.7,31.1-17.7,48.5-13.3c-14.5,9.8-31.5,15.2-49,15.3"/>
		<path id="Path_1151_1_" class="st5" d="M621.4,238.6c-1.8-15,3.5-30.1,14.2-40.7C636,212,630,228,621.4,238.6"/>
		<path id="Path_1152_1_" class="st5" d="M612.8,265.6c7.7-14.6,20-26.4,34.9-33.4c-4.8,16.7-18.2,29.6-35.2,33.6"/>
		<path id="Path_1153_1_" class="st5" d="M611.1,270.8c8.6,0.5,17.3-0.3,25.7-2.3c8.5-2,16.1-6.6,21.9-13.1
			c-16.9,0.1-33.4,5.1-47.5,14.5"/>
		<path id="Path_1154_1_" class="st5" d="M615.4,253.6c-4.4-16.4-11.6-27.8-24.5-37C588.9,233.4,599.3,249,615.4,253.6"/>
		<path id="Path_1155_1_" class="st5" d="M582.9,282c-0.1-9.8,5.8-18.7,14.8-22.5C596.9,267.9,590.2,277.7,582.9,282"/>
		<path id="Path_1156_1_" class="st5" d="M578.8,268.1c-1.2-14-10.5-26.1-23.7-30.9C558.1,250.9,565.9,262.4,578.8,268.1"/>
		<path id="Path_1157_1_" class="st5" d="M585,292.7c-3.3-4.3-7.9-7.2-13.1-8.4c-5.2-1.1-10.5-1.6-15.8-1.5
			c7.3,7.9,17.7,12.3,28.5,11.9"/>
		<path id="Path_1158_1_" class="st5" d="M591.1,327.7c-20.1-6.2-41.5,4-49.5,23.4C559.9,347.8,577,339.7,591.1,327.7"/>
		<path id="Path_1159_1_" class="st5" d="M610.9,315.5c-3,8.8-2.4,19.5,4.2,27.1C617.8,333.4,616.2,323.5,610.9,315.5"/>
		<path id="Path_1160_1_" class="st5" d="M622.5,310.6c1,11.6,7.9,21.8,18.3,26.9c0.5,0.3,1.1,0.4,1.6,0.3c0.8-0.3,0.9-1.4,0.8-2.3
			C641.9,324.2,633.6,313.2,622.5,310.6"/>
		<path id="Path_1161_1_" class="st5" d="M630.1,309.4c10.2,11,27.4,11.7,38.5,1.5c0.4-0.4,0.9-0.8,1.3-1.3
			C657.3,308.3,642.7,307.4,630.1,309.4"/>
		<path id="Path_1162_1_" class="st4" d="M632,208.4c0,0.1-0.1,0.2-0.1,0.4l-0.4,1.1c-0.4,0.9-0.9,2.3-1.5,4.1s-1.5,4-2.4,6.5
			c-0.5,1.3-0.9,2.6-1.5,4.1s-1,3-1.5,4.6c-2.2,6.4-4.7,14.1-7.4,22.6s-5.4,18-8.1,28s-5.1,19.6-7.1,28.3s-3.7,16.6-4.9,23.3
			c-0.3,1.7-0.6,3.3-0.9,4.8s-0.5,2.9-0.7,4.3c-0.5,2.7-0.9,4.9-1.1,6.8s-0.5,3.3-0.7,4.3c0,0.4-0.1,0.7-0.2,1.1c0,0.1,0,0.3,0,0.4
			c0-0.1,0-0.3,0-0.4l0.1-1.1c0.1-1,0.3-2.5,0.6-4.3s0.6-4.2,1-6.8c0.2-1.3,0.4-2.8,0.7-4.3s0.6-3,0.9-4.8
			c1.2-6.7,2.8-14.6,4.8-23.4s4.3-18.3,7-28.3s5.5-19.4,8.2-28s5.2-16.2,7.5-22.6l1.6-4.6l1.5-4c0.9-2.5,1.7-4.7,2.5-6.5
			s1.2-3,1.5-4.1c0.2-0.4,0.3-0.8,0.4-1C631.8,208.6,631.9,208.5,632,208.4z"/>
		<path id="Path_1163_1_" class="st4" d="M562.6,244.6c0.1,0.1,0.1,0.1,0.2,0.2l0.6,0.6c0.5,0.6,1.3,1.4,2.2,2.5
			c2.7,3.1,5.2,6.4,7.4,9.9c3.3,5.2,6,10.8,7.8,16.7c2.1,7.2,3.6,14.6,4.6,22c2.6,15.8,5.7,29.9,8,40.1c1.2,5.1,2.1,9.2,2.7,12.1
			c0.3,1.4,0.5,2.5,0.7,3.3l0.2,0.9v0.3c0-0.1-0.1-0.2-0.1-0.3l-0.2-0.9c-0.2-0.8-0.5-1.9-0.8-3.3c-0.7-2.9-1.7-7-2.9-12.1
			c-2.4-10.2-5.6-24.3-8.1-40.1c-1-7.4-2.6-14.8-4.7-22c-1.8-5.9-4.3-11.4-7.6-16.6c-2.2-3.5-4.6-6.8-7.3-10c-0.9-1.1-1.7-2-2.2-2.6
			l-0.6-0.7C562.6,244.7,562.6,244.6,562.6,244.6z"/>
		<path id="Path_1164_1_" class="st4" d="M633.9,308.9c-0.1,0.1-0.3,0.1-0.5,0.1l-1.3,0.2l-0.9,0.1l-1.1,0.2
			c-0.8,0.1-1.7,0.2-2.7,0.5l-1.5,0.3l-1.7,0.4c-1.2,0.3-2.4,0.7-3.7,1.1c-2.8,1-5.4,2.1-8,3.5c-2.6,1.4-5,3.1-7.2,5
			c-1,0.8-1.9,1.7-2.8,2.6c-0.8,0.8-1.5,1.6-2.2,2.5c-0.6,0.7-1.1,1.5-1.6,2.2c-0.4,0.6-0.8,1.2-1.1,1.8l-0.7,1.1
			c-0.2,0.3-0.3,0.4-0.3,0.4c0-0.1,0.1-0.3,0.2-0.4c0.2-0.3,0.4-0.7,0.6-1.2c0.3-0.6,0.7-1.2,1-1.8c0.5-0.8,1-1.6,1.5-2.3
			c0.7-0.9,1.4-1.8,2.2-2.6c0.9-0.9,1.8-1.9,2.8-2.7c2.2-1.9,4.7-3.6,7.2-5.1c2.6-1.4,5.3-2.6,8.1-3.5c1.3-0.4,2.5-0.8,3.7-1
			l1.7-0.4l1.5-0.3c1-0.2,1.9-0.3,2.8-0.4l1.1-0.1h2.2L633.9,308.9z"/>
		<path id="Path_1165_1_" class="st4" d="M637.6,244.9c-0.3,0.3-0.6,0.6-0.9,0.9L634,248c-2.2,1.9-5.3,4.5-8.7,7.3s-6.5,5.4-8.8,7.2
			l-2.7,2.2c-0.3,0.3-0.7,0.5-1,0.7c0.3-0.3,0.6-0.6,0.9-0.9l2.6-2.3c2.2-1.9,5.3-4.5,8.7-7.3s6.5-5.4,8.8-7.2l2.7-2.1
			C636.8,245.3,637.2,245.1,637.6,244.9L637.6,244.9z"/>
		<path id="Path_1166_1_" class="st4" d="M640.6,261.6c0,0.1-6.6,2.2-14.8,4.6s-14.9,4.3-15,4.2s6.6-2.2,14.9-4.6
			S640.6,261.5,640.6,261.6z"/>
		<path id="Path_1167_1_" class="st4" d="M616.1,254.9c-0.3-0.3-0.5-0.6-0.7-0.9l-1.7-2.7c-1.5-2.2-3.6-5.3-6.1-8.6
			s-4.9-6.1-6.7-8.1l-2.1-2.4c-0.3-0.3-0.5-0.6-0.7-0.9c0.3,0.2,0.6,0.5,0.9,0.8c0.5,0.5,1.3,1.3,2.2,2.3c1.9,2,4.3,4.8,6.8,8.1
			s4.6,6.4,6,8.7c0.7,1.2,1.3,2.1,1.6,2.8C615.8,254.2,616,254.6,616.1,254.9z"/>
		<path id="Path_1168_1_" class="st4" d="M593.1,264.2c-0.4,0.9-1,1.7-1.5,2.6c-1,1.5-2.3,3.7-3.7,6.2s-2.6,4.7-3.4,6.4
			c-0.4,0.9-0.9,1.8-1.4,2.6c0.3-1,0.6-1.9,1.1-2.8c1-2.2,2.1-4.4,3.3-6.5c1.2-2.1,2.5-4.1,3.9-6.1
			C591.8,265.7,592.4,264.9,593.1,264.2L593.1,264.2z"/>
		<path id="Path_1169_1_" class="st4" d="M585.2,293.1c0,0-1.3-0.6-3.4-1.5s-5-2.1-8.2-3.3c-2.8-1-5.6-1.9-8.5-2.6
			c-2.2-0.5-3.6-0.9-3.6-0.9c0.3,0,0.7,0,1,0.1c0.6,0.1,1.5,0.3,2.7,0.5c5.8,1.3,11.4,3.3,16.7,5.9c1,0.5,1.9,0.9,2.4,1.3
			C584.6,292.7,584.9,292.9,585.2,293.1L585.2,293.1z"/>
		<path id="Path_1170_1_" class="st4" d="M591.4,327.7l-0.4,0.1l-1.2,0.3l-4.4,1c-4.9,1-9.7,2.3-14.4,3.8c-4.7,1.6-9.2,3.7-13.5,6.3
			c-1.6,1-2.9,1.9-3.7,2.6c-0.4,0.4-0.9,0.7-1.3,1c0.1-0.1,0.2-0.2,0.3-0.3c0.2-0.2,0.5-0.5,0.9-0.8c1.2-1,2.4-1.9,3.6-2.7
			c4.2-2.7,8.7-4.9,13.5-6.5c4.8-1.5,9.6-2.8,14.5-3.7l4.5-0.9C590.3,327.8,590.8,327.7,591.4,327.7L591.4,327.7z"/>
		<path id="Path_1171_1_" class="st4" d="M613.8,336.2c-0.1,0-0.9-4.6-1.8-10.4s-1.4-10.5-1.3-10.5s0.9,4.6,1.8,10.4
			S614,336.2,613.8,336.2z"/>
		<path id="Path_1172_1_" class="st4" d="M637.2,327.7c-0.8-0.8-1.5-1.6-2.1-2.5c-1.3-1.5-3-3.7-5-6.1s-3.8-4.4-5.1-6
			c-0.8-0.8-1.5-1.6-2.1-2.5c0.2,0.2,0.5,0.4,0.7,0.6c0.4,0.4,1,1,1.7,1.7c1.4,1.5,3.3,3.5,5.3,5.9s3.7,4.6,4.9,6.2
			c0.6,0.8,1.1,1.5,1.4,1.9C636.9,327.2,637.1,327.5,637.2,327.7z"/>
		<path id="Path_1173_1_" class="st7" d="M575.3,349.4V361h2.9l10.3,32.4h22.8l9.9-32.1l3.9-0.3v-11.5H575.3z"/>
		<path id="Path_1174_1_" class="st4" d="M623.1,361.3c0,0.1-10.1,0.2-22.5,0.2s-22.5-0.1-22.5-0.2s10.1-0.2,22.5-0.2
			S623.1,361.2,623.1,361.3z"/>
		<path id="Path_1175_1_" class="st4" d="M639.5,287c-0.5,0.2-1,0.3-1.5,0.4l-4,0.9c-3.4,0.8-8,2.1-13,3.8s-9.5,3.5-12.6,4.8
			l-3.7,1.7c-0.5,0.2-0.9,0.5-1.4,0.6c0.4-0.3,0.9-0.5,1.3-0.7c0.9-0.4,2.1-1,3.7-1.8c8.3-3.8,16.9-6.7,25.7-8.7
			c1.7-0.4,3-0.7,4-0.8C638.5,287.1,639,287,639.5,287L639.5,287z"/>
		<path id="Path_1176_1_" class="st3" d="M615.6,379.3c0,0.1-7,0.2-15.8,0.2s-15.8-0.1-15.8-0.2s7.1-0.2,15.8-0.2
			S615.6,379.2,615.6,379.3z"/>
		<path id="Path_1177_1_" class="st3" d="M616.5,376.6c0,0.1-7.5,0.2-16.7,0.2s-16.7-0.1-16.7-0.2s7.5-0.2,16.7-0.2
			S616.5,376.5,616.5,376.6z"/>
	</g>
	<path id="Path_1178_1_" class="st8" d="M-11944.2-13968.3l-1.5,19.1c0,0-18.8,6.1-18.9,9.6l36.8,0.5l1.1-29.1L-11944.2-13968.3z"/>
	<path id="Path_1179_1_" class="st0" d="M-11934.3-13951.2c-0.5-0.3-1.2-0.2-1.6,0.4s-0.2,1.2,0.4,1.6c0.5,0.3,1.2,0.2,1.6-0.4
		c0.3-0.5,0.2-1.1-0.2-1.5"/>
	<path id="Path_1180_1_" class="st0" d="M-11927.8-13939.2v-2.9l-34.9,0.2c0,0-2,1.2-1.9,2.3L-11927.8-13939.2z"/>
	<path id="Path_1181_1_" class="st4" d="M-11946.3-13949.4c0,0.2,0.9,0.2,1.9,0.8c0.9,0.6,1.4,1.3,1.5,1.2s-0.1-1.1-1.2-1.8
		C-11944.8-13949.6-11945.6-13949.7-11946.3-13949.4z"/>
	<path id="Path_1182_1_" class="st4" d="M-11950.1-13947.7c0,0.2,0.8,0.5,1.4,1.2c0.6,0.7,0.8,1.5,1,1.5s0.3-1-0.5-2
		C-11949-13947.8-11950.1-13947.8-11950.1-13947.7z"/>
	<path id="Path_1183_1_" class="st4" d="M-11952.2-13943c0.2,0,0.4-0.9-0.1-1.9c-0.5-1-1.3-1.3-1.4-1.2c-0.1,0.2,0.5,0.7,0.9,1.5
		C-11952.5-13943.7-11952.3-13943-11952.2-13943z"/>
	<path id="Path_1184_1_" class="st4" d="M-11946.1-13953.7c0.1,0.2,0.9-0.1,1.9-0.1c1,0,1.9,0.3,1.9,0.2c0.1-0.2-0.7-0.8-1.9-0.8
		S-11946.2-13953.9-11946.1-13953.7z"/>
	<path id="Path_1185_1_" class="st8" d="M-11860.6-13969.1l1.5,19.1c0,0,18.8,6.1,18.9,9.6l-36.8,0.5l-1.1-29.2L-11860.6-13969.1z"
		/>
	<path id="Path_1186_1_" class="st0" d="M-11870.4-13951.9c-0.8,0.2-1.3,0.9-1.1,1.7s0.9,1.3,1.7,1.1c0.8-0.2,1.3-1,1.2-1.8
		c-0.3-0.8-1.1-1.2-1.9-0.9"/>
	<path id="Path_1187_1_" class="st0" d="M-11876.9-13940v-2.9l34.9,0.2c0,0,2,1.2,1.9,2.3L-11876.9-13940z"/>
	<path id="Path_1188_1_" class="st4" d="M-11858.5-13950.2c0,0.2-0.9,0.2-1.9,0.8c-0.9,0.6-1.4,1.3-1.5,1.2
		c-0.1-0.1,0.1-1.1,1.2-1.8C-11860-13950.4-11859.2-13950.5-11858.5-13950.2z"/>
	<path id="Path_1189_1_" class="st4" d="M-11854.7-13948.4c0,0.2-0.7,0.5-1.4,1.2s-0.8,1.5-1,1.5c-0.2,0-0.3-1,0.5-2
		C-11855.7-13948.6-11854.7-13948.6-11854.7-13948.4z"/>
	<path id="Path_1190_1_" class="st4" d="M-11852.6-13943.8c-0.2,0-0.4-0.9,0.1-1.9c0.5-1,1.4-1.3,1.4-1.2c0.1,0.2-0.5,0.7-0.9,1.5
		C-11852.3-13944.4-11852.4-13943.8-11852.6-13943.8z"/>
	<path id="Path_1191_1_" class="st4" d="M-11946.3-13957.6c0.6,0.2,1.2,0.2,1.9,0c0.7-0.1,1.3-0.4,1.9-0.7c0.4-0.2,0.7-0.4,1-0.6
		c0.2-0.1,0.4-0.3,0.5-0.5c0.2-0.3,0.2-0.6,0-0.9c-0.2-0.3-0.5-0.4-0.8-0.4c-0.2,0-0.5,0-0.7,0.1c-0.4,0.1-0.8,0.3-1.1,0.4
		c-0.6,0.3-1.2,0.7-1.7,1.2c-0.5,0.4-0.9,0.9-1,1.5c0.1,0,0.5-0.5,1.3-1.2c0.5-0.4,1-0.7,1.6-1c0.3-0.2,0.7-0.3,1-0.3
		c0.4-0.1,0.7-0.1,0.8,0c0.1,0.1,0,0.1,0,0.2c-0.1,0.1-0.3,0.2-0.4,0.3c-0.3,0.2-0.6,0.4-0.9,0.6c-0.6,0.3-1.2,0.6-1.8,0.7
		C-11945.1-13957.9-11945.7-13957.8-11946.3-13957.6L-11946.3-13957.6z"/>
	<path id="Path_1192_1_" class="st4" d="M-11946-13957.3c0.3-0.5,0.5-1.2,0.4-1.8c0-0.7-0.1-1.4-0.3-2c-0.1-0.4-0.3-0.8-0.5-1.1
		c-0.2-0.5-0.7-0.9-1.2-0.9c-0.3,0-0.6,0.2-0.8,0.5c-0.1,0.2-0.1,0.5-0.2,0.7c-0.2,1.1,0.1,2.2,0.9,3c0.7,0.9,1.5,1.1,1.5,1.1
		c-0.4-0.4-0.8-0.8-1.2-1.3c-0.6-0.8-0.8-1.8-0.7-2.8c0-0.4,0.2-0.7,0.3-0.7c0.3,0.1,0.5,0.3,0.7,0.6c0.2,0.3,0.4,0.6,0.5,1
		c0.2,0.6,0.4,1.2,0.4,1.9C-11945.9-13958-11946.1-13957.4-11946-13957.3z"/>
	<path id="Path_1193_1_" class="st4" d="M-11861.5-13951.9c0-0.3-0.1-0.6-0.2-0.8c-0.2-0.8-0.6-1.5-1.1-2.1c-0.3-0.5-0.8-0.8-1.4-1
		c-0.4-0.1-0.8,0.1-1,0.4c-0.2,0.3-0.2,0.7-0.1,1.1c0.4,1.5,1.9,2.5,3.5,2.4c1.5-0.2,2.8-1.3,3.2-2.7c0.1-0.4,0.1-0.8-0.1-1.1
		c-0.3-0.3-0.7-0.4-1-0.3c-0.5,0.2-1,0.6-1.3,1.1c-0.5,0.6-0.9,1.3-1.1,2.1c-0.1,0.3-0.2,0.5-0.2,0.8c0.4-1,0.9-1.9,1.5-2.7
		c0.3-0.4,0.7-0.7,1.1-0.9c0.2-0.1,0.4,0,0.6,0.2c0.1,0.2,0.1,0.5,0,0.7c-0.4,1.2-1.5,2.1-2.8,2.3c-1.3,0.1-2.6-0.7-3-2
		c-0.1-0.2-0.1-0.5,0-0.8c0.1-0.2,0.3-0.3,0.5-0.2c0.5,0.2,0.9,0.4,1.2,0.8C-11862.5-13953.9-11861.9-13952.9-11861.5-13951.9z"/>
	<path id="Path_1194_1_" class="st4" d="M-11944.4-14143.4c-0.2,0-3,186.7-3,186.7l22.6-0.8l7.8-91.8l1.9-67.4l15.4,62.3l19.1,97.8
		l22.5-5.7l-28.7-182.4l-27-5.2L-11944.4-14143.4z"/>
	<path id="Path_1195_1_" class="st4" d="M-11895.4-14258.7c2.7-5.3,3.5-14.9,0.4-20.2c-3.1-5.3-9.4-9.1-15.2-10.9
		c-1-0.4-2-0.4-3-0.2c-1,0.3-1.7,1.3-1.4,2.4c-1.1-0.9-2.4-1.6-3.7-2.1c-1.4-0.5-2.9-0.3-4.1,0.6c-1.1,0.9-1.3,2.6-0.4,3.8l0,0
		c-2.3-1-5.1,0-6.1,2.4c-0.5,1-0.5,2.2-0.2,3.3c0.7,1.8,1.7,3.4,3,4.7c1.1,1.1,1.4,2.7,0.9,4.1"/>
	<path id="Path_1196_1_" class="st9" d="M-11917.6-14214.8c0.2-2.6,0.6-25.7,0.6-25.8s-8.6-1.1-9-9.6c-0.2-4.1,0.2-12.7,0.5-20.4
		c0.4-8.3,7.1-14.9,15.4-15.2h0.8c8.9,0.2,13.7,7.9,13.2,16.9l-1.2,49.5"/>
	<path id="Path_1197_1_" class="st10" d="M-11917.1-14240.6c4-0.1,7.8-1.4,11-3.6c0,0-2.6,5.3-11.1,4.8L-11917.1-14240.6z"/>
	<path id="Path_1198_1_" class="st4" d="M-11924-14264.9c0,0.7,0.6,1.2,1.2,1.2c0.6,0,1.2-0.5,1.2-1.1l0,0c0-0.7-0.6-1.2-1.2-1.2
		l0,0C-11923.4-14266-11924-14265.5-11924-14264.9C-11924-14264.9-11924-14264.9-11924-14264.9z"/>
	<path id="Path_1199_1_" class="st4" d="M-11923.5-14266.5c0.2,0.2,1.1-0.6,2.4-0.6s2.3,0.6,2.4,0.4c0.1-0.2-0.1-0.3-0.5-0.6
		c-0.6-0.4-1.3-0.6-1.9-0.5c-0.7,0-1.3,0.3-1.9,0.7C-11923.5-14266.9-11923.6-14266.6-11923.5-14266.5z"/>
	<path id="Path_1200_1_" class="st4" d="M-11910.9-14264.7c0,0.7,0.6,1.2,1.2,1.2c0.6,0,1.2-0.5,1.2-1.1c0,0,0,0,0,0l0,0
		c0-0.7-0.6-1.2-1.2-1.2C-11910.3-14265.8-11910.9-14265.3-11910.9-14264.7z"/>
	<path id="Path_1201_1_" class="st4" d="M-11910.6-14266.7c0.2,0.1,1.1-0.6,2.4-0.6c1.3,0,2.3,0.6,2.4,0.4c0.1-0.2-0.1-0.3-0.5-0.7
		c-0.6-0.4-1.3-0.6-2-0.5c-0.7,0-1.3,0.3-1.9,0.7C-11910.6-14267-11910.7-14266.7-11910.6-14266.7z"/>
	<path id="Path_1202_1_" class="st4" d="M-11915.1-14256.8c-0.7-0.2-1.4-0.3-2.1-0.3c-0.3,0-0.7,0-0.7-0.3c0-0.3,0-0.7,0.2-1
		l0.9-2.6c0.9-2.2,1.5-4.4,2-6.7c-1,2.1-1.9,4.3-2.6,6.6c-0.3,0.9-0.6,1.8-0.9,2.6c-0.2,0.4-0.3,0.9-0.1,1.3
		c0.1,0.2,0.3,0.4,0.6,0.5c0.2,0,0.4,0,0.6,0C-11916.5-14256.7-11915.8-14256.7-11915.1-14256.8z"/>
	<path id="Path_1203_1_" class="st4" d="M-11911.2-14256c-0.2,0-0.2,1.4-1.4,2.5c-1.2,1-2.7,0.9-2.7,1.1s0.3,0.3,1,0.3
		c0.8,0,1.7-0.3,2.3-0.8c0.6-0.5,1-1.3,1-2.1C-11910.9-14255.6-11911.1-14256-11911.2-14256z"/>
	<path id="Path_1204_1_" class="st4" d="M-11911.1-14271.8c0.1,0.3,1.5,0.1,3,0.3c1.5,0.1,2.8,0.5,3,0.2s-0.1-0.5-0.6-0.8
		c-0.7-0.4-1.5-0.7-2.2-0.7c-0.8-0.1-1.6,0-2.3,0.3C-11910.9-14272.3-11911.2-14272-11911.1-14271.8z"/>
	<path id="Path_1205_1_" class="st4" d="M-11923.2-14270.3c0.2,0.3,1.1,0,2.2-0.1c1.1-0.1,2,0.1,2.2-0.2c0.2-0.3,0-0.5-0.5-0.7
		c-0.6-0.3-1.2-0.5-1.9-0.4c-0.6,0-1.3,0.3-1.8,0.7C-11923.2-14270.8-11923.3-14270.5-11923.2-14270.3z"/>
	<path id="Path_1206_1_" class="st9" d="M-11896.5-14262.6c0.1,0,5.8-1.9,5.8,3.9c0,5.9-5.9,4.6-5.9,4.5
		S-11896.5-14262.6-11896.5-14262.6z"/>
	<path id="Path_1207_1_" class="st10" d="M-11894.8-14256.4c0.1,0.1,0.2,0.1,0.3,0.2c0.2,0.1,0.5,0.1,0.8,0c0.8-0.5,1.2-1.4,1.2-2.3
		c0-0.5-0.1-1-0.3-1.5c-0.1-0.4-0.4-0.7-0.8-0.8c-0.2-0.1-0.5,0.1-0.6,0.3c-0.1,0.2,0,0.3-0.1,0.3c-0.1,0-0.1-0.1,0-0.3
		c0-0.1,0.1-0.3,0.2-0.4c0.2-0.1,0.4-0.2,0.6-0.1c0.5,0.1,0.9,0.4,1.1,0.9c0.2,0.5,0.4,1.1,0.4,1.6c0,1.1-0.6,2.1-1.5,2.5
		c-0.3,0.1-0.7,0-0.9-0.2C-11894.8-14256.3-11894.9-14256.4-11894.8-14256.4z"/>
	<path id="Path_1208_1_" class="st4" d="M-11929.2-14281.7c-0.7,7.6,8.7,10.7,12.8,6.5c1.9-2,3.6-4.4,6.1-5.3
		c1.8-0.5,3.7-0.3,5.3,0.6l0,0c2.4,1.5,3.9,4,4.2,6.7c0.5,3.7-0.1,7.1,0.9,10.5c0.1,0.5,0.3,1,0.7,1.3c0.8,0.4,1.8,0.1,2.3-0.6
		c0.9-1.1,1.4-2.5,1.5-3.9c0.5-3.2,0.4-6.4-0.3-9.5c-0.8-3.1-2.4-5.9-4.8-8.1c-3-2.6-7-4-11-3.8c-4,0.2-7.8,1.7-10.9,4.3
		c-1.5,1.1-2.7,2.6-3.5,4.3"/>
	<path id="Path_1209_1_" class="st7" d="M-11923-14285.9c-0.3-0.1-0.5-0.1-0.8,0c-0.7,0.2-1.4,0.5-1.9,1.1c-0.8,0.8-1.4,1.8-1.5,2.9
		c-0.1,1.4,0.3,2.8,1.1,3.9c0.8,1.1,1.9,2,3.2,2.5c1,0.4,2.1,0.6,3.2,0.7c0.7,0.1,1.5,0.1,2.2,0c0.3,0,0.5-0.1,0.8-0.2
		c0-0.1-1.1,0-2.9-0.1c-1-0.1-2.1-0.4-3-0.8c-1.2-0.5-2.3-1.3-3-2.4c-0.7-1-1.1-2.2-1-3.5c0.1-1,0.5-2,1.3-2.8
		c0.5-0.5,1.1-0.9,1.7-1.1C-11923.3-14285.8-11923-14285.8-11923-14285.9z"/>
	<path id="Path_1210_1_" class="st7" d="M-11919.1-14288.5c-0.2,0-0.4,0-0.6,0.1c-0.5,0.3-0.8,0.7-0.9,1.2c-0.1,0.8,0,1.6,0.4,2.2
		c1.2,2.3,3.3,4.1,5.8,4.9c0.6,0.3,1.3,0.4,2,0.4c0-0.1-0.8-0.2-1.9-0.6c-1.5-0.6-2.9-1.5-4-2.7c-0.6-0.6-1.1-1.4-1.5-2.1
		c-0.4-0.6-0.6-1.3-0.5-2c0.1-0.5,0.3-0.9,0.7-1.2C-11919.4-14288.4-11919.3-14288.5-11919.1-14288.5z"/>
	<path id="Path_1211_1_" class="st9" d="M-11970.1-14212.8l-40.3-3.8l-6.4-1.5c0,0-14.6-2.6-15.9-3c-1.4-0.4-2.2,0.2-2.3,0.7
		c-0.2,0.9,0.7,1.9,2,2.4c0.5,0.2,7.9,2.4,7.9,2.4c-0.8,0.2-1.6,0.5-2.4,0.8c-1.7,0.7-3.3,3-4.1,5.7c-0.7,2.6-0.7,3.5,0.3,3.8
		c0.4,0.1,0.8,0,1.2-0.2c0.6-0.3,1-0.9,1.2-1.5c1.2-4.3,3.9-4.7,3.9-4.7l0.8,0.2c0,0-2.6,2-2.5,4.3c0,0.3,0.1,0.6,0.3,0.9
		c-0.6,1.8,0.3,3.7,2.1,4.4c0,0,0,0,0,0c0.6,0.2,1.3,0.2,1.9,0.1c0.6-0.1,1.1-0.5,1.2-1.1c0-0.3-0.1-0.6-0.2-0.9
		c-0.1-0.2-0.1-0.3-0.2-0.5l2.4,0.2c0,0,5.5,0.2,7.8,0.6l38,9.8c5.2,1.3,10.5-1.8,11.8-7v-0.2l0,0c1.2-5.2-2-10.5-7.2-11.7
		c0,0,0,0,0,0C-11969.2-14212.6-11969.6-14212.7-11970.1-14212.8z"/>
	<path id="Path_1212_1_" class="st9" d="M-12011.2-14215.5c-0.2,0.9-0.8,1.5-1.7,1.7c-0.8,0.2-1.7,0.1-2.5,0.3
		c-2.5,0.4-4.3,2.8-6.8,3.1c-0.3,0-0.8,0-0.9-0.3c-0.1-0.3,0.1-0.6,0.4-0.8l6.1-5.8"/>
	<path id="Path_1213_1_" class="st10" d="M-12016.7-14217.4c-0.3,0.2-0.5,0.3-0.7,0.6l-1.9,1.6l-2.7,2.5l-0.8,0.7
		c-0.4,0.2-0.6,0.6-0.7,1c0,0.3,0.2,0.6,0.5,0.7c0.2,0.1,0.5,0.1,0.7,0.1c0.4-0.1,0.8-0.1,1.2-0.3c1.4-0.6,2.7-1.4,3.9-2.2
		c0.6-0.3,1.1-0.5,1.8-0.7c0.6-0.1,1.1-0.1,1.7-0.2c0.9,0,1.7-0.4,2.2-1.1c0.2-0.3,0.3-0.6,0.2-0.9c-0.1,0.3-0.2,0.5-0.4,0.8
		c-0.6,0.6-1.3,0.9-2.1,0.9c-0.6,0-1.1,0-1.7,0.1c-0.7,0.1-1.3,0.3-1.9,0.7c-1.3,0.8-2.6,1.5-3.9,2.1c-0.3,0.1-0.7,0.2-1.1,0.3
		c-0.3,0-0.7,0-0.6-0.3c0.1-0.3,0.3-0.5,0.5-0.7c0.3-0.2,0.5-0.5,0.8-0.7l2.6-2.6l1.7-1.7
		C-12017.1-14217-12016.9-14217.2-12016.7-14217.4L-12016.7-14217.4z"/>
	<path id="Path_1214_1_" class="st10" d="M-12024.2-14211.7c-0.5-0.1-1-0.1-1.5,0c-0.5,0.2-1,0.5-1.3,1c-0.4,0.6-0.7,1.2-0.9,1.9
		c-0.2,0.7-0.5,1.4-0.8,2c-0.3,0.5-0.7,1-1.3,1.3c-0.4,0.2-0.8,0.2-1.2,0.1c-0.3-0.1-0.4-0.3-0.4-0.3c0,0,0.1,0.1,0.4,0.2
		c0.4,0.1,0.8,0,1.1-0.2c0.5-0.3,0.9-0.7,1.1-1.3c0.3-0.6,0.6-1.3,0.8-2c0.2-0.7,0.5-1.4,1-2c0.4-0.5,0.9-0.9,1.5-1
		c0.4-0.1,0.8-0.1,1.2,0C-12024.4-14211.8-12024.3-14211.8-12024.2-14211.7L-12024.2-14211.7z"/>
	<path id="Path_1215_1_" class="st10" d="M-12033.4-14218.2c0.5,0.1,1,0.2,1.5,0.4l3.5,1.1l3.5,1.1c0.5,0.1,1,0.3,1.5,0.5
		c-0.5,0-1-0.1-1.5-0.3c-0.9-0.2-2.2-0.6-3.6-1c-1.4-0.4-2.6-0.9-3.5-1.2C-12032.4-14217.7-12032.9-14217.9-12033.4-14218.2
		L-12033.4-14218.2z"/>
	<path id="Path_1216_1_" class="st10" d="M-12023-14209.5l-0.3,0.4c-0.3,0.3-0.5,0.7-0.4,1.1c0,0.3,0.2,0.5,0.5,0.6
		c0.3,0.1,0.7,0.2,1,0.2c0.4,0,0.8,0.2,1.1,0.5c0.3,0.4,0.4,0.9,0.2,1.3c-0.1,0.4-0.5,0.8-0.9,1c-0.4,0.2-0.8,0.3-1.2,0.2
		c-0.7-0.1-1.3-0.3-1.9-0.6c-0.4-0.2-0.8-0.4-1.1-0.8c-0.1-0.1-0.2-0.2-0.3-0.4l0.3,0.3c0.3,0.3,0.7,0.5,1.1,0.6
		c0.6,0.3,1.2,0.4,1.9,0.5c0.7,0.1,1.5-0.3,1.7-1c0.1-0.4,0-0.7-0.2-1c-0.2-0.3-0.6-0.4-0.9-0.4c-0.4-0.1-0.7-0.1-1-0.3
		c-0.3-0.1-0.5-0.4-0.6-0.8C-12023.9-14208.6-12023.5-14209.1-12023-14209.5L-12023-14209.5z"/>
	<path id="Path_1217_1_" class="st10" d="M-12022-14204.5c0.1,0,0.3,0.1,0.4,0.2c0.3,0.3,0.5,0.7,0.5,1.1c0,0.7-0.4,1.2-1,1.5
		c-0.7,0.3-1.5,0.4-2.2,0.1c-0.7-0.2-1.3-0.7-1.8-1.3c-0.4-0.5-0.6-1-0.6-1.6c0-0.4,0-0.8,0.1-1.2c0-0.3,0.1-0.4,0.2-0.4
		c-0.1,0.5-0.1,1,0,1.5c0.1,0.6,0.3,1.1,0.7,1.5c0.4,0.5,1,0.9,1.6,1.1c0.6,0.2,1.3,0.2,1.9-0.1c0.5-0.2,0.9-0.7,0.9-1.2
		c0-0.4-0.1-0.7-0.3-1C-12021.8-14204.4-12022-14204.5-12022-14204.5z"/>
	<path id="Path_1218_1_" class="st10" d="M-12015.4-14208.1c0-0.2,0.1-0.5,0.2-0.7c0.3-0.6,0.8-1,1.4-1.3v0.3
		c-0.3-0.1-0.6-0.3-0.9-0.5c-1.1-0.6-2-1.4-2.6-2.5c0.8,0.8,1.8,1.6,2.8,2.2c0.3,0.2,0.6,0.3,0.9,0.5l0.3,0.2l-0.3,0.1
		c-0.5,0.2-1,0.6-1.4,1.1C-12015.3-14208.3-12015.4-14208-12015.4-14208.1z"/>
	<path id="Path_1219_1_" class="st10" d="M-12028.1-14211.9c0.3,0.3,0.5,0.7,0.6,1.1c0.1,0.7-0.3,1.3-0.3,1.2c-0.1,0,0.1-0.5,0-1.2
		C-12027.9-14211.3-12028.1-14211.8-12028.1-14211.9z"/>
	<path id="Path_1220_1_" class="st5" d="M-11969.3-14193.1l26.2-6.1c0,0-1.3,48.1-1.3,48.5s-2.2,1.2-2,4.7l1.9,4.1l57.6,0.8
		l1.5-46.7l5.3-36.2l-12.1-7.5l-4.3-5.8l-16.6,17.5l-4.1-15l0.1-4.4l-4.1,4.5l-22.1,6.4l-29.2,13.7l-19.8-1.5l-5.1,17.3
		L-11969.3-14193.1z"/>
	<path id="Path_1221_1_" class="st4" d="M-11915.4-14225c-0.5,0.3-1,0.8-1.2,1.3c-0.3,0.6-0.4,1.3-0.4,2c0,1-0.1,1.9-0.4,2.8
		l-0.2,0.5l-0.2-0.5c-0.6-1.4-1-2.8-1.3-4.3c-0.7-3-1.2-5.8-1.4-7.7c-0.2-1.1-0.3-2.2-0.3-3.3c0.3,1,0.5,2.1,0.7,3.2
		c0.4,2,0.9,4.7,1.5,7.7c0.3,1.4,0.7,2.8,1.2,4.2h-0.4c0.3-0.8,0.4-1.7,0.4-2.6c0-0.7,0.2-1.4,0.5-2.1c0.2-0.4,0.5-0.8,0.9-1.1
		C-11915.8-14225-11915.6-14225-11915.4-14225L-11915.4-14225z"/>
	<path id="Path_1222_1_" class="st4" d="M-11894.1-14232.4c-0.2,0.3-0.3,0.6-0.6,0.8c-0.4,0.5-0.9,1.2-1.7,2.1
		c-1.4,1.7-3.4,4.1-5.6,6.8l-3.6,4.1l-0.3,0.3l-0.1-0.4c-0.5-2-0.9-3.7-1.2-4.9c-0.1-0.6-0.4-0.9-0.8-0.9c-0.2,0-0.3,0-0.4,0.1
		c0,0,0-0.2,0.4-0.3c0.2,0,0.5,0.1,0.6,0.3c0.2,0.2,0.3,0.5,0.4,0.8c0.3,1.2,0.8,2.9,1.4,4.9l-0.4-0.1l3.5-4.2
		c2.2-2.6,4.3-5,5.8-6.7c0.7-0.9,1.4-1.5,1.8-2C-11894.4-14232.2-11894.1-14232.4-11894.1-14232.4z"/>
	<path id="Path_1223_1_" class="st4" d="M-11918.6-14155.5c0-0.2,0-0.4,0-0.6v-8.4c0-5.6,0.3-13.2,0.9-21.7
		c0.6-8.5,1.5-16.1,2.3-21.6c0.4-2.8,0.7-5,0.9-6.5l0.3-1.8c0-0.2,0.1-0.4,0.1-0.6c0,0.2,0,0.4,0,0.6c0,0.5-0.1,1-0.2,1.8
		c-0.2,1.6-0.5,3.8-0.8,6.5c-0.7,5.5-1.5,13.1-2.1,21.5c-0.6,8.4-0.9,16.1-1.1,21.6c0,2.7-0.1,5-0.2,6.6v1.8
		C-11918.5-14155.9-11918.6-14155.7-11918.6-14155.5z"/>
	<path id="Path_1224_1_" class="st4" d="M-11923.3-14144.2c-0.4-1.3-0.5-2.7-0.4-4.1c0-1.4,0.1-2.8,0.5-4.1c0.1,1.4,0.1,2.8,0,4.1
		C-11923.2-14147-11923.2-14145.6-11923.3-14144.2L-11923.3-14144.2z"/>
	<path id="Path_1225_1_" class="st4" d="M-11899.7-14157.7c-0.5,0.2-1,0.4-1.5,0.5c-0.9,0.3-2.4,0.8-4.1,1.3
		c-4.6,1.3-9.2,2.4-13.9,3.2c-4.7,0.8-9.4,1.4-14.1,1.8c-1.8,0.1-3.3,0.2-4.3,0.2c-0.5,0-1,0-1.5,0c0.5-0.1,1-0.1,1.5-0.2l4.3-0.4
		c3.6-0.3,8.6-0.9,14.1-1.9c5.5-0.9,10.3-2.1,13.9-3l4.2-1.1C-11900.7-14157.5-11900.2-14157.6-11899.7-14157.7L-11899.7-14157.7z"
		/>
	<path id="Path_1226_1_" class="st4" d="M-11943.4-14189c-0.1,0-0.2-6.8-0.2-15.2s0.2-15.2,0.3-15.2s0.2,6.8,0.2,15.2
		S-11943.3-14189-11943.4-14189z"/>
	<path id="Path_1227_1_" class="st5" d="M-11881.3-14224.6c0,0,7.2,6.2,7.7,9.8c0.4,2.7,7.5,28.3,10.6,39.7c1,3.6,0.8,7.4-0.6,10.8
		l-9.3,22.9l-15-8.9l7.5-21.5l-6.2-18.2L-11881.3-14224.6z"/>
	<path id="Path_1228_1_" class="st4" d="M-11872.7-14141.4l-0.3-0.2l-0.8-0.4l-3-1.7l-11-6.4l-0.1-0.1v-0.1l7.4-21.5v0.2l-2.7-7.3
		c-2.2-5.9-4.3-11.5-6.2-16.7l0,0c-1.9-3.6-3.3-7.5-4-11.5c-0.2-1.7-0.2-3.5,0.1-5.2c0.3-1.5,0.8-2.9,1.5-4.2c1-1.8,2.3-3.5,3.9-4.9
		c0.4-0.4,0.9-0.7,1.3-1l0.5-0.3c-0.1,0.1-0.3,0.3-0.4,0.4c-0.3,0.2-0.7,0.6-1.2,1.1c-1.5,1.4-2.7,3-3.7,4.9
		c-0.7,1.3-1.2,2.7-1.4,4.1c-0.3,1.7-0.3,3.4-0.1,5.1c0.7,4,2.1,7.8,4,11.4l0,0l6.2,16.7c0.9,2.5,1.9,5,2.7,7.3v0.2l-7.6,21.5
		l-0.1-0.2l10.9,6.5l3,1.9l0.8,0.5C-11872.8-14141.4-11872.7-14141.4-11872.7-14141.4z"/>
	<g id="Group_3572_1_" transform="translate(-12453.057 -14422.416)" class="st11">
		<path id="Path_1229_1_" d="M541.7,201.2c1,0,2,0.6,2.2,1.6c0,1,0.1,2,0.3,3c0.3,1,1.2,1.9,2.2,1.7c0.6-0.2,1.1-0.6,1.4-1.1
			c2-2.6,3.5-5.5,4.6-8.6c0,0.1-5.2,5.9-5.2,5.9c-0.2-1.5-0.6-2.9-1.1-4.3c-0.2-0.4-0.4-1.2-0.8-1.4c-0.7-0.3-1.6,0.7-2.1,1.3
			C542.8,200,542.3,200.6,541.7,201.2"/>
	</g>
	<g id="Group_3573_1_" transform="translate(-12461.399 -14424.513)" class="st11">
		<path id="Path_1230_1_" d="M541.7,198c0.1,3.3,0.7,6.5,1.9,9.5c0.1,0.3,0.3,0.6,0.5,0.8c0.2,0.2,0.6,0.3,0.9,0.1
			c0.4-0.6,0.7-1.3,0.9-2c0.5-1.3,2.4-1.5,2.4-1.5c-0.3-1.5-0.7-3-1.3-4.4c-0.2-0.5-0.7-0.8-1.2-0.8c-0.7,0.2-1.2,0.8-1.3,1.5
			c-0.1,1.5-0.3,2.9-0.6,4.3c-0.9-2.5-1.6-5.6-2.2-7.8"/>
	</g>
	<g id="Group_3574_1_" transform="translate(-12477.321 -14358.022)" class="st11">
		<path id="Path_1231_1_" d="M571.9,201.8c0.9-0.6,1.1-1.9,0.5-2.8c0,0,0,0,0,0l0,0c-0.7-0.9-1.8-1.3-2.9-1.1
			c-1.1,0.2-2.1,0.6-2.9,1.3c-0.9,0.7-1.7,1.4-2.6,1.9c-2.4,1.3-5,1.9-7.7,1.7c-2.7-0.1-5.3,0-8,0.4c-2.7,0.4-5.1,1.9-6.5,4.2
			C541.7,207.5,564.4,205.8,571.9,201.8z"/>
	</g>
	<path id="Path_1232_1_" class="st9" d="M-11890.6-14122.7c-2.4-1.6-4.5-3.7-6-6.2c0-0.1,0-0.1,0-0.2c-0.1-0.1-0.1-0.1-0.2-0.1
		c-0.6-1-1.2-2-1.7-3c1.9-1.2,4.3-3,1.6-3.4c-3.3-0.5-5.6-2.1-5.9-2.9c-0.2-0.5,0.2-1.1,0.7-1.2c0,0,0,0,0,0c0.3-0.1,0.6,0,0.9,0.2
		c1,0.5,2.1,0.9,3.1,1.1c0.9,0.2,1.8,0.3,2.7,0.2c0.5,0,2.5-1.4,4.6-2.4c0.3-0.1,0.6-0.2,0.9-0.1h0.8c0.9-0.1,1.6-0.6,2-1.3l3-5.8
		l9.1,5.4l-7.2,10C-11884.8-14129.1-11887.6-14125.8-11890.6-14122.7z"/>
	<path id="Path_1233_1_" class="st7" d="M-11888.7-14121.6c-0.7-0.2-1.5-0.5-2.1-1c-1.6-1-3.1-2.2-4.3-3.6c-1.2-1.4-2.3-3-3-4.6
		c-0.4-0.7-0.6-1.4-0.8-2.2C-11896.8-14128.2-11893.2-14124.2-11888.7-14121.6L-11888.7-14121.6z"/>
	<path id="Path_1234_1_" class="st7" d="M-11917.4-14115.8c-0.1,0-0.2,0-0.3-0.1c-0.2-0.1-0.4-0.3-0.6-0.4c-0.7-0.6-1.2-1.4-1.5-2.4
		c-0.4-1.3-0.7-2.6-1-4c-0.3-1.5-0.7-3.2-1-4.9c-0.7-3.5-1.2-6.7-1.5-9c-0.2-1.2-0.3-2.1-0.3-2.7c0-0.3,0-0.7,0-1
		c0.1,0.3,0.2,0.6,0.2,0.9l0.5,2.7c0.4,2.3,1,5.4,1.7,8.9c0.3,1.7,0.7,3.4,1,4.9c0.2,1.3,0.5,2.7,0.9,4c0.2,0.9,0.7,1.7,1.3,2.3
		C-11917.8-14116.2-11917.6-14116-11917.4-14115.8L-11917.4-14115.8z"/>
	<path id="Path_1235_1_" class="st7" d="M-11918.1-14136.6c0.1,0,0.3,0,0.4,0c0.8,0.3,1.3,1.3,0.9,2.2c0,0.1-0.1,0.2-0.2,0.3
		c-0.4,0.6-1.2,0.9-1.9,0.7c-0.7-0.2-1.2-0.8-1.4-1.5c-0.1-0.6,0.2-1.1,0.6-1.5c0.8-0.7,1.5-0.5,1.4-0.4c-0.4,0.1-0.8,0.4-1.2,0.7
		c-0.6,0.6-0.6,1.5,0,2.1c0.6,0.6,1.5,0.6,2.1,0c0,0,0.1-0.1,0.1-0.1c0.3-0.4,0.3-0.9,0.1-1.3
		C-11917.5-14136.5-11918.2-14136.5-11918.1-14136.6z"/>
	<path id="Path_1236_1_" class="st7" d="M-11937.9-14140.3c0.2,0.7,0.3,1.4,0.2,2.1c-0.1,3.6-1.9,6.9-4.8,8.9
		c-0.6,0.4-1.2,0.8-1.9,0.9c0.6-0.4,1.2-0.8,1.7-1.2c2.6-2.2,4.3-5.3,4.6-8.7C-11937.8-14139.5-11937.9-14140.3-11937.9-14140.3z"/>
	<path id="Path_1237_1_" class="st4" d="M-11973.9-14205.5c0.1-1.5,0.2-3.1,0.5-4.6c0.1-1.5,0.3-3.1,0.7-4.6
		c0.1,3.1-0.3,6.2-1.2,9.2V-14205.5z"/>
	<path id="Path_1238_1_" class="st4" d="M-11992.4-14216.1c0,0.1,0,0.2,0,0.3c0,0.3-0.1,0.6-0.2,0.9c-0.2,0.9-0.6,2-1,3.5l-3.7,12.6
		l-0.2-0.3c5.3,1.3,11.6,2.4,18.3,3.6c3.4,0.6,6.6,1.3,9.6,2.1h-0.1l18.8-4.3l5.5-1.2l1.5-0.3c0.2,0,0.4-0.1,0.5-0.1
		c-0.2,0.1-0.3,0.1-0.5,0.2l-1.5,0.4l-5.4,1.4l-18.9,4.4l0,0c-3-0.7-6.2-1.4-9.6-2c-6.7-1.2-13.1-2.3-18.3-3.7h-0.2v-0.2l3.8-12.6
		c0.5-1.5,0.8-2.6,1.1-3.5c0.1-0.4,0.2-0.7,0.3-0.9C-11992.5-14215.9-11992.4-14216-11992.4-14216.1z"/>
	<g id="freepik--character-1--inject-10_1_" transform="translate(-12780.852 -14471.83)">
		<path id="Path_1239_1_" class="st12" d="M552.9,470.7l-2.7,49.7l18,4.3l3.6-48.5L552.9,470.7z"/>
		<path id="Path_1240_1_" class="st8" d="M549.7,519.9l-3.1,13.5h20.7l0.9-8.8L549.7,519.9z"/>
		<path id="Path_1241_1_" class="st4" d="M567.8,531.4c-1,0.2-2,0.2-3,0.2c-1.9,0-4.4,0-7.3-0.1l-7.3-0.3c-1,0-2-0.1-3-0.2
			c1-0.2,2-0.2,3-0.2c1.9,0,4.4,0,7.3,0.1l7.3,0.3C565.7,531.2,566.8,531.3,567.8,531.4z"/>
		<path id="Path_1242_1_" class="st4" d="M559,522.5c0.2,1.4,0.2,2.9,0,4.4c0,1.5-0.2,2.9-0.6,4.3
			C558.2,528.3,558.4,525.4,559,522.5z"/>
		<g id="Group_3575_1_" transform="translate(4.972 333.064)" class="st13">
			<path id="Path_1243_1_" class="st6" d="M541.7,200.3h20.7l0.2-2l-20.5-0.5l-0.4,2.2"/>
		</g>
		<path id="Path_1244_1_" class="st12" d="M621.2,494.8l4.4,32.9l15.9-1.1l-3.3-30.2L621.2,494.8z"/>
		<path id="Path_1245_1_" class="st8" d="M641.7,523L641.7,523c0,0,17.9,6.1,18.2,9.3l-34.2,1l-0.3-8.9l1.3,0.2
			C631.7,525.7,637,525.1,641.7,523z"/>
		<g id="Group_3576_1_" transform="translate(86.746 328.069)" class="st13">
			<path id="Path_1246_1_" class="st6" d="M542.6,197.9c-0.7,0.2-1.1,0.9-0.9,1.6c0.2,0.7,0.9,1,1.5,0.9c0.7-0.3,1.1-1,0.9-1.7
				c-0.3-0.7-1.1-1-1.8-0.8"/>
		</g>
		<g id="Group_3577_1_" transform="translate(83.998 332.729)" class="st13">
			<path id="Path_1247_1_" class="st6" d="M541.7,200.6v-2.8l32.8,0.1c0,0,1.5,0.6,1.4,1.7L541.7,200.6z"/>
		</g>
		<path id="Path_1248_1_" class="st4" d="M642.2,522.9c0,0.2-0.8,0.3-1.6,0.8s-1.2,1.3-1.4,1.2s0-1,1-1.7
			C641.3,522.6,642.3,522.7,642.2,522.9z"/>
		<path id="Path_1249_1_" class="st4" d="M645.9,524.3c0,0.2-0.7,0.5-1.2,1.2s-0.7,1.5-0.9,1.5s-0.3-0.9,0.4-1.9
			S645.9,524.1,645.9,524.3z"/>
		<path id="Path_1250_1_" class="st4" d="M648,528.5c-0.2,0-0.4-0.8,0-1.7s1.2-1.3,1.3-1.2c0.1,0.1-0.4,0.6-0.7,1.4
			C648.3,527.7,648.2,528.5,648,528.5z"/>
		<path id="Path_1251_1_" class="st4" d="M641.9,522.7c-0.6,0.2-1.2,0.2-1.7,0c-0.6-0.1-1.2-0.3-1.8-0.5c-0.3-0.1-0.7-0.3-1-0.5
			c-0.2-0.1-0.4-0.2-0.5-0.4c-0.2-0.2-0.3-0.6-0.1-0.9c0.2-0.2,0.4-0.4,0.7-0.4c0.2,0,0.4,0,0.7,0c0.4,0.1,0.7,0.2,1.1,0.3
			c0.5,0.3,1.1,0.6,1.5,1c0.8,0.7,1.1,1.3,1,1.4c-0.1,0-0.5-0.5-1.3-1c-0.5-0.3-1-0.6-1.5-0.8c-0.3-0.1-0.7-0.2-1-0.3
			c-0.4-0.1-0.7-0.1-0.8,0.1s0,0.1,0,0.2c0.1,0.1,0.2,0.2,0.4,0.3c0.3,0.2,0.6,0.3,0.9,0.5c0.5,0.3,1.1,0.5,1.7,0.6
			C640.7,522.4,641.3,522.5,641.9,522.7z"/>
		<path id="Path_1252_1_" class="st4" d="M641.7,523c-0.3-0.5-0.5-1.1-0.5-1.6c0-0.6,0-1.3,0.2-1.9c0.1-0.4,0.2-0.7,0.4-1
			c0.2-0.5,0.6-0.8,1.1-0.9c0.3,0,0.6,0.2,0.7,0.5c0.1,0.2,0.2,0.4,0.2,0.6c0.1,0.4,0.1,0.8,0,1.2c-0.1,0.6-0.3,1.3-0.7,1.8
			c-0.7,0.9-1.3,1.1-1.4,1.1c0.4-0.4,0.7-0.8,1-1.3c0.3-0.5,0.4-1.1,0.5-1.6c0-0.3,0-0.7,0-1c0-0.4-0.2-0.7-0.3-0.6
			c-0.3,0.1-0.5,0.3-0.6,0.6c-0.2,0.3-0.3,0.6-0.4,0.9c-0.2,0.6-0.3,1.1-0.3,1.7C641.6,522.4,641.8,523,641.7,523z"/>
		<path id="Path_1253_1_" class="st4" d="M566.3,328.3c0,0-12.7,21.1-12.7,33.7l-3.1,153.7l20,4.8l15.2-150.2
			c0,0,36.9,150.6,38.1,150.6s19.3-3.3,19.3-3.3l-27.5-188.7L566.3,328.3z"/>
		<path id="Path_1254_1_" class="st7" d="M574.1,366c0,0.1,0,0.3,0,0.4c0,0.4-0.1,0.8-0.2,1.1c-0.2,1-0.4,2.5-0.7,4.3
			c-0.6,3.8-1.5,9.1-2.5,15.9c-2,13.4-4.6,32.1-6.7,52.8s-3.4,39.5-4.1,53.1c-0.4,6.8-0.6,12.3-0.8,16.1c0,1.9-0.2,3.4-0.2,4.4v1.1
			c0,0.1,0,0.3,0,0.4c0-0.1,0-0.3,0-0.4v-1.1c0-1,0-2.5,0.1-4.4c0.1-3.8,0.3-9.3,0.6-16.1c0.6-13.7,1.9-32.4,4-53.2
			s4.7-39.3,6.9-52.8c1.1-6.7,2-12.2,2.7-15.9c0.3-1.9,0.6-3.3,0.8-4.3c0.1-0.5,0.2-0.9,0.2-1.1C574.1,366.3,574.1,366.1,574.1,366z
			"/>
		<path id="Path_1255_1_" class="st7" d="M605.7,368.6c0.1,0,6.2,33.7,13.6,75.3s13.2,75.4,13.1,75.4c-0.2,0-6.2-33.7-13.7-75.3
			S605.5,368.6,605.7,368.6z"/>
		<path id="Path_1256_1_" class="st7" d="M585,369.9c-0.1-0.1-0.2-0.2-0.2-0.4c-0.1-0.3-0.3-0.6-0.5-1.1c-0.6-1.4-1.1-2.9-1.5-4.3
			c-1.3-4.9-1.8-10-1.4-15c0.1-1.5,0.3-2.9,0.5-4.3c0.2-1.3,0.5-2.6,0.9-3.9c0.7-2.5,1.4-4.6,2.1-6.5s1.2-3.3,1.5-4.3l0.5-1.2
			c0-0.1,0.1-0.3,0.2-0.4c0,0.1,0,0.3-0.1,0.4l-0.4,1.2c-0.4,1.1-0.8,2.6-1.4,4.3s-1.3,4-2,6.5c-0.3,1.2-0.7,2.5-0.9,3.9
			c-0.3,1.4-0.4,2.8-0.5,4.2c-0.4,5,0.1,10,1.3,14.9c0.5,1.9,1,3.3,1.3,4.3C584.5,368.8,584.8,369.4,585,369.9L585,369.9z"/>
		<path id="Path_1257_1_" class="st7" d="M590.6,344.1v0.3c0,0.3,0,0.5,0,0.8c0,1,0,2,0.1,3c0.1,2.6,0.2,6.3,0.4,10.6l-0.1-0.2
			l7.7,3.1h-0.2l6.2-3.8l0.4-0.2L605,358c0.5-5.1,0.9-9.8,1.3-13.9l0.2,0.2l-11.5-0.1L590.6,344.1c0.3,0,0.7,0,1.1,0.1h3.2l11.6-0.1
			h0.2v0.2c-0.4,4.1-0.8,8.9-1.2,13.9v0.1h-0.1l-0.4,0.2l-6.3,3.8l-0.1,0.1h-0.1l-7.6-3.2h-0.1v-0.1c0-4.5-0.1-8.2-0.2-10.8v-3
			C590.6,344.9,590.6,344.5,590.6,344.1z"/>
		<path id="Path_1258_1_" class="st7" d="M561.7,340c0,0.4-0.1,0.7-0.1,1c-0.2,0.7-0.3,1.6-0.4,2.8c-0.4,2.4-0.9,5.8-1.5,9.9
			l-0.1-0.2l5.8,4.3h-0.3l7-2l0.4-0.1l-0.2,0.2c1.4-4.6,2.6-8.9,3.7-12.6l0.2,0.3l-10.4-2.5l-3-0.7C562.4,340.3,562,340.2,561.7,340
			l0.9,0.2l2.9,0.6l10.6,2.3h0.2v0.2l-3.7,12.7v0.1h-0.1l-0.3,0.1l-7.1,1.9H565l-5.8-4.2l-0.1-0.1v-0.1c0.7-4.1,1.4-7.6,1.9-10
			c0.2-1.1,0.4-2.1,0.5-2.8C561.6,340.7,561.6,340.4,561.7,340L561.7,340z"/>
		<path id="Path_1259_1_" class="st7" d="M602,367c-2.8,0.9-5.6,1.5-8.5,2.1c-2.8,0.7-5.7,1.2-8.6,1.6
			C590.6,369.1,596.3,367.9,602,367L602,367z"/>
		<path id="Path_1260_1_" class="st7" d="M577.2,367.6c-0.7,0.1-1.5,0.1-2.2,0c-1.8-0.1-3.5-0.4-5.2-0.8c-1.7-0.4-3.4-0.9-5-1.5
			c-0.7-0.2-1.4-0.5-2-0.9c0.7,0.2,1.4,0.4,2.1,0.6c1.3,0.4,3,0.9,5,1.4s3.8,0.8,5.1,0.9C575.8,367.4,576.5,367.5,577.2,367.6
			L577.2,367.6z"/>
		<path id="Path_1261_1_" class="st4" d="M575,207.5c0.7,2-1.7,3.7-3.7,4.1s-4.6,0.8-5.5,2.7c-0.8,1.6,0,3.7-0.7,5.4
			c-1.4,3.2-7.1,2.5-8.2,5.8c-0.8,2.3,1.3,4.6,1,6.9c-0.2,2-2.1,3.4-3.7,4.6s-3.4,2.9-3,5c0.3,2.4,3.2,4,2.9,6.3s-3.4,3.4-3.8,5.7
			c-0.5,2.7,2.9,4.5,4,7c0.8,1.9,0.3,4.4,1.7,6.1s4,1.3,6.1,0.9l21.1-4.5c-1.4-3.3-0.1-7.2,1.9-10.3s4.8-5.6,6.5-8.7s2.3-7.4,0-10.3
			"/>
		<path id="Path_1262_1_" class="st4" d="M612.2,224.4c-0.1-1.1-0.4-2.2-0.7-3.3c-0.2-0.5-0.5-1-0.8-1.4c-0.4-0.4-0.9-0.1-1.3,0.4
			c-1.2,2.7-1.2,5.8,0,8.6c0.3,0.6,0.9,0.8,1.3,0.4c0.4-0.4,0.7-0.9,0.8-1.4C611.8,226.6,612,225.5,612.2,224.4
			c0.1,0.3,0.1,0.6,0,0.9c0,0.9-0.2,1.7-0.4,2.5c-0.2,0.6-0.5,1.2-0.9,1.6c-0.3,0.3-0.7,0.4-1.1,0.3c-0.4-0.1-0.7-0.4-0.9-0.7
			c-1.4-2.9-1.4-6.2,0-9.1c0.2-0.4,0.5-0.6,0.9-0.8c0.4-0.1,0.8,0,1.1,0.3c0.4,0.4,0.8,1,0.9,1.6c0.2,0.8,0.4,1.6,0.4,2.5
			C612.3,223.7,612.3,224.1,612.2,224.4L612.2,224.4z"/>
		<path id="Path_1263_1_" class="st4" d="M577.7,243.8c-3.8-6.5-4.9-15.1-5.9-22.5c-0.5-3.5-1.2-8.5,1.2-10.6s2.9-6,5.9-7.8
			c3.1-1.9,7-1.9,10,0.1"/>
		<path id="Path_1264_1_" class="st12" d="M588.3,266.7L588.3,266.7c5.7,0.4,10.7-3.8,11.1-9.5c0,0,0,0,0,0c0-0.1,0-0.3,0-0.4
			c0.2-5.7,0.5-11.3,0.5-11.3s8.5-0.8,9.2-9.3s0.4-28,0.4-28l0,0c-9.5-4.8-20.9-4.1-29.8,1.9l0.4,29.8v16
			C580.2,261.2,583,266.3,588.3,266.7z"/>
		<path id="Path_1265_1_" class="st4" d="M600.7,225.9c-1.3-1.9-3.8-2.4-5.8-1.3c-2,1.4-2.6,3.9-1.7,6.1c0.9,1.6,2.4,2.7,4.1,3.1
			c1.6,0.4,2.7,1.9,2.5,3.5c-0.3,2.1-3.8,2.9-5.4,4.6c-2.5,2.7-7.9,3.9-11.6,4.3s-3.2,0.5-5.3-2.5c-1.4-2-2.1-4.4-2-6.9l-0.3-18.7
			c-0.2-2.2,0-4.5,0.4-6.7c0.4-2.2,1.7-4.2,3.6-5.6c2.1-1.4,4.6-1.5,7-2.2c2.9-0.9,5.4-2.9,8.2-4.3s6.1-2.2,8.9-0.8
			c2,1,3.3,3,5.2,4.1c2.7,1.5,6.5,1.2,7.8,5.2c0.5,1.4,0.5,2.9,0,4.3c-1.9,5.5-8.7,7.6-13.5,5.3c0.4,2,0.3,4-0.2,5.9
			c-0.3,0.9-0.4,2.4-1.9,2.4"/>
		<path id="Path_1266_1_" class="st14" d="M599.2,231.2c0,0.1,0,0.3-0.1,0.4c-0.2,0.3-0.6,0.5-0.9,0.5c-1.2-0.1-2.2-1.1-2.2-2.3
			c0-0.7,0.2-1.3,0.6-1.8c0.4-0.4,0.8-0.7,1.3-0.8c0.9-0.2,1.4,0.2,1.3,0.2c-0.4,0-0.8,0.1-1.2,0.2c-0.9,0.3-1.5,1.1-1.5,2.1
			c0,0.9,0.6,1.7,1.5,1.9C598.4,231.6,598.9,231.4,599.2,231.2z"/>
		<path id="Path_1267_1_" class="st4" d="M612.2,224c-1.8,0.6-3.8,1-5.7,1.2c-1.9,0.4-3.8,0.6-5.8,0.7c1.9-0.6,3.8-1,5.7-1.2
			C608.3,224.3,610.3,224.1,612.2,224L612.2,224z"/>
		<path id="Path_1268_1_" class="st4" d="M578.3,252.1c0.6,1.1,1.8,1.6,2.9,1.2c1.1-0.4,2.1-1.1,2.8-1.9c0.8-0.9,1.7-1.5,2.8-2
			c2.3-0.7,5,0.8,6.9-0.6s1.5-4.2,3.2-5.5c0.9-0.7,2.2-0.8,3-1.5c1.7-1.3,1.4-4.1,0-5.7c-1.6-1.4-3.5-2.4-5.7-2.8l-18.2,7.7
			L578.3,252.1z"/>
		<path id="Path_1269_1_" class="st7" d="M600,219.2l-0.1,0.1c-0.2,0.1-0.3,0.2-0.5,0.3c-0.6,0.3-1.3,0.5-2,0.7
			c-1.1,0.3-2.2,0.4-3.3,0.5c-1.5,0.1-2.9,0.3-4.3,0.6c-1.7,0.3-3.3,1.2-4.6,2.5c-1.2,1.4-1.7,3.4-2.6,5.4c-0.5,1-1.2,2-2.1,2.7
			c-1,0.7-2,1.2-3.2,1.5c-2.2,0.7-4.7,1.2-6.6,2.8c-0.9,0.8-1.5,1.9-1.7,3c-0.1,1.2-0.1,2.4,0,3.5c0.3,2.4-1,4.7-3.1,5.8
			c-1.9,1.1-3.9,1.7-5.5,2.7c-0.8,0.5-1.4,1.1-2,1.8c-0.4,0.7-0.7,1.5-0.7,2.3c0,1.5,0.2,2.9,0.6,4.3c0.3,1.1,0.4,2.2,0.3,3.3
			c0,0.7-0.2,1.4-0.6,2c-0.1,0.2-0.3,0.4-0.5,0.6c0.5-0.8,0.8-1.7,0.9-2.6c0-1.1-0.1-2.2-0.4-3.3c-0.4-1.4-0.7-2.9-0.7-4.4
			c0-0.9,0.3-1.8,0.8-2.5c0.5-0.8,1.2-1.5,2.1-2c1.7-1.1,3.7-1.7,5.5-2.8c2-1,3.1-3.2,2.9-5.4c-0.1-1.2-0.1-2.4,0-3.6
			c0.2-1.3,0.9-2.5,1.9-3.3c2-1.7,4.6-2.1,6.7-2.9c1.1-0.3,2.1-0.9,3-1.5c0.9-0.7,1.5-1.5,2-2.5c0.9-1.9,1.4-4,2.8-5.5
			c1.3-1.3,2.9-2.2,4.7-2.5c1.5-0.3,2.9-0.5,4.4-0.5c1.1-0.1,2.2-0.2,3.3-0.4C598.3,219.9,599.2,219.6,600,219.2z"/>
		<path id="Path_1270_1_" class="st7" d="M595,222.3c-0.6,0-1.2,0.1-1.8,0.2c-1.6,0.4-3,1.2-4.1,2.4c-0.7,0.8-1.3,1.8-1.6,2.9
			c-0.3,1.2-0.4,2.5-0.3,3.8c0.1,1.5-0.1,3-0.6,4.3c-0.3,0.7-0.9,1.3-1.5,1.8c-0.7,0.4-1.3,0.8-2,1.1c-0.7,0.3-1.3,0.7-1.8,1.3
			c-0.4,0.6-0.7,1.2-0.7,1.9c0.1,1.5,0,2.9-0.5,4.3c-0.7,1.2-1.6,2.1-2.8,2.8c-1.1,0.6-2.1,1.1-3,1.6c-0.8,0.4-1.5,1-2.1,1.7
			c-0.4,0.5-0.8,1.2-0.9,1.9c-0.1,0.6-0.1,1.2,0,1.7c-0.1-0.1-0.2-0.3-0.2-0.4c-0.1-0.5-0.1-0.9,0-1.4c0.1-0.7,0.4-1.4,0.9-2
			c0.6-0.7,1.3-1.4,2.1-1.9c0.9-0.6,1.9-1.1,2.9-1.7c1.1-0.6,2-1.5,2.6-2.6c0.4-1.3,0.6-2.8,0.4-4.1c0-0.8,0.3-1.6,0.8-2.3
			c0.6-0.6,1.2-1.1,2-1.4c1.4-0.5,2.6-1.4,3.4-2.7c0.5-1.3,0.7-2.7,0.6-4.1c-0.1-1.3,0.1-2.7,0.4-3.9c0.3-1.1,0.9-2.2,1.8-3
			c1.2-1.2,2.7-2.1,4.3-2.4c0.4-0.1,0.9-0.1,1.4-0.1C594.8,222.2,594.9,222.2,595,222.3L595,222.3z"/>
		<path id="Path_1271_1_" class="st5" d="M602,253.4l-2.2-4.5l-19.1-0.7l-3,5.9h24"/>
		<path id="Path_1272_1_" class="st7" d="M667.7,294.3c-0.1-0.7,5-27.7,6.5-35.1c0.2-0.8-0.3-1.6-1.1-1.8c0,0-0.1,0-0.1,0h-38.6
			c-0.7,0-1.4,0.5-1.5,1.2l-7.8,33l-19.3,1.4l0.7,1.3L667.7,294.3z"/>
		<path id="Path_1273_1_" class="st0" d="M666,291.9l6.2-32.7l-37.6,0.2l-8.3,32.5L666,291.9z"/>
		<path id="Path_1274_1_" class="st4" d="M626.3,291.9L626.3,291.9l8.3-32.5l0,0l37.7-0.2l0,0l-6.2,32.7l0,0L626.3,291.9z
			 M634.6,259.4l-8.3,32.5H666l6.2-32.7L634.6,259.4z"/>
		<path id="Path_1275_1_" class="st4" d="M666,292.1c0,0.1-11,0.2-24.6,0.2s-24.6-0.1-24.6-0.2s11-0.2,24.6-0.2S666,292,666,292.1z"
			/>
		<path id="Path_1276_1_" class="st7" d="M663.4,283.8c-0.2,0-0.3,0-0.5,0h-6.6c-4.4,0-10.4,0.1-17.1,0.1h-5.8v-0.3
			c1.3-5.2,2.5-9.6,3.3-13l1-3.8c0.1-0.5,0.2-0.9,0.4-1.4c-0.1,0.5-0.2,0.9-0.3,1.4c-0.2,0.9-0.5,2.2-0.9,3.8
			c-0.8,3.3-1.9,7.8-3.2,13l-0.2-0.3h5.5c6.7,0,12.7,0,17.1,0.1l5.2,0.1h1.4C663,283.6,663.2,283.7,663.4,283.8z"/>
		<path id="Path_1277_1_" class="st5" d="M636.1,282.6l0.7-3.1h4.8l-0.6,3.1H636.1z"/>
		<path id="Path_1278_1_" class="st5" d="M642.7,282.6l1.5-6.2h4.8l-1.4,6.2H642.7z"/>
		<path id="Path_1279_1_" class="st5" d="M649.3,282.6l0.7-3.1h4.8l-0.6,3.1H649.3z"/>
		<path id="Path_1280_1_" class="st5" d="M655.9,282.6l2.8-12.1h4.8l-2.7,12.1H655.9z"/>
		<path id="Path_1281_1_" class="st7" d="M639.9,286.1c-0.6,0.2-1.3,0.3-2,0.2c-1.1,0-1.9-0.1-1.9-0.3
			C637.3,285.8,638.6,285.8,639.9,286.1L639.9,286.1z"/>
		<path id="Path_1282_1_" class="st7" d="M646.3,286.1c-0.6,0.2-1.3,0.3-2,0.2c-0.7,0.1-1.3,0-2-0.3
			C643.7,285.7,645,285.7,646.3,286.1L646.3,286.1z"/>
		<path id="Path_1283_1_" class="st7" d="M652.7,286.1c-0.6,0.2-1.3,0.3-2,0.2c-0.7,0.1-1.3,0-1.9-0.3c0.6-0.2,1.3-0.3,2-0.2
			C651.4,285.8,652.1,285.8,652.7,286.1z"/>
		<path id="Path_1284_1_" class="st7" d="M659.1,286.1c-1.3,0.3-2.6,0.3-3.9,0C656.5,285.8,657.8,285.8,659.1,286.1z"/>
		<path id="Path_1285_1_" class="st7" d="M649.7,264.3c-3.6,0.3-7.2,0.3-10.8,0C642.4,263.9,646.1,263.9,649.7,264.3z"/>
		<path id="Path_1286_1_" class="st7" d="M644,262.9c-1.6,0.3-3.2,0.3-4.8,0C640.8,262.6,642.4,262.6,644,262.9z"/>
		<path id="Path_1287_1_" class="st5" d="M633.6,314.2l22.1-16l-0.8-1.3c-1.2-2-3-3.5-5.2-4.3l-3.5,0.6l-20.5,3.1L633.6,314.2z"/>
		<path id="Path_1288_1_" class="st5" d="M554.9,310.5l18.4-7.3l-4.1-15.2l-15,5.1L554.9,310.5z"/>
		<path id="Path_1289_1_" class="st5" d="M632.8,314.6c4.6-2.3,5.8-7.7,3.5-12.3l-19-40.8c-0.4-1-1.1-1.9-1.9-2.6
			c-4.3-3.8-10-5.8-15.8-5.4l-19.9-0.5c0,0-15.6,0-21.5,12.3c-0.4,0.9-9.5,18.9-15.5,30.8c-2.5,5.1-0.5,11.2,4.5,13.8c0,0,0,0,0,0
			c0.4,0.2,0.7,0.3,1.1,0.5l0,0c5.1,1.9,10.7-0.5,12.9-5.4l6.5-14.5l4,20.8l-5.9,17.2l49.3,0.7l-3.8-22.9l-1.2-16.3l10,20.6
			c2.2,4.6,7.7,6.6,12.4,4.4c0,0,0,0,0,0L632.8,314.6L632.8,314.6z"/>
		<g id="Group_3578_1_" transform="translate(31.6 97.899)" class="st15">
			<path id="Path_1290_1_" d="M541.9,212.8c3.7,2.8,9.2,1.9,13.8,1.1c4.7-0.7,8.9-3,12.1-6.5c1.5-1.5,2.3-3.6,2.2-5.7
				c-0.1-2.2-1.9-3.9-4.1-3.9c-2.4,0.3-3.5,3-4.6,5.1c-3.9,6.8-11.6,10.4-19.2,9C542.1,212,541.3,212.3,541.9,212.8z"/>
		</g>
		<g id="Group_3579_1_" transform="translate(62.3 80.76)" class="st15">
			<path id="Path_1291_1_" d="M541.7,197.9c1.2,9.4,0.6,8.7,2.6,17.9c0.9,4.6,2.1,9.3,5.3,12.7l-1.5-19.6L541.7,197.9z"/>
		</g>
		<path id="Path_1292_1_" class="st5" d="M566,328.2l-1.4-4.1l3.7-2.4l45.2-3.7l3.2,6l-1.4,5L566,328.2z"/>
		<path id="Path_1293_1_" class="st4" d="M575.3,250.6c-3.5,1.4-5.2,5.3-3.8,8.7c0.2,0.5,0.4,0.9,0.7,1.3c0.5,0.5,0.8,1.2,0.9,1.9
			c-0.1,1.7-2.8,1.7-3.6,3.2c-0.5,1.1-0.2,2.3,0.7,3c0.9,0.7,1.8,1.3,2.8,1.9c1,0.6,1.6,1.6,1.7,2.7c0.9,0,1.5-1.2,1.4-2.1
			c-0.3-0.9-0.6-1.8-1.2-2.6c-0.5-0.8-0.6-1.8-0.1-2.7c0.6-0.9,1.9-0.9,2.9-1.3c2-0.9,2.9-3.2,2.1-5.2c-0.6-1.4-2-2.7-1.3-4
			c0.4-0.7,1.3-1,2-1.4c2.5-1.4,3.4-4.5,2-7c-0.4-0.6-0.8-1.1-1.4-1.5"/>
		<path id="Path_1294_1_" class="st4" d="M567.7,292.3c-0.3,0.8-0.6,1.6-1,2.3c-0.7,1.4-1.7,3.3-2.9,5.3s-2.4,3.8-3.3,5.1
			c-0.4,0.7-0.9,1.4-1.5,2c0.3-0.8,0.8-1.5,1.3-2.2c0.8-1.3,2-3.1,3.2-5.2s2.2-3.9,3-5.3C566.8,293.7,567.2,293,567.7,292.3
			L567.7,292.3z"/>
		<path id="Path_1295_1_" class="st4" d="M563.3,300.1c0.3,2.3-0.5,4.7-2.1,6.4c-0.1-0.1,0.7-1.4,1.3-3.1S563.2,300.1,563.3,300.1z"
			/>
		<path id="Path_1296_1_" class="st4" d="M635.6,300.8c-0.1,0-4-8-8.6-18s-8.3-18.2-8.2-18.2s4,8,8.6,18S635.7,300.7,635.6,300.8z"
			/>
		<path id="Path_1297_1_" class="st4" d="M612.1,259.1c0,0.1-0.8,0.4-2.1,1.1c-3.3,2-5.4,5.3-6,9.1c-0.2,1.4-0.1,2.3-0.2,2.4
			c-0.2-0.8-0.2-1.6-0.1-2.4c0.4-3.9,2.6-7.4,6.1-9.4C610.5,259.6,611.2,259.3,612.1,259.1L612.1,259.1z"/>
		<path id="Path_1298_1_" class="st4" d="M571.8,311.3c-0.1,0-2.4-9.4-5-21.1s-4.7-21.2-4.5-21.2s2.3,9.4,5,21.1
			S571.9,311.3,571.8,311.3z"/>
		<path id="Path_1299_1_" class="st12" d="M655.7,298.1l9-3.9h-12l2.6,3.4"/>
		<path id="Path_1300_1_" class="st4" d="M637.3,299.1c-0.8-0.6-1.5-1.3-2.2-2.1c-0.8-0.6-1.5-1.3-2.1-2.1c0.9,0.4,1.8,1,2.4,1.8
			C636.2,297.4,636.9,298.2,637.3,299.1z"/>
		<path id="Path_1301_1_" class="st4" d="M620.7,311.1c-0.3-0.4-0.5-0.8-0.8-1.2c-0.5-0.8-1.1-2-1.9-3.5c-1.5-3-3.6-7.1-5.9-11.7
			s-4.3-8.7-5.9-11.7c-0.7-1.4-1.4-2.6-1.9-3.5c-0.2-0.4-0.5-0.9-0.6-1.3c0.3,0.4,0.6,0.8,0.8,1.2c0.5,0.8,1.2,2,2,3.4
			c1.6,2.9,3.8,7.1,6.1,11.7s4.3,8.7,5.8,11.8l1.7,3.6C620.4,310.1,620.6,310.6,620.7,311.1L620.7,311.1z"/>
		<path id="Path_1302_1_" class="st4" d="M602.9,298.4v0.3c0,0.3-0.1,0.6-0.2,0.9c-0.3,1.1-0.7,2.2-1.2,3.2
			c-1.9,3.3-4.9,5.9-8.4,7.4c-3.5,1.5-7.1,2.4-10.9,2.7c-1.4,0.2-2.6,0.2-3.4,0.3c-0.4,0-0.8,0-1.2,0c0.4-0.1,0.8-0.2,1.2-0.2
			l3.4-0.5c3.7-0.4,7.2-1.4,10.6-2.8c3.4-1.5,6.3-4,8.2-7.1C601.9,301.4,602.5,300,602.9,298.4L602.9,298.4z"/>
		<path id="Path_1303_1_" class="st4" d="M593,322.4c0,0.1-6.1,0.7-13.7,1.2s-13.7,0.9-13.7,0.7s6.1-0.7,13.7-1.2
			S593,322.2,593,322.4z"/>
		<path id="Path_1304_1_" class="st4" d="M600.9,318.7c1,3,1.3,6.2,1,9.4c-0.1,0-0.2-2.1-0.5-4.6C601.2,321.8,601,320.3,600.9,318.7
			L600.9,318.7z"/>
		<path id="Path_1305_1_" class="st4" d="M604.1,315.7c0.2,0.6,0.4,1.2,0.4,1.9c0.4,3.1,0.2,6.1-0.6,9.1c-0.1,0.6-0.4,1.2-0.7,1.8
			c-0.2,0,0.7-2.8,0.9-6.4S603.9,315.8,604.1,315.7z"/>
		<path id="Path_1306_1_" class="st4" d="M602,253.8c-6.6,0-13.2-0.4-19.8-1.1c0-0.1,4.4,0,9.9,0.3S602,253.6,602,253.8z"/>
	</g>
	<g id="freepik--Clock--inject-10_1_" transform="translate(-12734.489 -14538.885)">
		<ellipse id="Ellipse_185_1_" class="st2" cx="561.9" cy="218.3" rx="20.2" ry="20.2"/>
		<path id="Path_1307_1_" class="st4" d="M541.7,216.9c0,0.1,0,0.2,0,0.3v1.6c0,0.3,0,0.6,0,0.8c0.1,0.7,0.2,1.4,0.3,2.1
			c0.4,1.9,1,3.8,2,5.5c4.4,8.5,14.2,12.8,23.4,10c0.9-0.3,1.8-0.6,2.7-1c0.9-0.4,1.7-0.9,2.5-1.4c0.8-0.5,1.6-1.1,2.4-1.8
			c0.8-0.7,1.5-1.4,2.1-2.1c4.2-5,5.7-11.6,4.1-17.9c-0.5-2-1.4-3.9-2.5-5.7c-0.5-0.9-1.2-1.7-1.8-2.4c-0.7-0.7-1.4-1.4-2.1-2.1
			c-1.4-1.3-3.1-2.3-4.9-3c-8.8-3.9-19.1-1-24.5,6.9c-1.1,1.6-2,3.3-2.6,5.2c-0.2,0.7-0.4,1.4-0.6,2.1c0,0.3-0.1,0.6-0.2,0.8
			c0,0.2,0,0.5-0.1,0.7c-0.1,0.3-0.1,0.6-0.1,0.9C541.8,216.7,541.8,216.8,541.7,216.9c0-0.1,0-0.3,0.1-0.4c0-0.3,0-0.6,0.1-0.9
			c0-0.2,0-0.5,0.1-0.7c0-0.3,0.1-0.6,0.2-0.8c0.1-0.7,0.3-1.4,0.5-2.1c0.6-1.9,1.4-3.7,2.5-5.3c5.5-8.1,16-11.1,24.9-7.2
			c0.9,0.4,1.8,0.8,2.6,1.3c0.8,0.5,1.6,1.1,2.4,1.8c1.6,1.3,3,2.8,4,4.6c4.8,7.5,4.2,17.2-1.5,24c-0.7,0.8-1.4,1.5-2.2,2.2
			c-0.8,0.7-1.6,1.3-2.4,1.9c-0.8,0.5-1.7,1-2.6,1.4c-9.9,4.4-21.6,0.3-26.5-9.4c-0.9-1.7-1.5-3.6-1.9-5.6c-0.1-0.7-0.2-1.4-0.3-2.1
			c0-0.3,0-0.6,0-0.9v-1.6C541.7,217.1,541.7,217,541.7,216.9z"/>
		<path id="Path_1308_1_" class="st4" d="M571,218.9c-0.2,0-0.5,0-0.7,0h-8.7v-11.1c0-0.3,0-0.6,0-0.8c0,0.3,0,0.6,0,0.8v11
			l-0.1-0.1h8.6C570.4,218.7,570.7,218.8,571,218.9z"/>
		<path id="Path_1309_1_" class="st4" d="M561.8,201.4c0.2,1.1,0.2,2.3,0,3.4c-0.1-0.6-0.2-1.1-0.1-1.7
			C561.6,202.5,561.7,202,561.8,201.4z"/>
		<path id="Path_1310_1_" class="st4" d="M571,204.1c-0.3,0.5-0.7,0.9-1.1,1.3c-0.4,0.4-0.8,0.8-1.3,1.1c0.3-0.5,0.7-0.9,1.1-1.3
			C570,204.8,570.5,204.4,571,204.1z"/>
		<path id="Path_1311_1_" class="st4" d="M576.4,209.9c-0.4,0.4-0.9,0.7-1.4,0.9c-0.5,0.3-1,0.6-1.5,0.8c0.4-0.4,0.8-0.8,1.3-1
			C575.3,210.3,575.8,210.1,576.4,209.9L576.4,209.9z"/>
		<path id="Path_1312_1_" class="st4" d="M579.5,218.7c-1.5,0.2-3,0.2-4.6,0C576.5,218.5,578,218.5,579.5,218.7z"/>
		<path id="Path_1313_1_" class="st4" d="M547.5,218.4c-0.7,0.1-1.5,0.2-2.2,0.1c-0.7,0-1.4,0-2.2-0.1c0.7-0.1,1.5-0.2,2.2-0.1
			C546,218.2,546.8,218.3,547.5,218.4z"/>
		<path id="Path_1314_1_" class="st4" d="M549.7,224.9c-0.5,0.6-1,1.1-1.7,1.5c-0.6,0.5-1.2,0.9-1.8,1.3c0.5-0.6,1.1-1.1,1.7-1.5
			C548.5,225.7,549.1,225.2,549.7,224.9z"/>
		<path id="Path_1315_1_" class="st4" d="M555.3,229.9c-0.7,1.3-1.4,2.6-2.3,3.8c0.2-0.7,0.5-1.4,1-2.1
			C554.4,231,554.8,230.4,555.3,229.9z"/>
		<path id="Path_1316_1_" class="st4" d="M561.8,236.4c-0.1-0.8-0.2-1.5-0.1-2.3c0-0.8,0-1.5,0.1-2.3c0.1,0.8,0.2,1.5,0.1,2.3
			C562,234.8,561.9,235.6,561.8,236.4z"/>
		<path id="Path_1317_1_" class="st4" d="M571.8,233.3c-0.7-0.3-1.3-0.7-1.9-1.3c-0.6-0.5-1.1-1.1-1.5-1.7c0.6,0.5,1.2,1,1.7,1.5
			C570.7,232.3,571.2,232.8,571.8,233.3L571.8,233.3z"/>
		<path id="Path_1318_1_" class="st4" d="M576.5,228.3c-0.6-0.4-1.1-0.8-1.5-1.4c-0.5-0.5-1-1-1.4-1.5
			C574.7,226.2,575.7,227.2,576.5,228.3L576.5,228.3z"/>
		<path id="Path_1319_1_" class="st4" d="M549.5,212.2c-1-0.7-1.8-1.6-2.5-2.5c0.5,0.3,1,0.7,1.4,1.2
			C548.8,211.2,549.2,211.7,549.5,212.2z"/>
		<path id="Path_1320_1_" class="st4" d="M555.3,206.1c-0.5-0.3-0.9-0.7-1.3-1.1c-0.5-0.4-0.8-0.8-1.1-1.3c0.5,0.3,0.9,0.7,1.3,1.1
			C554.6,205.2,555,205.6,555.3,206.1z"/>
	</g>
</g>
</svg>
